<svg xmlns="http://www.w3.org/2000/svg" xmlns:xlink="http://www.w3.org/1999/xlink" width="600" height="400" viewBox="0 0 2400 1600">
<defs>
  <clipPath id="clip880">
    <rect x="0" y="0" width="2400" height="1600"></rect>
  </clipPath>
</defs>
<path clip-path="url(#clip880)" d="M0 1600 L2400 1600 L2400 0 L0 0  Z" fill="#ffffff" fill-rule="evenodd" fill-opacity="1"></path>
<defs>
  <clipPath id="clip881">
    <rect x="480" y="0" width="1681" height="1600"></rect>
  </clipPath>
</defs>
<path clip-path="url(#clip880)" d="M178.867 1486.45 L2352.76 1486.45 L2352.76 47.2441 L178.867 47.2441  Z" fill="#ffffff" fill-rule="evenodd" fill-opacity="1"></path>
<defs>
  <clipPath id="clip882">
    <rect x="178" y="47" width="2175" height="1440"></rect>
  </clipPath>
</defs>
<polyline clip-path="url(#clip882)" style="stroke:#000000; stroke-linecap:round; stroke-linejoin:round; stroke-width:2; stroke-opacity:0.1; fill:none" points="240.392,1486.45 240.392,47.2441 "></polyline>
<polyline clip-path="url(#clip882)" style="stroke:#000000; stroke-linecap:round; stroke-linejoin:round; stroke-width:2; stroke-opacity:0.1; fill:none" points="924.005,1486.45 924.005,47.2441 "></polyline>
<polyline clip-path="url(#clip882)" style="stroke:#000000; stroke-linecap:round; stroke-linejoin:round; stroke-width:2; stroke-opacity:0.1; fill:none" points="1607.62,1486.45 1607.62,47.2441 "></polyline>
<polyline clip-path="url(#clip882)" style="stroke:#000000; stroke-linecap:round; stroke-linejoin:round; stroke-width:2; stroke-opacity:0.1; fill:none" points="2291.23,1486.45 2291.23,47.2441 "></polyline>
<polyline clip-path="url(#clip882)" style="stroke:#000000; stroke-linecap:round; stroke-linejoin:round; stroke-width:2; stroke-opacity:0.1; fill:none" points="178.867,1394.92 2352.76,1394.92 "></polyline>
<polyline clip-path="url(#clip882)" style="stroke:#000000; stroke-linecap:round; stroke-linejoin:round; stroke-width:2; stroke-opacity:0.1; fill:none" points="178.867,1076.16 2352.76,1076.16 "></polyline>
<polyline clip-path="url(#clip882)" style="stroke:#000000; stroke-linecap:round; stroke-linejoin:round; stroke-width:2; stroke-opacity:0.1; fill:none" points="178.867,757.388 2352.76,757.388 "></polyline>
<polyline clip-path="url(#clip882)" style="stroke:#000000; stroke-linecap:round; stroke-linejoin:round; stroke-width:2; stroke-opacity:0.1; fill:none" points="178.867,438.62 2352.76,438.62 "></polyline>
<polyline clip-path="url(#clip882)" style="stroke:#000000; stroke-linecap:round; stroke-linejoin:round; stroke-width:2; stroke-opacity:0.1; fill:none" points="178.867,119.853 2352.76,119.853 "></polyline>
<polyline clip-path="url(#clip880)" style="stroke:#000000; stroke-linecap:round; stroke-linejoin:round; stroke-width:4; stroke-opacity:1; fill:none" points="178.867,1486.45 2352.76,1486.45 "></polyline>
<polyline clip-path="url(#clip880)" style="stroke:#000000; stroke-linecap:round; stroke-linejoin:round; stroke-width:4; stroke-opacity:1; fill:none" points="240.392,1486.45 240.392,1467.55 "></polyline>
<polyline clip-path="url(#clip880)" style="stroke:#000000; stroke-linecap:round; stroke-linejoin:round; stroke-width:4; stroke-opacity:1; fill:none" points="924.005,1486.45 924.005,1467.55 "></polyline>
<polyline clip-path="url(#clip880)" style="stroke:#000000; stroke-linecap:round; stroke-linejoin:round; stroke-width:4; stroke-opacity:1; fill:none" points="1607.62,1486.45 1607.62,1467.55 "></polyline>
<polyline clip-path="url(#clip880)" style="stroke:#000000; stroke-linecap:round; stroke-linejoin:round; stroke-width:4; stroke-opacity:1; fill:none" points="2291.23,1486.45 2291.23,1467.55 "></polyline>
<path clip-path="url(#clip880)" d="M240.392 1517.37 Q236.781 1517.37 234.952 1520.93 Q233.146 1524.47 233.146 1531.6 Q233.146 1538.71 234.952 1542.27 Q236.781 1545.82 240.392 1545.82 Q244.026 1545.82 245.832 1542.27 Q247.66 1538.71 247.66 1531.6 Q247.66 1524.47 245.832 1520.93 Q244.026 1517.37 240.392 1517.37 M240.392 1513.66 Q246.202 1513.66 249.257 1518.27 Q252.336 1522.85 252.336 1531.6 Q252.336 1540.33 249.257 1544.94 Q246.202 1549.52 240.392 1549.52 Q234.582 1549.52 231.503 1544.94 Q228.447 1540.33 228.447 1531.6 Q228.447 1522.85 231.503 1518.27 Q234.582 1513.66 240.392 1513.66 Z" fill="#000000" fill-rule="nonzero" fill-opacity="1"></path><path clip-path="url(#clip880)" d="M914.387 1544.91 L922.026 1544.91 L922.026 1518.55 L913.715 1520.21 L913.715 1515.95 L921.979 1514.29 L926.655 1514.29 L926.655 1544.91 L934.294 1544.91 L934.294 1548.85 L914.387 1548.85 L914.387 1544.91 Z" fill="#000000" fill-rule="nonzero" fill-opacity="1"></path><path clip-path="url(#clip880)" d="M1602.27 1544.91 L1618.59 1544.91 L1618.59 1548.85 L1596.65 1548.85 L1596.65 1544.91 Q1599.31 1542.16 1603.89 1537.53 Q1608.5 1532.88 1609.68 1531.53 Q1611.92 1529.01 1612.8 1527.27 Q1613.71 1525.51 1613.71 1523.82 Q1613.71 1521.07 1611.76 1519.33 Q1609.84 1517.6 1606.74 1517.6 Q1604.54 1517.6 1602.09 1518.36 Q1599.65 1519.13 1596.88 1520.68 L1596.88 1515.95 Q1599.7 1514.82 1602.15 1514.24 Q1604.61 1513.66 1606.65 1513.66 Q1612.02 1513.66 1615.21 1516.35 Q1618.4 1519.03 1618.4 1523.52 Q1618.4 1525.65 1617.59 1527.57 Q1616.81 1529.47 1614.7 1532.07 Q1614.12 1532.74 1611.02 1535.95 Q1607.92 1539.15 1602.27 1544.91 Z" fill="#000000" fill-rule="nonzero" fill-opacity="1"></path><path clip-path="url(#clip880)" d="M2295.48 1530.21 Q2298.83 1530.93 2300.71 1533.2 Q2302.61 1535.47 2302.61 1538.8 Q2302.61 1543.92 2299.09 1546.72 Q2295.57 1549.52 2289.09 1549.52 Q2286.91 1549.52 2284.6 1549.08 Q2282.31 1548.66 2279.85 1547.81 L2279.85 1543.29 Q2281.8 1544.43 2284.11 1545.01 Q2286.43 1545.58 2288.95 1545.58 Q2293.35 1545.58 2295.64 1543.85 Q2297.96 1542.11 2297.96 1538.8 Q2297.96 1535.75 2295.8 1534.03 Q2293.67 1532.3 2289.85 1532.3 L2285.83 1532.3 L2285.83 1528.45 L2290.04 1528.45 Q2293.49 1528.45 2295.32 1527.09 Q2297.15 1525.7 2297.15 1523.11 Q2297.15 1520.45 2295.25 1519.03 Q2293.37 1517.6 2289.85 1517.6 Q2287.93 1517.6 2285.73 1518.01 Q2283.53 1518.43 2280.9 1519.31 L2280.9 1515.14 Q2283.56 1514.4 2285.87 1514.03 Q2288.21 1513.66 2290.27 1513.66 Q2295.59 1513.66 2298.7 1516.09 Q2301.8 1518.5 2301.8 1522.62 Q2301.8 1525.49 2300.15 1527.48 Q2298.51 1529.45 2295.48 1530.21 Z" fill="#000000" fill-rule="nonzero" fill-opacity="1"></path><polyline clip-path="url(#clip880)" style="stroke:#000000; stroke-linecap:round; stroke-linejoin:round; stroke-width:4; stroke-opacity:1; fill:none" points="178.867,1486.45 178.867,47.2441 "></polyline>
<polyline clip-path="url(#clip880)" style="stroke:#000000; stroke-linecap:round; stroke-linejoin:round; stroke-width:4; stroke-opacity:1; fill:none" points="178.867,1394.92 197.764,1394.92 "></polyline>
<polyline clip-path="url(#clip880)" style="stroke:#000000; stroke-linecap:round; stroke-linejoin:round; stroke-width:4; stroke-opacity:1; fill:none" points="178.867,1076.16 197.764,1076.16 "></polyline>
<polyline clip-path="url(#clip880)" style="stroke:#000000; stroke-linecap:round; stroke-linejoin:round; stroke-width:4; stroke-opacity:1; fill:none" points="178.867,757.388 197.764,757.388 "></polyline>
<polyline clip-path="url(#clip880)" style="stroke:#000000; stroke-linecap:round; stroke-linejoin:round; stroke-width:4; stroke-opacity:1; fill:none" points="178.867,438.62 197.764,438.62 "></polyline>
<polyline clip-path="url(#clip880)" style="stroke:#000000; stroke-linecap:round; stroke-linejoin:round; stroke-width:4; stroke-opacity:1; fill:none" points="178.867,119.853 197.764,119.853 "></polyline>
<path clip-path="url(#clip880)" d="M50.9921 1395.37 L80.6679 1395.37 L80.6679 1399.31 L50.9921 1399.31 L50.9921 1395.37 Z" fill="#000000" fill-rule="nonzero" fill-opacity="1"></path><path clip-path="url(#clip880)" d="M101.339 1393.06 Q98.1909 1393.06 96.3391 1395.21 Q94.5104 1397.36 94.5104 1401.11 Q94.5104 1404.84 96.3391 1407.02 Q98.1909 1409.17 101.339 1409.17 Q104.487 1409.17 106.316 1407.02 Q108.168 1404.84 108.168 1401.11 Q108.168 1397.36 106.316 1395.21 Q104.487 1393.06 101.339 1393.06 M110.621 1378.41 L110.621 1382.67 Q108.862 1381.83 107.057 1381.39 Q105.274 1380.95 103.515 1380.95 Q98.8854 1380.95 96.4317 1384.08 Q94.0012 1387.2 93.6539 1393.52 Q95.0197 1391.51 97.0798 1390.44 Q99.14 1389.36 101.617 1389.36 Q106.825 1389.36 109.834 1392.53 Q112.867 1395.67 112.867 1401.11 Q112.867 1406.44 109.719 1409.66 Q106.571 1412.87 101.339 1412.87 Q95.3437 1412.87 92.1725 1408.29 Q89.0012 1403.68 89.0012 1394.96 Q89.0012 1386.76 92.89 1381.9 Q96.7789 1377.02 103.33 1377.02 Q105.089 1377.02 106.871 1377.36 Q108.677 1377.71 110.621 1378.41 Z" fill="#000000" fill-rule="nonzero" fill-opacity="1"></path><path clip-path="url(#clip880)" d="M130.922 1380.72 Q127.311 1380.72 125.482 1384.29 Q123.677 1387.83 123.677 1394.96 Q123.677 1402.06 125.482 1405.63 Q127.311 1409.17 130.922 1409.17 Q134.556 1409.17 136.362 1405.63 Q138.191 1402.06 138.191 1394.96 Q138.191 1387.83 136.362 1384.29 Q134.556 1380.72 130.922 1380.72 M130.922 1377.02 Q136.732 1377.02 139.788 1381.62 Q142.867 1386.21 142.867 1394.96 Q142.867 1403.68 139.788 1408.29 Q136.732 1412.87 130.922 1412.87 Q125.112 1412.87 122.033 1408.29 Q118.978 1403.68 118.978 1394.96 Q118.978 1386.21 122.033 1381.62 Q125.112 1377.02 130.922 1377.02 Z" fill="#000000" fill-rule="nonzero" fill-opacity="1"></path><path clip-path="url(#clip880)" d="M50.9921 1076.61 L80.6679 1076.61 L80.6679 1080.54 L50.9921 1080.54 L50.9921 1076.61 Z" fill="#000000" fill-rule="nonzero" fill-opacity="1"></path><path clip-path="url(#clip880)" d="M90.8067 1058.88 L109.163 1058.88 L109.163 1062.81 L95.0891 1062.81 L95.0891 1071.28 Q96.1076 1070.94 97.1261 1070.77 Q98.1447 1070.59 99.1632 1070.59 Q104.95 1070.59 108.33 1073.76 Q111.709 1076.93 111.709 1082.35 Q111.709 1087.93 108.237 1091.03 Q104.765 1094.11 98.4456 1094.11 Q96.2697 1094.11 94.0012 1093.74 Q91.7558 1093.37 89.3484 1092.63 L89.3484 1087.93 Q91.4317 1089.06 93.6539 1089.62 Q95.8761 1090.17 98.353 1090.17 Q102.358 1090.17 104.696 1088.06 Q107.033 1085.96 107.033 1082.35 Q107.033 1078.74 104.696 1076.63 Q102.358 1074.52 98.353 1074.52 Q96.478 1074.52 94.603 1074.94 Q92.7512 1075.36 90.8067 1076.24 L90.8067 1058.88 Z" fill="#000000" fill-rule="nonzero" fill-opacity="1"></path><path clip-path="url(#clip880)" d="M130.922 1061.95 Q127.311 1061.95 125.482 1065.52 Q123.677 1069.06 123.677 1076.19 Q123.677 1083.3 125.482 1086.86 Q127.311 1090.4 130.922 1090.4 Q134.556 1090.4 136.362 1086.86 Q138.191 1083.3 138.191 1076.19 Q138.191 1069.06 136.362 1065.52 Q134.556 1061.95 130.922 1061.95 M130.922 1058.25 Q136.732 1058.25 139.788 1062.86 Q142.867 1067.44 142.867 1076.19 Q142.867 1084.92 139.788 1089.52 Q136.732 1094.11 130.922 1094.11 Q125.112 1094.11 122.033 1089.52 Q118.978 1084.92 118.978 1076.19 Q118.978 1067.44 122.033 1062.86 Q125.112 1058.25 130.922 1058.25 Z" fill="#000000" fill-rule="nonzero" fill-opacity="1"></path><path clip-path="url(#clip880)" d="M50.9921 757.839 L80.6679 757.839 L80.6679 761.774 L50.9921 761.774 L50.9921 757.839 Z" fill="#000000" fill-rule="nonzero" fill-opacity="1"></path><path clip-path="url(#clip880)" d="M103.608 744.182 L91.8021 762.631 L103.608 762.631 L103.608 744.182 M102.381 740.108 L108.26 740.108 L108.26 762.631 L113.191 762.631 L113.191 766.52 L108.26 766.52 L108.26 774.668 L103.608 774.668 L103.608 766.52 L88.0058 766.52 L88.0058 762.006 L102.381 740.108 Z" fill="#000000" fill-rule="nonzero" fill-opacity="1"></path><path clip-path="url(#clip880)" d="M130.922 743.186 Q127.311 743.186 125.482 746.751 Q123.677 750.293 123.677 757.423 Q123.677 764.529 125.482 768.094 Q127.311 771.635 130.922 771.635 Q134.556 771.635 136.362 768.094 Q138.191 764.529 138.191 757.423 Q138.191 750.293 136.362 746.751 Q134.556 743.186 130.922 743.186 M130.922 739.483 Q136.732 739.483 139.788 744.089 Q142.867 748.673 142.867 757.423 Q142.867 766.149 139.788 770.756 Q136.732 775.339 130.922 775.339 Q125.112 775.339 122.033 770.756 Q118.978 766.149 118.978 757.423 Q118.978 748.673 122.033 744.089 Q125.112 739.483 130.922 739.483 Z" fill="#000000" fill-rule="nonzero" fill-opacity="1"></path><path clip-path="url(#clip880)" d="M50.9921 439.072 L80.6679 439.072 L80.6679 443.007 L50.9921 443.007 L50.9921 439.072 Z" fill="#000000" fill-rule="nonzero" fill-opacity="1"></path><path clip-path="url(#clip880)" d="M104.927 437.266 Q108.283 437.984 110.158 440.252 Q112.057 442.521 112.057 445.854 Q112.057 450.97 108.538 453.771 Q105.02 456.572 98.5382 456.572 Q96.3623 456.572 94.0475 456.132 Q91.7558 455.715 89.3021 454.859 L89.3021 450.345 Q91.2465 451.479 93.5613 452.058 Q95.8761 452.637 98.3993 452.637 Q102.797 452.637 105.089 450.9 Q107.404 449.164 107.404 445.854 Q107.404 442.799 105.251 441.086 Q103.121 439.35 99.3021 439.35 L95.2743 439.35 L95.2743 435.507 L99.4872 435.507 Q102.936 435.507 104.765 434.141 Q106.594 432.752 106.594 430.16 Q106.594 427.498 104.696 426.086 Q102.821 424.651 99.3021 424.651 Q97.3808 424.651 95.1817 425.067 Q92.9826 425.484 90.3438 426.364 L90.3438 422.197 Q93.0058 421.456 95.3206 421.086 Q97.6585 420.715 99.7187 420.715 Q105.043 420.715 108.145 423.146 Q111.246 425.553 111.246 429.674 Q111.246 432.544 109.603 434.535 Q107.959 436.502 104.927 437.266 Z" fill="#000000" fill-rule="nonzero" fill-opacity="1"></path><path clip-path="url(#clip880)" d="M130.922 424.419 Q127.311 424.419 125.482 427.984 Q123.677 431.526 123.677 438.655 Q123.677 445.762 125.482 449.326 Q127.311 452.868 130.922 452.868 Q134.556 452.868 136.362 449.326 Q138.191 445.762 138.191 438.655 Q138.191 431.526 136.362 427.984 Q134.556 424.419 130.922 424.419 M130.922 420.715 Q136.732 420.715 139.788 425.322 Q142.867 429.905 142.867 438.655 Q142.867 447.382 139.788 451.988 Q136.732 456.572 130.922 456.572 Q125.112 456.572 122.033 451.988 Q118.978 447.382 118.978 438.655 Q118.978 429.905 122.033 425.322 Q125.112 420.715 130.922 420.715 Z" fill="#000000" fill-rule="nonzero" fill-opacity="1"></path><path clip-path="url(#clip880)" d="M50.9921 120.304 L80.6679 120.304 L80.6679 124.24 L50.9921 124.24 L50.9921 120.304 Z" fill="#000000" fill-rule="nonzero" fill-opacity="1"></path><path clip-path="url(#clip880)" d="M94.7882 133.198 L111.108 133.198 L111.108 137.133 L89.1632 137.133 L89.1632 133.198 Q91.8252 130.443 96.4085 125.814 Q101.015 121.161 102.196 119.818 Q104.441 117.295 105.321 115.559 Q106.223 113.8 106.223 112.11 Q106.223 109.355 104.279 107.619 Q102.358 105.883 99.2558 105.883 Q97.0567 105.883 94.603 106.647 Q92.1725 107.411 89.3947 108.962 L89.3947 104.24 Q92.2188 103.105 94.6724 102.527 Q97.1261 101.948 99.1632 101.948 Q104.534 101.948 107.728 104.633 Q110.922 107.318 110.922 111.809 Q110.922 113.939 110.112 115.86 Q109.325 117.758 107.219 120.351 Q106.64 121.022 103.538 124.24 Q100.436 127.434 94.7882 133.198 Z" fill="#000000" fill-rule="nonzero" fill-opacity="1"></path><path clip-path="url(#clip880)" d="M130.922 105.652 Q127.311 105.652 125.482 109.217 Q123.677 112.758 123.677 119.888 Q123.677 126.994 125.482 130.559 Q127.311 134.101 130.922 134.101 Q134.556 134.101 136.362 130.559 Q138.191 126.994 138.191 119.888 Q138.191 112.758 136.362 109.217 Q134.556 105.652 130.922 105.652 M130.922 101.948 Q136.732 101.948 139.788 106.554 Q142.867 111.138 142.867 119.888 Q142.867 128.615 139.788 133.221 Q136.732 137.804 130.922 137.804 Q125.112 137.804 122.033 133.221 Q118.978 128.615 118.978 119.888 Q118.978 111.138 122.033 106.554 Q125.112 101.948 130.922 101.948 Z" fill="#000000" fill-rule="nonzero" fill-opacity="1"></path><polyline clip-path="url(#clip882)" style="stroke:#009af9; stroke-linecap:round; stroke-linejoin:round; stroke-width:4; stroke-opacity:1; fill:none" points="240.392,87.9763 445.476,103.855 650.56,152.821 855.643,241.31 1060.73,379.44 1265.81,542.364 1470.9,715.563 1675.98,894.207 1881.06,1076.13 2086.15,1260.19 2291.23,1445.72 "></polyline>
<polyline clip-path="url(#clip882)" style="stroke:#e26f46; stroke-linecap:round; stroke-linejoin:round; stroke-width:4; stroke-opacity:1; fill:none" points="240.392,87.9763 445.476,103.854 650.56,152.786 855.643,240.545 1060.73,379.344 1265.81,542.363 1470.9,715.563 1675.98,894.207 1881.06,1076.13 2086.15,1260.19 2291.23,1445.72 "></polyline>
<polyline clip-path="url(#clip882)" style="stroke:#3da44d; stroke-linecap:round; stroke-linejoin:round; stroke-width:4; stroke-opacity:1; fill:none" stroke-dasharray="16, 10" points="240.392,87.9763 445.476,103.855 650.56,152.822 855.643,241.31 1060.73,379.44 1265.81,542.364 1470.9,715.563 1675.98,894.207 1881.06,1076.13 2086.15,1260.19 2291.23,1445.72 "></polyline>
<path clip-path="url(#clip880)" d="M1924.36 302.578 L2280.29 302.578 L2280.29 95.2176 L1924.36 95.2176  Z" fill="#ffffff" fill-rule="evenodd" fill-opacity="1"></path>
<polyline clip-path="url(#clip880)" style="stroke:#000000; stroke-linecap:round; stroke-linejoin:round; stroke-width:4; stroke-opacity:1; fill:none" points="1924.36,302.578 2280.29,302.578 2280.29,95.2176 1924.36,95.2176 1924.36,302.578 "></polyline>
<polyline clip-path="url(#clip880)" style="stroke:#009af9; stroke-linecap:round; stroke-linejoin:round; stroke-width:4; stroke-opacity:1; fill:none" points="1948.52,147.058 2093.44,147.058 "></polyline>
<path clip-path="url(#clip880)" d="M2122.27 133.62 L2122.27 160.495 L2127.92 160.495 Q2135.07 160.495 2138.38 157.254 Q2141.72 154.014 2141.72 147.023 Q2141.72 140.078 2138.38 136.861 Q2135.07 133.62 2127.92 133.62 L2122.27 133.62 M2117.6 129.778 L2127.2 129.778 Q2137.25 129.778 2141.95 133.967 Q2146.65 138.134 2146.65 147.023 Q2146.65 155.958 2141.93 160.148 Q2137.2 164.338 2127.2 164.338 L2117.6 164.338 L2117.6 129.778 Z" fill="#000000" fill-rule="nonzero" fill-opacity="1"></path><path clip-path="url(#clip880)" d="M2154.1 129.778 L2161.07 129.778 L2169.89 153.296 L2178.75 129.778 L2185.72 129.778 L2185.72 164.338 L2181.16 164.338 L2181.16 133.99 L2172.25 157.694 L2167.55 157.694 L2158.64 133.99 L2158.64 164.338 L2154.1 164.338 L2154.1 129.778 Z" fill="#000000" fill-rule="nonzero" fill-opacity="1"></path><path clip-path="url(#clip880)" d="M2211.39 148.134 Q2212.9 148.643 2214.31 150.31 Q2215.75 151.977 2217.18 154.893 L2221.93 164.338 L2216.9 164.338 L2212.48 155.472 Q2210.77 152 2209.15 150.865 Q2207.55 149.731 2204.77 149.731 L2199.68 149.731 L2199.68 164.338 L2195 164.338 L2195 129.778 L2205.56 129.778 Q2211.49 129.778 2214.4 132.254 Q2217.32 134.731 2217.32 139.731 Q2217.32 142.995 2215.79 145.148 Q2214.29 147.301 2211.39 148.134 M2199.68 133.62 L2199.68 145.889 L2205.56 145.889 Q2208.94 145.889 2210.65 144.338 Q2212.39 142.764 2212.39 139.731 Q2212.39 136.699 2210.65 135.171 Q2208.94 133.62 2205.56 133.62 L2199.68 133.62 Z" fill="#000000" fill-rule="nonzero" fill-opacity="1"></path><path clip-path="url(#clip880)" d="M2251.51 159.407 L2251.51 150.125 L2243.87 150.125 L2243.87 146.282 L2256.14 146.282 L2256.14 161.12 Q2253.43 163.041 2250.17 164.037 Q2246.9 165.009 2243.2 165.009 Q2235.1 165.009 2230.51 160.287 Q2225.95 155.541 2225.95 147.092 Q2225.95 138.62 2230.51 133.898 Q2235.1 129.153 2243.2 129.153 Q2246.58 129.153 2249.61 129.986 Q2252.67 130.819 2255.24 132.44 L2255.24 137.416 Q2252.64 135.217 2249.73 134.106 Q2246.81 132.995 2243.59 132.995 Q2237.25 132.995 2234.06 136.537 Q2230.88 140.078 2230.88 147.092 Q2230.88 154.083 2234.06 157.625 Q2237.25 161.166 2243.59 161.166 Q2246.07 161.166 2248.01 160.75 Q2249.96 160.31 2251.51 159.407 Z" fill="#000000" fill-rule="nonzero" fill-opacity="1"></path><polyline clip-path="url(#clip880)" style="stroke:#e26f46; stroke-linecap:round; stroke-linejoin:round; stroke-width:4; stroke-opacity:1; fill:none" points="1948.52,198.898 2093.44,198.898 "></polyline>
<path clip-path="url(#clip880)" d="M2117.6 181.618 L2122.27 181.618 L2122.27 216.178 L2117.6 216.178 L2117.6 181.618 Z" fill="#000000" fill-rule="nonzero" fill-opacity="1"></path><path clip-path="url(#clip880)" d="M2126.79 181.618 L2156.02 181.618 L2156.02 185.553 L2143.75 185.553 L2143.75 216.178 L2139.06 216.178 L2139.06 185.553 L2126.79 185.553 L2126.79 181.618 Z" fill="#000000" fill-rule="nonzero" fill-opacity="1"></path><path clip-path="url(#clip880)" d="M2160.54 181.618 L2182.39 181.618 L2182.39 185.553 L2165.21 185.553 L2165.21 195.784 L2181.67 195.784 L2181.67 199.719 L2165.21 199.719 L2165.21 212.242 L2182.81 212.242 L2182.81 216.178 L2160.54 216.178 L2160.54 181.618 Z" fill="#000000" fill-rule="nonzero" fill-opacity="1"></path><polyline clip-path="url(#clip880)" style="stroke:#3da44d; stroke-linecap:round; stroke-linejoin:round; stroke-width:4; stroke-opacity:1; fill:none" stroke-dasharray="16, 10" points="1948.52,250.738 2093.44,250.738 "></polyline>
<path clip-path="url(#clip880)" d="M2117.6 233.458 L2139.45 233.458 L2139.45 237.393 L2122.27 237.393 L2122.27 247.624 L2138.73 247.624 L2138.73 251.559 L2122.27 251.559 L2122.27 264.082 L2139.87 264.082 L2139.87 268.018 L2117.6 268.018 L2117.6 233.458 Z" fill="#000000" fill-rule="nonzero" fill-opacity="1"></path><path clip-path="url(#clip880)" d="M2152.23 237.3 L2152.23 264.175 L2157.88 264.175 Q2165.03 264.175 2168.34 260.934 Q2171.67 257.694 2171.67 250.703 Q2171.67 243.758 2168.34 240.541 Q2165.03 237.3 2157.88 237.3 L2152.23 237.3 M2147.55 233.458 L2157.16 233.458 Q2167.2 233.458 2171.9 237.647 Q2176.6 241.814 2176.6 250.703 Q2176.6 259.638 2171.88 263.828 Q2167.16 268.018 2157.16 268.018 L2147.55 268.018 L2147.55 233.458 Z" fill="#000000" fill-rule="nonzero" fill-opacity="1"></path></svg>