<?xml version="1.0" encoding="utf-8"?>
<svg xmlns="http://www.w3.org/2000/svg" xmlns:xlink="http://www.w3.org/1999/xlink" width="600" height="400" viewBox="0 0 2400 1600">
<defs>
  <clipPath id="clip350">
    <rect x="0" y="0" width="2400" height="1600"/>
  </clipPath>
</defs>
<path clip-path="url(#clip350)" d="M0 1600 L2400 1600 L2400 0 L0 0  Z" fill="#ffffff" fill-rule="evenodd" fill-opacity="1"/>
<defs>
  <clipPath id="clip351">
    <rect x="480" y="0" width="1681" height="1600"/>
  </clipPath>
</defs>
<path clip-path="url(#clip350)" d="M269.506 1401.58 L2147.56 1401.58 L2147.56 47.2441 L269.506 47.2441  Z" fill="#ffffff" fill-rule="evenodd" fill-opacity="1"/>
<defs>
  <clipPath id="clip352">
    <rect x="269" y="47" width="1879" height="1355"/>
  </clipPath>
</defs>
<polyline clip-path="url(#clip352)" style="stroke:#000000; stroke-linecap:round; stroke-linejoin:round; stroke-width:2; stroke-opacity:0.1; fill:none" points="445.655,1401.58 445.655,47.2441 "/>
<polyline clip-path="url(#clip352)" style="stroke:#000000; stroke-linecap:round; stroke-linejoin:round; stroke-width:2; stroke-opacity:0.1; fill:none" points="775.405,1401.58 775.405,47.2441 "/>
<polyline clip-path="url(#clip352)" style="stroke:#000000; stroke-linecap:round; stroke-linejoin:round; stroke-width:2; stroke-opacity:0.1; fill:none" points="1105.16,1401.58 1105.16,47.2441 "/>
<polyline clip-path="url(#clip352)" style="stroke:#000000; stroke-linecap:round; stroke-linejoin:round; stroke-width:2; stroke-opacity:0.1; fill:none" points="1434.91,1401.58 1434.91,47.2441 "/>
<polyline clip-path="url(#clip352)" style="stroke:#000000; stroke-linecap:round; stroke-linejoin:round; stroke-width:2; stroke-opacity:0.1; fill:none" points="1764.66,1401.58 1764.66,47.2441 "/>
<polyline clip-path="url(#clip352)" style="stroke:#000000; stroke-linecap:round; stroke-linejoin:round; stroke-width:2; stroke-opacity:0.1; fill:none" points="2094.41,1401.58 2094.41,47.2441 "/>
<polyline clip-path="url(#clip350)" style="stroke:#000000; stroke-linecap:round; stroke-linejoin:round; stroke-width:4; stroke-opacity:1; fill:none" points="269.506,1401.58 2147.56,1401.58 "/>
<polyline clip-path="url(#clip350)" style="stroke:#000000; stroke-linecap:round; stroke-linejoin:round; stroke-width:4; stroke-opacity:1; fill:none" points="445.655,1401.58 445.655,1382.68 "/>
<polyline clip-path="url(#clip350)" style="stroke:#000000; stroke-linecap:round; stroke-linejoin:round; stroke-width:4; stroke-opacity:1; fill:none" points="775.405,1401.58 775.405,1382.68 "/>
<polyline clip-path="url(#clip350)" style="stroke:#000000; stroke-linecap:round; stroke-linejoin:round; stroke-width:4; stroke-opacity:1; fill:none" points="1105.16,1401.58 1105.16,1382.68 "/>
<polyline clip-path="url(#clip350)" style="stroke:#000000; stroke-linecap:round; stroke-linejoin:round; stroke-width:4; stroke-opacity:1; fill:none" points="1434.91,1401.58 1434.91,1382.68 "/>
<polyline clip-path="url(#clip350)" style="stroke:#000000; stroke-linecap:round; stroke-linejoin:round; stroke-width:4; stroke-opacity:1; fill:none" points="1764.66,1401.58 1764.66,1382.68 "/>
<polyline clip-path="url(#clip350)" style="stroke:#000000; stroke-linecap:round; stroke-linejoin:round; stroke-width:4; stroke-opacity:1; fill:none" points="2094.41,1401.58 2094.41,1382.68 "/>
<path clip-path="url(#clip350)" d="M417.386 1435.43 Q412.872 1435.43 410.586 1439.88 Q408.329 1444.31 408.329 1453.22 Q408.329 1462.11 410.586 1466.56 Q412.872 1470.99 417.386 1470.99 Q421.928 1470.99 424.185 1466.56 Q426.471 1462.11 426.471 1453.22 Q426.471 1444.31 424.185 1439.88 Q421.928 1435.43 417.386 1435.43 M417.386 1430.8 Q424.648 1430.8 428.468 1436.56 Q432.316 1442.29 432.316 1453.22 Q432.316 1464.13 428.468 1469.89 Q424.648 1475.62 417.386 1475.62 Q410.123 1475.62 406.275 1469.89 Q402.455 1464.13 402.455 1453.22 Q402.455 1442.29 406.275 1436.56 Q410.123 1430.8 417.386 1430.8 Z" fill="#000000" fill-rule="nonzero" fill-opacity="1" /><path clip-path="url(#clip350)" d="M442.588 1467.43 L448.693 1467.43 L448.693 1474.78 L442.588 1474.78 L442.588 1467.43 Z" fill="#000000" fill-rule="nonzero" fill-opacity="1" /><path clip-path="url(#clip350)" d="M473.925 1435.43 Q469.411 1435.43 467.125 1439.88 Q464.868 1444.31 464.868 1453.22 Q464.868 1462.11 467.125 1466.56 Q469.411 1470.99 473.925 1470.99 Q478.467 1470.99 480.724 1466.56 Q483.01 1462.11 483.01 1453.22 Q483.01 1444.31 480.724 1439.88 Q478.467 1435.43 473.925 1435.43 M473.925 1430.8 Q481.187 1430.8 485.007 1436.56 Q488.855 1442.29 488.855 1453.22 Q488.855 1464.13 485.007 1469.89 Q481.187 1475.62 473.925 1475.62 Q466.662 1475.62 462.814 1469.89 Q458.994 1464.13 458.994 1453.22 Q458.994 1442.29 462.814 1436.56 Q466.662 1430.8 473.925 1430.8 Z" fill="#000000" fill-rule="nonzero" fill-opacity="1" /><path clip-path="url(#clip350)" d="M747.758 1435.43 Q743.244 1435.43 740.958 1439.88 Q738.701 1444.31 738.701 1453.22 Q738.701 1462.11 740.958 1466.56 Q743.244 1470.99 747.758 1470.99 Q752.301 1470.99 754.558 1466.56 Q756.844 1462.11 756.844 1453.22 Q756.844 1444.31 754.558 1439.88 Q752.301 1435.43 747.758 1435.43 M747.758 1430.8 Q755.021 1430.8 758.84 1436.56 Q762.688 1442.29 762.688 1453.22 Q762.688 1464.13 758.84 1469.89 Q755.021 1475.62 747.758 1475.62 Q740.495 1475.62 736.647 1469.89 Q732.827 1464.13 732.827 1453.22 Q732.827 1442.29 736.647 1436.56 Q740.495 1430.8 747.758 1430.8 Z" fill="#000000" fill-rule="nonzero" fill-opacity="1" /><path clip-path="url(#clip350)" d="M772.96 1467.43 L779.066 1467.43 L779.066 1474.78 L772.96 1474.78 L772.96 1467.43 Z" fill="#000000" fill-rule="nonzero" fill-opacity="1" /><path clip-path="url(#clip350)" d="M791.855 1431.58 L814.8 1431.58 L814.8 1436.5 L797.208 1436.5 L797.208 1447.09 Q798.481 1446.65 799.754 1446.45 Q801.027 1446.22 802.3 1446.22 Q809.534 1446.22 813.759 1450.19 Q817.983 1454.15 817.983 1460.92 Q817.983 1467.89 813.643 1471.77 Q809.303 1475.62 801.404 1475.62 Q798.684 1475.62 795.848 1475.16 Q793.041 1474.69 790.032 1473.77 L790.032 1467.89 Q792.636 1469.31 795.414 1470.01 Q798.192 1470.7 801.288 1470.7 Q806.294 1470.7 809.216 1468.07 Q812.138 1465.43 812.138 1460.92 Q812.138 1456.41 809.216 1453.77 Q806.294 1451.14 801.288 1451.14 Q798.944 1451.14 796.6 1451.66 Q794.285 1452.18 791.855 1453.28 L791.855 1431.58 Z" fill="#000000" fill-rule="nonzero" fill-opacity="1" /><path clip-path="url(#clip350)" d="M1064.1 1469.86 L1073.65 1469.86 L1073.65 1436.9 L1063.26 1438.99 L1063.26 1433.66 L1073.59 1431.58 L1079.43 1431.58 L1079.43 1469.86 L1088.98 1469.86 L1088.98 1474.78 L1064.1 1474.78 L1064.1 1469.86 Z" fill="#000000" fill-rule="nonzero" fill-opacity="1" /><path clip-path="url(#clip350)" d="M1100.79 1467.43 L1106.89 1467.43 L1106.89 1474.78 L1100.79 1474.78 L1100.79 1467.43 Z" fill="#000000" fill-rule="nonzero" fill-opacity="1" /><path clip-path="url(#clip350)" d="M1132.12 1435.43 Q1127.61 1435.43 1125.32 1439.88 Q1123.07 1444.31 1123.07 1453.22 Q1123.07 1462.11 1125.32 1466.56 Q1127.61 1470.99 1132.12 1470.99 Q1136.67 1470.99 1138.92 1466.56 Q1141.21 1462.11 1141.21 1453.22 Q1141.21 1444.31 1138.92 1439.88 Q1136.67 1435.43 1132.12 1435.43 M1132.12 1430.8 Q1139.39 1430.8 1143.21 1436.56 Q1147.05 1442.29 1147.05 1453.22 Q1147.05 1464.13 1143.21 1469.89 Q1139.39 1475.62 1132.12 1475.62 Q1124.86 1475.62 1121.01 1469.89 Q1117.19 1464.13 1117.19 1453.22 Q1117.19 1442.29 1121.01 1436.56 Q1124.86 1430.8 1132.12 1430.8 Z" fill="#000000" fill-rule="nonzero" fill-opacity="1" /><path clip-path="url(#clip350)" d="M1394.47 1469.86 L1404.02 1469.86 L1404.02 1436.9 L1393.63 1438.99 L1393.63 1433.66 L1403.96 1431.58 L1409.8 1431.58 L1409.8 1469.86 L1419.35 1469.86 L1419.35 1474.78 L1394.47 1474.78 L1394.47 1469.86 Z" fill="#000000" fill-rule="nonzero" fill-opacity="1" /><path clip-path="url(#clip350)" d="M1431.16 1467.43 L1437.26 1467.43 L1437.26 1474.78 L1431.16 1474.78 L1431.16 1467.43 Z" fill="#000000" fill-rule="nonzero" fill-opacity="1" /><path clip-path="url(#clip350)" d="M1450.05 1431.58 L1473 1431.58 L1473 1436.5 L1455.41 1436.5 L1455.41 1447.09 Q1456.68 1446.65 1457.95 1446.45 Q1459.23 1446.22 1460.5 1446.22 Q1467.73 1446.22 1471.96 1450.19 Q1476.18 1454.15 1476.18 1460.92 Q1476.18 1467.89 1471.84 1471.77 Q1467.5 1475.62 1459.6 1475.62 Q1456.88 1475.62 1454.05 1475.16 Q1451.24 1474.69 1448.23 1473.77 L1448.23 1467.89 Q1450.83 1469.31 1453.61 1470.01 Q1456.39 1470.7 1459.49 1470.7 Q1464.49 1470.7 1467.41 1468.07 Q1470.34 1465.43 1470.34 1460.92 Q1470.34 1456.41 1467.41 1453.77 Q1464.49 1451.14 1459.49 1451.14 Q1457.14 1451.14 1454.8 1451.66 Q1452.48 1452.18 1450.05 1453.28 L1450.05 1431.58 Z" fill="#000000" fill-rule="nonzero" fill-opacity="1" /><path clip-path="url(#clip350)" d="M1728.7 1469.86 L1749.1 1469.86 L1749.1 1474.78 L1721.67 1474.78 L1721.67 1469.86 Q1725 1466.42 1730.73 1460.63 Q1736.49 1454.81 1737.96 1453.14 Q1740.77 1449.98 1741.87 1447.81 Q1743 1445.61 1743 1443.5 Q1743 1440.06 1740.57 1437.89 Q1738.17 1435.72 1734.29 1435.72 Q1731.54 1435.72 1728.47 1436.67 Q1725.43 1437.63 1721.96 1439.57 L1721.96 1433.66 Q1725.49 1432.25 1728.56 1431.52 Q1731.63 1430.8 1734.17 1430.8 Q1740.89 1430.8 1744.88 1434.16 Q1748.87 1437.51 1748.87 1443.12 Q1748.87 1445.79 1747.86 1448.19 Q1746.88 1450.56 1744.24 1453.8 Q1743.52 1454.64 1739.64 1458.66 Q1735.76 1462.66 1728.7 1469.86 Z" fill="#000000" fill-rule="nonzero" fill-opacity="1" /><path clip-path="url(#clip350)" d="M1761.37 1467.43 L1767.48 1467.43 L1767.48 1474.78 L1761.37 1474.78 L1761.37 1467.43 Z" fill="#000000" fill-rule="nonzero" fill-opacity="1" /><path clip-path="url(#clip350)" d="M1792.71 1435.43 Q1788.19 1435.43 1785.91 1439.88 Q1783.65 1444.31 1783.65 1453.22 Q1783.65 1462.11 1785.91 1466.56 Q1788.19 1470.99 1792.71 1470.99 Q1797.25 1470.99 1799.51 1466.56 Q1801.79 1462.11 1801.79 1453.22 Q1801.79 1444.31 1799.51 1439.88 Q1797.25 1435.43 1792.71 1435.43 M1792.71 1430.8 Q1799.97 1430.8 1803.79 1436.56 Q1807.64 1442.29 1807.64 1453.22 Q1807.64 1464.13 1803.79 1469.89 Q1799.97 1475.62 1792.71 1475.62 Q1785.45 1475.62 1781.6 1469.89 Q1777.78 1464.13 1777.78 1453.22 Q1777.78 1442.29 1781.6 1436.56 Q1785.45 1430.8 1792.71 1430.8 Z" fill="#000000" fill-rule="nonzero" fill-opacity="1" /><path clip-path="url(#clip350)" d="M2059.08 1469.86 L2079.48 1469.86 L2079.48 1474.78 L2052.05 1474.78 L2052.05 1469.86 Q2055.37 1466.42 2061.1 1460.63 Q2066.86 1454.81 2068.34 1453.14 Q2071.14 1449.98 2072.24 1447.81 Q2073.37 1445.61 2073.37 1443.5 Q2073.37 1440.06 2070.94 1437.89 Q2068.54 1435.72 2064.66 1435.72 Q2061.91 1435.72 2058.85 1436.67 Q2055.81 1437.63 2052.33 1439.57 L2052.33 1433.66 Q2055.86 1432.25 2058.93 1431.52 Q2062 1430.8 2064.55 1430.8 Q2071.26 1430.8 2075.25 1434.16 Q2079.24 1437.51 2079.24 1443.12 Q2079.24 1445.79 2078.23 1448.19 Q2077.25 1450.56 2074.61 1453.8 Q2073.89 1454.64 2070.01 1458.66 Q2066.14 1462.66 2059.08 1469.86 Z" fill="#000000" fill-rule="nonzero" fill-opacity="1" /><path clip-path="url(#clip350)" d="M2091.74 1467.43 L2097.85 1467.43 L2097.85 1474.78 L2091.74 1474.78 L2091.74 1467.43 Z" fill="#000000" fill-rule="nonzero" fill-opacity="1" /><path clip-path="url(#clip350)" d="M2110.64 1431.58 L2133.58 1431.58 L2133.58 1436.5 L2115.99 1436.5 L2115.99 1447.09 Q2117.26 1446.65 2118.54 1446.45 Q2119.81 1446.22 2121.08 1446.22 Q2128.32 1446.22 2132.54 1450.19 Q2136.77 1454.15 2136.77 1460.92 Q2136.77 1467.89 2132.43 1471.77 Q2128.09 1475.62 2120.19 1475.62 Q2117.47 1475.62 2114.63 1475.16 Q2111.83 1474.69 2108.82 1473.77 L2108.82 1467.89 Q2111.42 1469.31 2114.2 1470.01 Q2116.98 1470.7 2120.07 1470.7 Q2125.08 1470.7 2128 1468.07 Q2130.92 1465.43 2130.92 1460.92 Q2130.92 1456.41 2128 1453.77 Q2125.08 1451.14 2120.07 1451.14 Q2117.73 1451.14 2115.38 1451.66 Q2113.07 1452.18 2110.64 1453.28 L2110.64 1431.58 Z" fill="#000000" fill-rule="nonzero" fill-opacity="1" /><path clip-path="url(#clip350)" d="M1174.68 1528.22 Q1174.68 1529.28 1174.4 1531.37 Q1174.11 1533.46 1173.41 1536.5 Q1172.72 1539.53 1171.69 1542.73 Q1170.71 1545.92 1169.15 1549.12 Q1167.59 1552.28 1165.75 1554.78 Q1163.9 1557.28 1161.32 1558.83 Q1158.74 1560.39 1155.83 1560.39 Q1154.48 1560.39 1153.16 1560.19 Q1151.85 1559.98 1150.21 1559.33 Q1148.57 1558.67 1147.38 1557.6 Q1146.2 1556.5 1145.38 1554.53 Q1144.56 1552.56 1144.56 1549.98 Q1144.56 1547.32 1145.54 1543.75 Q1146.57 1540.14 1149.35 1532.77 Q1150.79 1528.95 1150.79 1526.86 Q1150.79 1525.92 1150.58 1525.35 Q1150.38 1524.73 1149.97 1524.53 Q1149.56 1524.28 1149.31 1524.24 Q1149.11 1524.2 1148.7 1524.2 Q1146.44 1524.2 1144.15 1526.53 Q1141.85 1528.87 1140.21 1534.61 Q1139.88 1535.63 1139.68 1535.88 Q1139.47 1536.13 1138.86 1536.13 Q1137.83 1536.09 1137.83 1535.27 Q1137.83 1535.02 1138.12 1534.08 Q1138.41 1533.09 1138.94 1531.62 Q1139.47 1530.1 1140.42 1528.54 Q1141.36 1526.94 1142.51 1525.55 Q1143.7 1524.16 1145.38 1523.26 Q1147.06 1522.35 1148.94 1522.35 Q1152.02 1522.35 1153.9 1524.36 Q1155.83 1526.33 1155.83 1529.24 Q1155.83 1530.84 1154.8 1533.42 Q1153.08 1538.09 1152.3 1540.35 Q1151.52 1542.6 1150.7 1545.8 Q1149.93 1549 1149.93 1551.21 Q1149.93 1554.57 1151.48 1556.54 Q1153.04 1558.51 1156.16 1558.51 Q1158.94 1558.51 1161.44 1556.5 Q1163.99 1554.45 1165.67 1551.54 Q1167.35 1548.59 1168.62 1545.31 Q1169.89 1541.99 1170.46 1539.49 Q1171.08 1536.95 1171.08 1535.76 Q1171.08 1531.62 1168.25 1528.91 Q1167.47 1528.13 1167.18 1527.64 Q1166.9 1527.15 1166.9 1526.37 Q1166.9 1524.94 1168.17 1523.67 Q1169.48 1522.35 1170.99 1522.35 Q1172.39 1522.35 1173.54 1523.75 Q1174.68 1525.14 1174.68 1528.22 Z" fill="#000000" fill-rule="nonzero" fill-opacity="1" /><path clip-path="url(#clip350)" d="M1178.15 1579.25 Q1178.15 1578.84 1178.47 1577.94 L1208.11 1498.74 Q1208.11 1498.66 1208.31 1498.21 Q1208.52 1497.76 1208.64 1497.47 Q1208.77 1497.15 1209.01 1496.9 Q1209.3 1496.65 1209.63 1496.65 Q1210.45 1496.65 1210.45 1497.68 Q1210.45 1497.76 1210.2 1498.74 L1180.48 1578.02 Q1179.99 1579.45 1179.66 1579.86 Q1179.38 1580.27 1178.88 1580.27 Q1178.15 1580.27 1178.15 1579.25 Z" fill="#000000" fill-rule="nonzero" fill-opacity="1" /><path clip-path="url(#clip350)" d="M1275.3 1528.22 Q1275.3 1531.37 1273.58 1538.34 Q1271.85 1545.31 1269.76 1550.06 Q1265.3 1560.39 1257.59 1560.39 Q1256.65 1560.39 1255.71 1560.31 Q1254.8 1560.23 1253.45 1559.86 Q1252.1 1559.49 1250.99 1558.92 Q1249.88 1558.3 1248.78 1557.15 Q1247.71 1556.01 1247.1 1554.49 Q1243.7 1560.39 1238.37 1560.39 Q1233.2 1560.39 1229.8 1557.77 Q1226.44 1555.15 1226.44 1549.78 Q1226.44 1547.36 1227.42 1543.79 Q1228.41 1540.23 1231.15 1532.85 Q1232.67 1529.04 1232.67 1526.94 Q1232.67 1526 1232.46 1525.39 Q1232.26 1524.77 1231.85 1524.57 Q1231.48 1524.32 1231.23 1524.28 Q1230.99 1524.2 1230.58 1524.2 Q1228.12 1524.2 1225.91 1526.7 Q1223.69 1529.16 1222.09 1534.61 Q1221.77 1535.63 1221.56 1535.88 Q1221.36 1536.13 1220.74 1536.13 Q1219.72 1536.09 1219.72 1535.27 Q1219.72 1534.94 1220.09 1533.67 Q1220.45 1532.36 1221.32 1530.43 Q1222.22 1528.46 1223.45 1526.7 Q1224.68 1524.9 1226.6 1523.62 Q1228.57 1522.35 1230.82 1522.35 Q1233.86 1522.35 1235.78 1524.36 Q1237.71 1526.37 1237.71 1529.24 Q1237.71 1530.06 1237.51 1530.96 Q1237.3 1531.82 1237.1 1532.4 Q1236.93 1532.93 1236.28 1534.61 Q1233.57 1541.7 1232.71 1545.1 Q1231.89 1548.5 1231.89 1550.88 Q1231.89 1551.66 1231.93 1552.28 Q1231.97 1552.89 1232.3 1554.16 Q1232.67 1555.43 1233.32 1556.29 Q1233.98 1557.11 1235.33 1557.81 Q1236.73 1558.51 1238.61 1558.51 Q1243.33 1558.51 1246.36 1551.46 Q1246.28 1551.05 1246.28 1549.98 Q1246.28 1547.6 1247.02 1544.41 Q1247.22 1543.67 1248.41 1538.95 Q1249.6 1534.2 1250.62 1530.06 Q1251.69 1525.88 1251.81 1525.63 Q1252.22 1524.49 1253.12 1523.87 Q1254.02 1523.26 1254.93 1523.26 Q1255.95 1523.26 1256.65 1523.87 Q1257.34 1524.49 1257.34 1525.55 Q1257.34 1525.76 1257.1 1526.7 Q1256.89 1527.6 1256.57 1528.95 Q1256.24 1530.31 1256.07 1531 L1252.55 1545.1 Q1251.65 1548.38 1251.65 1551.21 Q1251.65 1554.78 1253.25 1556.66 Q1254.84 1558.51 1257.84 1558.51 Q1263.45 1558.51 1267.06 1551.13 Q1268.7 1547.93 1270.17 1542.93 Q1271.69 1537.93 1271.69 1535.76 Q1271.69 1531.66 1268.66 1528.63 Q1268 1528.05 1267.71 1527.6 Q1267.43 1527.11 1267.43 1526.37 Q1267.43 1524.98 1268.74 1523.67 Q1270.05 1522.35 1271.61 1522.35 Q1273 1522.35 1274.15 1523.75 Q1275.3 1525.1 1275.3 1528.22 Z" fill="#000000" fill-rule="nonzero" fill-opacity="1" /><polyline clip-path="url(#clip350)" style="stroke:#000000; stroke-linecap:round; stroke-linejoin:round; stroke-width:4; stroke-opacity:1; fill:none" points="269.506,1401.58 269.506,47.2441 "/>
<polyline clip-path="url(#clip350)" style="stroke:#000000; stroke-linecap:round; stroke-linejoin:round; stroke-width:4; stroke-opacity:1; fill:none" points="269.506,1401.58 288.404,1401.58 "/>
<polyline clip-path="url(#clip350)" style="stroke:#000000; stroke-linecap:round; stroke-linejoin:round; stroke-width:4; stroke-opacity:1; fill:none" points="269.506,950.135 288.404,950.135 "/>
<polyline clip-path="url(#clip350)" style="stroke:#000000; stroke-linecap:round; stroke-linejoin:round; stroke-width:4; stroke-opacity:1; fill:none" points="269.506,498.689 288.404,498.689 "/>
<polyline clip-path="url(#clip350)" style="stroke:#000000; stroke-linecap:round; stroke-linejoin:round; stroke-width:4; stroke-opacity:1; fill:none" points="269.506,47.2441 288.404,47.2441 "/>
<path clip-path="url(#clip350)" d="M146.276 1426.32 L155.824 1426.32 L155.824 1393.36 L145.437 1395.45 L145.437 1390.12 L155.767 1388.04 L161.611 1388.04 L161.611 1426.32 L171.16 1426.32 L171.16 1431.24 L146.276 1431.24 L146.276 1426.32 Z" fill="#000000" fill-rule="nonzero" fill-opacity="1" /><path clip-path="url(#clip350)" d="M195.465 1391.89 Q190.952 1391.89 188.666 1396.34 Q186.409 1400.77 186.409 1409.68 Q186.409 1418.57 188.666 1423.02 Q190.952 1427.45 195.465 1427.45 Q200.008 1427.45 202.265 1423.02 Q204.551 1418.57 204.551 1409.68 Q204.551 1400.77 202.265 1396.34 Q200.008 1391.89 195.465 1391.89 M195.465 1387.26 Q202.728 1387.26 206.547 1393.02 Q210.396 1398.75 210.396 1409.68 Q210.396 1420.59 206.547 1426.35 Q202.728 1432.08 195.465 1432.08 Q188.203 1432.08 184.354 1426.35 Q180.535 1420.59 180.535 1409.68 Q180.535 1398.75 184.354 1393.02 Q188.203 1387.26 195.465 1387.26 Z" fill="#000000" fill-rule="nonzero" fill-opacity="1" /><path clip-path="url(#clip350)" d="M226.265 1378.05 Q229.674 1378.78 231.578 1381.08 Q233.506 1383.39 233.506 1386.77 Q233.506 1391.97 229.932 1394.81 Q226.359 1397.66 219.776 1397.66 Q217.566 1397.66 215.215 1397.21 Q212.888 1396.79 210.396 1395.92 L210.396 1391.33 Q212.371 1392.49 214.722 1393.07 Q217.073 1393.66 219.635 1393.66 Q224.102 1393.66 226.429 1391.9 Q228.78 1390.14 228.78 1386.77 Q228.78 1383.67 226.594 1381.93 Q224.431 1380.17 220.552 1380.17 L216.461 1380.17 L216.461 1376.26 L220.74 1376.26 Q224.243 1376.26 226.1 1374.88 Q227.958 1373.47 227.958 1370.83 Q227.958 1368.13 226.03 1366.7 Q224.126 1365.24 220.552 1365.24 Q218.601 1365.24 216.367 1365.66 Q214.134 1366.08 211.454 1366.98 L211.454 1362.75 Q214.157 1361.99 216.508 1361.62 Q218.883 1361.24 220.975 1361.24 Q226.382 1361.24 229.533 1363.71 Q232.683 1366.16 232.683 1370.34 Q232.683 1373.26 231.014 1375.28 Q229.345 1377.28 226.265 1378.05 Z" fill="#000000" fill-rule="nonzero" fill-opacity="1" /><path clip-path="url(#clip350)" d="M143.807 974.875 L153.356 974.875 L153.356 941.918 L142.968 944.001 L142.968 938.677 L153.298 936.594 L159.143 936.594 L159.143 974.875 L168.691 974.875 L168.691 979.794 L143.807 979.794 L143.807 974.875 Z" fill="#000000" fill-rule="nonzero" fill-opacity="1" /><path clip-path="url(#clip350)" d="M192.997 940.442 Q188.483 940.442 186.197 944.898 Q183.94 949.326 183.94 958.237 Q183.94 967.121 186.197 971.577 Q188.483 976.004 192.997 976.004 Q197.54 976.004 199.797 971.577 Q202.082 967.121 202.082 958.237 Q202.082 949.326 199.797 944.898 Q197.54 940.442 192.997 940.442 M192.997 935.813 Q200.26 935.813 204.079 941.571 Q207.927 947.3 207.927 958.237 Q207.927 969.146 204.079 974.904 Q200.26 980.633 192.997 980.633 Q185.734 980.633 181.886 974.904 Q178.066 969.146 178.066 958.237 Q178.066 947.3 181.886 941.571 Q185.734 935.813 192.997 935.813 Z" fill="#000000" fill-rule="nonzero" fill-opacity="1" /><path clip-path="url(#clip350)" d="M223.773 914.569 L211.783 933.306 L223.773 933.306 L223.773 914.569 M222.527 910.431 L228.498 910.431 L228.498 933.306 L233.506 933.306 L233.506 937.256 L228.498 937.256 L228.498 945.531 L223.773 945.531 L223.773 937.256 L207.927 937.256 L207.927 932.671 L222.527 910.431 Z" fill="#000000" fill-rule="nonzero" fill-opacity="1" /><path clip-path="url(#clip350)" d="M146.675 523.43 L156.224 523.43 L156.224 490.473 L145.836 492.556 L145.836 487.232 L156.166 485.149 L162.011 485.149 L162.011 523.43 L171.56 523.43 L171.56 528.349 L146.675 528.349 L146.675 523.43 Z" fill="#000000" fill-rule="nonzero" fill-opacity="1" /><path clip-path="url(#clip350)" d="M195.865 488.997 Q191.351 488.997 189.065 493.453 Q186.808 497.88 186.808 506.792 Q186.808 515.675 189.065 520.131 Q191.351 524.558 195.865 524.558 Q200.408 524.558 202.665 520.131 Q204.951 515.675 204.951 506.792 Q204.951 497.88 202.665 493.453 Q200.408 488.997 195.865 488.997 M195.865 484.368 Q203.128 484.368 206.947 490.126 Q210.796 495.855 210.796 506.792 Q210.796 517.701 206.947 523.459 Q203.128 529.188 195.865 529.188 Q188.602 529.188 184.754 523.459 Q180.935 517.701 180.935 506.792 Q180.935 495.855 184.754 490.126 Q188.602 484.368 195.865 484.368 Z" fill="#000000" fill-rule="nonzero" fill-opacity="1" /><path clip-path="url(#clip350)" d="M212.277 458.986 L230.92 458.986 L230.92 462.982 L216.626 462.982 L216.626 471.587 Q217.66 471.234 218.695 471.07 Q219.729 470.882 220.764 470.882 Q226.641 470.882 230.073 474.103 Q233.506 477.323 233.506 482.825 Q233.506 488.491 229.979 491.641 Q226.453 494.768 220.035 494.768 Q217.825 494.768 215.521 494.391 Q213.241 494.015 210.796 493.263 L210.796 488.491 Q212.911 489.643 215.168 490.207 Q217.425 490.771 219.941 490.771 Q224.008 490.771 226.382 488.632 Q228.757 486.492 228.757 482.825 Q228.757 479.157 226.382 477.018 Q224.008 474.878 219.941 474.878 Q218.037 474.878 216.132 475.302 Q214.251 475.725 212.277 476.618 L212.277 458.986 Z" fill="#000000" fill-rule="nonzero" fill-opacity="1" /><path clip-path="url(#clip350)" d="M145.147 71.9846 L154.696 71.9846 L154.696 39.0276 L144.308 41.111 L144.308 35.7869 L154.638 33.7036 L160.483 33.7036 L160.483 71.9846 L170.031 71.9846 L170.031 76.9036 L145.147 76.9036 L145.147 71.9846 Z" fill="#000000" fill-rule="nonzero" fill-opacity="1" /><path clip-path="url(#clip350)" d="M194.337 37.552 Q189.823 37.552 187.537 42.0079 Q185.28 46.435 185.28 55.347 Q185.28 64.2301 187.537 68.686 Q189.823 73.1131 194.337 73.1131 Q198.88 73.1131 201.137 68.686 Q203.423 64.2301 203.423 55.347 Q203.423 46.435 201.137 42.0079 Q198.88 37.552 194.337 37.552 M194.337 32.9223 Q201.6 32.9223 205.419 38.6804 Q209.267 44.4096 209.267 55.347 Q209.267 66.2555 205.419 72.0136 Q201.6 77.7427 194.337 77.7427 Q187.074 77.7427 183.226 72.0136 Q179.406 66.2555 179.406 55.347 Q179.406 44.4096 183.226 38.6804 Q187.074 32.9223 194.337 32.9223 Z" fill="#000000" fill-rule="nonzero" fill-opacity="1" /><path clip-path="url(#clip350)" d="M221.798 23.1981 Q218.601 23.1981 216.72 25.3845 Q214.863 27.5709 214.863 31.3794 Q214.863 35.1645 216.72 37.3744 Q218.601 39.5608 221.798 39.5608 Q224.995 39.5608 226.853 37.3744 Q228.733 35.1645 228.733 31.3794 Q228.733 27.5709 226.853 25.3845 Q224.995 23.1981 221.798 23.1981 M231.225 8.31641 L231.225 12.6422 Q229.439 11.7959 227.605 11.3492 Q225.795 10.9025 224.008 10.9025 Q219.306 10.9025 216.814 14.0763 Q214.345 17.2501 213.993 23.6683 Q215.38 21.6229 217.472 20.5415 Q219.565 19.4365 222.08 19.4365 Q227.37 19.4365 230.426 22.6573 Q233.506 25.8547 233.506 31.3794 Q233.506 36.7867 230.309 40.0545 Q227.111 43.3224 221.798 43.3224 Q215.709 43.3224 212.488 38.6675 Q209.267 33.989 209.267 25.1259 Q209.267 16.8034 213.217 11.8664 Q217.167 6.90583 223.82 6.90583 Q225.607 6.90583 227.417 7.25848 Q229.251 7.61112 231.225 8.31641 Z" fill="#000000" fill-rule="nonzero" fill-opacity="1" /><path clip-path="url(#clip350)" d="M44.7909 917.843 L51.8394 917.843 Q50.2191 921.002 49.4089 924.405 Q48.5987 927.808 48.5987 931.454 Q48.5987 937.003 50.3001 939.799 Q52.0015 942.553 55.4042 942.553 Q57.9968 942.553 59.4956 940.568 Q60.954 938.583 62.2908 932.588 L62.8579 930.036 Q64.5593 922.096 67.6785 918.774 Q70.7572 915.412 76.3069 915.412 Q82.6263 915.412 86.3126 920.435 Q89.999 925.418 89.999 934.168 Q89.999 937.814 89.2698 941.783 Q88.5811 945.713 87.1633 950.088 L79.4666 950.088 Q81.6136 945.956 82.7073 941.946 Q83.7606 937.935 83.7606 934.006 Q83.7606 928.74 81.9782 925.904 Q80.1553 923.068 76.874 923.068 Q73.8358 923.068 72.2155 925.134 Q70.5951 927.16 69.0963 934.087 L68.4886 936.679 Q67.0303 943.606 64.0327 946.685 Q60.9945 949.764 55.7283 949.764 Q49.3279 949.764 45.8441 945.227 Q42.3603 940.69 42.3603 932.345 Q42.3603 928.213 42.968 924.567 Q43.5756 920.921 44.7909 917.843 Z" fill="#000000" fill-rule="nonzero" fill-opacity="1" /><path clip-path="url(#clip350)" d="M82.0187 896.332 L106.081 896.332 L106.081 903.827 L43.4541 903.827 L43.4541 896.332 L50.3406 896.332 Q46.2897 893.983 44.3453 890.418 Q42.3603 886.813 42.3603 881.83 Q42.3603 873.566 48.9228 868.422 Q55.4852 863.236 66.1796 863.236 Q76.874 863.236 83.4365 868.422 Q89.999 873.566 89.999 881.83 Q89.999 886.813 88.0545 890.418 Q86.0696 893.983 82.0187 896.332 M66.1796 870.974 Q57.9563 870.974 53.2978 874.376 Q48.5987 877.739 48.5987 883.653 Q48.5987 889.567 53.2978 892.97 Q57.9563 896.332 66.1796 896.332 Q74.403 896.332 79.102 892.97 Q83.7606 889.567 83.7606 883.653 Q83.7606 877.739 79.102 874.376 Q74.403 870.974 66.1796 870.974 Z" fill="#000000" fill-rule="nonzero" fill-opacity="1" /><path clip-path="url(#clip350)" d="M66.0176 830.262 Q66.0176 839.296 68.0836 842.779 Q70.1495 846.263 75.1321 846.263 Q79.102 846.263 81.4515 843.671 Q83.7606 841.038 83.7606 836.541 Q83.7606 830.343 79.3856 826.616 Q74.9701 822.849 67.6785 822.849 L66.0176 822.849 L66.0176 830.262 M62.9389 815.395 L88.8242 815.395 L88.8242 822.849 L81.9377 822.849 Q86.0696 825.401 88.0545 829.209 Q89.999 833.017 89.999 838.526 Q89.999 845.493 86.1101 849.625 Q82.1807 853.717 75.6182 853.717 Q67.962 853.717 64.0732 848.613 Q60.1843 843.468 60.1843 833.3 L60.1843 822.849 L59.4551 822.849 Q54.3105 822.849 51.5154 826.252 Q48.6797 829.614 48.6797 835.731 Q48.6797 839.62 49.6114 843.306 Q50.5431 846.992 52.4066 850.395 L45.52 850.395 Q43.9402 846.304 43.1705 842.455 Q42.3603 838.607 42.3603 834.961 Q42.3603 825.117 47.4645 820.256 Q52.5686 815.395 62.9389 815.395 Z" fill="#000000" fill-rule="nonzero" fill-opacity="1" /><path clip-path="url(#clip350)" d="M45.196 767.392 L52.1635 767.392 Q50.4216 770.552 49.5709 773.752 Q48.6797 776.912 48.6797 780.152 Q48.6797 787.404 53.2978 791.414 Q57.8753 795.424 66.1796 795.424 Q74.484 795.424 79.102 791.414 Q83.6795 787.404 83.6795 780.152 Q83.6795 776.912 82.8289 773.752 Q81.9377 770.552 80.1958 767.392 L87.0823 767.392 Q88.5406 770.511 89.2698 773.874 Q89.999 777.195 89.999 780.963 Q89.999 791.211 83.558 797.247 Q77.1171 803.283 66.1796 803.283 Q55.0802 803.283 48.7202 797.207 Q42.3603 791.09 42.3603 780.476 Q42.3603 777.033 43.0895 773.752 Q43.7781 770.471 45.196 767.392 Z" fill="#000000" fill-rule="nonzero" fill-opacity="1" /><path clip-path="url(#clip350)" d="M64.2757 715.622 L67.9215 715.622 L67.9215 749.892 Q75.6182 749.406 79.6691 745.274 Q83.6795 741.102 83.6795 733.689 Q83.6795 729.395 82.6263 725.384 Q81.5731 721.333 79.4666 717.363 L86.5152 717.363 Q88.2166 721.374 89.1078 725.587 Q89.999 729.8 89.999 734.134 Q89.999 744.991 83.6795 751.35 Q77.3601 757.67 66.5847 757.67 Q55.4447 757.67 48.9228 751.675 Q42.3603 745.639 42.3603 735.43 Q42.3603 726.275 48.2746 720.969 Q54.1484 715.622 64.2757 715.622 M62.0882 723.075 Q55.9714 723.156 52.3255 726.518 Q48.6797 729.84 48.6797 735.349 Q48.6797 741.588 52.204 745.355 Q55.7283 749.082 62.1287 749.649 L62.0882 723.075 Z" fill="#000000" fill-rule="nonzero" fill-opacity="1" /><path clip-path="url(#clip350)" d="M25.8731 659.111 Q35.1902 664.54 44.3048 667.173 Q53.4193 669.806 62.7769 669.806 Q72.1345 669.806 81.33 667.173 Q90.4851 664.499 99.7616 659.111 L99.7616 665.593 Q90.242 671.669 81.0465 674.707 Q71.8509 677.705 62.7769 677.705 Q53.7434 677.705 44.5883 674.707 Q35.4333 671.71 25.8731 665.593 L25.8731 659.111 Z" fill="#000000" fill-rule="nonzero" fill-opacity="1" /><path clip-path="url(#clip350)" d="M28.3442 644.326 L28.3442 632.132 L69.5014 616.698 L28.3442 601.183 L28.3442 588.99 L88.8242 588.99 L88.8242 596.971 L35.7168 596.971 L77.1981 612.567 L77.1981 620.79 L35.7168 636.386 L88.8242 636.386 L88.8242 644.326 L28.3442 644.326 Z" fill="#000000" fill-rule="nonzero" fill-opacity="1" /><path clip-path="url(#clip350)" d="M59.9412 564.563 L82.0997 564.563 L82.0997 551.438 Q82.0997 544.835 79.3856 541.676 Q76.631 538.475 71.0002 538.475 Q65.3289 538.475 62.6553 541.676 Q59.9412 544.835 59.9412 551.438 L59.9412 564.563 M35.0687 564.563 L53.2978 564.563 L53.2978 552.451 Q53.2978 546.456 51.0698 543.539 Q48.8013 540.582 44.1832 540.582 Q39.6057 540.582 37.3372 543.539 Q35.0687 546.456 35.0687 552.451 L35.0687 564.563 M28.3442 572.746 L28.3442 551.843 Q28.3442 542.486 32.2331 537.422 Q36.1219 532.359 43.292 532.359 Q48.8418 532.359 52.123 534.951 Q55.4042 537.544 56.2144 542.567 Q57.5107 536.531 61.6426 533.209 Q65.734 529.847 71.8914 529.847 Q79.9932 529.847 84.4087 535.356 Q88.8242 540.865 88.8242 551.033 L88.8242 572.746 L28.3442 572.746 Z" fill="#000000" fill-rule="nonzero" fill-opacity="1" /><path clip-path="url(#clip350)" d="M25.8731 517.33 L25.8731 510.848 Q35.4333 504.772 44.5883 501.774 Q53.7434 498.736 62.7769 498.736 Q71.8509 498.736 81.0465 501.774 Q90.242 504.772 99.7616 510.848 L99.7616 517.33 Q90.4851 511.942 81.33 509.309 Q72.1345 506.635 62.7769 506.635 Q53.4193 506.635 44.3048 509.309 Q35.1902 511.942 25.8731 517.33 Z" fill="#000000" fill-rule="nonzero" fill-opacity="1" /><path clip-path="url(#clip352)" d="M363.218 1307.81 L363.218 1401.58 L396.193 1401.58 L396.193 1307.81 L363.218 1307.81 L363.218 1307.81  Z" fill="#009af9" fill-rule="evenodd" fill-opacity="1"/>
<polyline clip-path="url(#clip352)" style="stroke:#000000; stroke-linecap:round; stroke-linejoin:round; stroke-width:2; stroke-opacity:1; fill:none" points="363.218,1307.81 363.218,1401.58 396.193,1401.58 396.193,1307.81 363.218,1307.81 "/>
<path clip-path="url(#clip352)" d="M692.968 859.922 L692.968 1401.58 L725.943 1401.58 L725.943 859.922 L692.968 859.922 L692.968 859.922  Z" fill="#009af9" fill-rule="evenodd" fill-opacity="1"/>
<polyline clip-path="url(#clip352)" style="stroke:#000000; stroke-linecap:round; stroke-linejoin:round; stroke-width:2; stroke-opacity:1; fill:none" points="692.968,859.922 692.968,1401.58 725.943,1401.58 725.943,859.922 692.968,859.922 "/>
<path clip-path="url(#clip352)" d="M1022.72 517.067 L1022.72 1401.58 L1055.69 1401.58 L1055.69 517.067 L1022.72 517.067 L1022.72 517.067  Z" fill="#009af9" fill-rule="evenodd" fill-opacity="1"/>
<polyline clip-path="url(#clip352)" style="stroke:#000000; stroke-linecap:round; stroke-linejoin:round; stroke-width:2; stroke-opacity:1; fill:none" points="1022.72,517.067 1022.72,1401.58 1055.69,1401.58 1055.69,517.067 1022.72,517.067 "/>
<path clip-path="url(#clip352)" d="M1352.47 852.867 L1352.47 1401.58 L1385.44 1401.58 L1385.44 852.867 L1352.47 852.867 L1352.47 852.867  Z" fill="#009af9" fill-rule="evenodd" fill-opacity="1"/>
<polyline clip-path="url(#clip352)" style="stroke:#000000; stroke-linecap:round; stroke-linejoin:round; stroke-width:2; stroke-opacity:1; fill:none" points="1352.47,852.867 1352.47,1401.58 1385.44,1401.58 1385.44,852.867 1352.47,852.867 "/>
<path clip-path="url(#clip352)" d="M1682.22 861.345 L1682.22 1401.58 L1715.19 1401.58 L1715.19 861.345 L1682.22 861.345 L1682.22 861.345  Z" fill="#009af9" fill-rule="evenodd" fill-opacity="1"/>
<polyline clip-path="url(#clip352)" style="stroke:#000000; stroke-linecap:round; stroke-linejoin:round; stroke-width:2; stroke-opacity:1; fill:none" points="1682.22,861.345 1682.22,1401.58 1715.19,1401.58 1715.19,861.345 1682.22,861.345 "/>
<circle clip-path="url(#clip352)" style="fill:#009af9; stroke:none; fill-opacity:0" cx="379.705" cy="1307.81" r="2"/>
<circle clip-path="url(#clip352)" style="fill:#009af9; stroke:none; fill-opacity:0" cx="709.455" cy="859.922" r="2"/>
<circle clip-path="url(#clip352)" style="fill:#009af9; stroke:none; fill-opacity:0" cx="1039.21" cy="517.067" r="2"/>
<circle clip-path="url(#clip352)" style="fill:#009af9; stroke:none; fill-opacity:0" cx="1368.96" cy="852.867" r="2"/>
<circle clip-path="url(#clip352)" style="fill:#009af9; stroke:none; fill-opacity:0" cx="1698.71" cy="861.345" r="2"/>
<path clip-path="url(#clip352)" d="M396.193 1190.62 L396.193 1401.58 L429.168 1401.58 L429.168 1190.62 L396.193 1190.62 L396.193 1190.62  Z" fill="#e26f46" fill-rule="evenodd" fill-opacity="1"/>
<polyline clip-path="url(#clip352)" style="stroke:#000000; stroke-linecap:round; stroke-linejoin:round; stroke-width:2; stroke-opacity:1; fill:none" points="396.193,1190.62 396.193,1401.58 429.168,1401.58 429.168,1190.62 396.193,1190.62 "/>
<path clip-path="url(#clip352)" d="M725.943 692.576 L725.943 1401.58 L758.918 1401.58 L758.918 692.576 L725.943 692.576 L725.943 692.576  Z" fill="#e26f46" fill-rule="evenodd" fill-opacity="1"/>
<polyline clip-path="url(#clip352)" style="stroke:#000000; stroke-linecap:round; stroke-linejoin:round; stroke-width:2; stroke-opacity:1; fill:none" points="725.943,692.576 725.943,1401.58 758.918,1401.58 758.918,692.576 725.943,692.576 "/>
<path clip-path="url(#clip352)" d="M1055.69 599.46 L1055.69 1401.58 L1088.67 1401.58 L1088.67 599.46 L1055.69 599.46 L1055.69 599.46  Z" fill="#e26f46" fill-rule="evenodd" fill-opacity="1"/>
<polyline clip-path="url(#clip352)" style="stroke:#000000; stroke-linecap:round; stroke-linejoin:round; stroke-width:2; stroke-opacity:1; fill:none" points="1055.69,599.46 1055.69,1401.58 1088.67,1401.58 1088.67,599.46 1055.69,599.46 "/>
<path clip-path="url(#clip352)" d="M1385.44 661.176 L1385.44 1401.58 L1418.42 1401.58 L1418.42 661.176 L1385.44 661.176 L1385.44 661.176  Z" fill="#e26f46" fill-rule="evenodd" fill-opacity="1"/>
<polyline clip-path="url(#clip352)" style="stroke:#000000; stroke-linecap:round; stroke-linejoin:round; stroke-width:2; stroke-opacity:1; fill:none" points="1385.44,661.176 1385.44,1401.58 1418.42,1401.58 1418.42,661.176 1385.44,661.176 "/>
<path clip-path="url(#clip352)" d="M1715.19 703.768 L1715.19 1401.58 L1748.17 1401.58 L1748.17 703.768 L1715.19 703.768 L1715.19 703.768  Z" fill="#e26f46" fill-rule="evenodd" fill-opacity="1"/>
<polyline clip-path="url(#clip352)" style="stroke:#000000; stroke-linecap:round; stroke-linejoin:round; stroke-width:2; stroke-opacity:1; fill:none" points="1715.19,703.768 1715.19,1401.58 1748.17,1401.58 1748.17,703.768 1715.19,703.768 "/>
<circle clip-path="url(#clip352)" style="fill:#e26f46; stroke:none; fill-opacity:0" cx="412.68" cy="1190.62" r="2"/>
<circle clip-path="url(#clip352)" style="fill:#e26f46; stroke:none; fill-opacity:0" cx="742.43" cy="692.576" r="2"/>
<circle clip-path="url(#clip352)" style="fill:#e26f46; stroke:none; fill-opacity:0" cx="1072.18" cy="599.46" r="2"/>
<circle clip-path="url(#clip352)" style="fill:#e26f46; stroke:none; fill-opacity:0" cx="1401.93" cy="661.176" r="2"/>
<circle clip-path="url(#clip352)" style="fill:#e26f46; stroke:none; fill-opacity:0" cx="1731.68" cy="703.768" r="2"/>
<path clip-path="url(#clip352)" d="M429.168 1147.1 L429.168 1401.58 L462.143 1401.58 L462.143 1147.1 L429.168 1147.1 L429.168 1147.1  Z" fill="#3da44d" fill-rule="evenodd" fill-opacity="1"/>
<polyline clip-path="url(#clip352)" style="stroke:#000000; stroke-linecap:round; stroke-linejoin:round; stroke-width:2; stroke-opacity:1; fill:none" points="429.168,1147.1 429.168,1401.58 462.143,1401.58 462.143,1147.1 429.168,1147.1 "/>
<path clip-path="url(#clip352)" d="M758.918 637.691 L758.918 1401.58 L791.893 1401.58 L791.893 637.691 L758.918 637.691 L758.918 637.691  Z" fill="#3da44d" fill-rule="evenodd" fill-opacity="1"/>
<polyline clip-path="url(#clip352)" style="stroke:#000000; stroke-linecap:round; stroke-linejoin:round; stroke-width:2; stroke-opacity:1; fill:none" points="758.918,637.691 758.918,1401.58 791.893,1401.58 791.893,637.691 758.918,637.691 "/>
<path clip-path="url(#clip352)" d="M1088.67 519.222 L1088.67 1401.58 L1121.64 1401.58 L1121.64 519.222 L1088.67 519.222 L1088.67 519.222  Z" fill="#3da44d" fill-rule="evenodd" fill-opacity="1"/>
<polyline clip-path="url(#clip352)" style="stroke:#000000; stroke-linecap:round; stroke-linejoin:round; stroke-width:2; stroke-opacity:1; fill:none" points="1088.67,519.222 1088.67,1401.58 1121.64,1401.58 1121.64,519.222 1088.67,519.222 "/>
<path clip-path="url(#clip352)" d="M1418.42 638.511 L1418.42 1401.58 L1451.39 1401.58 L1451.39 638.511 L1418.42 638.511 L1418.42 638.511  Z" fill="#3da44d" fill-rule="evenodd" fill-opacity="1"/>
<polyline clip-path="url(#clip352)" style="stroke:#000000; stroke-linecap:round; stroke-linejoin:round; stroke-width:2; stroke-opacity:1; fill:none" points="1418.42,638.511 1418.42,1401.58 1451.39,1401.58 1451.39,638.511 1418.42,638.511 "/>
<path clip-path="url(#clip352)" d="M1748.17 662.821 L1748.17 1401.58 L1781.14 1401.58 L1781.14 662.821 L1748.17 662.821 L1748.17 662.821  Z" fill="#3da44d" fill-rule="evenodd" fill-opacity="1"/>
<polyline clip-path="url(#clip352)" style="stroke:#000000; stroke-linecap:round; stroke-linejoin:round; stroke-width:2; stroke-opacity:1; fill:none" points="1748.17,662.821 1748.17,1401.58 1781.14,1401.58 1781.14,662.821 1748.17,662.821 "/>
<circle clip-path="url(#clip352)" style="fill:#3da44d; stroke:none; fill-opacity:0" cx="445.655" cy="1147.1" r="2"/>
<circle clip-path="url(#clip352)" style="fill:#3da44d; stroke:none; fill-opacity:0" cx="775.405" cy="637.691" r="2"/>
<circle clip-path="url(#clip352)" style="fill:#3da44d; stroke:none; fill-opacity:0" cx="1105.16" cy="519.222" r="2"/>
<circle clip-path="url(#clip352)" style="fill:#3da44d; stroke:none; fill-opacity:0" cx="1434.91" cy="638.511" r="2"/>
<circle clip-path="url(#clip352)" style="fill:#3da44d; stroke:none; fill-opacity:0" cx="1764.66" cy="662.821" r="2"/>
<path clip-path="url(#clip352)" d="M462.143 1256.27 L462.143 1401.58 L495.118 1401.58 L495.118 1256.27 L462.143 1256.27 L462.143 1256.27  Z" fill="#c271d2" fill-rule="evenodd" fill-opacity="1"/>
<polyline clip-path="url(#clip352)" style="stroke:#000000; stroke-linecap:round; stroke-linejoin:round; stroke-width:2; stroke-opacity:1; fill:none" points="462.143,1256.27 462.143,1401.58 495.118,1401.58 495.118,1256.27 462.143,1256.27 "/>
<path clip-path="url(#clip352)" d="M791.893 1048.28 L791.893 1401.58 L824.868 1401.58 L824.868 1048.28 L791.893 1048.28 L791.893 1048.28  Z" fill="#c271d2" fill-rule="evenodd" fill-opacity="1"/>
<polyline clip-path="url(#clip352)" style="stroke:#000000; stroke-linecap:round; stroke-linejoin:round; stroke-width:2; stroke-opacity:1; fill:none" points="791.893,1048.28 791.893,1401.58 824.868,1401.58 824.868,1048.28 791.893,1048.28 "/>
<path clip-path="url(#clip352)" d="M1121.64 1215.43 L1121.64 1401.58 L1154.62 1401.58 L1154.62 1215.43 L1121.64 1215.43 L1121.64 1215.43  Z" fill="#c271d2" fill-rule="evenodd" fill-opacity="1"/>
<polyline clip-path="url(#clip352)" style="stroke:#000000; stroke-linecap:round; stroke-linejoin:round; stroke-width:2; stroke-opacity:1; fill:none" points="1121.64,1215.43 1121.64,1401.58 1154.62,1401.58 1154.62,1215.43 1121.64,1215.43 "/>
<path clip-path="url(#clip352)" d="M1451.39 1218.18 L1451.39 1401.58 L1484.37 1401.58 L1484.37 1218.18 L1451.39 1218.18 L1451.39 1218.18  Z" fill="#c271d2" fill-rule="evenodd" fill-opacity="1"/>
<polyline clip-path="url(#clip352)" style="stroke:#000000; stroke-linecap:round; stroke-linejoin:round; stroke-width:2; stroke-opacity:1; fill:none" points="1451.39,1218.18 1451.39,1401.58 1484.37,1401.58 1484.37,1218.18 1451.39,1218.18 "/>
<path clip-path="url(#clip352)" d="M1781.14 1072.46 L1781.14 1401.58 L1814.12 1401.58 L1814.12 1072.46 L1781.14 1072.46 L1781.14 1072.46  Z" fill="#c271d2" fill-rule="evenodd" fill-opacity="1"/>
<polyline clip-path="url(#clip352)" style="stroke:#000000; stroke-linecap:round; stroke-linejoin:round; stroke-width:2; stroke-opacity:1; fill:none" points="1781.14,1072.46 1781.14,1401.58 1814.12,1401.58 1814.12,1072.46 1781.14,1072.46 "/>
<circle clip-path="url(#clip352)" style="fill:#c271d2; stroke:none; fill-opacity:0" cx="478.63" cy="1256.27" r="2"/>
<circle clip-path="url(#clip352)" style="fill:#c271d2; stroke:none; fill-opacity:0" cx="808.38" cy="1048.28" r="2"/>
<circle clip-path="url(#clip352)" style="fill:#c271d2; stroke:none; fill-opacity:0" cx="1138.13" cy="1215.43" r="2"/>
<circle clip-path="url(#clip352)" style="fill:#c271d2; stroke:none; fill-opacity:0" cx="1467.88" cy="1218.18" r="2"/>
<circle clip-path="url(#clip352)" style="fill:#c271d2; stroke:none; fill-opacity:0" cx="1797.63" cy="1072.46" r="2"/>
<path clip-path="url(#clip352)" d="M495.118 1273.25 L495.118 1401.58 L528.093 1401.58 L528.093 1273.25 L495.118 1273.25 L495.118 1273.25  Z" fill="#ac8d18" fill-rule="evenodd" fill-opacity="1"/>
<polyline clip-path="url(#clip352)" style="stroke:#000000; stroke-linecap:round; stroke-linejoin:round; stroke-width:2; stroke-opacity:1; fill:none" points="495.118,1273.25 495.118,1401.58 528.093,1401.58 528.093,1273.25 495.118,1273.25 "/>
<path clip-path="url(#clip352)" d="M824.868 916.481 L824.868 1401.58 L857.843 1401.58 L857.843 916.481 L824.868 916.481 L824.868 916.481  Z" fill="#ac8d18" fill-rule="evenodd" fill-opacity="1"/>
<polyline clip-path="url(#clip352)" style="stroke:#000000; stroke-linecap:round; stroke-linejoin:round; stroke-width:2; stroke-opacity:1; fill:none" points="824.868,916.481 824.868,1401.58 857.843,1401.58 857.843,916.481 824.868,916.481 "/>
<path clip-path="url(#clip352)" d="M1154.62 730.457 L1154.62 1401.58 L1187.59 1401.58 L1187.59 730.457 L1154.62 730.457 L1154.62 730.457  Z" fill="#ac8d18" fill-rule="evenodd" fill-opacity="1"/>
<polyline clip-path="url(#clip352)" style="stroke:#000000; stroke-linecap:round; stroke-linejoin:round; stroke-width:2; stroke-opacity:1; fill:none" points="1154.62,730.457 1154.62,1401.58 1187.59,1401.58 1187.59,730.457 1154.62,730.457 "/>
<path clip-path="url(#clip352)" d="M1484.37 896.269 L1484.37 1401.58 L1517.34 1401.58 L1517.34 896.269 L1484.37 896.269 L1484.37 896.269  Z" fill="#ac8d18" fill-rule="evenodd" fill-opacity="1"/>
<polyline clip-path="url(#clip352)" style="stroke:#000000; stroke-linecap:round; stroke-linejoin:round; stroke-width:2; stroke-opacity:1; fill:none" points="1484.37,896.269 1484.37,1401.58 1517.34,1401.58 1517.34,896.269 1484.37,896.269 "/>
<path clip-path="url(#clip352)" d="M1814.12 880.154 L1814.12 1401.58 L1847.09 1401.58 L1847.09 880.154 L1814.12 880.154 L1814.12 880.154  Z" fill="#ac8d18" fill-rule="evenodd" fill-opacity="1"/>
<polyline clip-path="url(#clip352)" style="stroke:#000000; stroke-linecap:round; stroke-linejoin:round; stroke-width:2; stroke-opacity:1; fill:none" points="1814.12,880.154 1814.12,1401.58 1847.09,1401.58 1847.09,880.154 1814.12,880.154 "/>
<circle clip-path="url(#clip352)" style="fill:#ac8d18; stroke:none; fill-opacity:0" cx="511.605" cy="1273.25" r="2"/>
<circle clip-path="url(#clip352)" style="fill:#ac8d18; stroke:none; fill-opacity:0" cx="841.355" cy="916.481" r="2"/>
<circle clip-path="url(#clip352)" style="fill:#ac8d18; stroke:none; fill-opacity:0" cx="1171.11" cy="730.457" r="2"/>
<circle clip-path="url(#clip352)" style="fill:#ac8d18; stroke:none; fill-opacity:0" cx="1500.86" cy="896.269" r="2"/>
<circle clip-path="url(#clip352)" style="fill:#ac8d18; stroke:none; fill-opacity:0" cx="1830.61" cy="880.154" r="2"/>
<path clip-path="url(#clip350)" d="M332.108 481.189 L809.176 481.189 L809.176 92.3886 L332.108 92.3886  Z" fill="#ffffff" fill-rule="evenodd" fill-opacity="1"/>
<polyline clip-path="url(#clip350)" style="stroke:#000000; stroke-linecap:round; stroke-linejoin:round; stroke-width:4; stroke-opacity:1; fill:none" points="332.108,481.189 809.176,481.189 809.176,92.3886 332.108,92.3886 332.108,481.189 "/>
<path clip-path="url(#clip350)" d="M352.975 183.109 L478.178 183.109 L478.178 131.269 L352.975 131.269 L352.975 183.109  Z" fill="#009af9" fill-rule="evenodd" fill-opacity="1"/>
<polyline clip-path="url(#clip350)" style="stroke:#000000; stroke-linecap:round; stroke-linejoin:round; stroke-width:2.5; stroke-opacity:1; fill:none" points="352.975,183.109 478.178,183.109 478.178,131.269 352.975,131.269 352.975,183.109 "/>
<path clip-path="url(#clip350)" d="M533.883 138.916 L533.883 145.079 Q530.932 142.33 527.576 140.971 Q524.248 139.611 520.487 139.611 Q513.079 139.611 509.144 144.153 Q505.209 148.667 505.209 157.232 Q505.209 165.768 509.144 170.311 Q513.079 174.825 520.487 174.825 Q524.248 174.825 527.576 173.465 Q530.932 172.105 533.883 169.356 L533.883 175.461 Q530.816 177.544 527.373 178.586 Q523.959 179.628 520.139 179.628 Q510.33 179.628 504.688 173.638 Q499.046 167.62 499.046 157.232 Q499.046 146.815 504.688 140.826 Q510.33 134.807 520.139 134.807 Q524.017 134.807 527.431 135.849 Q530.874 136.862 533.883 138.916 Z" fill="#000000" fill-rule="nonzero" fill-opacity="1" /><path clip-path="url(#clip350)" d="M542.911 135.589 L567.737 135.589 L567.737 140.508 L548.756 140.508 L548.756 153.239 L565.886 153.239 L565.886 158.158 L548.756 158.158 L548.756 178.789 L542.911 178.789 L542.911 135.589 Z" fill="#000000" fill-rule="nonzero" fill-opacity="1" /><path clip-path="url(#clip350)" d="M352.975 247.909 L478.178 247.909 L478.178 196.069 L352.975 196.069 L352.975 247.909  Z" fill="#e26f46" fill-rule="evenodd" fill-opacity="1"/>
<polyline clip-path="url(#clip350)" style="stroke:#000000; stroke-linecap:round; stroke-linejoin:round; stroke-width:2.5; stroke-opacity:1; fill:none" points="352.975,247.909 478.178,247.909 478.178,196.069 352.975,196.069 352.975,247.909 "/>
<path clip-path="url(#clip350)" d="M499.046 200.389 L507.755 200.389 L518.779 229.787 L529.861 200.389 L538.571 200.389 L538.571 243.589 L532.871 243.589 L532.871 205.655 L521.731 235.284 L515.857 235.284 L504.717 205.655 L504.717 243.589 L499.046 243.589 L499.046 200.389 Z" fill="#000000" fill-rule="nonzero" fill-opacity="1" /><path clip-path="url(#clip350)" d="M550.174 200.389 L575 200.389 L575 205.308 L556.019 205.308 L556.019 218.039 L573.148 218.039 L573.148 222.958 L556.019 222.958 L556.019 243.589 L550.174 243.589 L550.174 200.389 Z" fill="#000000" fill-rule="nonzero" fill-opacity="1" /><path clip-path="url(#clip350)" d="M596.817 198.624 Q592.94 205.279 591.059 211.789 Q589.178 218.299 589.178 224.983 Q589.178 231.667 591.059 238.236 Q592.969 244.775 596.817 251.401 L592.188 251.401 Q587.847 244.601 585.677 238.033 Q583.536 231.465 583.536 224.983 Q583.536 218.531 585.677 211.992 Q587.818 205.452 592.188 198.624 L596.817 198.624 Z" fill="#000000" fill-rule="nonzero" fill-opacity="1" /><path clip-path="url(#clip350)" d="M612.413 201.98 L612.413 211.181 L623.38 211.181 L623.38 215.319 L612.413 215.319 L612.413 232.912 Q612.413 236.876 613.484 238.004 Q614.583 239.133 617.911 239.133 L623.38 239.133 L623.38 243.589 L617.911 243.589 Q611.748 243.589 609.404 241.303 Q607.06 238.988 607.06 232.912 L607.06 215.319 L603.154 215.319 L603.154 211.181 L607.06 211.181 L607.06 201.98 L612.413 201.98 Z" fill="#000000" fill-rule="nonzero" fill-opacity="1" /><path clip-path="url(#clip350)" d="M649.161 216.158 Q648.264 215.637 647.193 215.406 Q646.151 215.145 644.878 215.145 Q640.364 215.145 637.934 218.097 Q635.532 221.019 635.532 226.517 L635.532 243.589 L630.179 243.589 L630.179 211.181 L635.532 211.181 L635.532 216.216 Q637.21 213.265 639.901 211.847 Q642.592 210.4 646.441 210.4 Q646.99 210.4 647.656 210.487 Q648.322 210.545 649.132 210.689 L649.161 216.158 Z" fill="#000000" fill-rule="nonzero" fill-opacity="1" /><path clip-path="url(#clip350)" d="M669.473 227.298 Q663.02 227.298 660.532 228.774 Q658.044 230.25 658.044 233.809 Q658.044 236.644 659.896 238.322 Q661.776 239.972 664.988 239.972 Q669.415 239.972 672.077 236.847 Q674.768 233.693 674.768 228.485 L674.768 227.298 L669.473 227.298 M680.092 225.099 L680.092 243.589 L674.768 243.589 L674.768 238.67 Q672.945 241.621 670.225 243.039 Q667.505 244.428 663.57 244.428 Q658.593 244.428 655.642 241.65 Q652.72 238.843 652.72 234.156 Q652.72 228.687 656.365 225.909 Q660.04 223.132 667.303 223.132 L674.768 223.132 L674.768 222.611 Q674.768 218.936 672.338 216.939 Q669.936 214.914 665.567 214.914 Q662.789 214.914 660.156 215.58 Q657.523 216.245 655.092 217.576 L655.092 212.657 Q658.015 211.529 660.764 210.979 Q663.512 210.4 666.117 210.4 Q673.148 210.4 676.62 214.046 Q680.092 217.692 680.092 225.099 Z" fill="#000000" fill-rule="nonzero" fill-opacity="1" /><path clip-path="url(#clip350)" d="M717.997 224.029 L717.997 243.589 L712.673 243.589 L712.673 224.202 Q712.673 219.601 710.879 217.316 Q709.085 215.03 705.497 215.03 Q701.186 215.03 698.697 217.779 Q696.209 220.527 696.209 225.273 L696.209 243.589 L690.856 243.589 L690.856 211.181 L696.209 211.181 L696.209 216.216 Q698.119 213.294 700.694 211.847 Q703.298 210.4 706.683 210.4 Q712.268 210.4 715.132 213.872 Q717.997 217.316 717.997 224.029 Z" fill="#000000" fill-rule="nonzero" fill-opacity="1" /><path clip-path="url(#clip350)" d="M749.276 212.136 L749.276 217.171 Q747.019 216.014 744.588 215.435 Q742.158 214.856 739.554 214.856 Q735.59 214.856 733.593 216.071 Q731.625 217.287 731.625 219.717 Q731.625 221.569 733.043 222.64 Q734.461 223.681 738.743 224.636 L740.566 225.041 Q746.238 226.257 748.61 228.485 Q751.012 230.684 751.012 234.648 Q751.012 239.162 747.424 241.795 Q743.865 244.428 737.615 244.428 Q735.011 244.428 732.175 243.907 Q729.369 243.415 726.244 242.402 L726.244 236.905 Q729.195 238.438 732.059 239.219 Q734.924 239.972 737.731 239.972 Q741.492 239.972 743.518 238.699 Q745.543 237.397 745.543 235.053 Q745.543 232.883 744.068 231.725 Q742.621 230.568 737.673 229.497 L735.821 229.063 Q730.873 228.022 728.674 225.88 Q726.475 223.71 726.475 219.949 Q726.475 215.377 729.716 212.889 Q732.956 210.4 738.917 210.4 Q741.868 210.4 744.473 210.834 Q747.077 211.268 749.276 212.136 Z" fill="#000000" fill-rule="nonzero" fill-opacity="1" /><path clip-path="url(#clip350)" d="M758.651 198.624 L763.28 198.624 Q767.621 205.452 769.762 211.992 Q771.932 218.531 771.932 224.983 Q771.932 231.465 769.762 238.033 Q767.621 244.601 763.28 251.401 L758.651 251.401 Q762.499 244.775 764.38 238.236 Q766.29 231.667 766.29 224.983 Q766.29 218.299 764.38 211.789 Q762.499 205.279 758.651 198.624 Z" fill="#000000" fill-rule="nonzero" fill-opacity="1" /><path clip-path="url(#clip350)" d="M352.975 312.709 L478.178 312.709 L478.178 260.869 L352.975 260.869 L352.975 312.709  Z" fill="#3da44d" fill-rule="evenodd" fill-opacity="1"/>
<polyline clip-path="url(#clip350)" style="stroke:#000000; stroke-linecap:round; stroke-linejoin:round; stroke-width:2.5; stroke-opacity:1; fill:none" points="352.975,312.709 478.178,312.709 478.178,260.869 352.975,260.869 352.975,312.709 "/>
<path clip-path="url(#clip350)" d="M499.046 265.189 L507.755 265.189 L518.779 294.587 L529.861 265.189 L538.571 265.189 L538.571 308.389 L532.871 308.389 L532.871 270.455 L521.731 300.084 L515.857 300.084 L504.717 270.455 L504.717 308.389 L499.046 308.389 L499.046 265.189 Z" fill="#000000" fill-rule="nonzero" fill-opacity="1" /><path clip-path="url(#clip350)" d="M550.174 265.189 L575 265.189 L575 270.108 L556.019 270.108 L556.019 282.839 L573.148 282.839 L573.148 287.758 L556.019 287.758 L556.019 308.389 L550.174 308.389 L550.174 265.189 Z" fill="#000000" fill-rule="nonzero" fill-opacity="1" /><path clip-path="url(#clip350)" d="M596.817 263.424 Q592.94 270.079 591.059 276.589 Q589.178 283.099 589.178 289.783 Q589.178 296.467 591.059 303.036 Q592.969 309.575 596.817 316.201 L592.188 316.201 Q587.847 309.401 585.677 302.833 Q583.536 296.265 583.536 289.783 Q583.536 283.331 585.677 276.792 Q587.818 270.252 592.188 263.424 L596.817 263.424 Z" fill="#000000" fill-rule="nonzero" fill-opacity="1" /><path clip-path="url(#clip350)" d="M619.705 279.714 Q615.422 279.714 612.934 283.07 Q610.446 286.398 610.446 292.214 Q610.446 298.03 612.905 301.386 Q615.393 304.714 619.705 304.714 Q623.958 304.714 626.447 301.357 Q628.935 298.001 628.935 292.214 Q628.935 286.456 626.447 283.099 Q623.958 279.714 619.705 279.714 M619.705 275.2 Q626.649 275.2 630.613 279.714 Q634.577 284.228 634.577 292.214 Q634.577 300.171 630.613 304.714 Q626.649 309.228 619.705 309.228 Q612.731 309.228 608.767 304.714 Q604.832 300.171 604.832 292.214 Q604.832 284.228 608.767 279.714 Q612.731 275.2 619.705 275.2 Z" fill="#000000" fill-rule="nonzero" fill-opacity="1" /><path clip-path="url(#clip350)" d="M662.181 280.958 Q661.284 280.437 660.214 280.206 Q659.172 279.945 657.899 279.945 Q653.385 279.945 650.955 282.897 Q648.553 285.819 648.553 291.317 L648.553 308.389 L643.2 308.389 L643.2 275.981 L648.553 275.981 L648.553 281.016 Q650.231 278.065 652.922 276.647 Q655.613 275.2 659.461 275.2 Q660.011 275.2 660.677 275.287 Q661.342 275.345 662.152 275.489 L662.181 280.958 Z" fill="#000000" fill-rule="nonzero" fill-opacity="1" /><path clip-path="url(#clip350)" d="M667.766 275.981 L673.09 275.981 L673.09 308.389 L667.766 308.389 L667.766 275.981 M667.766 263.366 L673.09 263.366 L673.09 270.108 L667.766 270.108 L667.766 263.366 Z" fill="#000000" fill-rule="nonzero" fill-opacity="1" /><path clip-path="url(#clip350)" d="M705.555 291.809 Q705.555 286.022 703.153 282.839 Q700.781 279.656 696.469 279.656 Q692.187 279.656 689.785 282.839 Q687.413 286.022 687.413 291.809 Q687.413 297.567 689.785 300.75 Q692.187 303.933 696.469 303.933 Q700.781 303.933 703.153 300.75 Q705.555 297.567 705.555 291.809 M710.879 304.367 Q710.879 312.642 707.204 316.664 Q703.53 320.715 695.949 320.715 Q693.142 320.715 690.653 320.281 Q688.165 319.876 685.821 319.008 L685.821 313.828 Q688.165 315.102 690.451 315.709 Q692.737 316.317 695.109 316.317 Q700.347 316.317 702.951 313.568 Q705.555 310.848 705.555 305.322 L705.555 302.688 Q703.906 305.553 701.33 306.971 Q698.755 308.389 695.167 308.389 Q689.207 308.389 685.561 303.846 Q681.915 299.303 681.915 291.809 Q681.915 284.286 685.561 279.743 Q689.207 275.2 695.167 275.2 Q698.755 275.2 701.33 276.618 Q703.906 278.036 705.555 280.9 L705.555 275.981 L710.879 275.981 L710.879 304.367 Z" fill="#000000" fill-rule="nonzero" fill-opacity="1" /><path clip-path="url(#clip350)" d="M721.845 275.981 L727.169 275.981 L727.169 308.389 L721.845 308.389 L721.845 275.981 M721.845 263.366 L727.169 263.366 L727.169 270.108 L721.845 270.108 L721.845 263.366 Z" fill="#000000" fill-rule="nonzero" fill-opacity="1" /><path clip-path="url(#clip350)" d="M765.248 288.829 L765.248 308.389 L759.924 308.389 L759.924 289.002 Q759.924 284.401 758.13 282.116 Q756.336 279.83 752.748 279.83 Q748.437 279.83 745.948 282.579 Q743.46 285.327 743.46 290.073 L743.46 308.389 L738.107 308.389 L738.107 275.981 L743.46 275.981 L743.46 281.016 Q745.37 278.094 747.945 276.647 Q750.549 275.2 753.934 275.2 Q759.519 275.2 762.383 278.672 Q765.248 282.116 765.248 288.829 Z" fill="#000000" fill-rule="nonzero" fill-opacity="1" /><path clip-path="url(#clip350)" d="M775.028 263.424 L779.658 263.424 Q783.998 270.252 786.139 276.792 Q788.309 283.331 788.309 289.783 Q788.309 296.265 786.139 302.833 Q783.998 309.401 779.658 316.201 L775.028 316.201 Q778.876 309.575 780.757 303.036 Q782.667 296.467 782.667 289.783 Q782.667 283.099 780.757 276.589 Q778.876 270.079 775.028 263.424 Z" fill="#000000" fill-rule="nonzero" fill-opacity="1" /><path clip-path="url(#clip350)" d="M352.975 377.509 L478.178 377.509 L478.178 325.669 L352.975 325.669 L352.975 377.509  Z" fill="#c271d2" fill-rule="evenodd" fill-opacity="1"/>
<polyline clip-path="url(#clip350)" style="stroke:#000000; stroke-linecap:round; stroke-linejoin:round; stroke-width:2.5; stroke-opacity:1; fill:none" points="352.975,377.509 478.178,377.509 478.178,325.669 352.975,325.669 352.975,377.509 "/>
<path clip-path="url(#clip350)" d="M499.046 329.989 L507.755 329.989 L518.779 359.387 L529.861 329.989 L538.571 329.989 L538.571 373.189 L532.871 373.189 L532.871 335.255 L521.731 364.884 L515.857 364.884 L504.717 335.255 L504.717 373.189 L499.046 373.189 L499.046 329.989 Z" fill="#000000" fill-rule="nonzero" fill-opacity="1" /><path clip-path="url(#clip350)" d="M550.174 329.989 L575 329.989 L575 334.908 L556.019 334.908 L556.019 347.639 L573.148 347.639 L573.148 352.558 L556.019 352.558 L556.019 373.189 L550.174 373.189 L550.174 329.989 Z" fill="#000000" fill-rule="nonzero" fill-opacity="1" /><path clip-path="url(#clip350)" d="M596.817 328.224 Q592.94 334.879 591.059 341.389 Q589.178 347.899 589.178 354.583 Q589.178 361.267 591.059 367.836 Q592.969 374.375 596.817 381.001 L592.188 381.001 Q587.847 374.201 585.677 367.633 Q583.536 361.065 583.536 354.583 Q583.536 348.131 585.677 341.592 Q587.818 335.052 592.188 328.224 L596.817 328.224 Z" fill="#000000" fill-rule="nonzero" fill-opacity="1" /><path clip-path="url(#clip350)" d="M627.807 341.736 L627.807 346.771 Q625.55 345.614 623.119 345.035 Q620.689 344.456 618.084 344.456 Q614.12 344.456 612.124 345.671 Q610.156 346.887 610.156 349.317 Q610.156 351.169 611.574 352.24 Q612.992 353.281 617.274 354.236 L619.097 354.641 Q624.768 355.857 627.141 358.085 Q629.543 360.284 629.543 364.248 Q629.543 368.762 625.955 371.395 Q622.396 374.028 616.146 374.028 Q613.542 374.028 610.706 373.507 Q607.899 373.015 604.774 372.002 L604.774 366.505 Q607.726 368.038 610.59 368.819 Q613.455 369.572 616.261 369.572 Q620.023 369.572 622.048 368.299 Q624.074 366.997 624.074 364.653 Q624.074 362.483 622.598 361.325 Q621.152 360.168 616.204 359.097 L614.352 358.663 Q609.404 357.622 607.205 355.48 Q605.006 353.31 605.006 349.549 Q605.006 344.977 608.246 342.489 Q611.487 340 617.448 340 Q620.399 340 623.003 340.434 Q625.608 340.868 627.807 341.736 Z" fill="#000000" fill-rule="nonzero" fill-opacity="1" /><path clip-path="url(#clip350)" d="M638.021 340.781 L643.345 340.781 L643.345 373.189 L638.021 373.189 L638.021 340.781 M638.021 328.166 L643.345 328.166 L643.345 334.908 L638.021 334.908 L638.021 328.166 Z" fill="#000000" fill-rule="nonzero" fill-opacity="1" /><path clip-path="url(#clip350)" d="M679.716 347.002 Q681.713 343.414 684.49 341.707 Q687.268 340 691.03 340 Q696.093 340 698.842 343.559 Q701.591 347.089 701.591 353.629 L701.591 373.189 L696.238 373.189 L696.238 353.802 Q696.238 349.144 694.589 346.887 Q692.939 344.63 689.554 344.63 Q685.416 344.63 683.015 347.379 Q680.613 350.127 680.613 354.873 L680.613 373.189 L675.26 373.189 L675.26 353.802 Q675.26 349.115 673.611 346.887 Q671.961 344.63 668.518 344.63 Q664.438 344.63 662.037 347.408 Q659.635 350.156 659.635 354.873 L659.635 373.189 L654.282 373.189 L654.282 340.781 L659.635 340.781 L659.635 345.816 Q661.458 342.836 664.004 341.418 Q666.551 340 670.052 340 Q673.582 340 676.041 341.794 Q678.53 343.588 679.716 347.002 Z" fill="#000000" fill-rule="nonzero" fill-opacity="1" /><path clip-path="url(#clip350)" d="M717.36 368.328 L717.36 385.515 L712.008 385.515 L712.008 340.781 L717.36 340.781 L717.36 345.7 Q719.039 342.807 721.585 341.418 Q724.16 340 727.719 340 Q733.622 340 737.297 344.688 Q741 349.375 741 357.014 Q741 364.653 737.297 369.34 Q733.622 374.028 727.719 374.028 Q724.16 374.028 721.585 372.639 Q719.039 371.221 717.36 368.328 M735.474 357.014 Q735.474 351.14 733.043 347.813 Q730.642 344.456 726.417 344.456 Q722.193 344.456 719.762 347.813 Q717.36 351.14 717.36 357.014 Q717.36 362.888 719.762 366.244 Q722.193 369.572 726.417 369.572 Q730.642 369.572 733.043 366.244 Q735.474 362.888 735.474 357.014 Z" fill="#000000" fill-rule="nonzero" fill-opacity="1" /><path clip-path="url(#clip350)" d="M749.826 328.166 L755.15 328.166 L755.15 373.189 L749.826 373.189 L749.826 328.166 Z" fill="#000000" fill-rule="nonzero" fill-opacity="1" /><path clip-path="url(#clip350)" d="M765.451 328.224 L770.08 328.224 Q774.42 335.052 776.562 341.592 Q778.732 348.131 778.732 354.583 Q778.732 361.065 776.562 367.633 Q774.42 374.201 770.08 381.001 L765.451 381.001 Q769.299 374.375 771.18 367.836 Q773.089 361.267 773.089 354.583 Q773.089 347.899 771.18 341.389 Q769.299 334.879 765.451 328.224 Z" fill="#000000" fill-rule="nonzero" fill-opacity="1" /><path clip-path="url(#clip350)" d="M352.975 442.309 L478.178 442.309 L478.178 390.469 L352.975 390.469 L352.975 442.309  Z" fill="#ac8d18" fill-rule="evenodd" fill-opacity="1"/>
<polyline clip-path="url(#clip350)" style="stroke:#000000; stroke-linecap:round; stroke-linejoin:round; stroke-width:2.5; stroke-opacity:1; fill:none" points="352.975,442.309 478.178,442.309 478.178,390.469 352.975,390.469 352.975,442.309 "/>
<path clip-path="url(#clip350)" d="M507.929 394.789 L513.774 394.789 L513.774 434.979 Q513.774 442.792 510.793 446.322 Q507.842 449.852 501.274 449.852 L499.046 449.852 L499.046 444.933 L500.869 444.933 Q504.746 444.933 506.337 442.763 Q507.929 440.593 507.929 434.979 L507.929 394.789 Z" fill="#000000" fill-rule="nonzero" fill-opacity="1" /><path clip-path="url(#clip350)" d="M521.557 394.789 L527.46 394.789 L536.545 431.305 L545.602 394.789 L552.17 394.789 L561.256 431.305 L570.313 394.789 L576.244 394.789 L565.394 437.989 L558.044 437.989 L548.93 400.489 L539.728 437.989 L532.379 437.989 L521.557 394.789 Z" fill="#000000" fill-rule="nonzero" fill-opacity="1" /><polyline clip-path="url(#clip350)" style="stroke:#000000; stroke-linecap:round; stroke-linejoin:round; stroke-width:4; stroke-opacity:1; fill:none" points="2147.56,1401.58 2147.56,47.2441 "/>
<polyline clip-path="url(#clip350)" style="stroke:#000000; stroke-linecap:round; stroke-linejoin:round; stroke-width:4; stroke-opacity:1; fill:none" points="269.506,1401.58 269.506,47.2441 "/>
<polyline clip-path="url(#clip350)" style="stroke:#000000; stroke-linecap:round; stroke-linejoin:round; stroke-width:4; stroke-opacity:1; fill:none" points="2147.56,1401.58 2128.66,1401.58 "/>
<polyline clip-path="url(#clip350)" style="stroke:#000000; stroke-linecap:round; stroke-linejoin:round; stroke-width:4; stroke-opacity:1; fill:none" points="2147.56,813.002 2128.66,813.002 "/>
<polyline clip-path="url(#clip350)" style="stroke:#000000; stroke-linecap:round; stroke-linejoin:round; stroke-width:4; stroke-opacity:1; fill:none" points="2147.56,224.424 2128.66,224.424 "/>
<polyline clip-path="url(#clip350)" style="stroke:#000000; stroke-linecap:round; stroke-linejoin:round; stroke-width:4; stroke-opacity:1; fill:none" points="269.506,1401.58 288.404,1401.58 "/>
<polyline clip-path="url(#clip350)" style="stroke:#000000; stroke-linecap:round; stroke-linejoin:round; stroke-width:4; stroke-opacity:1; fill:none" points="269.506,813.002 288.404,813.002 "/>
<polyline clip-path="url(#clip350)" style="stroke:#000000; stroke-linecap:round; stroke-linejoin:round; stroke-width:4; stroke-opacity:1; fill:none" points="269.506,224.424 288.404,224.424 "/>
<path clip-path="url(#clip350)" d="M2184.4 1426.32 L2193.95 1426.32 L2193.95 1393.36 L2183.56 1395.45 L2183.56 1390.12 L2193.89 1388.04 L2199.73 1388.04 L2199.73 1426.32 L2209.28 1426.32 L2209.28 1431.24 L2184.4 1431.24 L2184.4 1426.32 Z" fill="#000000" fill-rule="nonzero" fill-opacity="1" /><path clip-path="url(#clip350)" d="M2233.59 1391.89 Q2229.07 1391.89 2226.79 1396.34 Q2224.53 1400.77 2224.53 1409.68 Q2224.53 1418.57 2226.79 1423.02 Q2229.07 1427.45 2233.59 1427.45 Q2238.13 1427.45 2240.39 1423.02 Q2242.67 1418.57 2242.67 1409.68 Q2242.67 1400.77 2240.39 1396.34 Q2238.13 1391.89 2233.59 1391.89 M2233.59 1387.26 Q2240.85 1387.26 2244.67 1393.02 Q2248.52 1398.75 2248.52 1409.68 Q2248.52 1420.59 2244.67 1426.35 Q2240.85 1432.08 2233.59 1432.08 Q2226.32 1432.08 2222.48 1426.35 Q2218.66 1420.59 2218.66 1409.68 Q2218.66 1398.75 2222.48 1393.02 Q2226.32 1387.26 2233.59 1387.26 Z" fill="#000000" fill-rule="nonzero" fill-opacity="1" /><path clip-path="url(#clip350)" d="M2260.65 1365 Q2256.98 1365 2255.12 1368.62 Q2253.29 1372.22 2253.29 1379.46 Q2253.29 1386.68 2255.12 1390.3 Q2256.98 1393.9 2260.65 1393.9 Q2264.34 1393.9 2266.17 1390.3 Q2268.03 1386.68 2268.03 1379.46 Q2268.03 1372.22 2266.17 1368.62 Q2264.34 1365 2260.65 1365 M2260.65 1361.24 Q2266.55 1361.24 2269.65 1365.92 Q2272.78 1370.57 2272.78 1379.46 Q2272.78 1388.32 2269.65 1393 Q2266.55 1397.66 2260.65 1397.66 Q2254.75 1397.66 2251.62 1393 Q2248.52 1388.32 2248.52 1379.46 Q2248.52 1370.57 2251.62 1365.92 Q2254.75 1361.24 2260.65 1361.24 Z" fill="#000000" fill-rule="nonzero" fill-opacity="1" /><path clip-path="url(#clip350)" d="M2184.4 837.742 L2193.95 837.742 L2193.95 804.785 L2183.56 806.869 L2183.56 801.545 L2193.89 799.461 L2199.73 799.461 L2199.73 837.742 L2209.28 837.742 L2209.28 842.661 L2184.4 842.661 L2184.4 837.742 Z" fill="#000000" fill-rule="nonzero" fill-opacity="1" /><path clip-path="url(#clip350)" d="M2233.59 803.31 Q2229.07 803.31 2226.79 807.766 Q2224.53 812.193 2224.53 821.105 Q2224.53 829.988 2226.79 834.444 Q2229.07 838.871 2233.59 838.871 Q2238.13 838.871 2240.39 834.444 Q2242.67 829.988 2242.67 821.105 Q2242.67 812.193 2240.39 807.766 Q2238.13 803.31 2233.59 803.31 M2233.59 798.68 Q2240.85 798.68 2244.67 804.438 Q2248.52 810.167 2248.52 821.105 Q2248.52 832.013 2244.67 837.771 Q2240.85 843.5 2233.59 843.5 Q2226.32 843.5 2222.48 837.771 Q2218.66 832.013 2218.66 821.105 Q2218.66 810.167 2222.48 804.438 Q2226.32 798.68 2233.59 798.68 Z" fill="#000000" fill-rule="nonzero" fill-opacity="1" /><path clip-path="url(#clip350)" d="M2249.2 804.402 L2256.96 804.402 L2256.96 777.624 L2248.52 779.317 L2248.52 774.991 L2256.91 773.298 L2261.66 773.298 L2261.66 804.402 L2269.42 804.402 L2269.42 808.398 L2249.2 808.398 L2249.2 804.402 Z" fill="#000000" fill-rule="nonzero" fill-opacity="1" /><path clip-path="url(#clip350)" d="M2184.4 249.164 L2193.95 249.164 L2193.95 216.207 L2183.56 218.291 L2183.56 212.967 L2193.89 210.883 L2199.73 210.883 L2199.73 249.164 L2209.28 249.164 L2209.28 254.083 L2184.4 254.083 L2184.4 249.164 Z" fill="#000000" fill-rule="nonzero" fill-opacity="1" /><path clip-path="url(#clip350)" d="M2233.59 214.732 Q2229.07 214.732 2226.79 219.188 Q2224.53 223.615 2224.53 232.527 Q2224.53 241.41 2226.79 245.866 Q2229.07 250.293 2233.59 250.293 Q2238.13 250.293 2240.39 245.866 Q2242.67 241.41 2242.67 232.527 Q2242.67 223.615 2240.39 219.188 Q2238.13 214.732 2233.59 214.732 M2233.59 210.102 Q2240.85 210.102 2244.67 215.86 Q2248.52 221.589 2248.52 232.527 Q2248.52 243.435 2244.67 249.193 Q2240.85 254.922 2233.59 254.922 Q2226.32 254.922 2222.48 249.193 Q2218.66 243.435 2218.66 232.527 Q2218.66 221.589 2222.48 215.86 Q2226.32 210.102 2233.59 210.102 Z" fill="#000000" fill-rule="nonzero" fill-opacity="1" /><path clip-path="url(#clip350)" d="M2254.23 215.824 L2270.81 215.824 L2270.81 219.82 L2248.52 219.82 L2248.52 215.824 Q2251.22 213.026 2255.88 208.324 Q2260.55 203.599 2261.75 202.235 Q2264.03 199.672 2264.93 197.909 Q2265.84 196.122 2265.84 194.406 Q2265.84 191.609 2263.87 189.845 Q2261.92 188.082 2258.77 188.082 Q2256.53 188.082 2254.04 188.858 Q2251.57 189.634 2248.75 191.209 L2248.75 186.413 Q2251.62 185.261 2254.11 184.673 Q2256.61 184.085 2258.67 184.085 Q2264.13 184.085 2267.37 186.813 Q2270.62 189.54 2270.62 194.101 Q2270.62 196.264 2269.79 198.215 Q2268.99 200.143 2266.86 202.776 Q2266.27 203.457 2263.12 206.725 Q2259.97 209.97 2254.23 215.824 Z" fill="#000000" fill-rule="nonzero" fill-opacity="1" /><path clip-path="url(#clip350)" d="M2337.35 694.669 Q2344.12 694.669 2350.76 697.579 Q2357.36 700.448 2362.36 705.121 Q2367.32 709.753 2370.39 716.024 Q2373.47 722.296 2373.47 728.69 L2373.47 756.481 Q2373.47 757.464 2373.43 757.874 Q2373.38 758.243 2373.18 758.53 Q2372.93 758.817 2372.44 758.817 Q2371.66 758.817 2371.33 758.489 Q2370.97 758.161 2370.92 757.792 Q2370.88 757.423 2370.88 756.481 Q2370.88 754.431 2370.76 753.202 Q2370.64 751.972 2370.47 751.193 Q2370.27 750.373 2369.7 749.963 Q2369.12 749.513 2368.63 749.308 Q2368.1 749.103 2366.91 748.816 L2321.82 737.585 Q2320.47 737.257 2320.26 737.257 Q2319.57 737.257 2319.32 737.667 Q2319.03 738.036 2318.91 739.101 Q2318.75 741.151 2318.75 742.708 Q2318.75 743.733 2318.7 744.143 Q2318.66 744.512 2318.46 744.84 Q2318.21 745.127 2317.72 745.127 Q2316.94 745.127 2316.61 744.799 Q2316.25 744.43 2316.2 744.02 Q2316.12 743.61 2316.12 742.626 L2316.12 714.426 Q2316.12 708.318 2318.99 703.768 Q2321.82 699.219 2326.62 696.964 Q2331.37 694.669 2337.35 694.669 M2334.28 702.006 Q2326.45 702.006 2322.6 706.269 Q2318.75 710.491 2318.75 717.172 L2318.75 726.149 Q2318.75 728.813 2319.24 729.469 Q2319.69 730.125 2321.94 730.698 L2368.01 742.216 Q2369.53 742.626 2369.94 742.626 Q2370.39 742.626 2370.56 742.421 Q2370.68 742.175 2370.76 741.52 Q2370.88 740.782 2370.88 739.675 L2370.88 730.207 Q2370.88 726.559 2369.9 723.238 Q2368.88 719.877 2367.28 717.459 Q2365.64 715.041 2364.24 713.483 Q2362.81 711.925 2361.37 710.819 Q2358.14 708.318 2353.91 706.474 Q2349.69 704.588 2345.84 703.727 Q2341.95 702.826 2339.08 702.416 Q2336.17 702.006 2334.28 702.006 Z" fill="#000000" fill-rule="nonzero" fill-opacity="1" /><polyline clip-path="url(#clip352)" style="stroke:#009af9; stroke-linecap:round; stroke-linejoin:round; stroke-width:6; stroke-opacity:1; fill:none" points="445.655,692.861 478.63,692.861 511.605,692.861 544.58,611.459 577.555,623.351 610.53,635.822 643.505,611.459 676.48,600.097 709.455,559.111 742.43,515.682 775.405,492.775 808.38,492.775 841.355,368.11 874.33,334.539 907.305,308.395 940.28,216.868 973.256,147.712 1006.23,47.2441 1039.21,47.2441 1072.18,55.03 1105.16,112.399 1138.13,127.689 1171.11,237.535 1204.08,275.151 1237.06,342.527 1270.03,291.233 1303.01,381.931 1335.98,391.578 1368.96,372.635 1401.93,381.931 1434.91,440.156 1467.88,440.156 1500.86,471.754 1533.83,471.754 1566.81,458.642 1599.78,500.185 1632.76,500.185 1665.73,492.775 1698.71,515.682 1731.68,523.797 1764.66,500.185 1797.63,532.179 1830.61,540.844 1863.58,515.682 1896.56,515.682 1929.53,523.797 1962.51,532.179 1995.48,549.814 2028.46,559.111 2061.43,559.111 2094.41,540.844 "/>
<polyline clip-path="url(#clip352)" style="stroke:#e26f46; stroke-linecap:round; stroke-linejoin:round; stroke-width:6; stroke-opacity:1; fill:none" points="445.655,692.861 478.63,692.861 511.605,692.861 544.58,677.365 577.555,600.097 610.53,677.365 643.505,589.218 676.48,578.783 709.455,532.179 742.43,523.797 775.405,500.185 808.38,478.571 841.355,350.774 874.33,338.502 907.305,301.391 940.28,221.88 973.256,173.594 1006.23,60.3555 1039.21,63.0605 1072.18,47.2441 1105.16,165.348 1138.13,175.698 1171.11,207.129 1204.08,304.869 1237.06,260.021 1270.03,311.97 1303.01,354.999 1335.98,372.635 1368.96,401.603 1401.93,406.768 1434.91,434.28 1467.88,440.156 1500.86,458.642 1533.83,440.156 1566.81,458.642 1599.78,485.574 1632.76,434.28 1665.73,500.185 1698.71,500.185 1731.68,515.682 1764.66,523.797 1797.63,515.682 1830.61,515.682 1863.58,532.179 1896.56,540.844 1929.53,549.814 1962.51,549.814 1995.48,532.179 2028.46,523.797 2061.43,523.797 2094.41,549.814 "/>
<polyline clip-path="url(#clip352)" style="stroke:#3da44d; stroke-linecap:round; stroke-linejoin:round; stroke-width:6; stroke-opacity:1; fill:none" points="445.655,692.861 478.63,662.754 511.605,692.861 544.58,677.365 577.555,623.351 610.53,635.822 643.505,623.351 676.48,559.111 709.455,559.111 742.43,507.816 775.405,500.185 808.38,492.775 841.355,372.635 874.33,323.005 907.305,278.287 940.28,251.356 973.256,117.395 1006.23,65.7943 1039.21,47.2441 1072.18,47.2441 1105.16,120.78 1138.13,204.751 1171.11,216.868 1204.08,275.151 1237.06,281.463 1270.03,330.636 1303.01,359.295 1335.98,381.931 1368.96,346.617 1401.93,417.42 1434.91,434.28 1467.88,422.917 1500.86,446.171 1533.83,485.574 1566.81,465.114 1599.78,478.571 1632.76,485.574 1665.73,478.571 1698.71,485.574 1731.68,500.185 1764.66,523.797 1797.63,523.797 1830.61,532.179 1863.58,500.185 1896.56,540.844 1929.53,523.797 1962.51,549.814 1995.48,523.797 2028.46,559.111 2061.43,532.179 2094.41,559.111 "/>
<polyline clip-path="url(#clip352)" style="stroke:#c271d2; stroke-linecap:round; stroke-linejoin:round; stroke-width:6; stroke-opacity:1; fill:none" points="445.655,692.861 478.63,692.861 511.605,692.861 544.58,692.861 577.555,677.365 610.53,692.861 643.505,692.861 676.48,648.934 709.455,662.754 742.43,635.822 775.405,589.218 808.38,540.844 841.355,568.758 874.33,500.185 907.305,492.775 940.28,465.114 973.256,372.635 1006.23,272.053 1039.21,219.362 1072.18,272.053 1105.16,315.596 1138.13,446.171 1171.11,440.156 1204.08,377.241 1237.06,458.642 1270.03,434.28 1303.01,523.797 1335.98,386.709 1368.96,611.459 1401.93,478.571 1434.91,549.814 1467.88,623.351 1500.86,600.097 1533.83,635.822 1566.81,677.365 1599.78,635.822 1632.76,532.179 1665.73,611.459 1698.71,635.822 1731.68,692.861 1764.66,662.754 1797.63,692.861 1830.61,611.459 1863.58,648.934 1896.56,692.861 1929.53,692.861 1962.51,692.861 1995.48,692.861 2028.46,692.861 2061.43,692.861 2094.41,692.861 "/>
<polyline clip-path="url(#clip352)" style="stroke:#ac8d18; stroke-linecap:round; stroke-linejoin:round; stroke-width:6; stroke-opacity:1; fill:none" points="445.655,692.861 478.63,648.934 511.605,692.861 544.58,692.861 577.555,635.822 610.53,677.365 643.505,611.459 676.48,568.758 709.455,559.111 742.43,515.682 775.405,485.574 808.38,471.754 841.355,412.038 874.33,377.241 907.305,301.391 940.28,248.531 973.256,184.291 1006.23,61.7044 1039.21,72.7598 1072.18,82.8417 1105.16,109.122 1138.13,211.952 1171.11,229.588 1204.08,214.398 1237.06,338.502 1270.03,211.952 1303.01,354.999 1335.98,391.578 1368.96,391.578 1401.93,434.28 1434.91,440.156 1467.88,458.642 1500.86,434.28 1533.83,452.331 1566.81,465.114 1599.78,485.574 1632.76,471.754 1665.73,492.775 1698.71,485.574 1731.68,515.682 1764.66,492.775 1797.63,515.682 1830.61,515.682 1863.58,523.797 1896.56,559.111 1929.53,540.844 1962.51,540.844 1995.48,540.844 2028.46,515.682 2061.43,523.797 2094.41,578.783 "/>
<path clip-path="url(#clip350)" d="M1607.89 481.189 L2084.96 481.189 L2084.96 92.3886 L1607.89 92.3886  Z" fill="#ffffff" fill-rule="evenodd" fill-opacity="1"/>
<polyline clip-path="url(#clip350)" style="stroke:#000000; stroke-linecap:round; stroke-linejoin:round; stroke-width:4; stroke-opacity:1; fill:none" points="1607.89,481.189 2084.96,481.189 2084.96,92.3886 1607.89,92.3886 1607.89,481.189 "/>
<polyline clip-path="url(#clip350)" style="stroke:#009af9; stroke-linecap:round; stroke-linejoin:round; stroke-width:7.5; stroke-opacity:1; fill:none" points="1628.76,157.189 1753.96,157.189 "/>
<path clip-path="url(#clip350)" d="M1809.66 138.916 L1809.66 145.079 Q1806.71 142.33 1803.36 140.971 Q1800.03 139.611 1796.27 139.611 Q1788.86 139.611 1784.92 144.153 Q1780.99 148.667 1780.99 157.232 Q1780.99 165.768 1784.92 170.311 Q1788.86 174.825 1796.27 174.825 Q1800.03 174.825 1803.36 173.465 Q1806.71 172.105 1809.66 169.356 L1809.66 175.461 Q1806.6 177.544 1803.15 178.586 Q1799.74 179.628 1795.92 179.628 Q1786.11 179.628 1780.47 173.638 Q1774.83 167.62 1774.83 157.232 Q1774.83 146.815 1780.47 140.826 Q1786.11 134.807 1795.92 134.807 Q1799.8 134.807 1803.21 135.849 Q1806.65 136.862 1809.66 138.916 Z" fill="#000000" fill-rule="nonzero" fill-opacity="1" /><path clip-path="url(#clip350)" d="M1818.69 135.589 L1843.52 135.589 L1843.52 140.508 L1824.54 140.508 L1824.54 153.239 L1841.67 153.239 L1841.67 158.158 L1824.54 158.158 L1824.54 178.789 L1818.69 178.789 L1818.69 135.589 Z" fill="#000000" fill-rule="nonzero" fill-opacity="1" /><polyline clip-path="url(#clip350)" style="stroke:#e26f46; stroke-linecap:round; stroke-linejoin:round; stroke-width:7.5; stroke-opacity:1; fill:none" points="1628.76,221.989 1753.96,221.989 "/>
<path clip-path="url(#clip350)" d="M1774.83 200.389 L1783.54 200.389 L1794.56 229.787 L1805.64 200.389 L1814.35 200.389 L1814.35 243.589 L1808.65 243.589 L1808.65 205.655 L1797.51 235.284 L1791.64 235.284 L1780.5 205.655 L1780.5 243.589 L1774.83 243.589 L1774.83 200.389 Z" fill="#000000" fill-rule="nonzero" fill-opacity="1" /><path clip-path="url(#clip350)" d="M1825.95 200.389 L1850.78 200.389 L1850.78 205.308 L1831.8 205.308 L1831.8 218.039 L1848.93 218.039 L1848.93 222.958 L1831.8 222.958 L1831.8 243.589 L1825.95 243.589 L1825.95 200.389 Z" fill="#000000" fill-rule="nonzero" fill-opacity="1" /><path clip-path="url(#clip350)" d="M1872.6 198.624 Q1868.72 205.279 1866.84 211.789 Q1864.96 218.299 1864.96 224.983 Q1864.96 231.667 1866.84 238.236 Q1868.75 244.775 1872.6 251.401 L1867.97 251.401 Q1863.63 244.601 1861.46 238.033 Q1859.32 231.465 1859.32 224.983 Q1859.32 218.531 1861.46 211.992 Q1863.6 205.452 1867.97 198.624 L1872.6 198.624 Z" fill="#000000" fill-rule="nonzero" fill-opacity="1" /><path clip-path="url(#clip350)" d="M1888.19 201.98 L1888.19 211.181 L1899.16 211.181 L1899.16 215.319 L1888.19 215.319 L1888.19 232.912 Q1888.19 236.876 1889.26 238.004 Q1890.36 239.133 1893.69 239.133 L1899.16 239.133 L1899.16 243.589 L1893.69 243.589 Q1887.53 243.589 1885.18 241.303 Q1882.84 238.988 1882.84 232.912 L1882.84 215.319 L1878.93 215.319 L1878.93 211.181 L1882.84 211.181 L1882.84 201.98 L1888.19 201.98 Z" fill="#000000" fill-rule="nonzero" fill-opacity="1" /><path clip-path="url(#clip350)" d="M1924.94 216.158 Q1924.04 215.637 1922.97 215.406 Q1921.93 215.145 1920.66 215.145 Q1916.14 215.145 1913.71 218.097 Q1911.31 221.019 1911.31 226.517 L1911.31 243.589 L1905.96 243.589 L1905.96 211.181 L1911.31 211.181 L1911.31 216.216 Q1912.99 213.265 1915.68 211.847 Q1918.37 210.4 1922.22 210.4 Q1922.77 210.4 1923.44 210.487 Q1924.1 210.545 1924.91 210.689 L1924.94 216.158 Z" fill="#000000" fill-rule="nonzero" fill-opacity="1" /><path clip-path="url(#clip350)" d="M1945.25 227.298 Q1938.8 227.298 1936.31 228.774 Q1933.82 230.25 1933.82 233.809 Q1933.82 236.644 1935.68 238.322 Q1937.56 239.972 1940.77 239.972 Q1945.2 239.972 1947.86 236.847 Q1950.55 233.693 1950.55 228.485 L1950.55 227.298 L1945.25 227.298 M1955.87 225.099 L1955.87 243.589 L1950.55 243.589 L1950.55 238.67 Q1948.73 241.621 1946.01 243.039 Q1943.29 244.428 1939.35 244.428 Q1934.37 244.428 1931.42 241.65 Q1928.5 238.843 1928.5 234.156 Q1928.5 228.687 1932.15 225.909 Q1935.82 223.132 1943.08 223.132 L1950.55 223.132 L1950.55 222.611 Q1950.55 218.936 1948.12 216.939 Q1945.72 214.914 1941.35 214.914 Q1938.57 214.914 1935.94 215.58 Q1933.3 216.245 1930.87 217.576 L1930.87 212.657 Q1933.8 211.529 1936.54 210.979 Q1939.29 210.4 1941.9 210.4 Q1948.93 210.4 1952.4 214.046 Q1955.87 217.692 1955.87 225.099 Z" fill="#000000" fill-rule="nonzero" fill-opacity="1" /><path clip-path="url(#clip350)" d="M1993.78 224.029 L1993.78 243.589 L1988.45 243.589 L1988.45 224.202 Q1988.45 219.601 1986.66 217.316 Q1984.87 215.03 1981.28 215.03 Q1976.97 215.03 1974.48 217.779 Q1971.99 220.527 1971.99 225.273 L1971.99 243.589 L1966.64 243.589 L1966.64 211.181 L1971.99 211.181 L1971.99 216.216 Q1973.9 213.294 1976.47 211.847 Q1979.08 210.4 1982.46 210.4 Q1988.05 210.4 1990.91 213.872 Q1993.78 217.316 1993.78 224.029 Z" fill="#000000" fill-rule="nonzero" fill-opacity="1" /><path clip-path="url(#clip350)" d="M2025.06 212.136 L2025.06 217.171 Q2022.8 216.014 2020.37 215.435 Q2017.94 214.856 2015.33 214.856 Q2011.37 214.856 2009.37 216.071 Q2007.41 217.287 2007.41 219.717 Q2007.41 221.569 2008.82 222.64 Q2010.24 223.681 2014.52 224.636 L2016.35 225.041 Q2022.02 226.257 2024.39 228.485 Q2026.79 230.684 2026.79 234.648 Q2026.79 239.162 2023.2 241.795 Q2019.65 244.428 2013.4 244.428 Q2010.79 244.428 2007.96 243.907 Q2005.15 243.415 2002.02 242.402 L2002.02 236.905 Q2004.98 238.438 2007.84 239.219 Q2010.7 239.972 2013.51 239.972 Q2017.27 239.972 2019.3 238.699 Q2021.32 237.397 2021.32 235.053 Q2021.32 232.883 2019.85 231.725 Q2018.4 230.568 2013.45 229.497 L2011.6 229.063 Q2006.65 228.022 2004.45 225.88 Q2002.26 223.71 2002.26 219.949 Q2002.26 215.377 2005.5 212.889 Q2008.74 210.4 2014.7 210.4 Q2017.65 210.4 2020.25 210.834 Q2022.86 211.268 2025.06 212.136 Z" fill="#000000" fill-rule="nonzero" fill-opacity="1" /><path clip-path="url(#clip350)" d="M2034.43 198.624 L2039.06 198.624 Q2043.4 205.452 2045.54 211.992 Q2047.71 218.531 2047.71 224.983 Q2047.71 231.465 2045.54 238.033 Q2043.4 244.601 2039.06 251.401 L2034.43 251.401 Q2038.28 244.775 2040.16 238.236 Q2042.07 231.667 2042.07 224.983 Q2042.07 218.299 2040.16 211.789 Q2038.28 205.279 2034.43 198.624 Z" fill="#000000" fill-rule="nonzero" fill-opacity="1" /><polyline clip-path="url(#clip350)" style="stroke:#3da44d; stroke-linecap:round; stroke-linejoin:round; stroke-width:7.5; stroke-opacity:1; fill:none" points="1628.76,286.789 1753.96,286.789 "/>
<path clip-path="url(#clip350)" d="M1774.83 265.189 L1783.54 265.189 L1794.56 294.587 L1805.64 265.189 L1814.35 265.189 L1814.35 308.389 L1808.65 308.389 L1808.65 270.455 L1797.51 300.084 L1791.64 300.084 L1780.5 270.455 L1780.5 308.389 L1774.83 308.389 L1774.83 265.189 Z" fill="#000000" fill-rule="nonzero" fill-opacity="1" /><path clip-path="url(#clip350)" d="M1825.95 265.189 L1850.78 265.189 L1850.78 270.108 L1831.8 270.108 L1831.8 282.839 L1848.93 282.839 L1848.93 287.758 L1831.8 287.758 L1831.8 308.389 L1825.95 308.389 L1825.95 265.189 Z" fill="#000000" fill-rule="nonzero" fill-opacity="1" /><path clip-path="url(#clip350)" d="M1872.6 263.424 Q1868.72 270.079 1866.84 276.589 Q1864.96 283.099 1864.96 289.783 Q1864.96 296.467 1866.84 303.036 Q1868.75 309.575 1872.6 316.201 L1867.97 316.201 Q1863.63 309.401 1861.46 302.833 Q1859.32 296.265 1859.32 289.783 Q1859.32 283.331 1861.46 276.792 Q1863.6 270.252 1867.97 263.424 L1872.6 263.424 Z" fill="#000000" fill-rule="nonzero" fill-opacity="1" /><path clip-path="url(#clip350)" d="M1895.49 279.714 Q1891.2 279.714 1888.71 283.07 Q1886.23 286.398 1886.23 292.214 Q1886.23 298.03 1888.69 301.386 Q1891.17 304.714 1895.49 304.714 Q1899.74 304.714 1902.23 301.357 Q1904.72 298.001 1904.72 292.214 Q1904.72 286.456 1902.23 283.099 Q1899.74 279.714 1895.49 279.714 M1895.49 275.2 Q1902.43 275.2 1906.39 279.714 Q1910.36 284.228 1910.36 292.214 Q1910.36 300.171 1906.39 304.714 Q1902.43 309.228 1895.49 309.228 Q1888.51 309.228 1884.55 304.714 Q1880.61 300.171 1880.61 292.214 Q1880.61 284.228 1884.55 279.714 Q1888.51 275.2 1895.49 275.2 Z" fill="#000000" fill-rule="nonzero" fill-opacity="1" /><path clip-path="url(#clip350)" d="M1937.96 280.958 Q1937.06 280.437 1935.99 280.206 Q1934.95 279.945 1933.68 279.945 Q1929.17 279.945 1926.74 282.897 Q1924.33 285.819 1924.33 291.317 L1924.33 308.389 L1918.98 308.389 L1918.98 275.981 L1924.33 275.981 L1924.33 281.016 Q1926.01 278.065 1928.7 276.647 Q1931.39 275.2 1935.24 275.2 Q1935.79 275.2 1936.46 275.287 Q1937.12 275.345 1937.93 275.489 L1937.96 280.958 Z" fill="#000000" fill-rule="nonzero" fill-opacity="1" /><path clip-path="url(#clip350)" d="M1943.55 275.981 L1948.87 275.981 L1948.87 308.389 L1943.55 308.389 L1943.55 275.981 M1943.55 263.366 L1948.87 263.366 L1948.87 270.108 L1943.55 270.108 L1943.55 263.366 Z" fill="#000000" fill-rule="nonzero" fill-opacity="1" /><path clip-path="url(#clip350)" d="M1981.34 291.809 Q1981.34 286.022 1978.93 282.839 Q1976.56 279.656 1972.25 279.656 Q1967.97 279.656 1965.57 282.839 Q1963.19 286.022 1963.19 291.809 Q1963.19 297.567 1965.57 300.75 Q1967.97 303.933 1972.25 303.933 Q1976.56 303.933 1978.93 300.75 Q1981.34 297.567 1981.34 291.809 M1986.66 304.367 Q1986.66 312.642 1982.98 316.664 Q1979.31 320.715 1971.73 320.715 Q1968.92 320.715 1966.43 320.281 Q1963.95 319.876 1961.6 319.008 L1961.6 313.828 Q1963.95 315.102 1966.23 315.709 Q1968.52 316.317 1970.89 316.317 Q1976.13 316.317 1978.73 313.568 Q1981.34 310.848 1981.34 305.322 L1981.34 302.688 Q1979.69 305.553 1977.11 306.971 Q1974.54 308.389 1970.95 308.389 Q1964.99 308.389 1961.34 303.846 Q1957.7 299.303 1957.7 291.809 Q1957.7 284.286 1961.34 279.743 Q1964.99 275.2 1970.95 275.2 Q1974.54 275.2 1977.11 276.618 Q1979.69 278.036 1981.34 280.9 L1981.34 275.981 L1986.66 275.981 L1986.66 304.367 Z" fill="#000000" fill-rule="nonzero" fill-opacity="1" /><path clip-path="url(#clip350)" d="M1997.63 275.981 L2002.95 275.981 L2002.95 308.389 L1997.63 308.389 L1997.63 275.981 M1997.63 263.366 L2002.95 263.366 L2002.95 270.108 L1997.63 270.108 L1997.63 263.366 Z" fill="#000000" fill-rule="nonzero" fill-opacity="1" /><path clip-path="url(#clip350)" d="M2041.03 288.829 L2041.03 308.389 L2035.7 308.389 L2035.7 289.002 Q2035.7 284.401 2033.91 282.116 Q2032.12 279.83 2028.53 279.83 Q2024.22 279.83 2021.73 282.579 Q2019.24 285.327 2019.24 290.073 L2019.24 308.389 L2013.89 308.389 L2013.89 275.981 L2019.24 275.981 L2019.24 281.016 Q2021.15 278.094 2023.73 276.647 Q2026.33 275.2 2029.71 275.2 Q2035.3 275.2 2038.16 278.672 Q2041.03 282.116 2041.03 288.829 Z" fill="#000000" fill-rule="nonzero" fill-opacity="1" /><path clip-path="url(#clip350)" d="M2050.81 263.424 L2055.44 263.424 Q2059.78 270.252 2061.92 276.792 Q2064.09 283.331 2064.09 289.783 Q2064.09 296.265 2061.92 302.833 Q2059.78 309.401 2055.44 316.201 L2050.81 316.201 Q2054.66 309.575 2056.54 303.036 Q2058.45 296.467 2058.45 289.783 Q2058.45 283.099 2056.54 276.589 Q2054.66 270.079 2050.81 263.424 Z" fill="#000000" fill-rule="nonzero" fill-opacity="1" /><polyline clip-path="url(#clip350)" style="stroke:#c271d2; stroke-linecap:round; stroke-linejoin:round; stroke-width:7.5; stroke-opacity:1; fill:none" points="1628.76,351.589 1753.96,351.589 "/>
<path clip-path="url(#clip350)" d="M1774.83 329.989 L1783.54 329.989 L1794.56 359.387 L1805.64 329.989 L1814.35 329.989 L1814.35 373.189 L1808.65 373.189 L1808.65 335.255 L1797.51 364.884 L1791.64 364.884 L1780.5 335.255 L1780.5 373.189 L1774.83 373.189 L1774.83 329.989 Z" fill="#000000" fill-rule="nonzero" fill-opacity="1" /><path clip-path="url(#clip350)" d="M1825.95 329.989 L1850.78 329.989 L1850.78 334.908 L1831.8 334.908 L1831.8 347.639 L1848.93 347.639 L1848.93 352.558 L1831.8 352.558 L1831.8 373.189 L1825.95 373.189 L1825.95 329.989 Z" fill="#000000" fill-rule="nonzero" fill-opacity="1" /><path clip-path="url(#clip350)" d="M1872.6 328.224 Q1868.72 334.879 1866.84 341.389 Q1864.96 347.899 1864.96 354.583 Q1864.96 361.267 1866.84 367.836 Q1868.75 374.375 1872.6 381.001 L1867.97 381.001 Q1863.63 374.201 1861.46 367.633 Q1859.32 361.065 1859.32 354.583 Q1859.32 348.131 1861.46 341.592 Q1863.6 335.052 1867.97 328.224 L1872.6 328.224 Z" fill="#000000" fill-rule="nonzero" fill-opacity="1" /><path clip-path="url(#clip350)" d="M1903.59 341.736 L1903.59 346.771 Q1901.33 345.614 1898.9 345.035 Q1896.47 344.456 1893.86 344.456 Q1889.9 344.456 1887.9 345.671 Q1885.94 346.887 1885.94 349.317 Q1885.94 351.169 1887.35 352.24 Q1888.77 353.281 1893.05 354.236 L1894.88 354.641 Q1900.55 355.857 1902.92 358.085 Q1905.32 360.284 1905.32 364.248 Q1905.32 368.762 1901.74 371.395 Q1898.18 374.028 1891.93 374.028 Q1889.32 374.028 1886.49 373.507 Q1883.68 373.015 1880.55 372.002 L1880.55 366.505 Q1883.51 368.038 1886.37 368.819 Q1889.24 369.572 1892.04 369.572 Q1895.8 369.572 1897.83 368.299 Q1899.85 366.997 1899.85 364.653 Q1899.85 362.483 1898.38 361.325 Q1896.93 360.168 1891.98 359.097 L1890.13 358.663 Q1885.18 357.622 1882.99 355.48 Q1880.79 353.31 1880.79 349.549 Q1880.79 344.977 1884.03 342.489 Q1887.27 340 1893.23 340 Q1896.18 340 1898.78 340.434 Q1901.39 340.868 1903.59 341.736 Z" fill="#000000" fill-rule="nonzero" fill-opacity="1" /><path clip-path="url(#clip350)" d="M1913.8 340.781 L1919.13 340.781 L1919.13 373.189 L1913.8 373.189 L1913.8 340.781 M1913.8 328.166 L1919.13 328.166 L1919.13 334.908 L1913.8 334.908 L1913.8 328.166 Z" fill="#000000" fill-rule="nonzero" fill-opacity="1" /><path clip-path="url(#clip350)" d="M1955.5 347.002 Q1957.49 343.414 1960.27 341.707 Q1963.05 340 1966.81 340 Q1971.87 340 1974.62 343.559 Q1977.37 347.089 1977.37 353.629 L1977.37 373.189 L1972.02 373.189 L1972.02 353.802 Q1972.02 349.144 1970.37 346.887 Q1968.72 344.63 1965.33 344.63 Q1961.2 344.63 1958.8 347.379 Q1956.39 350.127 1956.39 354.873 L1956.39 373.189 L1951.04 373.189 L1951.04 353.802 Q1951.04 349.115 1949.39 346.887 Q1947.74 344.63 1944.3 344.63 Q1940.22 344.63 1937.82 347.408 Q1935.42 350.156 1935.42 354.873 L1935.42 373.189 L1930.06 373.189 L1930.06 340.781 L1935.42 340.781 L1935.42 345.816 Q1937.24 342.836 1939.78 341.418 Q1942.33 340 1945.83 340 Q1949.36 340 1951.82 341.794 Q1954.31 343.588 1955.5 347.002 Z" fill="#000000" fill-rule="nonzero" fill-opacity="1" /><path clip-path="url(#clip350)" d="M1993.14 368.328 L1993.14 385.515 L1987.79 385.515 L1987.79 340.781 L1993.14 340.781 L1993.14 345.7 Q1994.82 342.807 1997.37 341.418 Q1999.94 340 2003.5 340 Q2009.4 340 2013.08 344.688 Q2016.78 349.375 2016.78 357.014 Q2016.78 364.653 2013.08 369.34 Q2009.4 374.028 2003.5 374.028 Q1999.94 374.028 1997.37 372.639 Q1994.82 371.221 1993.14 368.328 M2011.25 357.014 Q2011.25 351.14 2008.82 347.813 Q2006.42 344.456 2002.2 344.456 Q1997.97 344.456 1995.54 347.813 Q1993.14 351.14 1993.14 357.014 Q1993.14 362.888 1995.54 366.244 Q1997.97 369.572 2002.2 369.572 Q2006.42 369.572 2008.82 366.244 Q2011.25 362.888 2011.25 357.014 Z" fill="#000000" fill-rule="nonzero" fill-opacity="1" /><path clip-path="url(#clip350)" d="M2025.61 328.166 L2030.93 328.166 L2030.93 373.189 L2025.61 373.189 L2025.61 328.166 Z" fill="#000000" fill-rule="nonzero" fill-opacity="1" /><path clip-path="url(#clip350)" d="M2041.23 328.224 L2045.86 328.224 Q2050.2 335.052 2052.34 341.592 Q2054.51 348.131 2054.51 354.583 Q2054.51 361.065 2052.34 367.633 Q2050.2 374.201 2045.86 381.001 L2041.23 381.001 Q2045.08 374.375 2046.96 367.836 Q2048.87 361.267 2048.87 354.583 Q2048.87 347.899 2046.96 341.389 Q2045.08 334.879 2041.23 328.224 Z" fill="#000000" fill-rule="nonzero" fill-opacity="1" /><polyline clip-path="url(#clip350)" style="stroke:#ac8d18; stroke-linecap:round; stroke-linejoin:round; stroke-width:7.5; stroke-opacity:1; fill:none" points="1628.76,416.389 1753.96,416.389 "/>
<path clip-path="url(#clip350)" d="M1783.71 394.789 L1789.55 394.789 L1789.55 434.979 Q1789.55 442.792 1786.57 446.322 Q1783.62 449.852 1777.05 449.852 L1774.83 449.852 L1774.83 444.933 L1776.65 444.933 Q1780.53 444.933 1782.12 442.763 Q1783.71 440.593 1783.71 434.979 L1783.71 394.789 Z" fill="#000000" fill-rule="nonzero" fill-opacity="1" /><path clip-path="url(#clip350)" d="M1797.34 394.789 L1803.24 394.789 L1812.33 431.305 L1821.38 394.789 L1827.95 394.789 L1837.04 431.305 L1846.09 394.789 L1852.02 394.789 L1841.17 437.989 L1833.82 437.989 L1824.71 400.489 L1815.51 437.989 L1808.16 437.989 L1797.34 394.789 Z" fill="#000000" fill-rule="nonzero" fill-opacity="1" /></svg>
