<?xml version="1.0" encoding="utf-8"?>
<svg xmlns="http://www.w3.org/2000/svg" xmlns:xlink="http://www.w3.org/1999/xlink" width="600" height="400" viewBox="0 0 2400 1600">
<defs>
  <clipPath id="clip310">
    <rect x="0" y="0" width="2400" height="1600"/>
  </clipPath>
</defs>
<path clip-path="url(#clip310)" d="M0 1600 L2400 1600 L2400 0 L0 0  Z" fill="#ffffff" fill-rule="evenodd" fill-opacity="1"/>
<defs>
  <clipPath id="clip311">
    <rect x="480" y="0" width="1681" height="1600"/>
  </clipPath>
</defs>
<path clip-path="url(#clip310)" d="M268.189 1401.58 L2147.56 1401.58 L2147.56 47.2441 L268.189 47.2441  Z" fill="#ffffff" fill-rule="evenodd" fill-opacity="1"/>
<defs>
  <clipPath id="clip312">
    <rect x="268" y="47" width="1880" height="1355"/>
  </clipPath>
</defs>
<polyline clip-path="url(#clip312)" style="stroke:#000000; stroke-linecap:round; stroke-linejoin:round; stroke-width:2; stroke-opacity:0.1; fill:none" points="444.462,1401.58 444.462,47.2441 "/>
<polyline clip-path="url(#clip312)" style="stroke:#000000; stroke-linecap:round; stroke-linejoin:round; stroke-width:2; stroke-opacity:0.1; fill:none" points="774.443,1401.58 774.443,47.2441 "/>
<polyline clip-path="url(#clip312)" style="stroke:#000000; stroke-linecap:round; stroke-linejoin:round; stroke-width:2; stroke-opacity:0.1; fill:none" points="1104.42,1401.58 1104.42,47.2441 "/>
<polyline clip-path="url(#clip312)" style="stroke:#000000; stroke-linecap:round; stroke-linejoin:round; stroke-width:2; stroke-opacity:0.1; fill:none" points="1434.41,1401.58 1434.41,47.2441 "/>
<polyline clip-path="url(#clip312)" style="stroke:#000000; stroke-linecap:round; stroke-linejoin:round; stroke-width:2; stroke-opacity:0.1; fill:none" points="1764.39,1401.58 1764.39,47.2441 "/>
<polyline clip-path="url(#clip312)" style="stroke:#000000; stroke-linecap:round; stroke-linejoin:round; stroke-width:2; stroke-opacity:0.1; fill:none" points="2094.37,1401.58 2094.37,47.2441 "/>
<polyline clip-path="url(#clip310)" style="stroke:#000000; stroke-linecap:round; stroke-linejoin:round; stroke-width:4; stroke-opacity:1; fill:none" points="268.189,1401.58 2147.56,1401.58 "/>
<polyline clip-path="url(#clip310)" style="stroke:#000000; stroke-linecap:round; stroke-linejoin:round; stroke-width:4; stroke-opacity:1; fill:none" points="444.462,1401.58 444.462,1382.68 "/>
<polyline clip-path="url(#clip310)" style="stroke:#000000; stroke-linecap:round; stroke-linejoin:round; stroke-width:4; stroke-opacity:1; fill:none" points="774.443,1401.58 774.443,1382.68 "/>
<polyline clip-path="url(#clip310)" style="stroke:#000000; stroke-linecap:round; stroke-linejoin:round; stroke-width:4; stroke-opacity:1; fill:none" points="1104.42,1401.58 1104.42,1382.68 "/>
<polyline clip-path="url(#clip310)" style="stroke:#000000; stroke-linecap:round; stroke-linejoin:round; stroke-width:4; stroke-opacity:1; fill:none" points="1434.41,1401.58 1434.41,1382.68 "/>
<polyline clip-path="url(#clip310)" style="stroke:#000000; stroke-linecap:round; stroke-linejoin:round; stroke-width:4; stroke-opacity:1; fill:none" points="1764.39,1401.58 1764.39,1382.68 "/>
<polyline clip-path="url(#clip310)" style="stroke:#000000; stroke-linecap:round; stroke-linejoin:round; stroke-width:4; stroke-opacity:1; fill:none" points="2094.37,1401.58 2094.37,1382.68 "/>
<path clip-path="url(#clip310)" d="M416.193 1435.43 Q411.679 1435.43 409.393 1439.88 Q407.136 1444.31 407.136 1453.22 Q407.136 1462.11 409.393 1466.56 Q411.679 1470.99 416.193 1470.99 Q420.735 1470.99 422.992 1466.56 Q425.278 1462.11 425.278 1453.22 Q425.278 1444.31 422.992 1439.88 Q420.735 1435.43 416.193 1435.43 M416.193 1430.8 Q423.455 1430.8 427.275 1436.56 Q431.123 1442.29 431.123 1453.22 Q431.123 1464.13 427.275 1469.89 Q423.455 1475.62 416.193 1475.62 Q408.93 1475.62 405.082 1469.89 Q401.262 1464.13 401.262 1453.22 Q401.262 1442.29 405.082 1436.56 Q408.93 1430.8 416.193 1430.8 Z" fill="#000000" fill-rule="nonzero" fill-opacity="1" /><path clip-path="url(#clip310)" d="M441.395 1467.43 L447.5 1467.43 L447.5 1474.78 L441.395 1474.78 L441.395 1467.43 Z" fill="#000000" fill-rule="nonzero" fill-opacity="1" /><path clip-path="url(#clip310)" d="M472.732 1435.43 Q468.218 1435.43 465.932 1439.88 Q463.675 1444.31 463.675 1453.22 Q463.675 1462.11 465.932 1466.56 Q468.218 1470.99 472.732 1470.99 Q477.274 1470.99 479.531 1466.56 Q481.817 1462.11 481.817 1453.22 Q481.817 1444.31 479.531 1439.88 Q477.274 1435.43 472.732 1435.43 M472.732 1430.8 Q479.994 1430.8 483.814 1436.56 Q487.662 1442.29 487.662 1453.22 Q487.662 1464.13 483.814 1469.89 Q479.994 1475.62 472.732 1475.62 Q465.469 1475.62 461.621 1469.89 Q457.801 1464.13 457.801 1453.22 Q457.801 1442.29 461.621 1436.56 Q465.469 1430.8 472.732 1430.8 Z" fill="#000000" fill-rule="nonzero" fill-opacity="1" /><path clip-path="url(#clip310)" d="M746.796 1435.43 Q742.282 1435.43 739.996 1439.88 Q737.739 1444.31 737.739 1453.22 Q737.739 1462.11 739.996 1466.56 Q742.282 1470.99 746.796 1470.99 Q751.339 1470.99 753.596 1466.56 Q755.882 1462.11 755.882 1453.22 Q755.882 1444.31 753.596 1439.88 Q751.339 1435.43 746.796 1435.43 M746.796 1430.8 Q754.059 1430.8 757.878 1436.56 Q761.727 1442.29 761.727 1453.22 Q761.727 1464.13 757.878 1469.89 Q754.059 1475.62 746.796 1475.62 Q739.533 1475.62 735.685 1469.89 Q731.866 1464.13 731.866 1453.22 Q731.866 1442.29 735.685 1436.56 Q739.533 1430.8 746.796 1430.8 Z" fill="#000000" fill-rule="nonzero" fill-opacity="1" /><path clip-path="url(#clip310)" d="M771.998 1467.43 L778.104 1467.43 L778.104 1474.78 L771.998 1474.78 L771.998 1467.43 Z" fill="#000000" fill-rule="nonzero" fill-opacity="1" /><path clip-path="url(#clip310)" d="M790.893 1431.58 L813.839 1431.58 L813.839 1436.5 L796.246 1436.5 L796.246 1447.09 Q797.519 1446.65 798.792 1446.45 Q800.065 1446.22 801.339 1446.22 Q808.572 1446.22 812.797 1450.19 Q817.021 1454.15 817.021 1460.92 Q817.021 1467.89 812.681 1471.77 Q808.341 1475.62 800.442 1475.62 Q797.722 1475.62 794.886 1475.16 Q792.079 1474.69 789.07 1473.77 L789.07 1467.89 Q791.674 1469.31 794.452 1470.01 Q797.23 1470.7 800.326 1470.7 Q805.332 1470.7 808.254 1468.07 Q811.177 1465.43 811.177 1460.92 Q811.177 1456.41 808.254 1453.77 Q805.332 1451.14 800.326 1451.14 Q797.982 1451.14 795.638 1451.66 Q793.324 1452.18 790.893 1453.28 L790.893 1431.58 Z" fill="#000000" fill-rule="nonzero" fill-opacity="1" /><path clip-path="url(#clip310)" d="M1063.37 1469.86 L1072.91 1469.86 L1072.91 1436.9 L1062.53 1438.99 L1062.53 1433.66 L1072.86 1431.58 L1078.7 1431.58 L1078.7 1469.86 L1088.25 1469.86 L1088.25 1474.78 L1063.37 1474.78 L1063.37 1469.86 Z" fill="#000000" fill-rule="nonzero" fill-opacity="1" /><path clip-path="url(#clip310)" d="M1100.06 1467.43 L1106.16 1467.43 L1106.16 1474.78 L1100.06 1474.78 L1100.06 1467.43 Z" fill="#000000" fill-rule="nonzero" fill-opacity="1" /><path clip-path="url(#clip310)" d="M1131.39 1435.43 Q1126.88 1435.43 1124.59 1439.88 Q1122.34 1444.31 1122.34 1453.22 Q1122.34 1462.11 1124.59 1466.56 Q1126.88 1470.99 1131.39 1470.99 Q1135.94 1470.99 1138.19 1466.56 Q1140.48 1462.11 1140.48 1453.22 Q1140.48 1444.31 1138.19 1439.88 Q1135.94 1435.43 1131.39 1435.43 M1131.39 1430.8 Q1138.65 1430.8 1142.47 1436.56 Q1146.32 1442.29 1146.32 1453.22 Q1146.32 1464.13 1142.47 1469.89 Q1138.65 1475.62 1131.39 1475.62 Q1124.13 1475.62 1120.28 1469.89 Q1116.46 1464.13 1116.46 1453.22 Q1116.46 1442.29 1120.28 1436.56 Q1124.13 1430.8 1131.39 1430.8 Z" fill="#000000" fill-rule="nonzero" fill-opacity="1" /><path clip-path="url(#clip310)" d="M1393.97 1469.86 L1403.52 1469.86 L1403.52 1436.9 L1393.13 1438.99 L1393.13 1433.66 L1403.46 1431.58 L1409.31 1431.58 L1409.31 1469.86 L1418.85 1469.86 L1418.85 1474.78 L1393.97 1474.78 L1393.97 1469.86 Z" fill="#000000" fill-rule="nonzero" fill-opacity="1" /><path clip-path="url(#clip310)" d="M1430.66 1467.43 L1436.76 1467.43 L1436.76 1474.78 L1430.66 1474.78 L1430.66 1467.43 Z" fill="#000000" fill-rule="nonzero" fill-opacity="1" /><path clip-path="url(#clip310)" d="M1449.55 1431.58 L1472.5 1431.58 L1472.5 1436.5 L1454.91 1436.5 L1454.91 1447.09 Q1456.18 1446.65 1457.45 1446.45 Q1458.73 1446.22 1460 1446.22 Q1467.23 1446.22 1471.46 1450.19 Q1475.68 1454.15 1475.68 1460.92 Q1475.68 1467.89 1471.34 1471.77 Q1467 1475.62 1459.1 1475.62 Q1456.38 1475.62 1453.55 1475.16 Q1450.74 1474.69 1447.73 1473.77 L1447.73 1467.89 Q1450.33 1469.31 1453.11 1470.01 Q1455.89 1470.7 1458.99 1470.7 Q1463.99 1470.7 1466.91 1468.07 Q1469.84 1465.43 1469.84 1460.92 Q1469.84 1456.41 1466.91 1453.77 Q1463.99 1451.14 1458.99 1451.14 Q1456.64 1451.14 1454.3 1451.66 Q1451.98 1452.18 1449.55 1453.28 L1449.55 1431.58 Z" fill="#000000" fill-rule="nonzero" fill-opacity="1" /><path clip-path="url(#clip310)" d="M1728.44 1469.86 L1748.84 1469.86 L1748.84 1474.78 L1721.4 1474.78 L1721.4 1469.86 Q1724.73 1466.42 1730.46 1460.63 Q1736.22 1454.81 1737.7 1453.14 Q1740.5 1449.98 1741.6 1447.81 Q1742.73 1445.61 1742.73 1443.5 Q1742.73 1440.06 1740.3 1437.89 Q1737.9 1435.72 1734.02 1435.72 Q1731.27 1435.72 1728.2 1436.67 Q1725.17 1437.63 1721.69 1439.57 L1721.69 1433.66 Q1725.22 1432.25 1728.29 1431.52 Q1731.36 1430.8 1733.9 1430.8 Q1740.62 1430.8 1744.61 1434.16 Q1748.6 1437.51 1748.6 1443.12 Q1748.6 1445.79 1747.59 1448.19 Q1746.61 1450.56 1743.97 1453.8 Q1743.25 1454.64 1739.37 1458.66 Q1735.5 1462.66 1728.44 1469.86 Z" fill="#000000" fill-rule="nonzero" fill-opacity="1" /><path clip-path="url(#clip310)" d="M1761.1 1467.43 L1767.21 1467.43 L1767.21 1474.78 L1761.1 1474.78 L1761.1 1467.43 Z" fill="#000000" fill-rule="nonzero" fill-opacity="1" /><path clip-path="url(#clip310)" d="M1792.44 1435.43 Q1787.93 1435.43 1785.64 1439.88 Q1783.38 1444.31 1783.38 1453.22 Q1783.38 1462.11 1785.64 1466.56 Q1787.93 1470.99 1792.44 1470.99 Q1796.98 1470.99 1799.24 1466.56 Q1801.53 1462.11 1801.53 1453.22 Q1801.53 1444.31 1799.24 1439.88 Q1796.98 1435.43 1792.44 1435.43 M1792.44 1430.8 Q1799.7 1430.8 1803.52 1436.56 Q1807.37 1442.29 1807.37 1453.22 Q1807.37 1464.13 1803.52 1469.89 Q1799.7 1475.62 1792.44 1475.62 Q1785.18 1475.62 1781.33 1469.89 Q1777.51 1464.13 1777.51 1453.22 Q1777.51 1442.29 1781.33 1436.56 Q1785.18 1430.8 1792.44 1430.8 Z" fill="#000000" fill-rule="nonzero" fill-opacity="1" /><path clip-path="url(#clip310)" d="M2059.04 1469.86 L2079.44 1469.86 L2079.44 1474.78 L2052.01 1474.78 L2052.01 1469.86 Q2055.34 1466.42 2061.06 1460.63 Q2066.82 1454.81 2068.3 1453.14 Q2071.11 1449.98 2072.2 1447.81 Q2073.33 1445.61 2073.33 1443.5 Q2073.33 1440.06 2070.9 1437.89 Q2068.5 1435.72 2064.62 1435.72 Q2061.87 1435.72 2058.81 1436.67 Q2055.77 1437.63 2052.3 1439.57 L2052.3 1433.66 Q2055.83 1432.25 2058.89 1431.52 Q2061.96 1430.8 2064.51 1430.8 Q2071.22 1430.8 2075.21 1434.16 Q2079.21 1437.51 2079.21 1443.12 Q2079.21 1445.79 2078.19 1448.19 Q2077.21 1450.56 2074.58 1453.8 Q2073.85 1454.64 2069.98 1458.66 Q2066.1 1462.66 2059.04 1469.86 Z" fill="#000000" fill-rule="nonzero" fill-opacity="1" /><path clip-path="url(#clip310)" d="M2091.71 1467.43 L2097.81 1467.43 L2097.81 1474.78 L2091.71 1474.78 L2091.71 1467.43 Z" fill="#000000" fill-rule="nonzero" fill-opacity="1" /><path clip-path="url(#clip310)" d="M2110.6 1431.58 L2133.55 1431.58 L2133.55 1436.5 L2115.95 1436.5 L2115.95 1447.09 Q2117.23 1446.65 2118.5 1446.45 Q2119.77 1446.22 2121.05 1446.22 Q2128.28 1446.22 2132.51 1450.19 Q2136.73 1454.15 2136.73 1460.92 Q2136.73 1467.89 2132.39 1471.77 Q2128.05 1475.62 2120.15 1475.62 Q2117.43 1475.62 2114.59 1475.16 Q2111.79 1474.69 2108.78 1473.77 L2108.78 1467.89 Q2111.38 1469.31 2114.16 1470.01 Q2116.94 1470.7 2120.03 1470.7 Q2125.04 1470.7 2127.96 1468.07 Q2130.88 1465.43 2130.88 1460.92 Q2130.88 1456.41 2127.96 1453.77 Q2125.04 1451.14 2120.03 1451.14 Q2117.69 1451.14 2115.35 1451.66 Q2113.03 1452.18 2110.6 1453.28 L2110.6 1431.58 Z" fill="#000000" fill-rule="nonzero" fill-opacity="1" /><path clip-path="url(#clip310)" d="M1174.03 1528.22 Q1174.03 1529.28 1173.74 1531.37 Q1173.45 1533.46 1172.75 1536.5 Q1172.06 1539.53 1171.03 1542.73 Q1170.05 1545.92 1168.49 1549.12 Q1166.93 1552.28 1165.09 1554.78 Q1163.25 1557.28 1160.66 1558.83 Q1158.08 1560.39 1155.17 1560.39 Q1153.82 1560.39 1152.51 1560.19 Q1151.19 1559.98 1149.55 1559.33 Q1147.92 1558.67 1146.73 1557.6 Q1145.54 1556.5 1144.72 1554.53 Q1143.9 1552.56 1143.9 1549.98 Q1143.9 1547.32 1144.88 1543.75 Q1145.91 1540.14 1148.69 1532.77 Q1150.13 1528.95 1150.13 1526.86 Q1150.13 1525.92 1149.92 1525.35 Q1149.72 1524.73 1149.31 1524.53 Q1148.9 1524.28 1148.65 1524.24 Q1148.45 1524.2 1148.04 1524.2 Q1145.78 1524.2 1143.49 1526.53 Q1141.19 1528.87 1139.55 1534.61 Q1139.23 1535.63 1139.02 1535.88 Q1138.82 1536.13 1138.2 1536.13 Q1137.18 1536.09 1137.18 1535.27 Q1137.18 1535.02 1137.46 1534.08 Q1137.75 1533.09 1138.28 1531.62 Q1138.82 1530.1 1139.76 1528.54 Q1140.7 1526.94 1141.85 1525.55 Q1143.04 1524.16 1144.72 1523.26 Q1146.4 1522.35 1148.28 1522.35 Q1151.36 1522.35 1153.24 1524.36 Q1155.17 1526.33 1155.17 1529.24 Q1155.17 1530.84 1154.15 1533.42 Q1152.42 1538.09 1151.65 1540.35 Q1150.87 1542.6 1150.05 1545.8 Q1149.27 1549 1149.27 1551.21 Q1149.27 1554.57 1150.83 1556.54 Q1152.38 1558.51 1155.5 1558.51 Q1158.29 1558.51 1160.79 1556.5 Q1163.33 1554.45 1165.01 1551.54 Q1166.69 1548.59 1167.96 1545.31 Q1169.23 1541.99 1169.8 1539.49 Q1170.42 1536.95 1170.42 1535.76 Q1170.42 1531.62 1167.59 1528.91 Q1166.81 1528.13 1166.52 1527.64 Q1166.24 1527.15 1166.24 1526.37 Q1166.24 1524.94 1167.51 1523.67 Q1168.82 1522.35 1170.34 1522.35 Q1171.73 1522.35 1172.88 1523.75 Q1174.03 1525.14 1174.03 1528.22 Z" fill="#000000" fill-rule="nonzero" fill-opacity="1" /><path clip-path="url(#clip310)" d="M1177.49 1579.25 Q1177.49 1578.84 1177.82 1577.94 L1207.45 1498.74 Q1207.45 1498.66 1207.66 1498.21 Q1207.86 1497.76 1207.98 1497.47 Q1208.11 1497.15 1208.35 1496.9 Q1208.64 1496.65 1208.97 1496.65 Q1209.79 1496.65 1209.79 1497.68 Q1209.79 1497.76 1209.54 1498.74 L1179.82 1578.02 Q1179.33 1579.45 1179 1579.86 Q1178.72 1580.27 1178.23 1580.27 Q1177.49 1580.27 1177.49 1579.25 Z" fill="#000000" fill-rule="nonzero" fill-opacity="1" /><path clip-path="url(#clip310)" d="M1274.64 1528.22 Q1274.64 1531.37 1272.92 1538.34 Q1271.2 1545.31 1269.11 1550.06 Q1264.64 1560.39 1256.93 1560.39 Q1255.99 1560.39 1255.05 1560.31 Q1254.15 1560.23 1252.79 1559.86 Q1251.44 1559.49 1250.33 1558.92 Q1249.23 1558.3 1248.12 1557.15 Q1247.05 1556.01 1246.44 1554.49 Q1243.04 1560.39 1237.71 1560.39 Q1232.54 1560.39 1229.14 1557.77 Q1225.78 1555.15 1225.78 1549.78 Q1225.78 1547.36 1226.76 1543.79 Q1227.75 1540.23 1230.49 1532.85 Q1232.01 1529.04 1232.01 1526.94 Q1232.01 1526 1231.81 1525.39 Q1231.6 1524.77 1231.19 1524.57 Q1230.82 1524.32 1230.58 1524.28 Q1230.33 1524.2 1229.92 1524.2 Q1227.46 1524.2 1225.25 1526.7 Q1223.03 1529.16 1221.44 1534.61 Q1221.11 1535.63 1220.9 1535.88 Q1220.7 1536.13 1220.08 1536.13 Q1219.06 1536.09 1219.06 1535.27 Q1219.06 1534.94 1219.43 1533.67 Q1219.8 1532.36 1220.66 1530.43 Q1221.56 1528.46 1222.79 1526.7 Q1224.02 1524.9 1225.94 1523.62 Q1227.91 1522.35 1230.17 1522.35 Q1233.2 1522.35 1235.13 1524.36 Q1237.05 1526.37 1237.05 1529.24 Q1237.05 1530.06 1236.85 1530.96 Q1236.64 1531.82 1236.44 1532.4 Q1236.27 1532.93 1235.62 1534.61 Q1232.91 1541.7 1232.05 1545.1 Q1231.23 1548.5 1231.23 1550.88 Q1231.23 1551.66 1231.27 1552.28 Q1231.31 1552.89 1231.64 1554.16 Q1232.01 1555.43 1232.67 1556.29 Q1233.32 1557.11 1234.68 1557.81 Q1236.07 1558.51 1237.95 1558.51 Q1242.67 1558.51 1245.7 1551.46 Q1245.62 1551.05 1245.62 1549.98 Q1245.62 1547.6 1246.36 1544.41 Q1246.56 1543.67 1247.75 1538.95 Q1248.94 1534.2 1249.96 1530.06 Q1251.03 1525.88 1251.15 1525.63 Q1251.56 1524.49 1252.46 1523.87 Q1253.37 1523.26 1254.27 1523.26 Q1255.29 1523.26 1255.99 1523.87 Q1256.69 1524.49 1256.69 1525.55 Q1256.69 1525.76 1256.44 1526.7 Q1256.24 1527.6 1255.91 1528.95 Q1255.58 1530.31 1255.42 1531 L1251.89 1545.1 Q1250.99 1548.38 1250.99 1551.21 Q1250.99 1554.78 1252.59 1556.66 Q1254.19 1558.51 1257.18 1558.51 Q1262.79 1558.51 1266.4 1551.13 Q1268.04 1547.93 1269.52 1542.93 Q1271.03 1537.93 1271.03 1535.76 Q1271.03 1531.66 1268 1528.63 Q1267.34 1528.05 1267.06 1527.6 Q1266.77 1527.11 1266.77 1526.37 Q1266.77 1524.98 1268.08 1523.67 Q1269.39 1522.35 1270.95 1522.35 Q1272.34 1522.35 1273.49 1523.75 Q1274.64 1525.1 1274.64 1528.22 Z" fill="#000000" fill-rule="nonzero" fill-opacity="1" /><polyline clip-path="url(#clip310)" style="stroke:#000000; stroke-linecap:round; stroke-linejoin:round; stroke-width:4; stroke-opacity:1; fill:none" points="268.189,1401.58 268.189,47.2441 "/>
<polyline clip-path="url(#clip310)" style="stroke:#000000; stroke-linecap:round; stroke-linejoin:round; stroke-width:4; stroke-opacity:1; fill:none" points="268.189,1401.58 287.087,1401.58 "/>
<polyline clip-path="url(#clip310)" style="stroke:#000000; stroke-linecap:round; stroke-linejoin:round; stroke-width:4; stroke-opacity:1; fill:none" points="268.189,813.002 287.087,813.002 "/>
<polyline clip-path="url(#clip310)" style="stroke:#000000; stroke-linecap:round; stroke-linejoin:round; stroke-width:4; stroke-opacity:1; fill:none" points="268.189,224.424 287.087,224.424 "/>
<path clip-path="url(#clip310)" d="M143.807 1426.32 L153.356 1426.32 L153.356 1393.36 L142.968 1395.45 L142.968 1390.12 L153.298 1388.04 L159.143 1388.04 L159.143 1426.32 L168.691 1426.32 L168.691 1431.24 L143.807 1431.24 L143.807 1426.32 Z" fill="#000000" fill-rule="nonzero" fill-opacity="1" /><path clip-path="url(#clip310)" d="M192.997 1391.89 Q188.483 1391.89 186.197 1396.34 Q183.94 1400.77 183.94 1409.68 Q183.94 1418.57 186.197 1423.02 Q188.483 1427.45 192.997 1427.45 Q197.54 1427.45 199.797 1423.02 Q202.082 1418.57 202.082 1409.68 Q202.082 1400.77 199.797 1396.34 Q197.54 1391.89 192.997 1391.89 M192.997 1387.26 Q200.26 1387.26 204.079 1393.02 Q207.927 1398.75 207.927 1409.68 Q207.927 1420.59 204.079 1426.35 Q200.26 1432.08 192.997 1432.08 Q185.734 1432.08 181.886 1426.35 Q178.066 1420.59 178.066 1409.68 Q178.066 1398.75 181.886 1393.02 Q185.734 1387.26 192.997 1387.26 Z" fill="#000000" fill-rule="nonzero" fill-opacity="1" /><path clip-path="url(#clip310)" d="M220.058 1365 Q216.391 1365 214.534 1368.62 Q212.7 1372.22 212.7 1379.46 Q212.7 1386.68 214.534 1390.3 Q216.391 1393.9 220.058 1393.9 Q223.749 1393.9 225.583 1390.3 Q227.44 1386.68 227.44 1379.46 Q227.44 1372.22 225.583 1368.62 Q223.749 1365 220.058 1365 M220.058 1361.24 Q225.959 1361.24 229.063 1365.92 Q232.189 1370.57 232.189 1379.46 Q232.189 1388.32 229.063 1393 Q225.959 1397.66 220.058 1397.66 Q214.157 1397.66 211.031 1393 Q207.927 1388.32 207.927 1379.46 Q207.927 1370.57 211.031 1365.92 Q214.157 1361.24 220.058 1361.24 Z" fill="#000000" fill-rule="nonzero" fill-opacity="1" /><path clip-path="url(#clip310)" d="M147.169 837.742 L156.718 837.742 L156.718 804.785 L146.33 806.869 L146.33 801.545 L156.66 799.461 L162.505 799.461 L162.505 837.742 L172.053 837.742 L172.053 842.661 L147.169 842.661 L147.169 837.742 Z" fill="#000000" fill-rule="nonzero" fill-opacity="1" /><path clip-path="url(#clip310)" d="M196.359 803.31 Q191.845 803.31 189.559 807.766 Q187.302 812.193 187.302 821.105 Q187.302 829.988 189.559 834.444 Q191.845 838.871 196.359 838.871 Q200.902 838.871 203.158 834.444 Q205.444 829.988 205.444 821.105 Q205.444 812.193 203.158 807.766 Q200.902 803.31 196.359 803.31 M196.359 798.68 Q203.621 798.68 207.441 804.438 Q211.289 810.167 211.289 821.105 Q211.289 832.013 207.441 837.771 Q203.621 843.5 196.359 843.5 Q189.096 843.5 185.248 837.771 Q181.428 832.013 181.428 821.105 Q181.428 810.167 185.248 804.438 Q189.096 798.68 196.359 798.68 Z" fill="#000000" fill-rule="nonzero" fill-opacity="1" /><path clip-path="url(#clip310)" d="M211.971 804.402 L219.729 804.402 L219.729 777.624 L211.289 779.317 L211.289 774.991 L219.682 773.298 L224.431 773.298 L224.431 804.402 L232.189 804.402 L232.189 808.398 L211.971 808.398 L211.971 804.402 Z" fill="#000000" fill-rule="nonzero" fill-opacity="1" /><path clip-path="url(#clip310)" d="M145.782 249.164 L155.331 249.164 L155.331 216.207 L144.943 218.291 L144.943 212.967 L155.273 210.883 L161.118 210.883 L161.118 249.164 L170.666 249.164 L170.666 254.083 L145.782 254.083 L145.782 249.164 Z" fill="#000000" fill-rule="nonzero" fill-opacity="1" /><path clip-path="url(#clip310)" d="M194.972 214.732 Q190.458 214.732 188.172 219.188 Q185.915 223.615 185.915 232.527 Q185.915 241.41 188.172 245.866 Q190.458 250.293 194.972 250.293 Q199.514 250.293 201.771 245.866 Q204.057 241.41 204.057 232.527 Q204.057 223.615 201.771 219.188 Q199.514 214.732 194.972 214.732 M194.972 210.102 Q202.234 210.102 206.054 215.86 Q209.902 221.589 209.902 232.527 Q209.902 243.435 206.054 249.193 Q202.234 254.922 194.972 254.922 Q187.709 254.922 183.861 249.193 Q180.041 243.435 180.041 232.527 Q180.041 221.589 183.861 215.86 Q187.709 210.102 194.972 210.102 Z" fill="#000000" fill-rule="nonzero" fill-opacity="1" /><path clip-path="url(#clip310)" d="M215.615 215.824 L232.189 215.824 L232.189 219.82 L209.902 219.82 L209.902 215.824 Q212.606 213.026 217.261 208.324 Q221.939 203.599 223.138 202.235 Q225.419 199.672 226.312 197.909 Q227.229 196.122 227.229 194.406 Q227.229 191.609 225.254 189.845 Q223.303 188.082 220.152 188.082 Q217.919 188.082 215.427 188.858 Q212.958 189.634 210.137 191.209 L210.137 186.413 Q213.005 185.261 215.497 184.673 Q217.989 184.085 220.058 184.085 Q225.513 184.085 228.757 186.813 Q232.001 189.54 232.001 194.101 Q232.001 196.264 231.178 198.215 Q230.379 200.143 228.24 202.776 Q227.652 203.457 224.502 206.725 Q221.351 209.97 215.615 215.824 Z" fill="#000000" fill-rule="nonzero" fill-opacity="1" /><path clip-path="url(#clip310)" d="M50.4216 921.023 Q49.6925 922.278 49.3684 923.777 Q49.0038 925.236 49.0038 927.018 Q49.0038 933.337 53.1357 936.74 Q57.2271 940.102 64.9239 940.102 L88.8242 940.102 L88.8242 947.597 L43.4541 947.597 L43.4541 940.102 L50.5026 940.102 Q46.3707 937.753 44.3858 933.985 Q42.3603 930.218 42.3603 924.83 Q42.3603 924.061 42.4818 923.129 Q42.5629 922.197 42.7654 921.063 L50.4216 921.023 Z" fill="#000000" fill-rule="nonzero" fill-opacity="1" /><path clip-path="url(#clip310)" d="M70.9192 913.974 L43.4541 913.974 L43.4541 906.52 L70.6356 906.52 Q77.0766 906.52 80.3173 904.009 Q83.5175 901.497 83.5175 896.474 Q83.5175 890.438 79.6691 886.955 Q75.8208 883.43 69.1773 883.43 L43.4541 883.43 L43.4541 875.977 L88.8242 875.977 L88.8242 883.43 L81.8566 883.43 Q85.9886 886.144 88.014 889.75 Q89.999 893.314 89.999 898.054 Q89.999 905.872 85.1379 909.923 Q80.2768 913.974 70.9192 913.974 M42.3603 895.218 L42.3603 895.218 Z" fill="#000000" fill-rule="nonzero" fill-opacity="1" /><path clip-path="url(#clip310)" d="M61.4401 822.91 L88.8242 822.91 L88.8242 830.363 L61.6831 830.363 Q55.2422 830.363 52.042 832.875 Q48.8418 835.386 48.8418 840.41 Q48.8418 846.445 52.6901 849.929 Q56.5385 853.413 63.182 853.413 L88.8242 853.413 L88.8242 860.907 L43.4541 860.907 L43.4541 853.413 L50.5026 853.413 Q46.4112 850.739 44.3858 847.134 Q42.3603 843.488 42.3603 838.749 Q42.3603 830.93 47.2214 826.92 Q52.042 822.91 61.4401 822.91 Z" fill="#000000" fill-rule="nonzero" fill-opacity="1" /><path clip-path="url(#clip310)" d="M30.5722 800.67 L43.4541 800.67 L43.4541 785.317 L49.2469 785.317 L49.2469 800.67 L73.8764 800.67 Q79.4261 800.67 81.0059 799.171 Q82.5858 797.632 82.5858 792.974 L82.5858 785.317 L88.8242 785.317 L88.8242 792.974 Q88.8242 801.602 85.624 804.883 Q82.3833 808.164 73.8764 808.164 L49.2469 808.164 L49.2469 813.633 L43.4541 813.633 L43.4541 808.164 L30.5722 808.164 L30.5722 800.67 Z" fill="#000000" fill-rule="nonzero" fill-opacity="1" /><path clip-path="url(#clip310)" d="M43.4541 775.514 L43.4541 768.06 L88.8242 768.06 L88.8242 775.514 L43.4541 775.514 M25.7921 775.514 L25.7921 768.06 L35.2307 768.06 L35.2307 775.514 L25.7921 775.514 Z" fill="#000000" fill-rule="nonzero" fill-opacity="1" /><path clip-path="url(#clip310)" d="M52.1635 717.141 Q47.1404 714.345 44.7504 710.457 Q42.3603 706.568 42.3603 701.302 Q42.3603 694.212 47.3429 690.364 Q52.285 686.516 61.4401 686.516 L88.8242 686.516 L88.8242 694.01 L61.6831 694.01 Q55.1612 694.01 52.0015 696.319 Q48.8418 698.628 48.8418 703.368 Q48.8418 709.16 52.6901 712.523 Q56.5385 715.885 63.182 715.885 L88.8242 715.885 L88.8242 723.379 L61.6831 723.379 Q55.1207 723.379 52.0015 725.688 Q48.8418 727.997 48.8418 732.818 Q48.8418 738.529 52.7306 741.892 Q56.579 745.254 63.182 745.254 L88.8242 745.254 L88.8242 752.748 L43.4541 752.748 L43.4541 745.254 L50.5026 745.254 Q46.3302 742.702 44.3453 739.137 Q42.3603 735.572 42.3603 730.671 Q42.3603 725.729 44.8719 722.285 Q47.3834 718.801 52.1635 717.141 Z" fill="#000000" fill-rule="nonzero" fill-opacity="1" /><path clip-path="url(#clip310)" d="M64.2757 632.841 L67.9215 632.841 L67.9215 667.112 Q75.6182 666.626 79.6691 662.494 Q83.6795 658.321 83.6795 650.908 Q83.6795 646.614 82.6263 642.604 Q81.5731 638.553 79.4666 634.583 L86.5152 634.583 Q88.2166 638.594 89.1078 642.807 Q89.999 647.019 89.999 651.354 Q89.999 662.21 83.6795 668.57 Q77.3601 674.89 66.5847 674.89 Q55.4447 674.89 48.9228 668.894 Q42.3603 662.858 42.3603 652.65 Q42.3603 643.495 48.2746 638.188 Q54.1484 632.841 64.2757 632.841 M62.0882 640.295 Q55.9714 640.376 52.3255 643.738 Q48.6797 647.06 48.6797 652.569 Q48.6797 658.808 52.204 662.575 Q55.7283 666.302 62.1287 666.869 L62.0882 640.295 Z" fill="#000000" fill-rule="nonzero" fill-opacity="1" /><path clip-path="url(#clip310)" d="M25.8731 576.331 Q35.1902 581.759 44.3048 584.392 Q53.4193 587.026 62.7769 587.026 Q72.1345 587.026 81.33 584.392 Q90.4851 581.719 99.7616 576.331 L99.7616 582.813 Q90.242 588.889 81.0465 591.927 Q71.8509 594.925 62.7769 594.925 Q53.7434 594.925 44.5883 591.927 Q35.4333 588.929 25.8731 582.813 L25.8731 576.331 Z" fill="#000000" fill-rule="nonzero" fill-opacity="1" /><path clip-path="url(#clip310)" d="M44.7909 532.946 L51.8394 532.946 Q50.2191 536.106 49.4089 539.508 Q48.5987 542.911 48.5987 546.557 Q48.5987 552.107 50.3001 554.902 Q52.0015 557.656 55.4042 557.656 Q57.9968 557.656 59.4956 555.672 Q60.954 553.687 62.2908 547.691 L62.8579 545.139 Q64.5593 537.199 67.6785 533.878 Q70.7572 530.515 76.3069 530.515 Q82.6263 530.515 86.3126 535.539 Q89.999 540.521 89.999 549.271 Q89.999 552.917 89.2698 556.887 Q88.5811 560.816 87.1633 565.191 L79.4666 565.191 Q81.6136 561.059 82.7073 557.049 Q83.7606 553.038 83.7606 549.109 Q83.7606 543.843 81.9782 541.007 Q80.1553 538.172 76.874 538.172 Q73.8358 538.172 72.2155 540.238 Q70.5951 542.263 69.0963 549.19 L68.4886 551.783 Q67.0303 558.71 64.0327 561.788 Q60.9945 564.867 55.7283 564.867 Q49.3279 564.867 45.8441 560.33 Q42.3603 555.793 42.3603 547.448 Q42.3603 543.316 42.968 539.67 Q43.5756 536.025 44.7909 532.946 Z" fill="#000000" fill-rule="nonzero" fill-opacity="1" /><path clip-path="url(#clip310)" d="M25.8731 519.821 L25.8731 513.34 Q35.4333 507.263 44.5883 504.266 Q53.7434 501.227 62.7769 501.227 Q71.8509 501.227 81.0465 504.266 Q90.242 507.263 99.7616 513.34 L99.7616 519.821 Q90.4851 514.433 81.33 511.8 Q72.1345 509.127 62.7769 509.127 Q53.4193 509.127 44.3048 511.8 Q35.1902 514.433 25.8731 519.821 Z" fill="#000000" fill-rule="nonzero" fill-opacity="1" /><path clip-path="url(#clip312)" d="M361.967 1464.52 L361.967 1990.16 L394.965 1990.16 L394.965 1464.52 L361.967 1464.52 L361.967 1464.52  Z" fill="#009af9" fill-rule="evenodd" fill-opacity="1"/>
<polyline clip-path="url(#clip312)" style="stroke:#000000; stroke-linecap:round; stroke-linejoin:round; stroke-width:2; stroke-opacity:1; fill:none" points="361.967,1464.52 361.967,1990.16 394.965,1990.16 394.965,1464.52 361.967,1464.52 "/>
<path clip-path="url(#clip312)" d="M691.948 689.013 L691.948 1990.16 L724.946 1990.16 L724.946 689.013 L691.948 689.013 L691.948 689.013  Z" fill="#009af9" fill-rule="evenodd" fill-opacity="1"/>
<polyline clip-path="url(#clip312)" style="stroke:#000000; stroke-linecap:round; stroke-linejoin:round; stroke-width:2; stroke-opacity:1; fill:none" points="691.948,689.013 691.948,1990.16 724.946,1990.16 724.946,689.013 691.948,689.013 "/>
<path clip-path="url(#clip312)" d="M1021.93 392.941 L1021.93 1990.16 L1054.93 1990.16 L1054.93 392.941 L1021.93 392.941 L1021.93 392.941  Z" fill="#009af9" fill-rule="evenodd" fill-opacity="1"/>
<polyline clip-path="url(#clip312)" style="stroke:#000000; stroke-linecap:round; stroke-linejoin:round; stroke-width:2; stroke-opacity:1; fill:none" points="1021.93,392.941 1021.93,1990.16 1054.93,1990.16 1054.93,392.941 1021.93,392.941 "/>
<path clip-path="url(#clip312)" d="M1351.91 677.034 L1351.91 1990.16 L1384.91 1990.16 L1384.91 677.034 L1351.91 677.034 L1351.91 677.034  Z" fill="#009af9" fill-rule="evenodd" fill-opacity="1"/>
<polyline clip-path="url(#clip312)" style="stroke:#000000; stroke-linecap:round; stroke-linejoin:round; stroke-width:2; stroke-opacity:1; fill:none" points="1351.91,677.034 1351.91,1990.16 1384.91,1990.16 1384.91,677.034 1351.91,677.034 "/>
<path clip-path="url(#clip312)" d="M1681.89 704.213 L1681.89 1990.16 L1714.89 1990.16 L1714.89 704.213 L1681.89 704.213 L1681.89 704.213  Z" fill="#009af9" fill-rule="evenodd" fill-opacity="1"/>
<polyline clip-path="url(#clip312)" style="stroke:#000000; stroke-linecap:round; stroke-linejoin:round; stroke-width:2; stroke-opacity:1; fill:none" points="1681.89,704.213 1681.89,1990.16 1714.89,1990.16 1714.89,704.213 1681.89,704.213 "/>
<circle clip-path="url(#clip312)" style="fill:#009af9; stroke:none; fill-opacity:0" cx="708.447" cy="689.013" r="2"/>
<circle clip-path="url(#clip312)" style="fill:#009af9; stroke:none; fill-opacity:0" cx="1038.43" cy="392.941" r="2"/>
<circle clip-path="url(#clip312)" style="fill:#009af9; stroke:none; fill-opacity:0" cx="1368.41" cy="677.034" r="2"/>
<circle clip-path="url(#clip312)" style="fill:#009af9; stroke:none; fill-opacity:0" cx="1698.39" cy="704.213" r="2"/>
<path clip-path="url(#clip312)" d="M394.965 1189.43 L394.965 1401.58 L427.963 1401.58 L427.963 1189.43 L394.965 1189.43 L394.965 1189.43  Z" fill="#e26f46" fill-rule="evenodd" fill-opacity="1"/>
<polyline clip-path="url(#clip312)" style="stroke:#000000; stroke-linecap:round; stroke-linejoin:round; stroke-width:2; stroke-opacity:1; fill:none" points="394.965,1189.43 394.965,1401.58 427.963,1401.58 427.963,1189.43 394.965,1189.43 "/>
<path clip-path="url(#clip312)" d="M724.946 583.009 L724.946 1401.58 L757.944 1401.58 L757.944 583.009 L724.946 583.009 L724.946 583.009  Z" fill="#e26f46" fill-rule="evenodd" fill-opacity="1"/>
<polyline clip-path="url(#clip312)" style="stroke:#000000; stroke-linecap:round; stroke-linejoin:round; stroke-width:2; stroke-opacity:1; fill:none" points="724.946,583.009 724.946,1401.58 757.944,1401.58 757.944,583.009 724.946,583.009 "/>
<path clip-path="url(#clip312)" d="M1054.93 362.647 L1054.93 1401.58 L1087.93 1401.58 L1087.93 362.647 L1054.93 362.647 L1054.93 362.647  Z" fill="#e26f46" fill-rule="evenodd" fill-opacity="1"/>
<polyline clip-path="url(#clip312)" style="stroke:#000000; stroke-linecap:round; stroke-linejoin:round; stroke-width:2; stroke-opacity:1; fill:none" points="1054.93,362.647 1054.93,1401.58 1087.93,1401.58 1087.93,362.647 1054.93,362.647 "/>
<path clip-path="url(#clip312)" d="M1384.91 567.139 L1384.91 1401.58 L1417.91 1401.58 L1417.91 567.139 L1384.91 567.139 L1384.91 567.139  Z" fill="#e26f46" fill-rule="evenodd" fill-opacity="1"/>
<polyline clip-path="url(#clip312)" style="stroke:#000000; stroke-linecap:round; stroke-linejoin:round; stroke-width:2; stroke-opacity:1; fill:none" points="1384.91,567.139 1384.91,1401.58 1417.91,1401.58 1417.91,567.139 1384.91,567.139 "/>
<path clip-path="url(#clip312)" d="M1714.89 596.307 L1714.89 1401.58 L1747.89 1401.58 L1747.89 596.307 L1714.89 596.307 L1714.89 596.307  Z" fill="#e26f46" fill-rule="evenodd" fill-opacity="1"/>
<polyline clip-path="url(#clip312)" style="stroke:#000000; stroke-linecap:round; stroke-linejoin:round; stroke-width:2; stroke-opacity:1; fill:none" points="1714.89,596.307 1714.89,1401.58 1747.89,1401.58 1747.89,596.307 1714.89,596.307 "/>
<circle clip-path="url(#clip312)" style="fill:#e26f46; stroke:none; fill-opacity:0" cx="411.464" cy="1189.43" r="2"/>
<circle clip-path="url(#clip312)" style="fill:#e26f46; stroke:none; fill-opacity:0" cx="741.445" cy="583.009" r="2"/>
<circle clip-path="url(#clip312)" style="fill:#e26f46; stroke:none; fill-opacity:0" cx="1071.43" cy="362.647" r="2"/>
<circle clip-path="url(#clip312)" style="fill:#e26f46; stroke:none; fill-opacity:0" cx="1401.41" cy="567.139" r="2"/>
<circle clip-path="url(#clip312)" style="fill:#e26f46; stroke:none; fill-opacity:0" cx="1731.39" cy="596.307" r="2"/>
<path clip-path="url(#clip312)" d="M427.963 1155.52 L427.963 1401.58 L460.961 1401.58 L460.961 1155.52 L427.963 1155.52 L427.963 1155.52  Z" fill="#3da44d" fill-rule="evenodd" fill-opacity="1"/>
<polyline clip-path="url(#clip312)" style="stroke:#000000; stroke-linecap:round; stroke-linejoin:round; stroke-width:2; stroke-opacity:1; fill:none" points="427.963,1155.52 427.963,1401.58 460.961,1401.58 460.961,1155.52 427.963,1155.52 "/>
<path clip-path="url(#clip312)" d="M757.944 594.957 L757.944 1401.58 L790.943 1401.58 L790.943 594.957 L757.944 594.957 L757.944 594.957  Z" fill="#3da44d" fill-rule="evenodd" fill-opacity="1"/>
<polyline clip-path="url(#clip312)" style="stroke:#000000; stroke-linecap:round; stroke-linejoin:round; stroke-width:2; stroke-opacity:1; fill:none" points="757.944,594.957 757.944,1401.58 790.943,1401.58 790.943,594.957 757.944,594.957 "/>
<path clip-path="url(#clip312)" d="M1087.93 332.722 L1087.93 1401.58 L1120.92 1401.58 L1120.92 332.722 L1087.93 332.722 L1087.93 332.722  Z" fill="#3da44d" fill-rule="evenodd" fill-opacity="1"/>
<polyline clip-path="url(#clip312)" style="stroke:#000000; stroke-linecap:round; stroke-linejoin:round; stroke-width:2; stroke-opacity:1; fill:none" points="1087.93,332.722 1087.93,1401.58 1120.92,1401.58 1120.92,332.722 1087.93,332.722 "/>
<path clip-path="url(#clip312)" d="M1417.91 585.171 L1417.91 1401.58 L1450.91 1401.58 L1450.91 585.171 L1417.91 585.171 L1417.91 585.171  Z" fill="#3da44d" fill-rule="evenodd" fill-opacity="1"/>
<polyline clip-path="url(#clip312)" style="stroke:#000000; stroke-linecap:round; stroke-linejoin:round; stroke-width:2; stroke-opacity:1; fill:none" points="1417.91,585.171 1417.91,1401.58 1450.91,1401.58 1450.91,585.171 1417.91,585.171 "/>
<path clip-path="url(#clip312)" d="M1747.89 604.131 L1747.89 1401.58 L1780.89 1401.58 L1780.89 604.131 L1747.89 604.131 L1747.89 604.131  Z" fill="#3da44d" fill-rule="evenodd" fill-opacity="1"/>
<polyline clip-path="url(#clip312)" style="stroke:#000000; stroke-linecap:round; stroke-linejoin:round; stroke-width:2; stroke-opacity:1; fill:none" points="1747.89,604.131 1747.89,1401.58 1780.89,1401.58 1780.89,604.131 1747.89,604.131 "/>
<circle clip-path="url(#clip312)" style="fill:#3da44d; stroke:none; fill-opacity:0" cx="444.462" cy="1155.52" r="2"/>
<circle clip-path="url(#clip312)" style="fill:#3da44d; stroke:none; fill-opacity:0" cx="774.443" cy="594.957" r="2"/>
<circle clip-path="url(#clip312)" style="fill:#3da44d; stroke:none; fill-opacity:0" cx="1104.42" cy="332.722" r="2"/>
<circle clip-path="url(#clip312)" style="fill:#3da44d; stroke:none; fill-opacity:0" cx="1434.41" cy="585.171" r="2"/>
<circle clip-path="url(#clip312)" style="fill:#3da44d; stroke:none; fill-opacity:0" cx="1764.39" cy="604.131" r="2"/>
<path clip-path="url(#clip312)" d="M460.961 1302.16 L460.961 1401.58 L493.959 1401.58 L493.959 1302.16 L460.961 1302.16 L460.961 1302.16  Z" fill="#c271d2" fill-rule="evenodd" fill-opacity="1"/>
<polyline clip-path="url(#clip312)" style="stroke:#000000; stroke-linecap:round; stroke-linejoin:round; stroke-width:2; stroke-opacity:1; fill:none" points="460.961,1302.16 460.961,1401.58 493.959,1401.58 493.959,1302.16 460.961,1302.16 "/>
<path clip-path="url(#clip312)" d="M790.943 1120.19 L790.943 1401.58 L823.941 1401.58 L823.941 1120.19 L790.943 1120.19 L790.943 1120.19  Z" fill="#c271d2" fill-rule="evenodd" fill-opacity="1"/>
<polyline clip-path="url(#clip312)" style="stroke:#000000; stroke-linecap:round; stroke-linejoin:round; stroke-width:2; stroke-opacity:1; fill:none" points="790.943,1120.19 790.943,1401.58 823.941,1401.58 823.941,1120.19 790.943,1120.19 "/>
<path clip-path="url(#clip312)" d="M1120.92 1191.83 L1120.92 1401.58 L1153.92 1401.58 L1153.92 1191.83 L1120.92 1191.83 L1120.92 1191.83  Z" fill="#c271d2" fill-rule="evenodd" fill-opacity="1"/>
<polyline clip-path="url(#clip312)" style="stroke:#000000; stroke-linecap:round; stroke-linejoin:round; stroke-width:2; stroke-opacity:1; fill:none" points="1120.92,1191.83 1120.92,1401.58 1153.92,1401.58 1153.92,1191.83 1120.92,1191.83 "/>
<path clip-path="url(#clip312)" d="M1450.91 1249.9 L1450.91 1401.58 L1483.9 1401.58 L1483.9 1249.9 L1450.91 1249.9 L1450.91 1249.9  Z" fill="#c271d2" fill-rule="evenodd" fill-opacity="1"/>
<polyline clip-path="url(#clip312)" style="stroke:#000000; stroke-linecap:round; stroke-linejoin:round; stroke-width:2; stroke-opacity:1; fill:none" points="1450.91,1249.9 1450.91,1401.58 1483.9,1401.58 1483.9,1249.9 1450.91,1249.9 "/>
<path clip-path="url(#clip312)" d="M1780.89 1186.25 L1780.89 1401.58 L1813.88 1401.58 L1813.88 1186.25 L1780.89 1186.25 L1780.89 1186.25  Z" fill="#c271d2" fill-rule="evenodd" fill-opacity="1"/>
<polyline clip-path="url(#clip312)" style="stroke:#000000; stroke-linecap:round; stroke-linejoin:round; stroke-width:2; stroke-opacity:1; fill:none" points="1780.89,1186.25 1780.89,1401.58 1813.88,1401.58 1813.88,1186.25 1780.89,1186.25 "/>
<circle clip-path="url(#clip312)" style="fill:#c271d2; stroke:none; fill-opacity:0" cx="477.46" cy="1302.16" r="2"/>
<circle clip-path="url(#clip312)" style="fill:#c271d2; stroke:none; fill-opacity:0" cx="807.442" cy="1120.19" r="2"/>
<circle clip-path="url(#clip312)" style="fill:#c271d2; stroke:none; fill-opacity:0" cx="1137.42" cy="1191.83" r="2"/>
<circle clip-path="url(#clip312)" style="fill:#c271d2; stroke:none; fill-opacity:0" cx="1467.4" cy="1249.9" r="2"/>
<circle clip-path="url(#clip312)" style="fill:#c271d2; stroke:none; fill-opacity:0" cx="1797.39" cy="1186.25" r="2"/>
<path clip-path="url(#clip312)" d="M493.959 1350.13 L493.959 1401.58 L526.957 1401.58 L526.957 1350.13 L493.959 1350.13 L493.959 1350.13  Z" fill="#ac8d18" fill-rule="evenodd" fill-opacity="1"/>
<polyline clip-path="url(#clip312)" style="stroke:#000000; stroke-linecap:round; stroke-linejoin:round; stroke-width:2; stroke-opacity:1; fill:none" points="493.959,1350.13 493.959,1401.58 526.957,1401.58 526.957,1350.13 493.959,1350.13 "/>
<path clip-path="url(#clip312)" d="M823.941 915.504 L823.941 1401.58 L856.939 1401.58 L856.939 915.504 L823.941 915.504 L823.941 915.504  Z" fill="#ac8d18" fill-rule="evenodd" fill-opacity="1"/>
<polyline clip-path="url(#clip312)" style="stroke:#000000; stroke-linecap:round; stroke-linejoin:round; stroke-width:2; stroke-opacity:1; fill:none" points="823.941,915.504 823.941,1401.58 856.939,1401.58 856.939,915.504 823.941,915.504 "/>
<path clip-path="url(#clip312)" d="M1153.92 612.387 L1153.92 1401.58 L1186.92 1401.58 L1186.92 612.387 L1153.92 612.387 L1153.92 612.387  Z" fill="#ac8d18" fill-rule="evenodd" fill-opacity="1"/>
<polyline clip-path="url(#clip312)" style="stroke:#000000; stroke-linecap:round; stroke-linejoin:round; stroke-width:2; stroke-opacity:1; fill:none" points="1153.92,612.387 1153.92,1401.58 1186.92,1401.58 1186.92,612.387 1153.92,612.387 "/>
<path clip-path="url(#clip312)" d="M1483.9 873.373 L1483.9 1401.58 L1516.9 1401.58 L1516.9 873.373 L1483.9 873.373 L1483.9 873.373  Z" fill="#ac8d18" fill-rule="evenodd" fill-opacity="1"/>
<polyline clip-path="url(#clip312)" style="stroke:#000000; stroke-linecap:round; stroke-linejoin:round; stroke-width:2; stroke-opacity:1; fill:none" points="1483.9,873.373 1483.9,1401.58 1516.9,1401.58 1516.9,873.373 1483.9,873.373 "/>
<path clip-path="url(#clip312)" d="M1813.88 884.354 L1813.88 1401.58 L1846.88 1401.58 L1846.88 884.354 L1813.88 884.354 L1813.88 884.354  Z" fill="#ac8d18" fill-rule="evenodd" fill-opacity="1"/>
<polyline clip-path="url(#clip312)" style="stroke:#000000; stroke-linecap:round; stroke-linejoin:round; stroke-width:2; stroke-opacity:1; fill:none" points="1813.88,884.354 1813.88,1401.58 1846.88,1401.58 1846.88,884.354 1813.88,884.354 "/>
<circle clip-path="url(#clip312)" style="fill:#ac8d18; stroke:none; fill-opacity:0" cx="510.458" cy="1350.13" r="2"/>
<circle clip-path="url(#clip312)" style="fill:#ac8d18; stroke:none; fill-opacity:0" cx="840.44" cy="915.504" r="2"/>
<circle clip-path="url(#clip312)" style="fill:#ac8d18; stroke:none; fill-opacity:0" cx="1170.42" cy="612.387" r="2"/>
<circle clip-path="url(#clip312)" style="fill:#ac8d18; stroke:none; fill-opacity:0" cx="1500.4" cy="873.373" r="2"/>
<circle clip-path="url(#clip312)" style="fill:#ac8d18; stroke:none; fill-opacity:0" cx="1830.38" cy="884.354" r="2"/>
<path clip-path="url(#clip310)" d="M330.835 481.189 L808.035 481.189 L808.035 92.3886 L330.835 92.3886  Z" fill="#ffffff" fill-rule="evenodd" fill-opacity="1"/>
<polyline clip-path="url(#clip310)" style="stroke:#000000; stroke-linecap:round; stroke-linejoin:round; stroke-width:4; stroke-opacity:1; fill:none" points="330.835,481.189 808.035,481.189 808.035,92.3886 330.835,92.3886 330.835,481.189 "/>
<path clip-path="url(#clip310)" d="M351.717 183.109 L477.008 183.109 L477.008 131.269 L351.717 131.269 L351.717 183.109  Z" fill="#009af9" fill-rule="evenodd" fill-opacity="1"/>
<polyline clip-path="url(#clip310)" style="stroke:#000000; stroke-linecap:round; stroke-linejoin:round; stroke-width:2.5; stroke-opacity:1; fill:none" points="351.717,183.109 477.008,183.109 477.008,131.269 351.717,131.269 351.717,183.109 "/>
<path clip-path="url(#clip310)" d="M532.728 138.916 L532.728 145.079 Q529.776 142.33 526.42 140.971 Q523.092 139.611 519.331 139.611 Q511.924 139.611 507.988 144.153 Q504.053 148.667 504.053 157.232 Q504.053 165.768 507.988 170.311 Q511.924 174.825 519.331 174.825 Q523.092 174.825 526.42 173.465 Q529.776 172.105 532.728 169.356 L532.728 175.461 Q529.661 177.544 526.217 178.586 Q522.803 179.628 518.984 179.628 Q509.175 179.628 503.532 173.638 Q497.89 167.62 497.89 157.232 Q497.89 146.815 503.532 140.826 Q509.175 134.807 518.984 134.807 Q522.861 134.807 526.275 135.849 Q529.719 136.862 532.728 138.916 Z" fill="#000000" fill-rule="nonzero" fill-opacity="1" /><path clip-path="url(#clip310)" d="M541.756 135.589 L566.582 135.589 L566.582 140.508 L547.6 140.508 L547.6 153.239 L564.73 153.239 L564.73 158.158 L547.6 158.158 L547.6 178.789 L541.756 178.789 L541.756 135.589 Z" fill="#000000" fill-rule="nonzero" fill-opacity="1" /><path clip-path="url(#clip310)" d="M351.717 247.909 L477.008 247.909 L477.008 196.069 L351.717 196.069 L351.717 247.909  Z" fill="#e26f46" fill-rule="evenodd" fill-opacity="1"/>
<polyline clip-path="url(#clip310)" style="stroke:#000000; stroke-linecap:round; stroke-linejoin:round; stroke-width:2.5; stroke-opacity:1; fill:none" points="351.717,247.909 477.008,247.909 477.008,196.069 351.717,196.069 351.717,247.909 "/>
<path clip-path="url(#clip310)" d="M497.89 200.389 L506.599 200.389 L517.624 229.787 L528.706 200.389 L537.415 200.389 L537.415 243.589 L531.715 243.589 L531.715 205.655 L520.575 235.284 L514.701 235.284 L503.561 205.655 L503.561 243.589 L497.89 243.589 L497.89 200.389 Z" fill="#000000" fill-rule="nonzero" fill-opacity="1" /><path clip-path="url(#clip310)" d="M549.018 200.389 L573.845 200.389 L573.845 205.308 L554.863 205.308 L554.863 218.039 L571.993 218.039 L571.993 222.958 L554.863 222.958 L554.863 243.589 L549.018 243.589 L549.018 200.389 Z" fill="#000000" fill-rule="nonzero" fill-opacity="1" /><path clip-path="url(#clip310)" d="M595.662 198.624 Q591.784 205.279 589.903 211.789 Q588.023 218.299 588.023 224.983 Q588.023 231.667 589.903 238.236 Q591.813 244.775 595.662 251.401 L591.032 251.401 Q586.692 244.601 584.522 238.033 Q582.38 231.465 582.38 224.983 Q582.38 218.531 584.522 211.992 Q586.663 205.452 591.032 198.624 L595.662 198.624 Z" fill="#000000" fill-rule="nonzero" fill-opacity="1" /><path clip-path="url(#clip310)" d="M611.257 201.98 L611.257 211.181 L622.224 211.181 L622.224 215.319 L611.257 215.319 L611.257 232.912 Q611.257 236.876 612.328 238.004 Q613.428 239.133 616.755 239.133 L622.224 239.133 L622.224 243.589 L616.755 243.589 Q610.592 243.589 608.248 241.303 Q605.905 238.988 605.905 232.912 L605.905 215.319 L601.998 215.319 L601.998 211.181 L605.905 211.181 L605.905 201.98 L611.257 201.98 Z" fill="#000000" fill-rule="nonzero" fill-opacity="1" /><path clip-path="url(#clip310)" d="M648.005 216.158 Q647.108 215.637 646.037 215.406 Q644.996 215.145 643.723 215.145 Q639.209 215.145 636.778 218.097 Q634.377 221.019 634.377 226.517 L634.377 243.589 L629.024 243.589 L629.024 211.181 L634.377 211.181 L634.377 216.216 Q636.055 213.265 638.746 211.847 Q641.437 210.4 645.285 210.4 Q645.835 210.4 646.5 210.487 Q647.166 210.545 647.976 210.689 L648.005 216.158 Z" fill="#000000" fill-rule="nonzero" fill-opacity="1" /><path clip-path="url(#clip310)" d="M668.317 227.298 Q661.865 227.298 659.376 228.774 Q656.888 230.25 656.888 233.809 Q656.888 236.644 658.74 238.322 Q660.621 239.972 663.832 239.972 Q668.26 239.972 670.922 236.847 Q673.612 233.693 673.612 228.485 L673.612 227.298 L668.317 227.298 M678.937 225.099 L678.937 243.589 L673.612 243.589 L673.612 238.67 Q671.79 241.621 669.07 243.039 Q666.35 244.428 662.415 244.428 Q657.438 244.428 654.486 241.65 Q651.564 238.843 651.564 234.156 Q651.564 228.687 655.21 225.909 Q658.885 223.132 666.147 223.132 L673.612 223.132 L673.612 222.611 Q673.612 218.936 671.182 216.939 Q668.78 214.914 664.411 214.914 Q661.633 214.914 659 215.58 Q656.367 216.245 653.937 217.576 L653.937 212.657 Q656.859 211.529 659.608 210.979 Q662.357 210.4 664.961 210.4 Q671.992 210.4 675.464 214.046 Q678.937 217.692 678.937 225.099 Z" fill="#000000" fill-rule="nonzero" fill-opacity="1" /><path clip-path="url(#clip310)" d="M716.841 224.029 L716.841 243.589 L711.517 243.589 L711.517 224.202 Q711.517 219.601 709.723 217.316 Q707.929 215.03 704.341 215.03 Q700.03 215.03 697.542 217.779 Q695.053 220.527 695.053 225.273 L695.053 243.589 L689.7 243.589 L689.7 211.181 L695.053 211.181 L695.053 216.216 Q696.963 213.294 699.538 211.847 Q702.142 210.4 705.528 210.4 Q711.112 210.4 713.977 213.872 Q716.841 217.316 716.841 224.029 Z" fill="#000000" fill-rule="nonzero" fill-opacity="1" /><path clip-path="url(#clip310)" d="M748.12 212.136 L748.12 217.171 Q745.863 216.014 743.433 215.435 Q741.002 214.856 738.398 214.856 Q734.434 214.856 732.437 216.071 Q730.47 217.287 730.47 219.717 Q730.47 221.569 731.888 222.64 Q733.305 223.681 737.588 224.636 L739.411 225.041 Q745.082 226.257 747.455 228.485 Q749.856 230.684 749.856 234.648 Q749.856 239.162 746.268 241.795 Q742.709 244.428 736.459 244.428 Q733.855 244.428 731.02 243.907 Q728.213 243.415 725.088 242.402 L725.088 236.905 Q728.039 238.438 730.904 239.219 Q733.768 239.972 736.575 239.972 Q740.337 239.972 742.362 238.699 Q744.388 237.397 744.388 235.053 Q744.388 232.883 742.912 231.725 Q741.465 230.568 736.517 229.497 L734.665 229.063 Q729.718 228.022 727.518 225.88 Q725.319 223.71 725.319 219.949 Q725.319 215.377 728.56 212.889 Q731.801 210.4 737.761 210.4 Q740.713 210.4 743.317 210.834 Q745.921 211.268 748.12 212.136 Z" fill="#000000" fill-rule="nonzero" fill-opacity="1" /><path clip-path="url(#clip310)" d="M757.495 198.624 L762.125 198.624 Q766.465 205.452 768.606 211.992 Q770.776 218.531 770.776 224.983 Q770.776 231.465 768.606 238.033 Q766.465 244.601 762.125 251.401 L757.495 251.401 Q761.343 244.775 763.224 238.236 Q765.134 231.667 765.134 224.983 Q765.134 218.299 763.224 211.789 Q761.343 205.279 757.495 198.624 Z" fill="#000000" fill-rule="nonzero" fill-opacity="1" /><path clip-path="url(#clip310)" d="M351.717 312.709 L477.008 312.709 L477.008 260.869 L351.717 260.869 L351.717 312.709  Z" fill="#3da44d" fill-rule="evenodd" fill-opacity="1"/>
<polyline clip-path="url(#clip310)" style="stroke:#000000; stroke-linecap:round; stroke-linejoin:round; stroke-width:2.5; stroke-opacity:1; fill:none" points="351.717,312.709 477.008,312.709 477.008,260.869 351.717,260.869 351.717,312.709 "/>
<path clip-path="url(#clip310)" d="M497.89 265.189 L506.599 265.189 L517.624 294.587 L528.706 265.189 L537.415 265.189 L537.415 308.389 L531.715 308.389 L531.715 270.455 L520.575 300.084 L514.701 300.084 L503.561 270.455 L503.561 308.389 L497.89 308.389 L497.89 265.189 Z" fill="#000000" fill-rule="nonzero" fill-opacity="1" /><path clip-path="url(#clip310)" d="M549.018 265.189 L573.845 265.189 L573.845 270.108 L554.863 270.108 L554.863 282.839 L571.993 282.839 L571.993 287.758 L554.863 287.758 L554.863 308.389 L549.018 308.389 L549.018 265.189 Z" fill="#000000" fill-rule="nonzero" fill-opacity="1" /><path clip-path="url(#clip310)" d="M595.662 263.424 Q591.784 270.079 589.903 276.589 Q588.023 283.099 588.023 289.783 Q588.023 296.467 589.903 303.036 Q591.813 309.575 595.662 316.201 L591.032 316.201 Q586.692 309.401 584.522 302.833 Q582.38 296.265 582.38 289.783 Q582.38 283.331 584.522 276.792 Q586.663 270.252 591.032 263.424 L595.662 263.424 Z" fill="#000000" fill-rule="nonzero" fill-opacity="1" /><path clip-path="url(#clip310)" d="M618.549 279.714 Q614.267 279.714 611.778 283.07 Q609.29 286.398 609.29 292.214 Q609.29 298.03 611.749 301.386 Q614.238 304.714 618.549 304.714 Q622.803 304.714 625.291 301.357 Q627.779 298.001 627.779 292.214 Q627.779 286.456 625.291 283.099 Q622.803 279.714 618.549 279.714 M618.549 275.2 Q625.494 275.2 629.458 279.714 Q633.422 284.228 633.422 292.214 Q633.422 300.171 629.458 304.714 Q625.494 309.228 618.549 309.228 Q611.576 309.228 607.612 304.714 Q603.677 300.171 603.677 292.214 Q603.677 284.228 607.612 279.714 Q611.576 275.2 618.549 275.2 Z" fill="#000000" fill-rule="nonzero" fill-opacity="1" /><path clip-path="url(#clip310)" d="M661.026 280.958 Q660.129 280.437 659.058 280.206 Q658.017 279.945 656.743 279.945 Q652.23 279.945 649.799 282.897 Q647.397 285.819 647.397 291.317 L647.397 308.389 L642.044 308.389 L642.044 275.981 L647.397 275.981 L647.397 281.016 Q649.076 278.065 651.767 276.647 Q654.457 275.2 658.306 275.2 Q658.856 275.2 659.521 275.287 Q660.187 275.345 660.997 275.489 L661.026 280.958 Z" fill="#000000" fill-rule="nonzero" fill-opacity="1" /><path clip-path="url(#clip310)" d="M666.61 275.981 L671.934 275.981 L671.934 308.389 L666.61 308.389 L666.61 275.981 M666.61 263.366 L671.934 263.366 L671.934 270.108 L666.61 270.108 L666.61 263.366 Z" fill="#000000" fill-rule="nonzero" fill-opacity="1" /><path clip-path="url(#clip310)" d="M704.399 291.809 Q704.399 286.022 701.998 282.839 Q699.625 279.656 695.314 279.656 Q691.031 279.656 688.63 282.839 Q686.257 286.022 686.257 291.809 Q686.257 297.567 688.63 300.75 Q691.031 303.933 695.314 303.933 Q699.625 303.933 701.998 300.75 Q704.399 297.567 704.399 291.809 M709.723 304.367 Q709.723 312.642 706.049 316.664 Q702.374 320.715 694.793 320.715 Q691.986 320.715 689.498 320.281 Q687.009 319.876 684.666 319.008 L684.666 313.828 Q687.009 315.102 689.295 315.709 Q691.581 316.317 693.954 316.317 Q699.191 316.317 701.795 313.568 Q704.399 310.848 704.399 305.322 L704.399 302.688 Q702.75 305.553 700.175 306.971 Q697.6 308.389 694.012 308.389 Q688.051 308.389 684.405 303.846 Q680.759 299.303 680.759 291.809 Q680.759 284.286 684.405 279.743 Q688.051 275.2 694.012 275.2 Q697.6 275.2 700.175 276.618 Q702.75 278.036 704.399 280.9 L704.399 275.981 L709.723 275.981 L709.723 304.367 Z" fill="#000000" fill-rule="nonzero" fill-opacity="1" /><path clip-path="url(#clip310)" d="M720.69 275.981 L726.014 275.981 L726.014 308.389 L720.69 308.389 L720.69 275.981 M720.69 263.366 L726.014 263.366 L726.014 270.108 L720.69 270.108 L720.69 263.366 Z" fill="#000000" fill-rule="nonzero" fill-opacity="1" /><path clip-path="url(#clip310)" d="M764.092 288.829 L764.092 308.389 L758.768 308.389 L758.768 289.002 Q758.768 284.401 756.974 282.116 Q755.18 279.83 751.592 279.83 Q747.281 279.83 744.793 282.579 Q742.304 285.327 742.304 290.073 L742.304 308.389 L736.951 308.389 L736.951 275.981 L742.304 275.981 L742.304 281.016 Q744.214 278.094 746.789 276.647 Q749.393 275.2 752.779 275.2 Q758.363 275.2 761.228 278.672 Q764.092 282.116 764.092 288.829 Z" fill="#000000" fill-rule="nonzero" fill-opacity="1" /><path clip-path="url(#clip310)" d="M773.872 263.424 L778.502 263.424 Q782.842 270.252 784.983 276.792 Q787.154 283.331 787.154 289.783 Q787.154 296.265 784.983 302.833 Q782.842 309.401 778.502 316.201 L773.872 316.201 Q777.721 309.575 779.602 303.036 Q781.511 296.467 781.511 289.783 Q781.511 283.099 779.602 276.589 Q777.721 270.079 773.872 263.424 Z" fill="#000000" fill-rule="nonzero" fill-opacity="1" /><path clip-path="url(#clip310)" d="M351.717 377.509 L477.008 377.509 L477.008 325.669 L351.717 325.669 L351.717 377.509  Z" fill="#c271d2" fill-rule="evenodd" fill-opacity="1"/>
<polyline clip-path="url(#clip310)" style="stroke:#000000; stroke-linecap:round; stroke-linejoin:round; stroke-width:2.5; stroke-opacity:1; fill:none" points="351.717,377.509 477.008,377.509 477.008,325.669 351.717,325.669 351.717,377.509 "/>
<path clip-path="url(#clip310)" d="M497.89 329.989 L506.599 329.989 L517.624 359.387 L528.706 329.989 L537.415 329.989 L537.415 373.189 L531.715 373.189 L531.715 335.255 L520.575 364.884 L514.701 364.884 L503.561 335.255 L503.561 373.189 L497.89 373.189 L497.89 329.989 Z" fill="#000000" fill-rule="nonzero" fill-opacity="1" /><path clip-path="url(#clip310)" d="M549.018 329.989 L573.845 329.989 L573.845 334.908 L554.863 334.908 L554.863 347.639 L571.993 347.639 L571.993 352.558 L554.863 352.558 L554.863 373.189 L549.018 373.189 L549.018 329.989 Z" fill="#000000" fill-rule="nonzero" fill-opacity="1" /><path clip-path="url(#clip310)" d="M595.662 328.224 Q591.784 334.879 589.903 341.389 Q588.023 347.899 588.023 354.583 Q588.023 361.267 589.903 367.836 Q591.813 374.375 595.662 381.001 L591.032 381.001 Q586.692 374.201 584.522 367.633 Q582.38 361.065 582.38 354.583 Q582.38 348.131 584.522 341.592 Q586.663 335.052 591.032 328.224 L595.662 328.224 Z" fill="#000000" fill-rule="nonzero" fill-opacity="1" /><path clip-path="url(#clip310)" d="M626.651 341.736 L626.651 346.771 Q624.394 345.614 621.963 345.035 Q619.533 344.456 616.929 344.456 Q612.965 344.456 610.968 345.671 Q609.001 346.887 609.001 349.317 Q609.001 351.169 610.418 352.24 Q611.836 353.281 616.119 354.236 L617.941 354.641 Q623.613 355.857 625.985 358.085 Q628.387 360.284 628.387 364.248 Q628.387 368.762 624.799 371.395 Q621.24 374.028 614.99 374.028 Q612.386 374.028 609.55 373.507 Q606.744 373.015 603.619 372.002 L603.619 366.505 Q606.57 368.038 609.435 368.819 Q612.299 369.572 615.106 369.572 Q618.867 369.572 620.893 368.299 Q622.918 366.997 622.918 364.653 Q622.918 362.483 621.443 361.325 Q619.996 360.168 615.048 359.097 L613.196 358.663 Q608.248 357.622 606.049 355.48 Q603.85 353.31 603.85 349.549 Q603.85 344.977 607.091 342.489 Q610.332 340 616.292 340 Q619.244 340 621.848 340.434 Q624.452 340.868 626.651 341.736 Z" fill="#000000" fill-rule="nonzero" fill-opacity="1" /><path clip-path="url(#clip310)" d="M636.865 340.781 L642.189 340.781 L642.189 373.189 L636.865 373.189 L636.865 340.781 M636.865 328.166 L642.189 328.166 L642.189 334.908 L636.865 334.908 L636.865 328.166 Z" fill="#000000" fill-rule="nonzero" fill-opacity="1" /><path clip-path="url(#clip310)" d="M678.56 347.002 Q680.557 343.414 683.335 341.707 Q686.112 340 689.874 340 Q694.938 340 697.686 343.559 Q700.435 347.089 700.435 353.629 L700.435 373.189 L695.082 373.189 L695.082 353.802 Q695.082 349.144 693.433 346.887 Q691.784 344.63 688.398 344.63 Q684.261 344.63 681.859 347.379 Q679.457 350.127 679.457 354.873 L679.457 373.189 L674.104 373.189 L674.104 353.802 Q674.104 349.115 672.455 346.887 Q670.806 344.63 667.363 344.63 Q663.283 344.63 660.881 347.408 Q658.479 350.156 658.479 354.873 L658.479 373.189 L653.126 373.189 L653.126 340.781 L658.479 340.781 L658.479 345.816 Q660.302 342.836 662.849 341.418 Q665.395 340 668.896 340 Q672.426 340 674.886 341.794 Q677.374 343.588 678.56 347.002 Z" fill="#000000" fill-rule="nonzero" fill-opacity="1" /><path clip-path="url(#clip310)" d="M716.205 368.328 L716.205 385.515 L710.852 385.515 L710.852 340.781 L716.205 340.781 L716.205 345.7 Q717.883 342.807 720.429 341.418 Q723.005 340 726.564 340 Q732.466 340 736.141 344.688 Q739.845 349.375 739.845 357.014 Q739.845 364.653 736.141 369.34 Q732.466 374.028 726.564 374.028 Q723.005 374.028 720.429 372.639 Q717.883 371.221 716.205 368.328 M734.318 357.014 Q734.318 351.14 731.888 347.813 Q729.486 344.456 725.262 344.456 Q721.037 344.456 718.606 347.813 Q716.205 351.14 716.205 357.014 Q716.205 362.888 718.606 366.244 Q721.037 369.572 725.262 369.572 Q729.486 369.572 731.888 366.244 Q734.318 362.888 734.318 357.014 Z" fill="#000000" fill-rule="nonzero" fill-opacity="1" /><path clip-path="url(#clip310)" d="M748.67 328.166 L753.994 328.166 L753.994 373.189 L748.67 373.189 L748.67 328.166 Z" fill="#000000" fill-rule="nonzero" fill-opacity="1" /><path clip-path="url(#clip310)" d="M764.295 328.224 L768.924 328.224 Q773.265 335.052 775.406 341.592 Q777.576 348.131 777.576 354.583 Q777.576 361.065 775.406 367.633 Q773.265 374.201 768.924 381.001 L764.295 381.001 Q768.143 374.375 770.024 367.836 Q771.934 361.267 771.934 354.583 Q771.934 347.899 770.024 341.389 Q768.143 334.879 764.295 328.224 Z" fill="#000000" fill-rule="nonzero" fill-opacity="1" /><path clip-path="url(#clip310)" d="M351.717 442.309 L477.008 442.309 L477.008 390.469 L351.717 390.469 L351.717 442.309  Z" fill="#ac8d18" fill-rule="evenodd" fill-opacity="1"/>
<polyline clip-path="url(#clip310)" style="stroke:#000000; stroke-linecap:round; stroke-linejoin:round; stroke-width:2.5; stroke-opacity:1; fill:none" points="351.717,442.309 477.008,442.309 477.008,390.469 351.717,390.469 351.717,442.309 "/>
<path clip-path="url(#clip310)" d="M506.773 394.789 L512.618 394.789 L512.618 434.979 Q512.618 442.792 509.638 446.322 Q506.686 449.852 500.118 449.852 L497.89 449.852 L497.89 444.933 L499.713 444.933 Q503.59 444.933 505.182 442.763 Q506.773 440.593 506.773 434.979 L506.773 394.789 Z" fill="#000000" fill-rule="nonzero" fill-opacity="1" /><path clip-path="url(#clip310)" d="M520.402 394.789 L526.304 394.789 L535.39 431.305 L544.447 394.789 L551.015 394.789 L560.1 431.305 L569.157 394.789 L575.089 394.789 L564.238 437.989 L556.889 437.989 L547.774 400.489 L538.573 437.989 L531.223 437.989 L520.402 394.789 Z" fill="#000000" fill-rule="nonzero" fill-opacity="1" /><polyline clip-path="url(#clip310)" style="stroke:#000000; stroke-linecap:round; stroke-linejoin:round; stroke-width:4; stroke-opacity:1; fill:none" points="2147.56,1401.58 2147.56,47.2441 "/>
<polyline clip-path="url(#clip310)" style="stroke:#000000; stroke-linecap:round; stroke-linejoin:round; stroke-width:4; stroke-opacity:1; fill:none" points="268.189,1401.58 268.189,47.2441 "/>
<polyline clip-path="url(#clip310)" style="stroke:#000000; stroke-linecap:round; stroke-linejoin:round; stroke-width:4; stroke-opacity:1; fill:none" points="2147.56,1401.58 2128.66,1401.58 "/>
<polyline clip-path="url(#clip310)" style="stroke:#000000; stroke-linecap:round; stroke-linejoin:round; stroke-width:4; stroke-opacity:1; fill:none" points="2147.56,813.002 2128.66,813.002 "/>
<polyline clip-path="url(#clip310)" style="stroke:#000000; stroke-linecap:round; stroke-linejoin:round; stroke-width:4; stroke-opacity:1; fill:none" points="2147.56,224.424 2128.66,224.424 "/>
<polyline clip-path="url(#clip310)" style="stroke:#000000; stroke-linecap:round; stroke-linejoin:round; stroke-width:4; stroke-opacity:1; fill:none" points="268.189,1401.58 287.087,1401.58 "/>
<polyline clip-path="url(#clip310)" style="stroke:#000000; stroke-linecap:round; stroke-linejoin:round; stroke-width:4; stroke-opacity:1; fill:none" points="268.189,813.002 287.087,813.002 "/>
<polyline clip-path="url(#clip310)" style="stroke:#000000; stroke-linecap:round; stroke-linejoin:round; stroke-width:4; stroke-opacity:1; fill:none" points="268.189,224.424 287.087,224.424 "/>
<path clip-path="url(#clip310)" d="M2184.4 1426.32 L2193.95 1426.32 L2193.95 1393.36 L2183.56 1395.45 L2183.56 1390.12 L2193.89 1388.04 L2199.73 1388.04 L2199.73 1426.32 L2209.28 1426.32 L2209.28 1431.24 L2184.4 1431.24 L2184.4 1426.32 Z" fill="#000000" fill-rule="nonzero" fill-opacity="1" /><path clip-path="url(#clip310)" d="M2233.59 1391.89 Q2229.07 1391.89 2226.79 1396.34 Q2224.53 1400.77 2224.53 1409.68 Q2224.53 1418.57 2226.79 1423.02 Q2229.07 1427.45 2233.59 1427.45 Q2238.13 1427.45 2240.39 1423.02 Q2242.67 1418.57 2242.67 1409.68 Q2242.67 1400.77 2240.39 1396.34 Q2238.13 1391.89 2233.59 1391.89 M2233.59 1387.26 Q2240.85 1387.26 2244.67 1393.02 Q2248.52 1398.75 2248.52 1409.68 Q2248.52 1420.59 2244.67 1426.35 Q2240.85 1432.08 2233.59 1432.08 Q2226.32 1432.08 2222.48 1426.35 Q2218.66 1420.59 2218.66 1409.68 Q2218.66 1398.75 2222.48 1393.02 Q2226.32 1387.26 2233.59 1387.26 Z" fill="#000000" fill-rule="nonzero" fill-opacity="1" /><path clip-path="url(#clip310)" d="M2260.65 1365 Q2256.98 1365 2255.12 1368.62 Q2253.29 1372.22 2253.29 1379.46 Q2253.29 1386.68 2255.12 1390.3 Q2256.98 1393.9 2260.65 1393.9 Q2264.34 1393.9 2266.17 1390.3 Q2268.03 1386.68 2268.03 1379.46 Q2268.03 1372.22 2266.17 1368.62 Q2264.34 1365 2260.65 1365 M2260.65 1361.24 Q2266.55 1361.24 2269.65 1365.92 Q2272.78 1370.57 2272.78 1379.46 Q2272.78 1388.32 2269.65 1393 Q2266.55 1397.66 2260.65 1397.66 Q2254.75 1397.66 2251.62 1393 Q2248.52 1388.32 2248.52 1379.46 Q2248.52 1370.57 2251.62 1365.92 Q2254.75 1361.24 2260.65 1361.24 Z" fill="#000000" fill-rule="nonzero" fill-opacity="1" /><path clip-path="url(#clip310)" d="M2184.4 837.742 L2193.95 837.742 L2193.95 804.785 L2183.56 806.869 L2183.56 801.545 L2193.89 799.461 L2199.73 799.461 L2199.73 837.742 L2209.28 837.742 L2209.28 842.661 L2184.4 842.661 L2184.4 837.742 Z" fill="#000000" fill-rule="nonzero" fill-opacity="1" /><path clip-path="url(#clip310)" d="M2233.59 803.31 Q2229.07 803.31 2226.79 807.766 Q2224.53 812.193 2224.53 821.105 Q2224.53 829.988 2226.79 834.444 Q2229.07 838.871 2233.59 838.871 Q2238.13 838.871 2240.39 834.444 Q2242.67 829.988 2242.67 821.105 Q2242.67 812.193 2240.39 807.766 Q2238.13 803.31 2233.59 803.31 M2233.59 798.68 Q2240.85 798.68 2244.67 804.438 Q2248.52 810.167 2248.52 821.105 Q2248.52 832.013 2244.67 837.771 Q2240.85 843.5 2233.59 843.5 Q2226.32 843.5 2222.48 837.771 Q2218.66 832.013 2218.66 821.105 Q2218.66 810.167 2222.48 804.438 Q2226.32 798.68 2233.59 798.68 Z" fill="#000000" fill-rule="nonzero" fill-opacity="1" /><path clip-path="url(#clip310)" d="M2249.2 804.402 L2256.96 804.402 L2256.96 777.624 L2248.52 779.317 L2248.52 774.991 L2256.91 773.298 L2261.66 773.298 L2261.66 804.402 L2269.42 804.402 L2269.42 808.398 L2249.2 808.398 L2249.2 804.402 Z" fill="#000000" fill-rule="nonzero" fill-opacity="1" /><path clip-path="url(#clip310)" d="M2184.4 249.164 L2193.95 249.164 L2193.95 216.207 L2183.56 218.291 L2183.56 212.967 L2193.89 210.883 L2199.73 210.883 L2199.73 249.164 L2209.28 249.164 L2209.28 254.083 L2184.4 254.083 L2184.4 249.164 Z" fill="#000000" fill-rule="nonzero" fill-opacity="1" /><path clip-path="url(#clip310)" d="M2233.59 214.732 Q2229.07 214.732 2226.79 219.188 Q2224.53 223.615 2224.53 232.527 Q2224.53 241.41 2226.79 245.866 Q2229.07 250.293 2233.59 250.293 Q2238.13 250.293 2240.39 245.866 Q2242.67 241.41 2242.67 232.527 Q2242.67 223.615 2240.39 219.188 Q2238.13 214.732 2233.59 214.732 M2233.59 210.102 Q2240.85 210.102 2244.67 215.86 Q2248.52 221.589 2248.52 232.527 Q2248.52 243.435 2244.67 249.193 Q2240.85 254.922 2233.59 254.922 Q2226.32 254.922 2222.48 249.193 Q2218.66 243.435 2218.66 232.527 Q2218.66 221.589 2222.48 215.86 Q2226.32 210.102 2233.59 210.102 Z" fill="#000000" fill-rule="nonzero" fill-opacity="1" /><path clip-path="url(#clip310)" d="M2254.23 215.824 L2270.81 215.824 L2270.81 219.82 L2248.52 219.82 L2248.52 215.824 Q2251.22 213.026 2255.88 208.324 Q2260.55 203.599 2261.75 202.235 Q2264.03 199.672 2264.93 197.909 Q2265.84 196.122 2265.84 194.406 Q2265.84 191.609 2263.87 189.845 Q2261.92 188.082 2258.77 188.082 Q2256.53 188.082 2254.04 188.858 Q2251.57 189.634 2248.75 191.209 L2248.75 186.413 Q2251.62 185.261 2254.11 184.673 Q2256.61 184.085 2258.67 184.085 Q2264.13 184.085 2267.37 186.813 Q2270.62 189.54 2270.62 194.101 Q2270.62 196.264 2269.79 198.215 Q2268.99 200.143 2266.86 202.776 Q2266.27 203.457 2263.12 206.725 Q2259.97 209.97 2254.23 215.824 Z" fill="#000000" fill-rule="nonzero" fill-opacity="1" /><path clip-path="url(#clip310)" d="M2337.35 694.669 Q2344.12 694.669 2350.76 697.579 Q2357.36 700.448 2362.36 705.121 Q2367.32 709.753 2370.39 716.024 Q2373.47 722.296 2373.47 728.69 L2373.47 756.481 Q2373.47 757.464 2373.43 757.874 Q2373.38 758.243 2373.18 758.53 Q2372.93 758.817 2372.44 758.817 Q2371.66 758.817 2371.33 758.489 Q2370.97 758.161 2370.92 757.792 Q2370.88 757.423 2370.88 756.481 Q2370.88 754.431 2370.76 753.202 Q2370.64 751.972 2370.47 751.193 Q2370.27 750.373 2369.7 749.963 Q2369.12 749.513 2368.63 749.308 Q2368.1 749.103 2366.91 748.816 L2321.82 737.585 Q2320.47 737.257 2320.26 737.257 Q2319.57 737.257 2319.32 737.667 Q2319.03 738.036 2318.91 739.101 Q2318.75 741.151 2318.75 742.708 Q2318.75 743.733 2318.7 744.143 Q2318.66 744.512 2318.46 744.84 Q2318.21 745.127 2317.72 745.127 Q2316.94 745.127 2316.61 744.799 Q2316.25 744.43 2316.2 744.02 Q2316.12 743.61 2316.12 742.626 L2316.12 714.426 Q2316.12 708.318 2318.99 703.768 Q2321.82 699.219 2326.62 696.964 Q2331.37 694.669 2337.35 694.669 M2334.28 702.006 Q2326.45 702.006 2322.6 706.269 Q2318.75 710.491 2318.75 717.172 L2318.75 726.149 Q2318.75 728.813 2319.24 729.469 Q2319.69 730.125 2321.94 730.698 L2368.01 742.216 Q2369.53 742.626 2369.94 742.626 Q2370.39 742.626 2370.56 742.421 Q2370.68 742.175 2370.76 741.52 Q2370.88 740.782 2370.88 739.675 L2370.88 730.207 Q2370.88 726.559 2369.9 723.238 Q2368.88 719.877 2367.28 717.459 Q2365.64 715.041 2364.24 713.483 Q2362.81 711.925 2361.37 710.819 Q2358.14 708.318 2353.91 706.474 Q2349.69 704.588 2345.84 703.727 Q2341.95 702.826 2339.08 702.416 Q2336.17 702.006 2334.28 702.006 Z" fill="#000000" fill-rule="nonzero" fill-opacity="1" /><polyline clip-path="url(#clip312)" style="stroke:#009af9; stroke-linecap:round; stroke-linejoin:round; stroke-width:6; stroke-opacity:1; fill:none" points="444.462,692.861 477.46,692.861 510.458,692.861 543.457,611.459 576.455,623.351 609.453,635.822 642.451,611.459 675.449,600.097 708.447,559.111 741.445,515.682 774.443,492.775 807.442,492.775 840.44,368.11 873.438,334.539 906.436,308.395 939.434,216.868 972.432,147.712 1005.43,47.2441 1038.43,47.2441 1071.43,55.03 1104.42,112.399 1137.42,127.689 1170.42,237.535 1203.42,275.151 1236.42,342.527 1269.42,291.233 1302.41,381.931 1335.41,391.578 1368.41,372.635 1401.41,381.931 1434.41,440.156 1467.4,440.156 1500.4,471.754 1533.4,471.754 1566.4,458.642 1599.4,500.185 1632.4,500.185 1665.39,492.775 1698.39,515.682 1731.39,523.797 1764.39,500.185 1797.39,532.179 1830.38,540.844 1863.38,515.682 1896.38,515.682 1929.38,523.797 1962.38,532.179 1995.37,549.814 2028.37,559.111 2061.37,559.111 2094.37,540.844 "/>
<polyline clip-path="url(#clip312)" style="stroke:#e26f46; stroke-linecap:round; stroke-linejoin:round; stroke-width:6; stroke-opacity:1; fill:none" points="444.462,692.861 477.46,692.861 510.458,692.861 543.457,677.365 576.455,600.097 609.453,677.365 642.451,589.218 675.449,578.783 708.447,532.179 741.445,523.797 774.443,500.185 807.442,478.571 840.44,350.774 873.438,338.502 906.436,301.391 939.434,221.88 972.432,173.594 1005.43,60.3555 1038.43,63.0605 1071.43,47.2441 1104.42,165.348 1137.42,175.698 1170.42,207.129 1203.42,304.869 1236.42,260.021 1269.42,311.97 1302.41,354.999 1335.41,372.635 1368.41,401.603 1401.41,406.768 1434.41,434.28 1467.4,440.156 1500.4,458.642 1533.4,440.156 1566.4,458.642 1599.4,485.574 1632.4,434.28 1665.39,500.185 1698.39,500.185 1731.39,515.682 1764.39,523.797 1797.39,515.682 1830.38,515.682 1863.38,532.179 1896.38,540.844 1929.38,549.814 1962.38,549.814 1995.37,532.179 2028.37,523.797 2061.37,523.797 2094.37,549.814 "/>
<polyline clip-path="url(#clip312)" style="stroke:#3da44d; stroke-linecap:round; stroke-linejoin:round; stroke-width:6; stroke-opacity:1; fill:none" points="444.462,692.861 477.46,662.754 510.458,692.861 543.457,677.365 576.455,623.351 609.453,635.822 642.451,623.351 675.449,559.111 708.447,559.111 741.445,507.816 774.443,500.185 807.442,492.775 840.44,372.635 873.438,323.005 906.436,278.287 939.434,251.356 972.432,117.395 1005.43,65.7943 1038.43,47.2441 1071.43,47.2441 1104.42,120.78 1137.42,204.751 1170.42,216.868 1203.42,275.151 1236.42,281.463 1269.42,330.636 1302.41,359.295 1335.41,381.931 1368.41,346.617 1401.41,417.42 1434.41,434.28 1467.4,422.917 1500.4,446.171 1533.4,485.574 1566.4,465.114 1599.4,478.571 1632.4,485.574 1665.39,478.571 1698.39,485.574 1731.39,500.185 1764.39,523.797 1797.39,523.797 1830.38,532.179 1863.38,500.185 1896.38,540.844 1929.38,523.797 1962.38,549.814 1995.37,523.797 2028.37,559.111 2061.37,532.179 2094.37,559.111 "/>
<polyline clip-path="url(#clip312)" style="stroke:#c271d2; stroke-linecap:round; stroke-linejoin:round; stroke-width:6; stroke-opacity:1; fill:none" points="444.462,692.861 477.46,692.861 510.458,692.861 543.457,692.861 576.455,677.365 609.453,692.861 642.451,692.861 675.449,648.934 708.447,662.754 741.445,635.822 774.443,589.218 807.442,540.844 840.44,568.758 873.438,500.185 906.436,492.775 939.434,465.114 972.432,372.635 1005.43,272.053 1038.43,219.362 1071.43,272.053 1104.42,315.596 1137.42,446.171 1170.42,440.156 1203.42,377.241 1236.42,458.642 1269.42,434.28 1302.41,523.797 1335.41,386.709 1368.41,611.459 1401.41,478.571 1434.41,549.814 1467.4,623.351 1500.4,600.097 1533.4,635.822 1566.4,677.365 1599.4,635.822 1632.4,532.179 1665.39,611.459 1698.39,635.822 1731.39,692.861 1764.39,662.754 1797.39,692.861 1830.38,611.459 1863.38,648.934 1896.38,692.861 1929.38,692.861 1962.38,692.861 1995.37,692.861 2028.37,692.861 2061.37,692.861 2094.37,692.861 "/>
<polyline clip-path="url(#clip312)" style="stroke:#ac8d18; stroke-linecap:round; stroke-linejoin:round; stroke-width:6; stroke-opacity:1; fill:none" points="444.462,692.861 477.46,648.934 510.458,692.861 543.457,692.861 576.455,635.822 609.453,677.365 642.451,611.459 675.449,568.758 708.447,559.111 741.445,515.682 774.443,485.574 807.442,471.754 840.44,412.038 873.438,377.241 906.436,301.391 939.434,248.531 972.432,184.291 1005.43,61.7044 1038.43,72.7598 1071.43,82.8417 1104.42,109.122 1137.42,211.952 1170.42,229.588 1203.42,214.398 1236.42,338.502 1269.42,211.952 1302.41,354.999 1335.41,391.578 1368.41,391.578 1401.41,434.28 1434.41,440.156 1467.4,458.642 1500.4,434.28 1533.4,452.331 1566.4,465.114 1599.4,485.574 1632.4,471.754 1665.39,492.775 1698.39,485.574 1731.39,515.682 1764.39,492.775 1797.39,515.682 1830.38,515.682 1863.38,523.797 1896.38,559.111 1929.38,540.844 1962.38,540.844 1995.37,540.844 2028.37,515.682 2061.37,523.797 2094.37,578.783 "/>
<path clip-path="url(#clip310)" d="M1607.71 481.189 L2084.91 481.189 L2084.91 92.3886 L1607.71 92.3886  Z" fill="#ffffff" fill-rule="evenodd" fill-opacity="1"/>
<polyline clip-path="url(#clip310)" style="stroke:#000000; stroke-linecap:round; stroke-linejoin:round; stroke-width:4; stroke-opacity:1; fill:none" points="1607.71,481.189 2084.91,481.189 2084.91,92.3886 1607.71,92.3886 1607.71,481.189 "/>
<polyline clip-path="url(#clip310)" style="stroke:#009af9; stroke-linecap:round; stroke-linejoin:round; stroke-width:7.5; stroke-opacity:1; fill:none" points="1628.59,157.189 1753.89,157.189 "/>
<path clip-path="url(#clip310)" d="M1809.61 138.916 L1809.61 145.079 Q1806.65 142.33 1803.3 140.971 Q1799.97 139.611 1796.21 139.611 Q1788.8 139.611 1784.87 144.153 Q1780.93 148.667 1780.93 157.232 Q1780.93 165.768 1784.87 170.311 Q1788.8 174.825 1796.21 174.825 Q1799.97 174.825 1803.3 173.465 Q1806.65 172.105 1809.61 169.356 L1809.61 175.461 Q1806.54 177.544 1803.1 178.586 Q1799.68 179.628 1795.86 179.628 Q1786.05 179.628 1780.41 173.638 Q1774.77 167.62 1774.77 157.232 Q1774.77 146.815 1780.41 140.826 Q1786.05 134.807 1795.86 134.807 Q1799.74 134.807 1803.15 135.849 Q1806.6 136.862 1809.61 138.916 Z" fill="#000000" fill-rule="nonzero" fill-opacity="1" /><path clip-path="url(#clip310)" d="M1818.63 135.589 L1843.46 135.589 L1843.46 140.508 L1824.48 140.508 L1824.48 153.239 L1841.61 153.239 L1841.61 158.158 L1824.48 158.158 L1824.48 178.789 L1818.63 178.789 L1818.63 135.589 Z" fill="#000000" fill-rule="nonzero" fill-opacity="1" /><polyline clip-path="url(#clip310)" style="stroke:#e26f46; stroke-linecap:round; stroke-linejoin:round; stroke-width:7.5; stroke-opacity:1; fill:none" points="1628.59,221.989 1753.89,221.989 "/>
<path clip-path="url(#clip310)" d="M1774.77 200.389 L1783.48 200.389 L1794.5 229.787 L1805.58 200.389 L1814.29 200.389 L1814.29 243.589 L1808.59 243.589 L1808.59 205.655 L1797.45 235.284 L1791.58 235.284 L1780.44 205.655 L1780.44 243.589 L1774.77 243.589 L1774.77 200.389 Z" fill="#000000" fill-rule="nonzero" fill-opacity="1" /><path clip-path="url(#clip310)" d="M1825.9 200.389 L1850.72 200.389 L1850.72 205.308 L1831.74 205.308 L1831.74 218.039 L1848.87 218.039 L1848.87 222.958 L1831.74 222.958 L1831.74 243.589 L1825.9 243.589 L1825.9 200.389 Z" fill="#000000" fill-rule="nonzero" fill-opacity="1" /><path clip-path="url(#clip310)" d="M1872.54 198.624 Q1868.66 205.279 1866.78 211.789 Q1864.9 218.299 1864.9 224.983 Q1864.9 231.667 1866.78 238.236 Q1868.69 244.775 1872.54 251.401 L1867.91 251.401 Q1863.57 244.601 1861.4 238.033 Q1859.26 231.465 1859.26 224.983 Q1859.26 218.531 1861.4 211.992 Q1863.54 205.452 1867.91 198.624 L1872.54 198.624 Z" fill="#000000" fill-rule="nonzero" fill-opacity="1" /><path clip-path="url(#clip310)" d="M1888.14 201.98 L1888.14 211.181 L1899.1 211.181 L1899.1 215.319 L1888.14 215.319 L1888.14 232.912 Q1888.14 236.876 1889.21 238.004 Q1890.31 239.133 1893.63 239.133 L1899.1 239.133 L1899.1 243.589 L1893.63 243.589 Q1887.47 243.589 1885.13 241.303 Q1882.78 238.988 1882.78 232.912 L1882.78 215.319 L1878.88 215.319 L1878.88 211.181 L1882.78 211.181 L1882.78 201.98 L1888.14 201.98 Z" fill="#000000" fill-rule="nonzero" fill-opacity="1" /><path clip-path="url(#clip310)" d="M1924.88 216.158 Q1923.99 215.637 1922.92 215.406 Q1921.87 215.145 1920.6 215.145 Q1916.09 215.145 1913.66 218.097 Q1911.25 221.019 1911.25 226.517 L1911.25 243.589 L1905.9 243.589 L1905.9 211.181 L1911.25 211.181 L1911.25 216.216 Q1912.93 213.265 1915.62 211.847 Q1918.31 210.4 1922.16 210.4 Q1922.71 210.4 1923.38 210.487 Q1924.04 210.545 1924.85 210.689 L1924.88 216.158 Z" fill="#000000" fill-rule="nonzero" fill-opacity="1" /><path clip-path="url(#clip310)" d="M1945.19 227.298 Q1938.74 227.298 1936.25 228.774 Q1933.77 230.25 1933.77 233.809 Q1933.77 236.644 1935.62 238.322 Q1937.5 239.972 1940.71 239.972 Q1945.14 239.972 1947.8 236.847 Q1950.49 233.693 1950.49 228.485 L1950.49 227.298 L1945.19 227.298 M1955.81 225.099 L1955.81 243.589 L1950.49 243.589 L1950.49 238.67 Q1948.67 241.621 1945.95 243.039 Q1943.23 244.428 1939.29 244.428 Q1934.32 244.428 1931.36 241.65 Q1928.44 238.843 1928.44 234.156 Q1928.44 228.687 1932.09 225.909 Q1935.76 223.132 1943.02 223.132 L1950.49 223.132 L1950.49 222.611 Q1950.49 218.936 1948.06 216.939 Q1945.66 214.914 1941.29 214.914 Q1938.51 214.914 1935.88 215.58 Q1933.24 216.245 1930.81 217.576 L1930.81 212.657 Q1933.74 211.529 1936.49 210.979 Q1939.23 210.4 1941.84 210.4 Q1948.87 210.4 1952.34 214.046 Q1955.81 217.692 1955.81 225.099 Z" fill="#000000" fill-rule="nonzero" fill-opacity="1" /><path clip-path="url(#clip310)" d="M1993.72 224.029 L1993.72 243.589 L1988.39 243.589 L1988.39 224.202 Q1988.39 219.601 1986.6 217.316 Q1984.81 215.03 1981.22 215.03 Q1976.91 215.03 1974.42 217.779 Q1971.93 220.527 1971.93 225.273 L1971.93 243.589 L1966.58 243.589 L1966.58 211.181 L1971.93 211.181 L1971.93 216.216 Q1973.84 213.294 1976.42 211.847 Q1979.02 210.4 1982.41 210.4 Q1987.99 210.4 1990.85 213.872 Q1993.72 217.316 1993.72 224.029 Z" fill="#000000" fill-rule="nonzero" fill-opacity="1" /><path clip-path="url(#clip310)" d="M2025 212.136 L2025 217.171 Q2022.74 216.014 2020.31 215.435 Q2017.88 214.856 2015.28 214.856 Q2011.31 214.856 2009.32 216.071 Q2007.35 217.287 2007.35 219.717 Q2007.35 221.569 2008.77 222.64 Q2010.18 223.681 2014.47 224.636 L2016.29 225.041 Q2021.96 226.257 2024.33 228.485 Q2026.73 230.684 2026.73 234.648 Q2026.73 239.162 2023.15 241.795 Q2019.59 244.428 2013.34 244.428 Q2010.73 244.428 2007.9 243.907 Q2005.09 243.415 2001.97 242.402 L2001.97 236.905 Q2004.92 238.438 2007.78 239.219 Q2010.65 239.972 2013.45 239.972 Q2017.21 239.972 2019.24 238.699 Q2021.27 237.397 2021.27 235.053 Q2021.27 232.883 2019.79 231.725 Q2018.34 230.568 2013.39 229.497 L2011.54 229.063 Q2006.6 228.022 2004.4 225.88 Q2002.2 223.71 2002.2 219.949 Q2002.2 215.377 2005.44 212.889 Q2008.68 210.4 2014.64 210.4 Q2017.59 210.4 2020.19 210.834 Q2022.8 211.268 2025 212.136 Z" fill="#000000" fill-rule="nonzero" fill-opacity="1" /><path clip-path="url(#clip310)" d="M2034.37 198.624 L2039 198.624 Q2043.34 205.452 2045.48 211.992 Q2047.65 218.531 2047.65 224.983 Q2047.65 231.465 2045.48 238.033 Q2043.34 244.601 2039 251.401 L2034.37 251.401 Q2038.22 244.775 2040.1 238.236 Q2042.01 231.667 2042.01 224.983 Q2042.01 218.299 2040.1 211.789 Q2038.22 205.279 2034.37 198.624 Z" fill="#000000" fill-rule="nonzero" fill-opacity="1" /><polyline clip-path="url(#clip310)" style="stroke:#3da44d; stroke-linecap:round; stroke-linejoin:round; stroke-width:7.5; stroke-opacity:1; fill:none" points="1628.59,286.789 1753.89,286.789 "/>
<path clip-path="url(#clip310)" d="M1774.77 265.189 L1783.48 265.189 L1794.5 294.587 L1805.58 265.189 L1814.29 265.189 L1814.29 308.389 L1808.59 308.389 L1808.59 270.455 L1797.45 300.084 L1791.58 300.084 L1780.44 270.455 L1780.44 308.389 L1774.77 308.389 L1774.77 265.189 Z" fill="#000000" fill-rule="nonzero" fill-opacity="1" /><path clip-path="url(#clip310)" d="M1825.9 265.189 L1850.72 265.189 L1850.72 270.108 L1831.74 270.108 L1831.74 282.839 L1848.87 282.839 L1848.87 287.758 L1831.74 287.758 L1831.74 308.389 L1825.9 308.389 L1825.9 265.189 Z" fill="#000000" fill-rule="nonzero" fill-opacity="1" /><path clip-path="url(#clip310)" d="M1872.54 263.424 Q1868.66 270.079 1866.78 276.589 Q1864.9 283.099 1864.9 289.783 Q1864.9 296.467 1866.78 303.036 Q1868.69 309.575 1872.54 316.201 L1867.91 316.201 Q1863.57 309.401 1861.4 302.833 Q1859.26 296.265 1859.26 289.783 Q1859.26 283.331 1861.4 276.792 Q1863.54 270.252 1867.91 263.424 L1872.54 263.424 Z" fill="#000000" fill-rule="nonzero" fill-opacity="1" /><path clip-path="url(#clip310)" d="M1895.43 279.714 Q1891.14 279.714 1888.66 283.07 Q1886.17 286.398 1886.17 292.214 Q1886.17 298.03 1888.63 301.386 Q1891.12 304.714 1895.43 304.714 Q1899.68 304.714 1902.17 301.357 Q1904.66 298.001 1904.66 292.214 Q1904.66 286.456 1902.17 283.099 Q1899.68 279.714 1895.43 279.714 M1895.43 275.2 Q1902.37 275.2 1906.34 279.714 Q1910.3 284.228 1910.3 292.214 Q1910.3 300.171 1906.34 304.714 Q1902.37 309.228 1895.43 309.228 Q1888.45 309.228 1884.49 304.714 Q1880.55 300.171 1880.55 292.214 Q1880.55 284.228 1884.49 279.714 Q1888.45 275.2 1895.43 275.2 Z" fill="#000000" fill-rule="nonzero" fill-opacity="1" /><path clip-path="url(#clip310)" d="M1937.9 280.958 Q1937.01 280.437 1935.94 280.206 Q1934.89 279.945 1933.62 279.945 Q1929.11 279.945 1926.68 282.897 Q1924.27 285.819 1924.27 291.317 L1924.27 308.389 L1918.92 308.389 L1918.92 275.981 L1924.27 275.981 L1924.27 281.016 Q1925.95 278.065 1928.64 276.647 Q1931.34 275.2 1935.18 275.2 Q1935.73 275.2 1936.4 275.287 Q1937.06 275.345 1937.87 275.489 L1937.9 280.958 Z" fill="#000000" fill-rule="nonzero" fill-opacity="1" /><path clip-path="url(#clip310)" d="M1943.49 275.981 L1948.81 275.981 L1948.81 308.389 L1943.49 308.389 L1943.49 275.981 M1943.49 263.366 L1948.81 263.366 L1948.81 270.108 L1943.49 270.108 L1943.49 263.366 Z" fill="#000000" fill-rule="nonzero" fill-opacity="1" /><path clip-path="url(#clip310)" d="M1981.28 291.809 Q1981.28 286.022 1978.88 282.839 Q1976.5 279.656 1972.19 279.656 Q1967.91 279.656 1965.51 282.839 Q1963.13 286.022 1963.13 291.809 Q1963.13 297.567 1965.51 300.75 Q1967.91 303.933 1972.19 303.933 Q1976.5 303.933 1978.88 300.75 Q1981.28 297.567 1981.28 291.809 M1986.6 304.367 Q1986.6 312.642 1982.93 316.664 Q1979.25 320.715 1971.67 320.715 Q1968.86 320.715 1966.38 320.281 Q1963.89 319.876 1961.54 319.008 L1961.54 313.828 Q1963.89 315.102 1966.17 315.709 Q1968.46 316.317 1970.83 316.317 Q1976.07 316.317 1978.67 313.568 Q1981.28 310.848 1981.28 305.322 L1981.28 302.688 Q1979.63 305.553 1977.05 306.971 Q1974.48 308.389 1970.89 308.389 Q1964.93 308.389 1961.28 303.846 Q1957.64 299.303 1957.64 291.809 Q1957.64 284.286 1961.28 279.743 Q1964.93 275.2 1970.89 275.2 Q1974.48 275.2 1977.05 276.618 Q1979.63 278.036 1981.28 280.9 L1981.28 275.981 L1986.6 275.981 L1986.6 304.367 Z" fill="#000000" fill-rule="nonzero" fill-opacity="1" /><path clip-path="url(#clip310)" d="M1997.57 275.981 L2002.89 275.981 L2002.89 308.389 L1997.57 308.389 L1997.57 275.981 M1997.57 263.366 L2002.89 263.366 L2002.89 270.108 L1997.57 270.108 L1997.57 263.366 Z" fill="#000000" fill-rule="nonzero" fill-opacity="1" /><path clip-path="url(#clip310)" d="M2040.97 288.829 L2040.97 308.389 L2035.65 308.389 L2035.65 289.002 Q2035.65 284.401 2033.85 282.116 Q2032.06 279.83 2028.47 279.83 Q2024.16 279.83 2021.67 282.579 Q2019.18 285.327 2019.18 290.073 L2019.18 308.389 L2013.83 308.389 L2013.83 275.981 L2019.18 275.981 L2019.18 281.016 Q2021.09 278.094 2023.67 276.647 Q2026.27 275.2 2029.66 275.2 Q2035.24 275.2 2038.11 278.672 Q2040.97 282.116 2040.97 288.829 Z" fill="#000000" fill-rule="nonzero" fill-opacity="1" /><path clip-path="url(#clip310)" d="M2050.75 263.424 L2055.38 263.424 Q2059.72 270.252 2061.86 276.792 Q2064.03 283.331 2064.03 289.783 Q2064.03 296.265 2061.86 302.833 Q2059.72 309.401 2055.38 316.201 L2050.75 316.201 Q2054.6 309.575 2056.48 303.036 Q2058.39 296.467 2058.39 289.783 Q2058.39 283.099 2056.48 276.589 Q2054.6 270.079 2050.75 263.424 Z" fill="#000000" fill-rule="nonzero" fill-opacity="1" /><polyline clip-path="url(#clip310)" style="stroke:#c271d2; stroke-linecap:round; stroke-linejoin:round; stroke-width:7.5; stroke-opacity:1; fill:none" points="1628.59,351.589 1753.89,351.589 "/>
<path clip-path="url(#clip310)" d="M1774.77 329.989 L1783.48 329.989 L1794.5 359.387 L1805.58 329.989 L1814.29 329.989 L1814.29 373.189 L1808.59 373.189 L1808.59 335.255 L1797.45 364.884 L1791.58 364.884 L1780.44 335.255 L1780.44 373.189 L1774.77 373.189 L1774.77 329.989 Z" fill="#000000" fill-rule="nonzero" fill-opacity="1" /><path clip-path="url(#clip310)" d="M1825.9 329.989 L1850.72 329.989 L1850.72 334.908 L1831.74 334.908 L1831.74 347.639 L1848.87 347.639 L1848.87 352.558 L1831.74 352.558 L1831.74 373.189 L1825.9 373.189 L1825.9 329.989 Z" fill="#000000" fill-rule="nonzero" fill-opacity="1" /><path clip-path="url(#clip310)" d="M1872.54 328.224 Q1868.66 334.879 1866.78 341.389 Q1864.9 347.899 1864.9 354.583 Q1864.9 361.267 1866.78 367.836 Q1868.69 374.375 1872.54 381.001 L1867.91 381.001 Q1863.57 374.201 1861.4 367.633 Q1859.26 361.065 1859.26 354.583 Q1859.26 348.131 1861.4 341.592 Q1863.54 335.052 1867.91 328.224 L1872.54 328.224 Z" fill="#000000" fill-rule="nonzero" fill-opacity="1" /><path clip-path="url(#clip310)" d="M1903.53 341.736 L1903.53 346.771 Q1901.27 345.614 1898.84 345.035 Q1896.41 344.456 1893.81 344.456 Q1889.84 344.456 1887.85 345.671 Q1885.88 346.887 1885.88 349.317 Q1885.88 351.169 1887.3 352.24 Q1888.71 353.281 1893 354.236 L1894.82 354.641 Q1900.49 355.857 1902.86 358.085 Q1905.26 360.284 1905.26 364.248 Q1905.26 368.762 1901.68 371.395 Q1898.12 374.028 1891.87 374.028 Q1889.26 374.028 1886.43 373.507 Q1883.62 373.015 1880.5 372.002 L1880.5 366.505 Q1883.45 368.038 1886.31 368.819 Q1889.18 369.572 1891.98 369.572 Q1895.75 369.572 1897.77 368.299 Q1899.8 366.997 1899.8 364.653 Q1899.8 362.483 1898.32 361.325 Q1896.87 360.168 1891.93 359.097 L1890.07 358.663 Q1885.13 357.622 1882.93 355.48 Q1880.73 353.31 1880.73 349.549 Q1880.73 344.977 1883.97 342.489 Q1887.21 340 1893.17 340 Q1896.12 340 1898.73 340.434 Q1901.33 340.868 1903.53 341.736 Z" fill="#000000" fill-rule="nonzero" fill-opacity="1" /><path clip-path="url(#clip310)" d="M1913.74 340.781 L1919.07 340.781 L1919.07 373.189 L1913.74 373.189 L1913.74 340.781 M1913.74 328.166 L1919.07 328.166 L1919.07 334.908 L1913.74 334.908 L1913.74 328.166 Z" fill="#000000" fill-rule="nonzero" fill-opacity="1" /><path clip-path="url(#clip310)" d="M1955.44 347.002 Q1957.43 343.414 1960.21 341.707 Q1962.99 340 1966.75 340 Q1971.82 340 1974.56 343.559 Q1977.31 347.089 1977.31 353.629 L1977.31 373.189 L1971.96 373.189 L1971.96 353.802 Q1971.96 349.144 1970.31 346.887 Q1968.66 344.63 1965.28 344.63 Q1961.14 344.63 1958.74 347.379 Q1956.33 350.127 1956.33 354.873 L1956.33 373.189 L1950.98 373.189 L1950.98 353.802 Q1950.98 349.115 1949.33 346.887 Q1947.68 344.63 1944.24 344.63 Q1940.16 344.63 1937.76 347.408 Q1935.36 350.156 1935.36 354.873 L1935.36 373.189 L1930 373.189 L1930 340.781 L1935.36 340.781 L1935.36 345.816 Q1937.18 342.836 1939.73 341.418 Q1942.27 340 1945.77 340 Q1949.3 340 1951.76 341.794 Q1954.25 343.588 1955.44 347.002 Z" fill="#000000" fill-rule="nonzero" fill-opacity="1" /><path clip-path="url(#clip310)" d="M1993.08 368.328 L1993.08 385.515 L1987.73 385.515 L1987.73 340.781 L1993.08 340.781 L1993.08 345.7 Q1994.76 342.807 1997.31 341.418 Q1999.88 340 2003.44 340 Q2009.34 340 2013.02 344.688 Q2016.72 349.375 2016.72 357.014 Q2016.72 364.653 2013.02 369.34 Q2009.34 374.028 2003.44 374.028 Q1999.88 374.028 1997.31 372.639 Q1994.76 371.221 1993.08 368.328 M2011.2 357.014 Q2011.2 351.14 2008.77 347.813 Q2006.36 344.456 2002.14 344.456 Q1997.91 344.456 1995.48 347.813 Q1993.08 351.14 1993.08 357.014 Q1993.08 362.888 1995.48 366.244 Q1997.91 369.572 2002.14 369.572 Q2006.36 369.572 2008.77 366.244 Q2011.2 362.888 2011.2 357.014 Z" fill="#000000" fill-rule="nonzero" fill-opacity="1" /><path clip-path="url(#clip310)" d="M2025.55 328.166 L2030.87 328.166 L2030.87 373.189 L2025.55 373.189 L2025.55 328.166 Z" fill="#000000" fill-rule="nonzero" fill-opacity="1" /><path clip-path="url(#clip310)" d="M2041.17 328.224 L2045.8 328.224 Q2050.14 335.052 2052.28 341.592 Q2054.45 348.131 2054.45 354.583 Q2054.45 361.065 2052.28 367.633 Q2050.14 374.201 2045.8 381.001 L2041.17 381.001 Q2045.02 374.375 2046.9 367.836 Q2048.81 361.267 2048.81 354.583 Q2048.81 347.899 2046.9 341.389 Q2045.02 334.879 2041.17 328.224 Z" fill="#000000" fill-rule="nonzero" fill-opacity="1" /><polyline clip-path="url(#clip310)" style="stroke:#ac8d18; stroke-linecap:round; stroke-linejoin:round; stroke-width:7.5; stroke-opacity:1; fill:none" points="1628.59,416.389 1753.89,416.389 "/>
<path clip-path="url(#clip310)" d="M1783.65 394.789 L1789.5 394.789 L1789.5 434.979 Q1789.5 442.792 1786.52 446.322 Q1783.56 449.852 1777 449.852 L1774.77 449.852 L1774.77 444.933 L1776.59 444.933 Q1780.47 444.933 1782.06 442.763 Q1783.65 440.593 1783.65 434.979 L1783.65 394.789 Z" fill="#000000" fill-rule="nonzero" fill-opacity="1" /><path clip-path="url(#clip310)" d="M1797.28 394.789 L1803.18 394.789 L1812.27 431.305 L1821.32 394.789 L1827.89 394.789 L1836.98 431.305 L1846.03 394.789 L1851.97 394.789 L1841.12 437.989 L1833.77 437.989 L1824.65 400.489 L1815.45 437.989 L1808.1 437.989 L1797.28 394.789 Z" fill="#000000" fill-rule="nonzero" fill-opacity="1" /></svg>
