<?xml version="1.0" encoding="utf-8"?>
<svg xmlns="http://www.w3.org/2000/svg" xmlns:xlink="http://www.w3.org/1999/xlink" width="600" height="400" viewBox="0 0 2400 1600">
<defs>
  <clipPath id="clip750">
    <rect x="0" y="0" width="2400" height="1600"/>
  </clipPath>
</defs>
<path clip-path="url(#clip750)" d="M0 1600 L2400 1600 L2400 0 L0 0  Z" fill="#ffffff" fill-rule="evenodd" fill-opacity="1"/>
<defs>
  <clipPath id="clip751">
    <rect x="480" y="0" width="1681" height="1600"/>
  </clipPath>
</defs>
<path clip-path="url(#clip750)" d="M269.506 1401.58 L2168.2 1401.58 L2168.2 47.2441 L269.506 47.2441  Z" fill="#ffffff" fill-rule="evenodd" fill-opacity="1"/>
<defs>
  <clipPath id="clip752">
    <rect x="269" y="47" width="1900" height="1355"/>
  </clipPath>
</defs>
<polyline clip-path="url(#clip752)" style="stroke:#000000; stroke-linecap:round; stroke-linejoin:round; stroke-width:2; stroke-opacity:0.1; fill:none" points="447.772,1401.58 447.772,47.2441 "/>
<polyline clip-path="url(#clip752)" style="stroke:#000000; stroke-linecap:round; stroke-linejoin:round; stroke-width:2; stroke-opacity:0.1; fill:none" points="833.314,1401.58 833.314,47.2441 "/>
<polyline clip-path="url(#clip752)" style="stroke:#000000; stroke-linecap:round; stroke-linejoin:round; stroke-width:2; stroke-opacity:0.1; fill:none" points="1218.85,1401.58 1218.85,47.2441 "/>
<polyline clip-path="url(#clip752)" style="stroke:#000000; stroke-linecap:round; stroke-linejoin:round; stroke-width:2; stroke-opacity:0.1; fill:none" points="1604.4,1401.58 1604.4,47.2441 "/>
<polyline clip-path="url(#clip752)" style="stroke:#000000; stroke-linecap:round; stroke-linejoin:round; stroke-width:2; stroke-opacity:0.1; fill:none" points="1989.94,1401.58 1989.94,47.2441 "/>
<polyline clip-path="url(#clip750)" style="stroke:#000000; stroke-linecap:round; stroke-linejoin:round; stroke-width:4; stroke-opacity:1; fill:none" points="269.506,1401.58 2168.2,1401.58 "/>
<polyline clip-path="url(#clip750)" style="stroke:#000000; stroke-linecap:round; stroke-linejoin:round; stroke-width:4; stroke-opacity:1; fill:none" points="447.772,1401.58 447.772,1382.68 "/>
<polyline clip-path="url(#clip750)" style="stroke:#000000; stroke-linecap:round; stroke-linejoin:round; stroke-width:4; stroke-opacity:1; fill:none" points="833.314,1401.58 833.314,1382.68 "/>
<polyline clip-path="url(#clip750)" style="stroke:#000000; stroke-linecap:round; stroke-linejoin:round; stroke-width:4; stroke-opacity:1; fill:none" points="1218.85,1401.58 1218.85,1382.68 "/>
<polyline clip-path="url(#clip750)" style="stroke:#000000; stroke-linecap:round; stroke-linejoin:round; stroke-width:4; stroke-opacity:1; fill:none" points="1604.4,1401.58 1604.4,1382.68 "/>
<polyline clip-path="url(#clip750)" style="stroke:#000000; stroke-linecap:round; stroke-linejoin:round; stroke-width:4; stroke-opacity:1; fill:none" points="1989.94,1401.58 1989.94,1382.68 "/>
<path clip-path="url(#clip750)" d="M447.772 1435.43 Q443.259 1435.43 440.973 1439.88 Q438.716 1444.31 438.716 1453.22 Q438.716 1462.11 440.973 1466.56 Q443.259 1470.99 447.772 1470.99 Q452.315 1470.99 454.572 1466.56 Q456.858 1462.11 456.858 1453.22 Q456.858 1444.31 454.572 1439.88 Q452.315 1435.43 447.772 1435.43 M447.772 1430.8 Q455.035 1430.8 458.855 1436.56 Q462.703 1442.29 462.703 1453.22 Q462.703 1464.13 458.855 1469.89 Q455.035 1475.62 447.772 1475.62 Q440.51 1475.62 436.661 1469.89 Q432.842 1464.13 432.842 1453.22 Q432.842 1442.29 436.661 1436.56 Q440.51 1430.8 447.772 1430.8 Z" fill="#000000" fill-rule="nonzero" fill-opacity="1" /><path clip-path="url(#clip750)" d="M821.291 1469.86 L830.84 1469.86 L830.84 1436.9 L820.452 1438.99 L820.452 1433.66 L830.782 1431.58 L836.627 1431.58 L836.627 1469.86 L846.175 1469.86 L846.175 1474.78 L821.291 1474.78 L821.291 1469.86 Z" fill="#000000" fill-rule="nonzero" fill-opacity="1" /><path clip-path="url(#clip750)" d="M1212.17 1469.86 L1232.57 1469.86 L1232.57 1474.78 L1205.14 1474.78 L1205.14 1469.86 Q1208.47 1466.42 1214.2 1460.63 Q1219.95 1454.81 1221.43 1453.14 Q1224.24 1449.98 1225.34 1447.81 Q1226.46 1445.61 1226.46 1443.5 Q1226.46 1440.06 1224.03 1437.89 Q1221.63 1435.72 1217.76 1435.72 Q1215.01 1435.72 1211.94 1436.67 Q1208.9 1437.63 1205.43 1439.57 L1205.43 1433.66 Q1208.96 1432.25 1212.03 1431.52 Q1215.09 1430.8 1217.64 1430.8 Q1224.35 1430.8 1228.35 1434.16 Q1232.34 1437.51 1232.34 1443.12 Q1232.34 1445.79 1231.33 1448.19 Q1230.34 1450.56 1227.71 1453.8 Q1226.99 1454.64 1223.11 1458.66 Q1219.23 1462.66 1212.17 1469.86 Z" fill="#000000" fill-rule="nonzero" fill-opacity="1" /><path clip-path="url(#clip750)" d="M1609.71 1451.49 Q1613.9 1452.38 1616.24 1455.22 Q1618.62 1458.06 1618.62 1462.22 Q1618.62 1468.62 1614.22 1472.12 Q1609.82 1475.62 1601.72 1475.62 Q1599 1475.62 1596.11 1475.07 Q1593.24 1474.55 1590.17 1473.48 L1590.17 1467.84 Q1592.61 1469.25 1595.5 1469.98 Q1598.39 1470.7 1601.55 1470.7 Q1607.04 1470.7 1609.91 1468.53 Q1612.8 1466.36 1612.8 1462.22 Q1612.8 1458.4 1610.11 1456.26 Q1607.45 1454.09 1602.67 1454.09 L1597.64 1454.09 L1597.64 1449.29 L1602.91 1449.29 Q1607.22 1449.29 1609.5 1447.58 Q1611.79 1445.84 1611.79 1442.6 Q1611.79 1439.28 1609.42 1437.51 Q1607.07 1435.72 1602.67 1435.72 Q1600.27 1435.72 1597.52 1436.24 Q1594.78 1436.76 1591.48 1437.86 L1591.48 1432.65 Q1594.8 1431.72 1597.7 1431.26 Q1600.62 1430.8 1603.2 1430.8 Q1609.85 1430.8 1613.73 1433.84 Q1617.6 1436.85 1617.6 1442 Q1617.6 1445.58 1615.55 1448.07 Q1613.5 1450.53 1609.71 1451.49 Z" fill="#000000" fill-rule="nonzero" fill-opacity="1" /><path clip-path="url(#clip750)" d="M1993.7 1436.67 L1978.94 1459.73 L1993.7 1459.73 L1993.7 1436.67 M1992.17 1431.58 L1999.51 1431.58 L1999.51 1459.73 L2005.68 1459.73 L2005.68 1464.59 L1999.51 1464.59 L1999.51 1474.78 L1993.7 1474.78 L1993.7 1464.59 L1974.2 1464.59 L1974.2 1458.95 L1992.17 1431.58 Z" fill="#000000" fill-rule="nonzero" fill-opacity="1" /><path clip-path="url(#clip750)" d="M1203.52 1547.44 Q1202.45 1552.73 1201.02 1555.76 Q1198.72 1560.39 1194.79 1560.39 Q1192 1560.39 1189.87 1558.71 Q1187.78 1557.03 1187.25 1554.24 Q1186.18 1555.51 1185.4 1556.25 Q1184.66 1556.99 1183.19 1558.14 Q1181.75 1559.24 1179.95 1559.82 Q1178.15 1560.39 1176.1 1560.39 Q1171.1 1560.39 1167.94 1557.77 Q1163.68 1574.94 1163.31 1575.8 Q1162.12 1577.57 1160.4 1577.57 Q1159.33 1577.57 1158.68 1576.91 Q1158.02 1576.3 1158.02 1575.31 Q1158.06 1574.98 1158.31 1573.96 L1170.36 1525.39 Q1170.69 1524.08 1171.51 1523.34 Q1172.37 1522.56 1172.86 1522.48 Q1173.35 1522.35 1173.72 1522.35 Q1174.83 1522.35 1175.48 1522.97 Q1176.18 1523.54 1176.18 1524.61 Q1176.18 1524.77 1175.93 1525.71 Q1175.73 1526.62 1175.4 1528.01 Q1175.07 1529.36 1174.91 1529.98 L1171.38 1544.08 Q1170.2 1548.91 1170.2 1551.21 Q1170.2 1554.69 1171.75 1556.62 Q1173.35 1558.51 1176.43 1558.51 Q1178.35 1558.51 1180.16 1557.73 Q1181.96 1556.91 1183.19 1555.8 Q1184.42 1554.69 1185.4 1553.51 Q1186.39 1552.28 1186.84 1551.5 Q1187.29 1550.68 1187.33 1550.47 L1189.5 1541.91 L1193.48 1526.21 Q1193.72 1525.22 1194.17 1524.57 Q1194.67 1523.87 1195.24 1523.62 Q1195.81 1523.38 1196.14 1523.34 Q1196.47 1523.26 1196.76 1523.26 Q1197.78 1523.26 1198.48 1523.87 Q1199.17 1524.49 1199.17 1525.55 Q1199.17 1525.76 1198.93 1526.74 Q1198.72 1527.68 1198.4 1529.08 Q1198.07 1530.43 1197.9 1531.17 Q1196.59 1536.33 1196.47 1536.86 L1194.13 1545.92 Q1194.01 1546.46 1193.6 1548.18 Q1193.23 1549.9 1193.03 1550.8 Q1192.82 1551.66 1192.62 1552.85 Q1192.45 1554 1192.45 1554.65 Q1192.45 1558.51 1194.99 1558.51 Q1195.98 1558.51 1196.84 1557.93 Q1197.7 1557.32 1198.27 1556.46 Q1198.89 1555.6 1199.46 1554.12 Q1200.08 1552.6 1200.45 1551.37 Q1200.81 1550.1 1201.35 1548.14 Q1201.55 1547.19 1201.76 1546.91 Q1201.96 1546.62 1202.54 1546.62 Q1203.52 1546.62 1203.52 1547.44 Z" fill="#000000" fill-rule="nonzero" fill-opacity="1" /><path clip-path="url(#clip750)" d="M1208.12 1579.25 Q1208.12 1578.84 1208.45 1577.94 L1238.08 1498.74 Q1238.08 1498.66 1238.29 1498.21 Q1238.49 1497.76 1238.61 1497.47 Q1238.74 1497.15 1238.98 1496.9 Q1239.27 1496.65 1239.6 1496.65 Q1240.42 1496.65 1240.42 1497.68 Q1240.42 1497.76 1240.17 1498.74 L1210.45 1578.02 Q1209.96 1579.45 1209.63 1579.86 Q1209.35 1580.27 1208.86 1580.27 Q1208.12 1580.27 1208.12 1579.25 Z" fill="#000000" fill-rule="nonzero" fill-opacity="1" /><path clip-path="url(#clip750)" d="M1275.47 1524.2 Q1275.47 1525.35 1274.94 1525.63 Q1274.4 1525.88 1272.93 1525.88 L1265.06 1525.88 L1258.83 1550.64 Q1258.34 1552.81 1258.34 1554.65 Q1258.34 1556.7 1258.95 1557.6 Q1259.61 1558.51 1260.96 1558.51 Q1263.62 1558.51 1266.49 1556.09 Q1269.4 1553.67 1271.86 1547.77 Q1272.19 1546.99 1272.35 1546.82 Q1272.56 1546.62 1273.09 1546.62 Q1274.12 1546.62 1274.12 1547.44 Q1274.12 1547.73 1273.54 1549.04 Q1273.01 1550.35 1271.82 1552.28 Q1270.67 1554.2 1269.16 1556.01 Q1267.68 1557.81 1265.43 1559.12 Q1263.17 1560.39 1260.75 1560.39 Q1257.35 1560.39 1255.18 1558.22 Q1253.05 1556.05 1253.05 1552.64 Q1253.05 1551.54 1253.91 1548.01 Q1254.77 1544.45 1259.44 1525.88 L1252.02 1525.88 Q1251 1525.88 1250.59 1525.84 Q1250.22 1525.8 1249.93 1525.59 Q1249.69 1525.35 1249.69 1524.85 Q1249.69 1524.08 1250.02 1523.75 Q1250.34 1523.38 1250.75 1523.34 Q1251.2 1523.26 1252.23 1523.26 L1260.1 1523.26 L1263.38 1509.93 Q1263.71 1508.62 1264.53 1507.88 Q1265.39 1507.11 1265.88 1507.02 Q1266.37 1506.9 1266.74 1506.9 Q1267.85 1506.9 1268.5 1507.52 Q1269.16 1508.09 1269.16 1509.16 Q1269.16 1509.73 1265.71 1523.26 L1273.09 1523.26 Q1274.04 1523.26 1274.4 1523.3 Q1274.81 1523.34 1275.14 1523.54 Q1275.47 1523.75 1275.47 1524.2 Z" fill="#000000" fill-rule="nonzero" fill-opacity="1" /><polyline clip-path="url(#clip750)" style="stroke:#000000; stroke-linecap:round; stroke-linejoin:round; stroke-width:4; stroke-opacity:1; fill:none" points="269.506,1401.58 269.506,47.2441 "/>
<polyline clip-path="url(#clip750)" style="stroke:#000000; stroke-linecap:round; stroke-linejoin:round; stroke-width:4; stroke-opacity:1; fill:none" points="269.506,1401.58 288.404,1401.58 "/>
<polyline clip-path="url(#clip750)" style="stroke:#000000; stroke-linecap:round; stroke-linejoin:round; stroke-width:4; stroke-opacity:1; fill:none" points="269.506,724.412 288.404,724.412 "/>
<polyline clip-path="url(#clip750)" style="stroke:#000000; stroke-linecap:round; stroke-linejoin:round; stroke-width:4; stroke-opacity:1; fill:none" points="269.506,47.2441 288.404,47.2441 "/>
<path clip-path="url(#clip750)" d="M146.276 1426.32 L155.824 1426.32 L155.824 1393.36 L145.437 1395.45 L145.437 1390.12 L155.767 1388.04 L161.611 1388.04 L161.611 1426.32 L171.16 1426.32 L171.16 1431.24 L146.276 1431.24 L146.276 1426.32 Z" fill="#000000" fill-rule="nonzero" fill-opacity="1" /><path clip-path="url(#clip750)" d="M195.465 1391.89 Q190.952 1391.89 188.666 1396.34 Q186.409 1400.77 186.409 1409.68 Q186.409 1418.57 188.666 1423.02 Q190.952 1427.45 195.465 1427.45 Q200.008 1427.45 202.265 1423.02 Q204.551 1418.57 204.551 1409.68 Q204.551 1400.77 202.265 1396.34 Q200.008 1391.89 195.465 1391.89 M195.465 1387.26 Q202.728 1387.26 206.547 1393.02 Q210.396 1398.75 210.396 1409.68 Q210.396 1420.59 206.547 1426.35 Q202.728 1432.08 195.465 1432.08 Q188.203 1432.08 184.354 1426.35 Q180.535 1420.59 180.535 1409.68 Q180.535 1398.75 184.354 1393.02 Q188.203 1387.26 195.465 1387.26 Z" fill="#000000" fill-rule="nonzero" fill-opacity="1" /><path clip-path="url(#clip750)" d="M226.265 1378.05 Q229.674 1378.78 231.578 1381.08 Q233.506 1383.39 233.506 1386.77 Q233.506 1391.97 229.932 1394.81 Q226.359 1397.66 219.776 1397.66 Q217.566 1397.66 215.215 1397.21 Q212.888 1396.79 210.396 1395.92 L210.396 1391.33 Q212.371 1392.49 214.722 1393.07 Q217.073 1393.66 219.635 1393.66 Q224.102 1393.66 226.429 1391.9 Q228.78 1390.14 228.78 1386.77 Q228.78 1383.67 226.594 1381.93 Q224.431 1380.17 220.552 1380.17 L216.461 1380.17 L216.461 1376.26 L220.74 1376.26 Q224.243 1376.26 226.1 1374.88 Q227.958 1373.47 227.958 1370.83 Q227.958 1368.13 226.03 1366.7 Q224.126 1365.24 220.552 1365.24 Q218.601 1365.24 216.367 1365.66 Q214.134 1366.08 211.454 1366.98 L211.454 1362.75 Q214.157 1361.99 216.508 1361.62 Q218.883 1361.24 220.975 1361.24 Q226.382 1361.24 229.533 1363.71 Q232.683 1366.16 232.683 1370.34 Q232.683 1373.26 231.014 1375.28 Q229.345 1377.28 226.265 1378.05 Z" fill="#000000" fill-rule="nonzero" fill-opacity="1" /><path clip-path="url(#clip750)" d="M143.807 749.153 L153.356 749.153 L153.356 716.196 L142.968 718.279 L142.968 712.955 L153.298 710.871 L159.143 710.871 L159.143 749.153 L168.691 749.153 L168.691 754.071 L143.807 754.071 L143.807 749.153 Z" fill="#000000" fill-rule="nonzero" fill-opacity="1" /><path clip-path="url(#clip750)" d="M192.997 714.72 Q188.483 714.72 186.197 719.176 Q183.94 723.603 183.94 732.515 Q183.94 741.398 186.197 745.854 Q188.483 750.281 192.997 750.281 Q197.54 750.281 199.797 745.854 Q202.082 741.398 202.082 732.515 Q202.082 723.603 199.797 719.176 Q197.54 714.72 192.997 714.72 M192.997 710.09 Q200.26 710.09 204.079 715.848 Q207.927 721.577 207.927 732.515 Q207.927 743.423 204.079 749.181 Q200.26 754.911 192.997 754.911 Q185.734 754.911 181.886 749.181 Q178.066 743.423 178.066 732.515 Q178.066 721.577 181.886 715.848 Q185.734 710.09 192.997 710.09 Z" fill="#000000" fill-rule="nonzero" fill-opacity="1" /><path clip-path="url(#clip750)" d="M223.773 688.846 L211.783 707.583 L223.773 707.583 L223.773 688.846 M222.527 684.708 L228.498 684.708 L228.498 707.583 L233.506 707.583 L233.506 711.533 L228.498 711.533 L228.498 719.808 L223.773 719.808 L223.773 711.533 L207.927 711.533 L207.927 706.949 L222.527 684.708 Z" fill="#000000" fill-rule="nonzero" fill-opacity="1" /><path clip-path="url(#clip750)" d="M146.675 71.9846 L156.224 71.9846 L156.224 39.0276 L145.836 41.111 L145.836 35.7869 L156.166 33.7036 L162.011 33.7036 L162.011 71.9846 L171.56 71.9846 L171.56 76.9036 L146.675 76.9036 L146.675 71.9846 Z" fill="#000000" fill-rule="nonzero" fill-opacity="1" /><path clip-path="url(#clip750)" d="M195.865 37.552 Q191.351 37.552 189.065 42.0079 Q186.808 46.435 186.808 55.347 Q186.808 64.2301 189.065 68.686 Q191.351 73.1131 195.865 73.1131 Q200.408 73.1131 202.665 68.686 Q204.951 64.2301 204.951 55.347 Q204.951 46.435 202.665 42.0079 Q200.408 37.552 195.865 37.552 M195.865 32.9223 Q203.128 32.9223 206.947 38.6804 Q210.796 44.4096 210.796 55.347 Q210.796 66.2555 206.947 72.0136 Q203.128 77.7427 195.865 77.7427 Q188.602 77.7427 184.754 72.0136 Q180.935 66.2555 180.935 55.347 Q180.935 44.4096 184.754 38.6804 Q188.602 32.9223 195.865 32.9223 Z" fill="#000000" fill-rule="nonzero" fill-opacity="1" /><path clip-path="url(#clip750)" d="M212.277 7.54059 L230.92 7.54059 L230.92 11.5372 L216.626 11.5372 L216.626 20.1418 Q217.66 19.7892 218.695 19.6246 Q219.729 19.4365 220.764 19.4365 Q226.641 19.4365 230.073 22.6573 Q233.506 25.8782 233.506 31.3794 Q233.506 37.0453 229.979 40.1956 Q226.453 43.3224 220.035 43.3224 Q217.825 43.3224 215.521 42.9462 Q213.241 42.5701 210.796 41.8178 L210.796 37.0453 Q212.911 38.1973 215.168 38.7615 Q217.425 39.3257 219.941 39.3257 Q224.008 39.3257 226.382 37.1863 Q228.757 35.047 228.757 31.3794 Q228.757 27.7119 226.382 25.5725 Q224.008 23.4332 219.941 23.4332 Q218.037 23.4332 216.132 23.8563 Q214.251 24.2795 212.277 25.1729 L212.277 7.54059 Z" fill="#000000" fill-rule="nonzero" fill-opacity="1" /><path clip-path="url(#clip750)" d="M44.7909 917.843 L51.8394 917.843 Q50.2191 921.002 49.4089 924.405 Q48.5987 927.808 48.5987 931.454 Q48.5987 937.003 50.3001 939.799 Q52.0015 942.553 55.4042 942.553 Q57.9968 942.553 59.4956 940.568 Q60.954 938.583 62.2908 932.588 L62.8579 930.036 Q64.5593 922.096 67.6785 918.774 Q70.7572 915.412 76.3069 915.412 Q82.6263 915.412 86.3126 920.435 Q89.999 925.418 89.999 934.168 Q89.999 937.814 89.2698 941.783 Q88.5811 945.713 87.1633 950.088 L79.4666 950.088 Q81.6136 945.956 82.7073 941.946 Q83.7606 937.935 83.7606 934.006 Q83.7606 928.74 81.9782 925.904 Q80.1553 923.068 76.874 923.068 Q73.8358 923.068 72.2155 925.134 Q70.5951 927.16 69.0963 934.087 L68.4886 936.679 Q67.0303 943.606 64.0327 946.685 Q60.9945 949.764 55.7283 949.764 Q49.3279 949.764 45.8441 945.227 Q42.3603 940.69 42.3603 932.345 Q42.3603 928.213 42.968 924.567 Q43.5756 920.921 44.7909 917.843 Z" fill="#000000" fill-rule="nonzero" fill-opacity="1" /><path clip-path="url(#clip750)" d="M82.0187 896.332 L106.081 896.332 L106.081 903.827 L43.4541 903.827 L43.4541 896.332 L50.3406 896.332 Q46.2897 893.983 44.3453 890.418 Q42.3603 886.813 42.3603 881.83 Q42.3603 873.566 48.9228 868.422 Q55.4852 863.236 66.1796 863.236 Q76.874 863.236 83.4365 868.422 Q89.999 873.566 89.999 881.83 Q89.999 886.813 88.0545 890.418 Q86.0696 893.983 82.0187 896.332 M66.1796 870.974 Q57.9563 870.974 53.2978 874.376 Q48.5987 877.739 48.5987 883.653 Q48.5987 889.567 53.2978 892.97 Q57.9563 896.332 66.1796 896.332 Q74.403 896.332 79.102 892.97 Q83.7606 889.567 83.7606 883.653 Q83.7606 877.739 79.102 874.376 Q74.403 870.974 66.1796 870.974 Z" fill="#000000" fill-rule="nonzero" fill-opacity="1" /><path clip-path="url(#clip750)" d="M66.0176 830.262 Q66.0176 839.296 68.0836 842.779 Q70.1495 846.263 75.1321 846.263 Q79.102 846.263 81.4515 843.671 Q83.7606 841.038 83.7606 836.541 Q83.7606 830.343 79.3856 826.616 Q74.9701 822.849 67.6785 822.849 L66.0176 822.849 L66.0176 830.262 M62.9389 815.395 L88.8242 815.395 L88.8242 822.849 L81.9377 822.849 Q86.0696 825.401 88.0545 829.209 Q89.999 833.017 89.999 838.526 Q89.999 845.493 86.1101 849.625 Q82.1807 853.717 75.6182 853.717 Q67.962 853.717 64.0732 848.613 Q60.1843 843.468 60.1843 833.3 L60.1843 822.849 L59.4551 822.849 Q54.3105 822.849 51.5154 826.252 Q48.6797 829.614 48.6797 835.731 Q48.6797 839.62 49.6114 843.306 Q50.5431 846.992 52.4066 850.395 L45.52 850.395 Q43.9402 846.304 43.1705 842.455 Q42.3603 838.607 42.3603 834.961 Q42.3603 825.117 47.4645 820.256 Q52.5686 815.395 62.9389 815.395 Z" fill="#000000" fill-rule="nonzero" fill-opacity="1" /><path clip-path="url(#clip750)" d="M45.196 767.392 L52.1635 767.392 Q50.4216 770.552 49.5709 773.752 Q48.6797 776.912 48.6797 780.152 Q48.6797 787.404 53.2978 791.414 Q57.8753 795.424 66.1796 795.424 Q74.484 795.424 79.102 791.414 Q83.6795 787.404 83.6795 780.152 Q83.6795 776.912 82.8289 773.752 Q81.9377 770.552 80.1958 767.392 L87.0823 767.392 Q88.5406 770.511 89.2698 773.874 Q89.999 777.195 89.999 780.963 Q89.999 791.211 83.558 797.247 Q77.1171 803.283 66.1796 803.283 Q55.0802 803.283 48.7202 797.207 Q42.3603 791.09 42.3603 780.476 Q42.3603 777.033 43.0895 773.752 Q43.7781 770.471 45.196 767.392 Z" fill="#000000" fill-rule="nonzero" fill-opacity="1" /><path clip-path="url(#clip750)" d="M64.2757 715.622 L67.9215 715.622 L67.9215 749.892 Q75.6182 749.406 79.6691 745.274 Q83.6795 741.102 83.6795 733.689 Q83.6795 729.395 82.6263 725.384 Q81.5731 721.333 79.4666 717.363 L86.5152 717.363 Q88.2166 721.374 89.1078 725.587 Q89.999 729.8 89.999 734.134 Q89.999 744.991 83.6795 751.35 Q77.3601 757.67 66.5847 757.67 Q55.4447 757.67 48.9228 751.675 Q42.3603 745.639 42.3603 735.43 Q42.3603 726.275 48.2746 720.969 Q54.1484 715.622 64.2757 715.622 M62.0882 723.075 Q55.9714 723.156 52.3255 726.518 Q48.6797 729.84 48.6797 735.349 Q48.6797 741.588 52.204 745.355 Q55.7283 749.082 62.1287 749.649 L62.0882 723.075 Z" fill="#000000" fill-rule="nonzero" fill-opacity="1" /><path clip-path="url(#clip750)" d="M25.8731 659.111 Q35.1902 664.54 44.3048 667.173 Q53.4193 669.806 62.7769 669.806 Q72.1345 669.806 81.33 667.173 Q90.4851 664.499 99.7616 659.111 L99.7616 665.593 Q90.242 671.669 81.0465 674.707 Q71.8509 677.705 62.7769 677.705 Q53.7434 677.705 44.5883 674.707 Q35.4333 671.71 25.8731 665.593 L25.8731 659.111 Z" fill="#000000" fill-rule="nonzero" fill-opacity="1" /><path clip-path="url(#clip750)" d="M28.3442 644.326 L28.3442 632.132 L69.5014 616.698 L28.3442 601.183 L28.3442 588.99 L88.8242 588.99 L88.8242 596.971 L35.7168 596.971 L77.1981 612.567 L77.1981 620.79 L35.7168 636.386 L88.8242 636.386 L88.8242 644.326 L28.3442 644.326 Z" fill="#000000" fill-rule="nonzero" fill-opacity="1" /><path clip-path="url(#clip750)" d="M59.9412 564.563 L82.0997 564.563 L82.0997 551.438 Q82.0997 544.835 79.3856 541.676 Q76.631 538.475 71.0002 538.475 Q65.3289 538.475 62.6553 541.676 Q59.9412 544.835 59.9412 551.438 L59.9412 564.563 M35.0687 564.563 L53.2978 564.563 L53.2978 552.451 Q53.2978 546.456 51.0698 543.539 Q48.8013 540.582 44.1832 540.582 Q39.6057 540.582 37.3372 543.539 Q35.0687 546.456 35.0687 552.451 L35.0687 564.563 M28.3442 572.746 L28.3442 551.843 Q28.3442 542.486 32.2331 537.422 Q36.1219 532.359 43.292 532.359 Q48.8418 532.359 52.123 534.951 Q55.4042 537.544 56.2144 542.567 Q57.5107 536.531 61.6426 533.209 Q65.734 529.847 71.8914 529.847 Q79.9932 529.847 84.4087 535.356 Q88.8242 540.865 88.8242 551.033 L88.8242 572.746 L28.3442 572.746 Z" fill="#000000" fill-rule="nonzero" fill-opacity="1" /><path clip-path="url(#clip750)" d="M25.8731 517.33 L25.8731 510.848 Q35.4333 504.772 44.5883 501.774 Q53.7434 498.736 62.7769 498.736 Q71.8509 498.736 81.0465 501.774 Q90.242 504.772 99.7616 510.848 L99.7616 517.33 Q90.4851 511.942 81.33 509.309 Q72.1345 506.635 62.7769 506.635 Q53.4193 506.635 44.3048 509.309 Q35.1902 511.942 25.8731 517.33 Z" fill="#000000" fill-rule="nonzero" fill-opacity="1" /><path clip-path="url(#clip752)" d="M370.664 1226.62 L370.664 1401.58 L409.218 1401.58 L409.218 1226.62 L370.664 1226.62 L370.664 1226.62  Z" fill="#009af9" fill-rule="evenodd" fill-opacity="1"/>
<polyline clip-path="url(#clip752)" style="stroke:#000000; stroke-linecap:round; stroke-linejoin:round; stroke-width:2; stroke-opacity:1; fill:none" points="370.664,1226.62 370.664,1401.58 409.218,1401.58 409.218,1226.62 370.664,1226.62 "/>
<path clip-path="url(#clip752)" d="M756.205 1155.43 L756.205 1401.58 L794.76 1401.58 L794.76 1155.43 L756.205 1155.43 L756.205 1155.43  Z" fill="#009af9" fill-rule="evenodd" fill-opacity="1"/>
<polyline clip-path="url(#clip752)" style="stroke:#000000; stroke-linecap:round; stroke-linejoin:round; stroke-width:2; stroke-opacity:1; fill:none" points="756.205,1155.43 756.205,1401.58 794.76,1401.58 794.76,1155.43 756.205,1155.43 "/>
<path clip-path="url(#clip752)" d="M1141.75 1173.35 L1141.75 1401.58 L1180.3 1401.58 L1180.3 1173.35 L1141.75 1173.35 L1141.75 1173.35  Z" fill="#009af9" fill-rule="evenodd" fill-opacity="1"/>
<polyline clip-path="url(#clip752)" style="stroke:#000000; stroke-linecap:round; stroke-linejoin:round; stroke-width:2; stroke-opacity:1; fill:none" points="1141.75,1173.35 1141.75,1401.58 1180.3,1401.58 1180.3,1173.35 1141.75,1173.35 "/>
<path clip-path="url(#clip752)" d="M1527.29 1186.64 L1527.29 1401.58 L1565.84 1401.58 L1565.84 1186.64 L1527.29 1186.64 L1527.29 1186.64  Z" fill="#009af9" fill-rule="evenodd" fill-opacity="1"/>
<polyline clip-path="url(#clip752)" style="stroke:#000000; stroke-linecap:round; stroke-linejoin:round; stroke-width:2; stroke-opacity:1; fill:none" points="1527.29,1186.64 1527.29,1401.58 1565.84,1401.58 1565.84,1186.64 1527.29,1186.64 "/>
<path clip-path="url(#clip752)" d="M1912.83 1123.58 L1912.83 1401.58 L1951.38 1401.58 L1951.38 1123.58 L1912.83 1123.58 L1912.83 1123.58  Z" fill="#009af9" fill-rule="evenodd" fill-opacity="1"/>
<polyline clip-path="url(#clip752)" style="stroke:#000000; stroke-linecap:round; stroke-linejoin:round; stroke-width:2; stroke-opacity:1; fill:none" points="1912.83,1123.58 1912.83,1401.58 1951.38,1401.58 1951.38,1123.58 1912.83,1123.58 "/>
<circle clip-path="url(#clip752)" style="fill:#009af9; stroke:none; fill-opacity:0" cx="389.941" cy="1226.62" r="2"/>
<circle clip-path="url(#clip752)" style="fill:#009af9; stroke:none; fill-opacity:0" cx="775.482" cy="1155.43" r="2"/>
<circle clip-path="url(#clip752)" style="fill:#009af9; stroke:none; fill-opacity:0" cx="1161.02" cy="1173.35" r="2"/>
<circle clip-path="url(#clip752)" style="fill:#009af9; stroke:none; fill-opacity:0" cx="1546.56" cy="1186.64" r="2"/>
<circle clip-path="url(#clip752)" style="fill:#009af9; stroke:none; fill-opacity:0" cx="1932.11" cy="1123.58" r="2"/>
<path clip-path="url(#clip752)" d="M409.218 1142.22 L409.218 1401.58 L447.772 1401.58 L447.772 1142.22 L409.218 1142.22 L409.218 1142.22  Z" fill="#e26f46" fill-rule="evenodd" fill-opacity="1"/>
<polyline clip-path="url(#clip752)" style="stroke:#000000; stroke-linecap:round; stroke-linejoin:round; stroke-width:2; stroke-opacity:1; fill:none" points="409.218,1142.22 409.218,1401.58 447.772,1401.58 447.772,1142.22 409.218,1142.22 "/>
<path clip-path="url(#clip752)" d="M794.76 1010.24 L794.76 1401.58 L833.314 1401.58 L833.314 1010.24 L794.76 1010.24 L794.76 1010.24  Z" fill="#e26f46" fill-rule="evenodd" fill-opacity="1"/>
<polyline clip-path="url(#clip752)" style="stroke:#000000; stroke-linecap:round; stroke-linejoin:round; stroke-width:2; stroke-opacity:1; fill:none" points="794.76,1010.24 794.76,1401.58 833.314,1401.58 833.314,1010.24 794.76,1010.24 "/>
<path clip-path="url(#clip752)" d="M1180.3 593.457 L1180.3 1401.58 L1218.85 1401.58 L1218.85 593.457 L1180.3 593.457 L1180.3 593.457  Z" fill="#e26f46" fill-rule="evenodd" fill-opacity="1"/>
<polyline clip-path="url(#clip752)" style="stroke:#000000; stroke-linecap:round; stroke-linejoin:round; stroke-width:2; stroke-opacity:1; fill:none" points="1180.3,593.457 1180.3,1401.58 1218.85,1401.58 1218.85,593.457 1180.3,593.457 "/>
<path clip-path="url(#clip752)" d="M1565.84 977.258 L1565.84 1401.58 L1604.4 1401.58 L1604.4 977.258 L1565.84 977.258 L1565.84 977.258  Z" fill="#e26f46" fill-rule="evenodd" fill-opacity="1"/>
<polyline clip-path="url(#clip752)" style="stroke:#000000; stroke-linecap:round; stroke-linejoin:round; stroke-width:2; stroke-opacity:1; fill:none" points="1565.84,977.258 1565.84,1401.58 1604.4,1401.58 1604.4,977.258 1565.84,977.258 "/>
<path clip-path="url(#clip752)" d="M1951.38 1014.09 L1951.38 1401.58 L1989.94 1401.58 L1989.94 1014.09 L1951.38 1014.09 L1951.38 1014.09  Z" fill="#e26f46" fill-rule="evenodd" fill-opacity="1"/>
<polyline clip-path="url(#clip752)" style="stroke:#000000; stroke-linecap:round; stroke-linejoin:round; stroke-width:2; stroke-opacity:1; fill:none" points="1951.38,1014.09 1951.38,1401.58 1989.94,1401.58 1989.94,1014.09 1951.38,1014.09 "/>
<circle clip-path="url(#clip752)" style="fill:#e26f46; stroke:none; fill-opacity:0" cx="428.495" cy="1142.22" r="2"/>
<circle clip-path="url(#clip752)" style="fill:#e26f46; stroke:none; fill-opacity:0" cx="814.037" cy="1010.24" r="2"/>
<circle clip-path="url(#clip752)" style="fill:#e26f46; stroke:none; fill-opacity:0" cx="1199.58" cy="593.457" r="2"/>
<circle clip-path="url(#clip752)" style="fill:#e26f46; stroke:none; fill-opacity:0" cx="1585.12" cy="977.258" r="2"/>
<circle clip-path="url(#clip752)" style="fill:#e26f46; stroke:none; fill-opacity:0" cx="1970.66" cy="1014.09" r="2"/>
<path clip-path="url(#clip752)" d="M447.772 1004.91 L447.772 1401.58 L486.327 1401.58 L486.327 1004.91 L447.772 1004.91 L447.772 1004.91  Z" fill="#3da44d" fill-rule="evenodd" fill-opacity="1"/>
<polyline clip-path="url(#clip752)" style="stroke:#000000; stroke-linecap:round; stroke-linejoin:round; stroke-width:2; stroke-opacity:1; fill:none" points="447.772,1004.91 447.772,1401.58 486.327,1401.58 486.327,1004.91 447.772,1004.91 "/>
<path clip-path="url(#clip752)" d="M833.314 814.379 L833.314 1401.58 L871.868 1401.58 L871.868 814.379 L833.314 814.379 L833.314 814.379  Z" fill="#3da44d" fill-rule="evenodd" fill-opacity="1"/>
<polyline clip-path="url(#clip752)" style="stroke:#000000; stroke-linecap:round; stroke-linejoin:round; stroke-width:2; stroke-opacity:1; fill:none" points="833.314,814.379 833.314,1401.58 871.868,1401.58 871.868,814.379 833.314,814.379 "/>
<path clip-path="url(#clip752)" d="M1218.85 602.224 L1218.85 1401.58 L1257.41 1401.58 L1257.41 602.224 L1218.85 602.224 L1218.85 602.224  Z" fill="#3da44d" fill-rule="evenodd" fill-opacity="1"/>
<polyline clip-path="url(#clip752)" style="stroke:#000000; stroke-linecap:round; stroke-linejoin:round; stroke-width:2; stroke-opacity:1; fill:none" points="1218.85,602.224 1218.85,1401.58 1257.41,1401.58 1257.41,602.224 1218.85,602.224 "/>
<path clip-path="url(#clip752)" d="M1604.4 860.814 L1604.4 1401.58 L1642.95 1401.58 L1642.95 860.814 L1604.4 860.814 L1604.4 860.814  Z" fill="#3da44d" fill-rule="evenodd" fill-opacity="1"/>
<polyline clip-path="url(#clip752)" style="stroke:#000000; stroke-linecap:round; stroke-linejoin:round; stroke-width:2; stroke-opacity:1; fill:none" points="1604.4,860.814 1604.4,1401.58 1642.95,1401.58 1642.95,860.814 1604.4,860.814 "/>
<path clip-path="url(#clip752)" d="M1989.94 876.789 L1989.94 1401.58 L2028.49 1401.58 L2028.49 876.789 L1989.94 876.789 L1989.94 876.789  Z" fill="#3da44d" fill-rule="evenodd" fill-opacity="1"/>
<polyline clip-path="url(#clip752)" style="stroke:#000000; stroke-linecap:round; stroke-linejoin:round; stroke-width:2; stroke-opacity:1; fill:none" points="1989.94,876.789 1989.94,1401.58 2028.49,1401.58 2028.49,876.789 1989.94,876.789 "/>
<circle clip-path="url(#clip752)" style="fill:#3da44d; stroke:none; fill-opacity:0" cx="467.05" cy="1004.91" r="2"/>
<circle clip-path="url(#clip752)" style="fill:#3da44d; stroke:none; fill-opacity:0" cx="852.591" cy="814.379" r="2"/>
<circle clip-path="url(#clip752)" style="fill:#3da44d; stroke:none; fill-opacity:0" cx="1238.13" cy="602.224" r="2"/>
<circle clip-path="url(#clip752)" style="fill:#3da44d; stroke:none; fill-opacity:0" cx="1623.67" cy="860.814" r="2"/>
<circle clip-path="url(#clip752)" style="fill:#3da44d; stroke:none; fill-opacity:0" cx="2009.21" cy="876.789" r="2"/>
<path clip-path="url(#clip752)" d="M486.327 1217.85 L486.327 1401.58 L524.881 1401.58 L524.881 1217.85 L486.327 1217.85 L486.327 1217.85  Z" fill="#c271d2" fill-rule="evenodd" fill-opacity="1"/>
<polyline clip-path="url(#clip752)" style="stroke:#000000; stroke-linecap:round; stroke-linejoin:round; stroke-width:2; stroke-opacity:1; fill:none" points="486.327,1217.85 486.327,1401.58 524.881,1401.58 524.881,1217.85 486.327,1217.85 "/>
<path clip-path="url(#clip752)" d="M871.868 1131.02 L871.868 1401.58 L910.422 1401.58 L910.422 1131.02 L871.868 1131.02 L871.868 1131.02  Z" fill="#c271d2" fill-rule="evenodd" fill-opacity="1"/>
<polyline clip-path="url(#clip752)" style="stroke:#000000; stroke-linecap:round; stroke-linejoin:round; stroke-width:2; stroke-opacity:1; fill:none" points="871.868,1131.02 871.868,1401.58 910.422,1401.58 910.422,1131.02 871.868,1131.02 "/>
<path clip-path="url(#clip752)" d="M1257.41 1126.54 L1257.41 1401.58 L1295.96 1401.58 L1295.96 1126.54 L1257.41 1126.54 L1257.41 1126.54  Z" fill="#c271d2" fill-rule="evenodd" fill-opacity="1"/>
<polyline clip-path="url(#clip752)" style="stroke:#000000; stroke-linecap:round; stroke-linejoin:round; stroke-width:2; stroke-opacity:1; fill:none" points="1257.41,1126.54 1257.41,1401.58 1295.96,1401.58 1295.96,1126.54 1257.41,1126.54 "/>
<path clip-path="url(#clip752)" d="M1642.95 1172.4 L1642.95 1401.58 L1681.5 1401.58 L1681.5 1172.4 L1642.95 1172.4 L1642.95 1172.4  Z" fill="#c271d2" fill-rule="evenodd" fill-opacity="1"/>
<polyline clip-path="url(#clip752)" style="stroke:#000000; stroke-linecap:round; stroke-linejoin:round; stroke-width:2; stroke-opacity:1; fill:none" points="1642.95,1172.4 1642.95,1401.58 1681.5,1401.58 1681.5,1172.4 1642.95,1172.4 "/>
<path clip-path="url(#clip752)" d="M2028.49 1092.19 L2028.49 1401.58 L2067.05 1401.58 L2067.05 1092.19 L2028.49 1092.19 L2028.49 1092.19  Z" fill="#c271d2" fill-rule="evenodd" fill-opacity="1"/>
<polyline clip-path="url(#clip752)" style="stroke:#000000; stroke-linecap:round; stroke-linejoin:round; stroke-width:2; stroke-opacity:1; fill:none" points="2028.49,1092.19 2028.49,1401.58 2067.05,1401.58 2067.05,1092.19 2028.49,1092.19 "/>
<circle clip-path="url(#clip752)" style="fill:#c271d2; stroke:none; fill-opacity:0" cx="505.604" cy="1217.85" r="2"/>
<circle clip-path="url(#clip752)" style="fill:#c271d2; stroke:none; fill-opacity:0" cx="891.145" cy="1131.02" r="2"/>
<circle clip-path="url(#clip752)" style="fill:#c271d2; stroke:none; fill-opacity:0" cx="1276.69" cy="1126.54" r="2"/>
<circle clip-path="url(#clip752)" style="fill:#c271d2; stroke:none; fill-opacity:0" cx="1662.23" cy="1172.4" r="2"/>
<circle clip-path="url(#clip752)" style="fill:#c271d2; stroke:none; fill-opacity:0" cx="2047.77" cy="1092.19" r="2"/>
<path clip-path="url(#clip750)" d="M332.796 416.389 L811.929 416.389 L811.929 92.3886 L332.796 92.3886  Z" fill="#ffffff" fill-rule="evenodd" fill-opacity="1"/>
<polyline clip-path="url(#clip750)" style="stroke:#000000; stroke-linecap:round; stroke-linejoin:round; stroke-width:4; stroke-opacity:1; fill:none" points="332.796,416.389 811.929,416.389 811.929,92.3886 332.796,92.3886 332.796,416.389 "/>
<path clip-path="url(#clip750)" d="M353.892 183.109 L480.472 183.109 L480.472 131.269 L353.892 131.269 L353.892 183.109  Z" fill="#009af9" fill-rule="evenodd" fill-opacity="1"/>
<polyline clip-path="url(#clip750)" style="stroke:#000000; stroke-linecap:round; stroke-linejoin:round; stroke-width:2.5; stroke-opacity:1; fill:none" points="353.892,183.109 480.472,183.109 480.472,131.269 353.892,131.269 353.892,183.109 "/>
<path clip-path="url(#clip750)" d="M536.407 138.916 L536.407 145.079 Q533.455 142.33 530.099 140.971 Q526.771 139.611 523.01 139.611 Q515.602 139.611 511.667 144.153 Q507.732 148.667 507.732 157.232 Q507.732 165.768 511.667 170.311 Q515.602 174.825 523.01 174.825 Q526.771 174.825 530.099 173.465 Q533.455 172.105 536.407 169.356 L536.407 175.461 Q533.34 177.544 529.896 178.586 Q526.482 179.628 522.663 179.628 Q512.854 179.628 507.211 173.638 Q501.569 167.62 501.569 157.232 Q501.569 146.815 507.211 140.826 Q512.854 134.807 522.663 134.807 Q526.54 134.807 529.954 135.849 Q533.398 136.862 536.407 138.916 Z" fill="#000000" fill-rule="nonzero" fill-opacity="1" /><path clip-path="url(#clip750)" d="M545.434 135.589 L570.261 135.589 L570.261 140.508 L551.279 140.508 L551.279 153.239 L568.409 153.239 L568.409 158.158 L551.279 158.158 L551.279 178.789 L545.434 178.789 L545.434 135.589 Z" fill="#000000" fill-rule="nonzero" fill-opacity="1" /><path clip-path="url(#clip750)" d="M353.892 247.909 L480.472 247.909 L480.472 196.069 L353.892 196.069 L353.892 247.909  Z" fill="#e26f46" fill-rule="evenodd" fill-opacity="1"/>
<polyline clip-path="url(#clip750)" style="stroke:#000000; stroke-linecap:round; stroke-linejoin:round; stroke-width:2.5; stroke-opacity:1; fill:none" points="353.892,247.909 480.472,247.909 480.472,196.069 353.892,196.069 353.892,247.909 "/>
<path clip-path="url(#clip750)" d="M501.569 200.389 L510.278 200.389 L521.303 229.787 L532.385 200.389 L541.094 200.389 L541.094 243.589 L535.394 243.589 L535.394 205.655 L524.254 235.284 L518.38 235.284 L507.24 205.655 L507.24 243.589 L501.569 243.589 L501.569 200.389 Z" fill="#000000" fill-rule="nonzero" fill-opacity="1" /><path clip-path="url(#clip750)" d="M552.697 200.389 L577.523 200.389 L577.523 205.308 L558.542 205.308 L558.542 218.039 L575.672 218.039 L575.672 222.958 L558.542 222.958 L558.542 243.589 L552.697 243.589 L552.697 200.389 Z" fill="#000000" fill-rule="nonzero" fill-opacity="1" /><path clip-path="url(#clip750)" d="M599.34 198.624 Q595.463 205.279 593.582 211.789 Q591.702 218.299 591.702 224.983 Q591.702 231.667 593.582 238.236 Q595.492 244.775 599.34 251.401 L594.711 251.401 Q590.371 244.601 588.2 238.033 Q586.059 231.465 586.059 224.983 Q586.059 218.531 588.2 211.992 Q590.342 205.452 594.711 198.624 L599.34 198.624 Z" fill="#000000" fill-rule="nonzero" fill-opacity="1" /><path clip-path="url(#clip750)" d="M614.936 201.98 L614.936 211.181 L625.903 211.181 L625.903 215.319 L614.936 215.319 L614.936 232.912 Q614.936 236.876 616.007 238.004 Q617.107 239.133 620.434 239.133 L625.903 239.133 L625.903 243.589 L620.434 243.589 Q614.271 243.589 611.927 241.303 Q609.583 238.988 609.583 232.912 L609.583 215.319 L605.677 215.319 L605.677 211.181 L609.583 211.181 L609.583 201.98 L614.936 201.98 Z" fill="#000000" fill-rule="nonzero" fill-opacity="1" /><path clip-path="url(#clip750)" d="M651.684 216.158 Q650.787 215.637 649.716 215.406 Q648.675 215.145 647.402 215.145 Q642.888 215.145 640.457 218.097 Q638.056 221.019 638.056 226.517 L638.056 243.589 L632.703 243.589 L632.703 211.181 L638.056 211.181 L638.056 216.216 Q639.734 213.265 642.425 211.847 Q645.116 210.4 648.964 210.4 Q649.514 210.4 650.179 210.487 Q650.845 210.545 651.655 210.689 L651.684 216.158 Z" fill="#000000" fill-rule="nonzero" fill-opacity="1" /><path clip-path="url(#clip750)" d="M671.996 227.298 Q665.544 227.298 663.055 228.774 Q660.567 230.25 660.567 233.809 Q660.567 236.644 662.419 238.322 Q664.3 239.972 667.511 239.972 Q671.938 239.972 674.6 236.847 Q677.291 233.693 677.291 228.485 L677.291 227.298 L671.996 227.298 M682.615 225.099 L682.615 243.589 L677.291 243.589 L677.291 238.67 Q675.469 241.621 672.749 243.039 Q670.029 244.428 666.094 244.428 Q661.117 244.428 658.165 241.65 Q655.243 238.843 655.243 234.156 Q655.243 228.687 658.889 225.909 Q662.563 223.132 669.826 223.132 L677.291 223.132 L677.291 222.611 Q677.291 218.936 674.861 216.939 Q672.459 214.914 668.09 214.914 Q665.312 214.914 662.679 215.58 Q660.046 216.245 657.616 217.576 L657.616 212.657 Q660.538 211.529 663.287 210.979 Q666.036 210.4 668.64 210.4 Q675.671 210.4 679.143 214.046 Q682.615 217.692 682.615 225.099 Z" fill="#000000" fill-rule="nonzero" fill-opacity="1" /><path clip-path="url(#clip750)" d="M720.52 224.029 L720.52 243.589 L715.196 243.589 L715.196 224.202 Q715.196 219.601 713.402 217.316 Q711.608 215.03 708.02 215.03 Q703.709 215.03 701.221 217.779 Q698.732 220.527 698.732 225.273 L698.732 243.589 L693.379 243.589 L693.379 211.181 L698.732 211.181 L698.732 216.216 Q700.642 213.294 703.217 211.847 Q705.821 210.4 709.207 210.4 Q714.791 210.4 717.656 213.872 Q720.52 217.316 720.52 224.029 Z" fill="#000000" fill-rule="nonzero" fill-opacity="1" /><path clip-path="url(#clip750)" d="M751.799 212.136 L751.799 217.171 Q749.542 216.014 747.112 215.435 Q744.681 214.856 742.077 214.856 Q738.113 214.856 736.116 216.071 Q734.149 217.287 734.149 219.717 Q734.149 221.569 735.567 222.64 Q736.984 223.681 741.267 224.636 L743.09 225.041 Q748.761 226.257 751.134 228.485 Q753.535 230.684 753.535 234.648 Q753.535 239.162 749.947 241.795 Q746.388 244.428 740.138 244.428 Q737.534 244.428 734.699 243.907 Q731.892 243.415 728.767 242.402 L728.767 236.905 Q731.718 238.438 734.583 239.219 Q737.447 239.972 740.254 239.972 Q744.016 239.972 746.041 238.699 Q748.066 237.397 748.066 235.053 Q748.066 232.883 746.591 231.725 Q745.144 230.568 740.196 229.497 L738.344 229.063 Q733.396 228.022 731.197 225.88 Q728.998 223.71 728.998 219.949 Q728.998 215.377 732.239 212.889 Q735.48 210.4 741.44 210.4 Q744.392 210.4 746.996 210.834 Q749.6 211.268 751.799 212.136 Z" fill="#000000" fill-rule="nonzero" fill-opacity="1" /><path clip-path="url(#clip750)" d="M761.174 198.624 L765.804 198.624 Q770.144 205.452 772.285 211.992 Q774.455 218.531 774.455 224.983 Q774.455 231.465 772.285 238.033 Q770.144 244.601 765.804 251.401 L761.174 251.401 Q765.022 244.775 766.903 238.236 Q768.813 231.667 768.813 224.983 Q768.813 218.299 766.903 211.789 Q765.022 205.279 761.174 198.624 Z" fill="#000000" fill-rule="nonzero" fill-opacity="1" /><path clip-path="url(#clip750)" d="M353.892 312.709 L480.472 312.709 L480.472 260.869 L353.892 260.869 L353.892 312.709  Z" fill="#3da44d" fill-rule="evenodd" fill-opacity="1"/>
<polyline clip-path="url(#clip750)" style="stroke:#000000; stroke-linecap:round; stroke-linejoin:round; stroke-width:2.5; stroke-opacity:1; fill:none" points="353.892,312.709 480.472,312.709 480.472,260.869 353.892,260.869 353.892,312.709 "/>
<path clip-path="url(#clip750)" d="M501.569 265.189 L510.278 265.189 L521.303 294.587 L532.385 265.189 L541.094 265.189 L541.094 308.389 L535.394 308.389 L535.394 270.455 L524.254 300.084 L518.38 300.084 L507.24 270.455 L507.24 308.389 L501.569 308.389 L501.569 265.189 Z" fill="#000000" fill-rule="nonzero" fill-opacity="1" /><path clip-path="url(#clip750)" d="M552.697 265.189 L577.523 265.189 L577.523 270.108 L558.542 270.108 L558.542 282.839 L575.672 282.839 L575.672 287.758 L558.542 287.758 L558.542 308.389 L552.697 308.389 L552.697 265.189 Z" fill="#000000" fill-rule="nonzero" fill-opacity="1" /><path clip-path="url(#clip750)" d="M599.34 263.424 Q595.463 270.079 593.582 276.589 Q591.702 283.099 591.702 289.783 Q591.702 296.467 593.582 303.036 Q595.492 309.575 599.34 316.201 L594.711 316.201 Q590.371 309.401 588.2 302.833 Q586.059 296.265 586.059 289.783 Q586.059 283.331 588.2 276.792 Q590.342 270.252 594.711 263.424 L599.34 263.424 Z" fill="#000000" fill-rule="nonzero" fill-opacity="1" /><path clip-path="url(#clip750)" d="M622.228 279.714 Q617.946 279.714 615.457 283.07 Q612.969 286.398 612.969 292.214 Q612.969 298.03 615.428 301.386 Q617.917 304.714 622.228 304.714 Q626.482 304.714 628.97 301.357 Q631.458 298.001 631.458 292.214 Q631.458 286.456 628.97 283.099 Q626.482 279.714 622.228 279.714 M622.228 275.2 Q629.172 275.2 633.137 279.714 Q637.101 284.228 637.101 292.214 Q637.101 300.171 633.137 304.714 Q629.172 309.228 622.228 309.228 Q615.255 309.228 611.291 304.714 Q607.355 300.171 607.355 292.214 Q607.355 284.228 611.291 279.714 Q615.255 275.2 622.228 275.2 Z" fill="#000000" fill-rule="nonzero" fill-opacity="1" /><path clip-path="url(#clip750)" d="M664.705 280.958 Q663.808 280.437 662.737 280.206 Q661.695 279.945 660.422 279.945 Q655.908 279.945 653.478 282.897 Q651.076 285.819 651.076 291.317 L651.076 308.389 L645.723 308.389 L645.723 275.981 L651.076 275.981 L651.076 281.016 Q652.755 278.065 655.445 276.647 Q658.136 275.2 661.985 275.2 Q662.535 275.2 663.2 275.287 Q663.866 275.345 664.676 275.489 L664.705 280.958 Z" fill="#000000" fill-rule="nonzero" fill-opacity="1" /><path clip-path="url(#clip750)" d="M670.289 275.981 L675.613 275.981 L675.613 308.389 L670.289 308.389 L670.289 275.981 M670.289 263.366 L675.613 263.366 L675.613 270.108 L670.289 270.108 L670.289 263.366 Z" fill="#000000" fill-rule="nonzero" fill-opacity="1" /><path clip-path="url(#clip750)" d="M708.078 291.809 Q708.078 286.022 705.677 282.839 Q703.304 279.656 698.993 279.656 Q694.71 279.656 692.309 282.839 Q689.936 286.022 689.936 291.809 Q689.936 297.567 692.309 300.75 Q694.71 303.933 698.993 303.933 Q703.304 303.933 705.677 300.75 Q708.078 297.567 708.078 291.809 M713.402 304.367 Q713.402 312.642 709.728 316.664 Q706.053 320.715 698.472 320.715 Q695.665 320.715 693.177 320.281 Q690.688 319.876 688.345 319.008 L688.345 313.828 Q690.688 315.102 692.974 315.709 Q695.26 316.317 697.633 316.317 Q702.87 316.317 705.474 313.568 Q708.078 310.848 708.078 305.322 L708.078 302.688 Q706.429 305.553 703.854 306.971 Q701.279 308.389 697.691 308.389 Q691.73 308.389 688.084 303.846 Q684.438 299.303 684.438 291.809 Q684.438 284.286 688.084 279.743 Q691.73 275.2 697.691 275.2 Q701.279 275.2 703.854 276.618 Q706.429 278.036 708.078 280.9 L708.078 275.981 L713.402 275.981 L713.402 304.367 Z" fill="#000000" fill-rule="nonzero" fill-opacity="1" /><path clip-path="url(#clip750)" d="M724.369 275.981 L729.693 275.981 L729.693 308.389 L724.369 308.389 L724.369 275.981 M724.369 263.366 L729.693 263.366 L729.693 270.108 L724.369 270.108 L724.369 263.366 Z" fill="#000000" fill-rule="nonzero" fill-opacity="1" /><path clip-path="url(#clip750)" d="M767.771 288.829 L767.771 308.389 L762.447 308.389 L762.447 289.002 Q762.447 284.401 760.653 282.116 Q758.859 279.83 755.271 279.83 Q750.96 279.83 748.472 282.579 Q745.983 285.327 745.983 290.073 L745.983 308.389 L740.63 308.389 L740.63 275.981 L745.983 275.981 L745.983 281.016 Q747.893 278.094 750.468 276.647 Q753.072 275.2 756.458 275.2 Q762.042 275.2 764.907 278.672 Q767.771 282.116 767.771 288.829 Z" fill="#000000" fill-rule="nonzero" fill-opacity="1" /><path clip-path="url(#clip750)" d="M777.551 263.424 L782.181 263.424 Q786.521 270.252 788.662 276.792 Q790.832 283.331 790.832 289.783 Q790.832 296.265 788.662 302.833 Q786.521 309.401 782.181 316.201 L777.551 316.201 Q781.4 309.575 783.28 303.036 Q785.19 296.467 785.19 289.783 Q785.19 283.099 783.28 276.589 Q781.4 270.079 777.551 263.424 Z" fill="#000000" fill-rule="nonzero" fill-opacity="1" /><path clip-path="url(#clip750)" d="M353.892 377.509 L480.472 377.509 L480.472 325.669 L353.892 325.669 L353.892 377.509  Z" fill="#c271d2" fill-rule="evenodd" fill-opacity="1"/>
<polyline clip-path="url(#clip750)" style="stroke:#000000; stroke-linecap:round; stroke-linejoin:round; stroke-width:2.5; stroke-opacity:1; fill:none" points="353.892,377.509 480.472,377.509 480.472,325.669 353.892,325.669 353.892,377.509 "/>
<path clip-path="url(#clip750)" d="M510.452 329.989 L516.297 329.989 L516.297 370.179 Q516.297 377.992 513.317 381.522 Q510.365 385.052 503.797 385.052 L501.569 385.052 L501.569 380.133 L503.392 380.133 Q507.269 380.133 508.861 377.963 Q510.452 375.793 510.452 370.179 L510.452 329.989 Z" fill="#000000" fill-rule="nonzero" fill-opacity="1" /><path clip-path="url(#clip750)" d="M524.08 329.989 L529.983 329.989 L539.069 366.505 L548.125 329.989 L554.694 329.989 L563.779 366.505 L572.836 329.989 L578.768 329.989 L567.917 373.189 L560.568 373.189 L551.453 335.689 L542.252 373.189 L534.902 373.189 L524.08 329.989 Z" fill="#000000" fill-rule="nonzero" fill-opacity="1" /><polyline clip-path="url(#clip750)" style="stroke:#000000; stroke-linecap:round; stroke-linejoin:round; stroke-width:4; stroke-opacity:1; fill:none" points="2168.2,1401.58 2168.2,47.2441 "/>
<polyline clip-path="url(#clip750)" style="stroke:#000000; stroke-linecap:round; stroke-linejoin:round; stroke-width:4; stroke-opacity:1; fill:none" points="269.506,1401.58 269.506,47.2441 "/>
<polyline clip-path="url(#clip750)" style="stroke:#000000; stroke-linecap:round; stroke-linejoin:round; stroke-width:4; stroke-opacity:1; fill:none" points="2168.2,993.884 2149.31,993.884 "/>
<polyline clip-path="url(#clip750)" style="stroke:#000000; stroke-linecap:round; stroke-linejoin:round; stroke-width:4; stroke-opacity:1; fill:none" points="2168.2,586.188 2149.31,586.188 "/>
<polyline clip-path="url(#clip750)" style="stroke:#000000; stroke-linecap:round; stroke-linejoin:round; stroke-width:4; stroke-opacity:1; fill:none" points="2168.2,178.493 2149.31,178.493 "/>
<polyline clip-path="url(#clip750)" style="stroke:#000000; stroke-linecap:round; stroke-linejoin:round; stroke-width:4; stroke-opacity:1; fill:none" points="269.506,993.884 288.404,993.884 "/>
<polyline clip-path="url(#clip750)" style="stroke:#000000; stroke-linecap:round; stroke-linejoin:round; stroke-width:4; stroke-opacity:1; fill:none" points="269.506,586.188 288.404,586.188 "/>
<polyline clip-path="url(#clip750)" style="stroke:#000000; stroke-linecap:round; stroke-linejoin:round; stroke-width:4; stroke-opacity:1; fill:none" points="269.506,178.493 288.404,178.493 "/>
<path clip-path="url(#clip750)" d="M2205.04 1010.57 L2214.59 1010.57 L2214.59 977.608 L2204.2 979.692 L2204.2 974.367 L2214.53 972.284 L2220.38 972.284 L2220.38 1010.57 L2229.93 1010.57 L2229.93 1015.48 L2205.04 1015.48 L2205.04 1010.57 Z" fill="#000000" fill-rule="nonzero" fill-opacity="1" /><path clip-path="url(#clip750)" d="M2254.23 976.133 Q2249.72 976.133 2247.43 980.589 Q2245.18 985.016 2245.18 993.928 Q2245.18 1002.81 2247.43 1007.27 Q2249.72 1011.69 2254.23 1011.69 Q2258.78 1011.69 2261.03 1007.27 Q2263.32 1002.81 2263.32 993.928 Q2263.32 985.016 2261.03 980.589 Q2258.78 976.133 2254.23 976.133 M2254.23 971.503 Q2261.5 971.503 2265.31 977.261 Q2269.16 982.99 2269.16 993.928 Q2269.16 1004.84 2265.31 1010.59 Q2261.5 1016.32 2254.23 1016.32 Q2246.97 1016.32 2243.12 1010.59 Q2239.3 1004.84 2239.3 993.928 Q2239.3 982.99 2243.12 977.261 Q2246.97 971.503 2254.23 971.503 Z" fill="#000000" fill-rule="nonzero" fill-opacity="1" /><path clip-path="url(#clip750)" d="M2211.24 602.87 L2231.63 602.87 L2231.63 607.788 L2204.2 607.788 L2204.2 602.87 Q2207.53 599.426 2213.26 593.639 Q2219.02 587.823 2220.49 586.145 Q2223.3 582.991 2224.4 580.821 Q2225.53 578.622 2225.53 576.51 Q2225.53 573.066 2223.1 570.896 Q2220.7 568.726 2216.82 568.726 Q2214.07 568.726 2211 569.681 Q2207.97 570.636 2204.49 572.575 L2204.49 566.672 Q2208.02 565.254 2211.09 564.531 Q2214.16 563.807 2216.7 563.807 Q2223.42 563.807 2227.41 567.164 Q2231.4 570.52 2231.4 576.134 Q2231.4 578.796 2230.39 581.197 Q2229.41 583.57 2226.77 586.811 Q2226.05 587.65 2222.17 591.672 Q2218.3 595.665 2211.24 602.87 Z" fill="#000000" fill-rule="nonzero" fill-opacity="1" /><path clip-path="url(#clip750)" d="M2256.4 568.437 Q2251.89 568.437 2249.6 572.893 Q2247.35 577.32 2247.35 586.232 Q2247.35 595.115 2249.6 599.571 Q2251.89 603.998 2256.4 603.998 Q2260.95 603.998 2263.2 599.571 Q2265.49 595.115 2265.49 586.232 Q2265.49 577.32 2263.2 572.893 Q2260.95 568.437 2256.4 568.437 M2256.4 563.807 Q2263.67 563.807 2267.48 569.565 Q2271.33 575.294 2271.33 586.232 Q2271.33 597.14 2267.48 602.898 Q2263.67 608.628 2256.4 608.628 Q2249.14 608.628 2245.29 602.898 Q2241.47 597.14 2241.47 586.232 Q2241.47 575.294 2245.29 569.565 Q2249.14 563.807 2256.4 563.807 Z" fill="#000000" fill-rule="nonzero" fill-opacity="1" /><path clip-path="url(#clip750)" d="M2223.71 161.985 L2208.95 185.047 L2223.71 185.047 L2223.71 161.985 M2222.17 156.893 L2229.52 156.893 L2229.52 185.047 L2235.69 185.047 L2235.69 189.908 L2229.52 189.908 L2229.52 200.093 L2223.71 200.093 L2223.71 189.908 L2204.2 189.908 L2204.2 184.265 L2222.17 156.893 Z" fill="#000000" fill-rule="nonzero" fill-opacity="1" /><path clip-path="url(#clip750)" d="M2257.85 160.741 Q2253.34 160.741 2251.05 165.197 Q2248.79 169.624 2248.79 178.536 Q2248.79 187.419 2251.05 191.875 Q2253.34 196.302 2257.85 196.302 Q2262.39 196.302 2264.65 191.875 Q2266.93 187.419 2266.93 178.536 Q2266.93 169.624 2264.65 165.197 Q2262.39 160.741 2257.85 160.741 M2257.85 156.112 Q2265.11 156.112 2268.93 161.87 Q2272.78 167.599 2272.78 178.536 Q2272.78 189.445 2268.93 195.203 Q2265.11 200.932 2257.85 200.932 Q2250.59 200.932 2246.74 195.203 Q2242.92 189.445 2242.92 178.536 Q2242.92 167.599 2246.74 161.87 Q2250.59 156.112 2257.85 156.112 Z" fill="#000000" fill-rule="nonzero" fill-opacity="1" /><path clip-path="url(#clip750)" d="M2337.35 694.669 Q2344.12 694.669 2350.76 697.579 Q2357.36 700.448 2362.36 705.121 Q2367.32 709.753 2370.39 716.024 Q2373.47 722.296 2373.47 728.69 L2373.47 756.481 Q2373.47 757.464 2373.43 757.874 Q2373.38 758.243 2373.18 758.53 Q2372.93 758.817 2372.44 758.817 Q2371.66 758.817 2371.33 758.489 Q2370.97 758.161 2370.92 757.792 Q2370.88 757.423 2370.88 756.481 Q2370.88 754.431 2370.76 753.202 Q2370.64 751.972 2370.47 751.193 Q2370.27 750.373 2369.7 749.963 Q2369.12 749.513 2368.63 749.308 Q2368.1 749.103 2366.91 748.816 L2321.82 737.585 Q2320.47 737.257 2320.26 737.257 Q2319.57 737.257 2319.32 737.667 Q2319.03 738.036 2318.91 739.101 Q2318.75 741.151 2318.75 742.708 Q2318.75 743.733 2318.7 744.143 Q2318.66 744.512 2318.46 744.84 Q2318.21 745.127 2317.72 745.127 Q2316.94 745.127 2316.61 744.799 Q2316.25 744.43 2316.2 744.02 Q2316.12 743.61 2316.12 742.626 L2316.12 714.426 Q2316.12 708.318 2318.99 703.768 Q2321.82 699.219 2326.62 696.964 Q2331.37 694.669 2337.35 694.669 M2334.28 702.006 Q2326.45 702.006 2322.6 706.269 Q2318.75 710.491 2318.75 717.172 L2318.75 726.149 Q2318.75 728.813 2319.24 729.469 Q2319.69 730.125 2321.94 730.698 L2368.01 742.216 Q2369.53 742.626 2369.94 742.626 Q2370.39 742.626 2370.56 742.421 Q2370.68 742.175 2370.76 741.52 Q2370.88 740.782 2370.88 739.675 L2370.88 730.207 Q2370.88 726.559 2369.9 723.238 Q2368.88 719.877 2367.28 717.459 Q2365.64 715.041 2364.24 713.483 Q2362.81 711.925 2361.37 710.819 Q2358.14 708.318 2353.91 706.474 Q2349.69 704.588 2345.84 703.727 Q2341.95 702.826 2339.08 702.416 Q2336.17 702.006 2334.28 702.006 Z" fill="#000000" fill-rule="nonzero" fill-opacity="1" /><polyline clip-path="url(#clip752)" style="stroke:#009af9; stroke-linecap:round; stroke-linejoin:round; stroke-width:6; stroke-opacity:1; fill:none" points="447.772,717.437 478.616,717.437 509.459,717.437 540.302,717.437 571.146,717.437 601.989,717.437 632.832,717.437 663.676,717.437 694.519,717.437 725.362,717.437 756.205,681.779 787.049,681.779 817.892,530.129 848.735,557.491 879.579,503.983 910.422,503.983 941.265,347.702 972.108,328.415 1002.95,431.871 1033.8,347.702 1064.64,328.415 1095.48,240.464 1126.32,135.955 1157.17,240.464 1188.01,224.348 1218.85,291.642 1249.7,309.741 1280.54,12.9715 1311.38,431.871 1342.23,367.642 1373.07,388.282 1403.91,291.642 1434.76,478.95 1465.6,530.129 1496.44,681.779 1527.29,586.188 1558.13,431.871 1588.97,557.491 1619.82,616.358 1650.66,616.358 1681.5,717.437 1712.35,648.159 1743.19,717.437 1774.03,586.188 1804.88,648.159 1835.72,648.159 1866.56,717.437 1897.41,616.358 1928.25,717.437 1959.09,717.437 1989.94,681.779 "/>
<polyline clip-path="url(#clip752)" style="stroke:#e26f46; stroke-linecap:round; stroke-linejoin:round; stroke-width:6; stroke-opacity:1; fill:none" points="447.772,717.437 478.616,755.397 509.459,717.437 540.302,717.437 571.146,717.437 601.989,717.437 632.832,717.437 663.676,717.437 694.519,717.437 725.362,717.437 756.205,557.491 787.049,648.159 817.892,586.188 848.735,557.491 879.579,503.983 910.422,478.95 941.265,454.94 972.108,409.673 1002.95,409.673 1033.8,454.94 1064.64,409.673 1095.48,309.741 1126.32,122.433 1157.17,149.795 1188.01,12.9715 1218.85,409.673 1249.7,291.642 1280.54,503.983 1311.38,257.033 1342.23,409.673 1373.07,274.083 1403.91,478.95 1434.76,328.415 1465.6,193.384 1496.44,681.779 1527.29,409.673 1558.13,454.94 1588.97,717.437 1619.82,717.437 1650.66,681.779 1681.5,530.129 1712.35,717.437 1743.19,193.384 1774.03,586.188 1804.88,717.437 1835.72,717.437 1866.56,717.437 1897.41,717.437 1928.25,717.437 1959.09,717.437 1989.94,717.437 "/>
<polyline clip-path="url(#clip752)" style="stroke:#3da44d; stroke-linecap:round; stroke-linejoin:round; stroke-width:6; stroke-opacity:1; fill:none" points="447.772,717.437 478.616,717.437 509.459,717.437 540.302,717.437 571.146,717.437 601.989,717.437 632.832,717.437 663.676,717.437 694.519,717.437 725.362,717.437 756.205,616.358 787.049,530.129 817.892,557.491 848.735,557.491 879.579,431.871 910.422,409.673 941.265,478.95 972.108,409.673 1002.95,328.415 1033.8,347.702 1064.64,309.741 1095.48,328.415 1126.32,328.415 1157.17,257.033 1188.01,240.464 1218.85,163.969 1249.7,367.642 1280.54,309.741 1311.38,431.871 1342.23,557.491 1373.07,309.741 1403.91,163.969 1434.76,503.983 1465.6,503.983 1496.44,503.983 1527.29,347.702 1558.13,503.983 1588.97,557.491 1619.82,616.358 1650.66,717.437 1681.5,681.779 1712.35,717.437 1743.19,717.437 1774.03,717.437 1804.88,367.642 1835.72,454.94 1866.56,717.437 1897.41,717.437 1928.25,717.437 1959.09,717.437 1989.94,717.437 "/>
<polyline clip-path="url(#clip752)" style="stroke:#c271d2; stroke-linecap:round; stroke-linejoin:round; stroke-width:6; stroke-opacity:1; fill:none" points="447.772,717.437 478.616,717.437 509.459,717.437 540.302,717.437 571.146,717.437 601.989,717.437 632.832,717.437 663.676,717.437 694.519,681.779 725.362,717.437 756.205,717.437 787.049,586.188 817.892,557.491 848.735,503.983 879.579,586.188 910.422,454.94 941.265,431.871 972.108,388.282 1002.95,367.642 1033.8,274.083 1064.64,178.493 1095.48,367.642 1126.32,208.663 1157.17,208.663 1188.01,163.969 1218.85,328.415 1249.7,367.642 1280.54,291.642 1311.38,309.741 1342.23,454.94 1373.07,503.983 1403.91,530.129 1434.76,503.983 1465.6,681.779 1496.44,557.491 1527.29,454.94 1558.13,717.437 1588.97,530.129 1619.82,648.159 1650.66,717.437 1681.5,586.188 1712.35,586.188 1743.19,586.188 1774.03,717.437 1804.88,557.491 1835.72,717.437 1866.56,717.437 1897.41,717.437 1928.25,717.437 1959.09,717.437 1989.94,717.437 "/>
<path clip-path="url(#clip750)" d="M1625.78 416.389 L2104.91 416.389 L2104.91 92.3886 L1625.78 92.3886  Z" fill="#ffffff" fill-rule="evenodd" fill-opacity="1"/>
<polyline clip-path="url(#clip750)" style="stroke:#000000; stroke-linecap:round; stroke-linejoin:round; stroke-width:4; stroke-opacity:1; fill:none" points="1625.78,416.389 2104.91,416.389 2104.91,92.3886 1625.78,92.3886 1625.78,416.389 "/>
<polyline clip-path="url(#clip750)" style="stroke:#009af9; stroke-linecap:round; stroke-linejoin:round; stroke-width:7.5; stroke-opacity:1; fill:none" points="1646.88,157.189 1773.46,157.189 "/>
<path clip-path="url(#clip750)" d="M1829.39 138.916 L1829.39 145.079 Q1826.44 142.33 1823.08 140.971 Q1819.76 139.611 1815.99 139.611 Q1808.59 139.611 1804.65 144.153 Q1800.72 148.667 1800.72 157.232 Q1800.72 165.768 1804.65 170.311 Q1808.59 174.825 1815.99 174.825 Q1819.76 174.825 1823.08 173.465 Q1826.44 172.105 1829.39 169.356 L1829.39 175.461 Q1826.32 177.544 1822.88 178.586 Q1819.47 179.628 1815.65 179.628 Q1805.84 179.628 1800.2 173.638 Q1794.55 167.62 1794.55 157.232 Q1794.55 146.815 1800.2 140.826 Q1805.84 134.807 1815.65 134.807 Q1819.52 134.807 1822.94 135.849 Q1826.38 136.862 1829.39 138.916 Z" fill="#000000" fill-rule="nonzero" fill-opacity="1" /><path clip-path="url(#clip750)" d="M1838.42 135.589 L1863.25 135.589 L1863.25 140.508 L1844.26 140.508 L1844.26 153.239 L1861.39 153.239 L1861.39 158.158 L1844.26 158.158 L1844.26 178.789 L1838.42 178.789 L1838.42 135.589 Z" fill="#000000" fill-rule="nonzero" fill-opacity="1" /><polyline clip-path="url(#clip750)" style="stroke:#e26f46; stroke-linecap:round; stroke-linejoin:round; stroke-width:7.5; stroke-opacity:1; fill:none" points="1646.88,221.989 1773.46,221.989 "/>
<path clip-path="url(#clip750)" d="M1794.55 200.389 L1803.26 200.389 L1814.29 229.787 L1825.37 200.389 L1834.08 200.389 L1834.08 243.589 L1828.38 243.589 L1828.38 205.655 L1817.24 235.284 L1811.37 235.284 L1800.23 205.655 L1800.23 243.589 L1794.55 243.589 L1794.55 200.389 Z" fill="#000000" fill-rule="nonzero" fill-opacity="1" /><path clip-path="url(#clip750)" d="M1845.68 200.389 L1870.51 200.389 L1870.51 205.308 L1851.53 205.308 L1851.53 218.039 L1868.66 218.039 L1868.66 222.958 L1851.53 222.958 L1851.53 243.589 L1845.68 243.589 L1845.68 200.389 Z" fill="#000000" fill-rule="nonzero" fill-opacity="1" /><path clip-path="url(#clip750)" d="M1892.33 198.624 Q1888.45 205.279 1886.57 211.789 Q1884.69 218.299 1884.69 224.983 Q1884.69 231.667 1886.57 238.236 Q1888.48 244.775 1892.33 251.401 L1887.7 251.401 Q1883.36 244.601 1881.19 238.033 Q1879.04 231.465 1879.04 224.983 Q1879.04 218.531 1881.19 211.992 Q1883.33 205.452 1887.7 198.624 L1892.33 198.624 Z" fill="#000000" fill-rule="nonzero" fill-opacity="1" /><path clip-path="url(#clip750)" d="M1907.92 201.98 L1907.92 211.181 L1918.89 211.181 L1918.89 215.319 L1907.92 215.319 L1907.92 232.912 Q1907.92 236.876 1908.99 238.004 Q1910.09 239.133 1913.42 239.133 L1918.89 239.133 L1918.89 243.589 L1913.42 243.589 Q1907.26 243.589 1904.91 241.303 Q1902.57 238.988 1902.57 232.912 L1902.57 215.319 L1898.66 215.319 L1898.66 211.181 L1902.57 211.181 L1902.57 201.98 L1907.92 201.98 Z" fill="#000000" fill-rule="nonzero" fill-opacity="1" /><path clip-path="url(#clip750)" d="M1944.67 216.158 Q1943.77 215.637 1942.7 215.406 Q1941.66 215.145 1940.39 215.145 Q1935.87 215.145 1933.44 218.097 Q1931.04 221.019 1931.04 226.517 L1931.04 243.589 L1925.69 243.589 L1925.69 211.181 L1931.04 211.181 L1931.04 216.216 Q1932.72 213.265 1935.41 211.847 Q1938.1 210.4 1941.95 210.4 Q1942.5 210.4 1943.16 210.487 Q1943.83 210.545 1944.64 210.689 L1944.67 216.158 Z" fill="#000000" fill-rule="nonzero" fill-opacity="1" /><path clip-path="url(#clip750)" d="M1964.98 227.298 Q1958.53 227.298 1956.04 228.774 Q1953.55 230.25 1953.55 233.809 Q1953.55 236.644 1955.4 238.322 Q1957.28 239.972 1960.5 239.972 Q1964.92 239.972 1967.59 236.847 Q1970.28 233.693 1970.28 228.485 L1970.28 227.298 L1964.98 227.298 M1975.6 225.099 L1975.6 243.589 L1970.28 243.589 L1970.28 238.67 Q1968.45 241.621 1965.73 243.039 Q1963.01 244.428 1959.08 244.428 Q1954.1 244.428 1951.15 241.65 Q1948.23 238.843 1948.23 234.156 Q1948.23 228.687 1951.87 225.909 Q1955.55 223.132 1962.81 223.132 L1970.28 223.132 L1970.28 222.611 Q1970.28 218.936 1967.85 216.939 Q1965.44 214.914 1961.07 214.914 Q1958.3 214.914 1955.66 215.58 Q1953.03 216.245 1950.6 217.576 L1950.6 212.657 Q1953.52 211.529 1956.27 210.979 Q1959.02 210.4 1961.62 210.4 Q1968.66 210.4 1972.13 214.046 Q1975.6 217.692 1975.6 225.099 Z" fill="#000000" fill-rule="nonzero" fill-opacity="1" /><path clip-path="url(#clip750)" d="M2013.51 224.029 L2013.51 243.589 L2008.18 243.589 L2008.18 224.202 Q2008.18 219.601 2006.39 217.316 Q2004.59 215.03 2001.01 215.03 Q1996.69 215.03 1994.21 217.779 Q1991.72 220.527 1991.72 225.273 L1991.72 243.589 L1986.36 243.589 L1986.36 211.181 L1991.72 211.181 L1991.72 216.216 Q1993.63 213.294 1996.2 211.847 Q1998.81 210.4 2002.19 210.4 Q2007.78 210.4 2010.64 213.872 Q2013.51 217.316 2013.51 224.029 Z" fill="#000000" fill-rule="nonzero" fill-opacity="1" /><path clip-path="url(#clip750)" d="M2044.78 212.136 L2044.78 217.171 Q2042.53 216.014 2040.1 215.435 Q2037.67 214.856 2035.06 214.856 Q2031.1 214.856 2029.1 216.071 Q2027.13 217.287 2027.13 219.717 Q2027.13 221.569 2028.55 222.64 Q2029.97 223.681 2034.25 224.636 L2036.07 225.041 Q2041.75 226.257 2044.12 228.485 Q2046.52 230.684 2046.52 234.648 Q2046.52 239.162 2042.93 241.795 Q2039.37 244.428 2033.12 244.428 Q2030.52 244.428 2027.68 243.907 Q2024.88 243.415 2021.75 242.402 L2021.75 236.905 Q2024.7 238.438 2027.57 239.219 Q2030.43 239.972 2033.24 239.972 Q2037 239.972 2039.03 238.699 Q2041.05 237.397 2041.05 235.053 Q2041.05 232.883 2039.58 231.725 Q2038.13 230.568 2033.18 229.497 L2031.33 229.063 Q2026.38 228.022 2024.18 225.88 Q2021.98 223.71 2021.98 219.949 Q2021.98 215.377 2025.22 212.889 Q2028.46 210.4 2034.43 210.4 Q2037.38 210.4 2039.98 210.834 Q2042.58 211.268 2044.78 212.136 Z" fill="#000000" fill-rule="nonzero" fill-opacity="1" /><path clip-path="url(#clip750)" d="M2054.16 198.624 L2058.79 198.624 Q2063.13 205.452 2065.27 211.992 Q2067.44 218.531 2067.44 224.983 Q2067.44 231.465 2065.27 238.033 Q2063.13 244.601 2058.79 251.401 L2054.16 251.401 Q2058.01 244.775 2059.89 238.236 Q2061.8 231.667 2061.8 224.983 Q2061.8 218.299 2059.89 211.789 Q2058.01 205.279 2054.16 198.624 Z" fill="#000000" fill-rule="nonzero" fill-opacity="1" /><polyline clip-path="url(#clip750)" style="stroke:#3da44d; stroke-linecap:round; stroke-linejoin:round; stroke-width:7.5; stroke-opacity:1; fill:none" points="1646.88,286.789 1773.46,286.789 "/>
<path clip-path="url(#clip750)" d="M1794.55 265.189 L1803.26 265.189 L1814.29 294.587 L1825.37 265.189 L1834.08 265.189 L1834.08 308.389 L1828.38 308.389 L1828.38 270.455 L1817.24 300.084 L1811.37 300.084 L1800.23 270.455 L1800.23 308.389 L1794.55 308.389 L1794.55 265.189 Z" fill="#000000" fill-rule="nonzero" fill-opacity="1" /><path clip-path="url(#clip750)" d="M1845.68 265.189 L1870.51 265.189 L1870.51 270.108 L1851.53 270.108 L1851.53 282.839 L1868.66 282.839 L1868.66 287.758 L1851.53 287.758 L1851.53 308.389 L1845.68 308.389 L1845.68 265.189 Z" fill="#000000" fill-rule="nonzero" fill-opacity="1" /><path clip-path="url(#clip750)" d="M1892.33 263.424 Q1888.45 270.079 1886.57 276.589 Q1884.69 283.099 1884.69 289.783 Q1884.69 296.467 1886.57 303.036 Q1888.48 309.575 1892.33 316.201 L1887.7 316.201 Q1883.36 309.401 1881.19 302.833 Q1879.04 296.265 1879.04 289.783 Q1879.04 283.331 1881.19 276.792 Q1883.33 270.252 1887.7 263.424 L1892.33 263.424 Z" fill="#000000" fill-rule="nonzero" fill-opacity="1" /><path clip-path="url(#clip750)" d="M1915.21 279.714 Q1910.93 279.714 1908.44 283.07 Q1905.95 286.398 1905.95 292.214 Q1905.95 298.03 1908.41 301.386 Q1910.9 304.714 1915.21 304.714 Q1919.47 304.714 1921.95 301.357 Q1924.44 298.001 1924.44 292.214 Q1924.44 286.456 1921.95 283.099 Q1919.47 279.714 1915.21 279.714 M1915.21 275.2 Q1922.16 275.2 1926.12 279.714 Q1930.09 284.228 1930.09 292.214 Q1930.09 300.171 1926.12 304.714 Q1922.16 309.228 1915.21 309.228 Q1908.24 309.228 1904.28 304.714 Q1900.34 300.171 1900.34 292.214 Q1900.34 284.228 1904.28 279.714 Q1908.24 275.2 1915.21 275.2 Z" fill="#000000" fill-rule="nonzero" fill-opacity="1" /><path clip-path="url(#clip750)" d="M1957.69 280.958 Q1956.79 280.437 1955.72 280.206 Q1954.68 279.945 1953.41 279.945 Q1948.89 279.945 1946.46 282.897 Q1944.06 285.819 1944.06 291.317 L1944.06 308.389 L1938.71 308.389 L1938.71 275.981 L1944.06 275.981 L1944.06 281.016 Q1945.74 278.065 1948.43 276.647 Q1951.12 275.2 1954.97 275.2 Q1955.52 275.2 1956.18 275.287 Q1956.85 275.345 1957.66 275.489 L1957.69 280.958 Z" fill="#000000" fill-rule="nonzero" fill-opacity="1" /><path clip-path="url(#clip750)" d="M1963.27 275.981 L1968.6 275.981 L1968.6 308.389 L1963.27 308.389 L1963.27 275.981 M1963.27 263.366 L1968.6 263.366 L1968.6 270.108 L1963.27 270.108 L1963.27 263.366 Z" fill="#000000" fill-rule="nonzero" fill-opacity="1" /><path clip-path="url(#clip750)" d="M2001.06 291.809 Q2001.06 286.022 1998.66 282.839 Q1996.29 279.656 1991.98 279.656 Q1987.7 279.656 1985.29 282.839 Q1982.92 286.022 1982.92 291.809 Q1982.92 297.567 1985.29 300.75 Q1987.7 303.933 1991.98 303.933 Q1996.29 303.933 1998.66 300.75 Q2001.06 297.567 2001.06 291.809 M2006.39 304.367 Q2006.39 312.642 2002.71 316.664 Q1999.04 320.715 1991.46 320.715 Q1988.65 320.715 1986.16 320.281 Q1983.67 319.876 1981.33 319.008 L1981.33 313.828 Q1983.67 315.102 1985.96 315.709 Q1988.24 316.317 1990.62 316.317 Q1995.85 316.317 1998.46 313.568 Q2001.06 310.848 2001.06 305.322 L2001.06 302.688 Q1999.41 305.553 1996.84 306.971 Q1994.26 308.389 1990.68 308.389 Q1984.71 308.389 1981.07 303.846 Q1977.42 299.303 1977.42 291.809 Q1977.42 284.286 1981.07 279.743 Q1984.71 275.2 1990.68 275.2 Q1994.26 275.2 1996.84 276.618 Q1999.41 278.036 2001.06 280.9 L2001.06 275.981 L2006.39 275.981 L2006.39 304.367 Z" fill="#000000" fill-rule="nonzero" fill-opacity="1" /><path clip-path="url(#clip750)" d="M2017.35 275.981 L2022.68 275.981 L2022.68 308.389 L2017.35 308.389 L2017.35 275.981 M2017.35 263.366 L2022.68 263.366 L2022.68 270.108 L2017.35 270.108 L2017.35 263.366 Z" fill="#000000" fill-rule="nonzero" fill-opacity="1" /><path clip-path="url(#clip750)" d="M2060.76 288.829 L2060.76 308.389 L2055.43 308.389 L2055.43 289.002 Q2055.43 284.401 2053.64 282.116 Q2051.84 279.83 2048.26 279.83 Q2043.94 279.83 2041.46 282.579 Q2038.97 285.327 2038.97 290.073 L2038.97 308.389 L2033.61 308.389 L2033.61 275.981 L2038.97 275.981 L2038.97 281.016 Q2040.88 278.094 2043.45 276.647 Q2046.06 275.2 2049.44 275.2 Q2055.03 275.2 2057.89 278.672 Q2060.76 282.116 2060.76 288.829 Z" fill="#000000" fill-rule="nonzero" fill-opacity="1" /><path clip-path="url(#clip750)" d="M2070.54 263.424 L2075.17 263.424 Q2079.51 270.252 2081.65 276.792 Q2083.82 283.331 2083.82 289.783 Q2083.82 296.265 2081.65 302.833 Q2079.51 309.401 2075.17 316.201 L2070.54 316.201 Q2074.38 309.575 2076.27 303.036 Q2078.17 296.467 2078.17 289.783 Q2078.17 283.099 2076.27 276.589 Q2074.38 270.079 2070.54 263.424 Z" fill="#000000" fill-rule="nonzero" fill-opacity="1" /><polyline clip-path="url(#clip750)" style="stroke:#c271d2; stroke-linecap:round; stroke-linejoin:round; stroke-width:7.5; stroke-opacity:1; fill:none" points="1646.88,351.589 1773.46,351.589 "/>
<path clip-path="url(#clip750)" d="M1803.44 329.989 L1809.28 329.989 L1809.28 370.179 Q1809.28 377.992 1806.3 381.522 Q1803.35 385.052 1796.78 385.052 L1794.55 385.052 L1794.55 380.133 L1796.38 380.133 Q1800.25 380.133 1801.85 377.963 Q1803.44 375.793 1803.44 370.179 L1803.44 329.989 Z" fill="#000000" fill-rule="nonzero" fill-opacity="1" /><path clip-path="url(#clip750)" d="M1817.07 329.989 L1822.97 329.989 L1832.05 366.505 L1841.11 329.989 L1847.68 329.989 L1856.76 366.505 L1865.82 329.989 L1871.75 329.989 L1860.9 373.189 L1853.55 373.189 L1844.44 335.689 L1835.24 373.189 L1827.89 373.189 L1817.07 329.989 Z" fill="#000000" fill-rule="nonzero" fill-opacity="1" /></svg>
