<?xml version="1.0" encoding="utf-8"?>
<svg xmlns="http://www.w3.org/2000/svg" xmlns:xlink="http://www.w3.org/1999/xlink" width="600" height="400" viewBox="0 0 2400 1600">
<defs>
  <clipPath id="clip710">
    <rect x="0" y="0" width="2400" height="1600"/>
  </clipPath>
</defs>
<path clip-path="url(#clip710)" d="M0 1600 L2400 1600 L2400 0 L0 0  Z" fill="#ffffff" fill-rule="evenodd" fill-opacity="1"/>
<defs>
  <clipPath id="clip711">
    <rect x="480" y="0" width="1681" height="1600"/>
  </clipPath>
</defs>
<path clip-path="url(#clip710)" d="M305.358 1401.58 L2168.2 1401.58 L2168.2 47.2441 L305.358 47.2441  Z" fill="#ffffff" fill-rule="evenodd" fill-opacity="1"/>
<defs>
  <clipPath id="clip712">
    <rect x="305" y="47" width="1864" height="1355"/>
  </clipPath>
</defs>
<polyline clip-path="url(#clip712)" style="stroke:#000000; stroke-linecap:round; stroke-linejoin:round; stroke-width:2; stroke-opacity:0.1; fill:none" points="480.259,1401.58 480.259,47.2441 "/>
<polyline clip-path="url(#clip712)" style="stroke:#000000; stroke-linecap:round; stroke-linejoin:round; stroke-width:2; stroke-opacity:0.1; fill:none" points="858.52,1401.58 858.52,47.2441 "/>
<polyline clip-path="url(#clip712)" style="stroke:#000000; stroke-linecap:round; stroke-linejoin:round; stroke-width:2; stroke-opacity:0.1; fill:none" points="1236.78,1401.58 1236.78,47.2441 "/>
<polyline clip-path="url(#clip712)" style="stroke:#000000; stroke-linecap:round; stroke-linejoin:round; stroke-width:2; stroke-opacity:0.1; fill:none" points="1615.04,1401.58 1615.04,47.2441 "/>
<polyline clip-path="url(#clip712)" style="stroke:#000000; stroke-linecap:round; stroke-linejoin:round; stroke-width:2; stroke-opacity:0.1; fill:none" points="1993.3,1401.58 1993.3,47.2441 "/>
<polyline clip-path="url(#clip710)" style="stroke:#000000; stroke-linecap:round; stroke-linejoin:round; stroke-width:4; stroke-opacity:1; fill:none" points="305.358,1401.58 2168.2,1401.58 "/>
<polyline clip-path="url(#clip710)" style="stroke:#000000; stroke-linecap:round; stroke-linejoin:round; stroke-width:4; stroke-opacity:1; fill:none" points="480.259,1401.58 480.259,1382.68 "/>
<polyline clip-path="url(#clip710)" style="stroke:#000000; stroke-linecap:round; stroke-linejoin:round; stroke-width:4; stroke-opacity:1; fill:none" points="858.52,1401.58 858.52,1382.68 "/>
<polyline clip-path="url(#clip710)" style="stroke:#000000; stroke-linecap:round; stroke-linejoin:round; stroke-width:4; stroke-opacity:1; fill:none" points="1236.78,1401.58 1236.78,1382.68 "/>
<polyline clip-path="url(#clip710)" style="stroke:#000000; stroke-linecap:round; stroke-linejoin:round; stroke-width:4; stroke-opacity:1; fill:none" points="1615.04,1401.58 1615.04,1382.68 "/>
<polyline clip-path="url(#clip710)" style="stroke:#000000; stroke-linecap:round; stroke-linejoin:round; stroke-width:4; stroke-opacity:1; fill:none" points="1993.3,1401.58 1993.3,1382.68 "/>
<path clip-path="url(#clip710)" d="M480.259 1435.43 Q475.745 1435.43 473.459 1439.88 Q471.202 1444.31 471.202 1453.22 Q471.202 1462.11 473.459 1466.56 Q475.745 1470.99 480.259 1470.99 Q484.801 1470.99 487.058 1466.56 Q489.344 1462.11 489.344 1453.22 Q489.344 1444.31 487.058 1439.88 Q484.801 1435.43 480.259 1435.43 M480.259 1430.8 Q487.521 1430.8 491.341 1436.56 Q495.189 1442.29 495.189 1453.22 Q495.189 1464.13 491.341 1469.89 Q487.521 1475.62 480.259 1475.62 Q472.996 1475.62 469.148 1469.89 Q465.328 1464.13 465.328 1453.22 Q465.328 1442.29 469.148 1436.56 Q472.996 1430.8 480.259 1430.8 Z" fill="#000000" fill-rule="nonzero" fill-opacity="1" /><path clip-path="url(#clip710)" d="M846.497 1469.86 L856.046 1469.86 L856.046 1436.9 L845.658 1438.99 L845.658 1433.66 L855.988 1431.58 L861.833 1431.58 L861.833 1469.86 L871.381 1469.86 L871.381 1474.78 L846.497 1474.78 L846.497 1469.86 Z" fill="#000000" fill-rule="nonzero" fill-opacity="1" /><path clip-path="url(#clip710)" d="M1230.1 1469.86 L1250.5 1469.86 L1250.5 1474.78 L1223.07 1474.78 L1223.07 1469.86 Q1226.39 1466.42 1232.12 1460.63 Q1237.88 1454.81 1239.36 1453.14 Q1242.16 1449.98 1243.26 1447.81 Q1244.39 1445.61 1244.39 1443.5 Q1244.39 1440.06 1241.96 1437.89 Q1239.56 1435.72 1235.68 1435.72 Q1232.93 1435.72 1229.87 1436.67 Q1226.83 1437.63 1223.36 1439.57 L1223.36 1433.66 Q1226.89 1432.25 1229.95 1431.52 Q1233.02 1430.8 1235.57 1430.8 Q1242.28 1430.8 1246.27 1434.16 Q1250.26 1437.51 1250.26 1443.12 Q1250.26 1445.79 1249.25 1448.19 Q1248.27 1450.56 1245.64 1453.8 Q1244.91 1454.64 1241.03 1458.66 Q1237.16 1462.66 1230.1 1469.86 Z" fill="#000000" fill-rule="nonzero" fill-opacity="1" /><path clip-path="url(#clip710)" d="M1620.35 1451.49 Q1624.55 1452.38 1626.89 1455.22 Q1629.26 1458.06 1629.26 1462.22 Q1629.26 1468.62 1624.87 1472.12 Q1620.47 1475.62 1612.37 1475.62 Q1609.65 1475.62 1606.75 1475.07 Q1603.89 1474.55 1600.82 1473.48 L1600.82 1467.84 Q1603.25 1469.25 1606.14 1469.98 Q1609.04 1470.7 1612.19 1470.7 Q1617.69 1470.7 1620.55 1468.53 Q1623.45 1466.36 1623.45 1462.22 Q1623.45 1458.4 1620.76 1456.26 Q1618.09 1454.09 1613.32 1454.09 L1608.29 1454.09 L1608.29 1449.29 L1613.55 1449.29 Q1617.86 1449.29 1620.15 1447.58 Q1622.44 1445.84 1622.44 1442.6 Q1622.44 1439.28 1620.06 1437.51 Q1617.72 1435.72 1613.32 1435.72 Q1610.92 1435.72 1608.17 1436.24 Q1605.42 1436.76 1602.12 1437.86 L1602.12 1432.65 Q1605.45 1431.72 1608.34 1431.26 Q1611.27 1430.8 1613.84 1430.8 Q1620.5 1430.8 1624.37 1433.84 Q1628.25 1436.85 1628.25 1442 Q1628.25 1445.58 1626.2 1448.07 Q1624.14 1450.53 1620.35 1451.49 Z" fill="#000000" fill-rule="nonzero" fill-opacity="1" /><path clip-path="url(#clip710)" d="M1997.06 1436.67 L1982.31 1459.73 L1997.06 1459.73 L1997.06 1436.67 M1995.53 1431.58 L2002.88 1431.58 L2002.88 1459.73 L2009.04 1459.73 L2009.04 1464.59 L2002.88 1464.59 L2002.88 1474.78 L1997.06 1474.78 L1997.06 1464.59 L1977.56 1464.59 L1977.56 1458.95 L1995.53 1431.58 Z" fill="#000000" fill-rule="nonzero" fill-opacity="1" /><path clip-path="url(#clip710)" d="M1221.45 1547.44 Q1220.38 1552.73 1218.95 1555.76 Q1216.65 1560.39 1212.72 1560.39 Q1209.93 1560.39 1207.8 1558.71 Q1205.71 1557.03 1205.17 1554.24 Q1204.11 1555.51 1203.33 1556.25 Q1202.59 1556.99 1201.12 1558.14 Q1199.68 1559.24 1197.88 1559.82 Q1196.07 1560.39 1194.02 1560.39 Q1189.02 1560.39 1185.87 1557.77 Q1181.6 1574.94 1181.24 1575.8 Q1180.05 1577.57 1178.33 1577.57 Q1177.26 1577.57 1176.6 1576.91 Q1175.95 1576.3 1175.95 1575.31 Q1175.99 1574.98 1176.23 1573.96 L1188.29 1525.39 Q1188.61 1524.08 1189.43 1523.34 Q1190.29 1522.56 1190.79 1522.48 Q1191.28 1522.35 1191.65 1522.35 Q1192.75 1522.35 1193.41 1522.97 Q1194.11 1523.54 1194.11 1524.61 Q1194.11 1524.77 1193.86 1525.71 Q1193.66 1526.62 1193.33 1528.01 Q1193 1529.36 1192.84 1529.98 L1189.31 1544.08 Q1188.12 1548.91 1188.12 1551.21 Q1188.12 1554.69 1189.68 1556.62 Q1191.28 1558.51 1194.35 1558.51 Q1196.28 1558.51 1198.08 1557.73 Q1199.89 1556.91 1201.12 1555.8 Q1202.34 1554.69 1203.33 1553.51 Q1204.31 1552.28 1204.76 1551.5 Q1205.21 1550.68 1205.26 1550.47 L1207.43 1541.91 L1211.4 1526.21 Q1211.65 1525.22 1212.1 1524.57 Q1212.59 1523.87 1213.17 1523.62 Q1213.74 1523.38 1214.07 1523.34 Q1214.4 1523.26 1214.68 1523.26 Q1215.71 1523.26 1216.4 1523.87 Q1217.1 1524.49 1217.1 1525.55 Q1217.1 1525.76 1216.86 1526.74 Q1216.65 1527.68 1216.32 1529.08 Q1215.99 1530.43 1215.83 1531.17 Q1214.52 1536.33 1214.4 1536.86 L1212.06 1545.92 Q1211.94 1546.46 1211.53 1548.18 Q1211.16 1549.9 1210.95 1550.8 Q1210.75 1551.66 1210.54 1552.85 Q1210.38 1554 1210.38 1554.65 Q1210.38 1558.51 1212.92 1558.51 Q1213.9 1558.51 1214.76 1557.93 Q1215.63 1557.32 1216.2 1556.46 Q1216.81 1555.6 1217.39 1554.12 Q1218 1552.6 1218.37 1551.37 Q1218.74 1550.1 1219.27 1548.14 Q1219.48 1547.19 1219.68 1546.91 Q1219.89 1546.62 1220.46 1546.62 Q1221.45 1546.62 1221.45 1547.44 Z" fill="#000000" fill-rule="nonzero" fill-opacity="1" /><path clip-path="url(#clip710)" d="M1226.04 1579.25 Q1226.04 1578.84 1226.37 1577.94 L1256.01 1498.74 Q1256.01 1498.66 1256.21 1498.21 Q1256.42 1497.76 1256.54 1497.47 Q1256.66 1497.15 1256.91 1496.9 Q1257.2 1496.65 1257.52 1496.65 Q1258.34 1496.65 1258.34 1497.68 Q1258.34 1497.76 1258.1 1498.74 L1228.38 1578.02 Q1227.89 1579.45 1227.56 1579.86 Q1227.27 1580.27 1226.78 1580.27 Q1226.04 1580.27 1226.04 1579.25 Z" fill="#000000" fill-rule="nonzero" fill-opacity="1" /><path clip-path="url(#clip710)" d="M1293.4 1524.2 Q1293.4 1525.35 1292.86 1525.63 Q1292.33 1525.88 1290.85 1525.88 L1282.98 1525.88 L1276.75 1550.64 Q1276.26 1552.81 1276.26 1554.65 Q1276.26 1556.7 1276.88 1557.6 Q1277.53 1558.51 1278.89 1558.51 Q1281.55 1558.51 1284.42 1556.09 Q1287.33 1553.67 1289.79 1547.77 Q1290.12 1546.99 1290.28 1546.82 Q1290.49 1546.62 1291.02 1546.62 Q1292.04 1546.62 1292.04 1547.44 Q1292.04 1547.73 1291.47 1549.04 Q1290.94 1550.35 1289.75 1552.28 Q1288.6 1554.2 1287.08 1556.01 Q1285.61 1557.81 1283.35 1559.12 Q1281.1 1560.39 1278.68 1560.39 Q1275.28 1560.39 1273.11 1558.22 Q1270.97 1556.05 1270.97 1552.64 Q1270.97 1551.54 1271.84 1548.01 Q1272.7 1544.45 1277.37 1525.88 L1269.95 1525.88 Q1268.93 1525.88 1268.52 1525.84 Q1268.15 1525.8 1267.86 1525.59 Q1267.61 1525.35 1267.61 1524.85 Q1267.61 1524.08 1267.94 1523.75 Q1268.27 1523.38 1268.68 1523.34 Q1269.13 1523.26 1270.16 1523.26 L1278.02 1523.26 L1281.3 1509.93 Q1281.63 1508.62 1282.45 1507.88 Q1283.31 1507.11 1283.8 1507.02 Q1284.3 1506.9 1284.67 1506.9 Q1285.77 1506.9 1286.43 1507.52 Q1287.08 1508.09 1287.08 1509.16 Q1287.08 1509.73 1283.64 1523.26 L1291.02 1523.26 Q1291.96 1523.26 1292.33 1523.3 Q1292.74 1523.34 1293.07 1523.54 Q1293.4 1523.75 1293.4 1524.2 Z" fill="#000000" fill-rule="nonzero" fill-opacity="1" /><polyline clip-path="url(#clip710)" style="stroke:#000000; stroke-linecap:round; stroke-linejoin:round; stroke-width:4; stroke-opacity:1; fill:none" points="305.358,1401.58 305.358,47.2441 "/>
<polyline clip-path="url(#clip710)" style="stroke:#000000; stroke-linecap:round; stroke-linejoin:round; stroke-width:4; stroke-opacity:1; fill:none" points="305.358,1401.58 324.256,1401.58 "/>
<polyline clip-path="url(#clip710)" style="stroke:#000000; stroke-linecap:round; stroke-linejoin:round; stroke-width:4; stroke-opacity:1; fill:none" points="305.358,950.135 324.256,950.135 "/>
<polyline clip-path="url(#clip710)" style="stroke:#000000; stroke-linecap:round; stroke-linejoin:round; stroke-width:4; stroke-opacity:1; fill:none" points="305.358,498.689 324.256,498.689 "/>
<polyline clip-path="url(#clip710)" style="stroke:#000000; stroke-linecap:round; stroke-linejoin:round; stroke-width:4; stroke-opacity:1; fill:none" points="305.358,47.2441 324.256,47.2441 "/>
<path clip-path="url(#clip710)" d="M143.807 1426.32 L153.356 1426.32 L153.356 1393.36 L142.968 1395.45 L142.968 1390.12 L153.298 1388.04 L159.143 1388.04 L159.143 1426.32 L168.691 1426.32 L168.691 1431.24 L143.807 1431.24 L143.807 1426.32 Z" fill="#000000" fill-rule="nonzero" fill-opacity="1" /><path clip-path="url(#clip710)" d="M192.997 1391.89 Q188.483 1391.89 186.197 1396.34 Q183.94 1400.77 183.94 1409.68 Q183.94 1418.57 186.197 1423.02 Q188.483 1427.45 192.997 1427.45 Q197.54 1427.45 199.797 1423.02 Q202.082 1418.57 202.082 1409.68 Q202.082 1400.77 199.797 1396.34 Q197.54 1391.89 192.997 1391.89 M192.997 1387.26 Q200.26 1387.26 204.079 1393.02 Q207.927 1398.75 207.927 1409.68 Q207.927 1420.59 204.079 1426.35 Q200.26 1432.08 192.997 1432.08 Q185.734 1432.08 181.886 1426.35 Q178.066 1420.59 178.066 1409.68 Q178.066 1398.75 181.886 1393.02 Q185.734 1387.26 192.997 1387.26 Z" fill="#000000" fill-rule="nonzero" fill-opacity="1" /><path clip-path="url(#clip710)" d="M207.927 1379.88 L238.067 1379.88 L238.067 1383.88 L207.927 1383.88 L207.927 1379.88 Z" fill="#000000" fill-rule="nonzero" fill-opacity="1" /><path clip-path="url(#clip710)" d="M249.14 1392.98 L256.898 1392.98 L256.898 1366.2 L248.458 1367.89 L248.458 1363.57 L256.851 1361.88 L261.6 1361.88 L261.6 1392.98 L269.358 1392.98 L269.358 1396.98 L249.14 1396.98 L249.14 1392.98 Z" fill="#000000" fill-rule="nonzero" fill-opacity="1" /><path clip-path="url(#clip710)" d="M180.976 974.875 L190.525 974.875 L190.525 941.918 L180.137 944.001 L180.137 938.677 L190.467 936.594 L196.312 936.594 L196.312 974.875 L205.86 974.875 L205.86 979.794 L180.976 979.794 L180.976 974.875 Z" fill="#000000" fill-rule="nonzero" fill-opacity="1" /><path clip-path="url(#clip710)" d="M230.166 940.442 Q225.652 940.442 223.366 944.898 Q221.109 949.326 221.109 958.237 Q221.109 967.121 223.366 971.577 Q225.652 976.004 230.166 976.004 Q234.709 976.004 236.965 971.577 Q239.251 967.121 239.251 958.237 Q239.251 949.326 236.965 944.898 Q234.709 940.442 230.166 940.442 M230.166 935.813 Q237.428 935.813 241.248 941.571 Q245.096 947.3 245.096 958.237 Q245.096 969.146 241.248 974.904 Q237.428 980.633 230.166 980.633 Q222.903 980.633 219.055 974.904 Q215.235 969.146 215.235 958.237 Q215.235 947.3 219.055 941.571 Q222.903 935.813 230.166 935.813 Z" fill="#000000" fill-rule="nonzero" fill-opacity="1" /><path clip-path="url(#clip710)" d="M257.227 913.558 Q253.56 913.558 251.702 917.178 Q249.869 920.775 249.869 928.016 Q249.869 935.234 251.702 938.854 Q253.56 942.451 257.227 942.451 Q260.918 942.451 262.752 938.854 Q264.609 935.234 264.609 928.016 Q264.609 920.775 262.752 917.178 Q260.918 913.558 257.227 913.558 M257.227 909.796 Q263.128 909.796 266.231 914.475 Q269.358 919.13 269.358 928.016 Q269.358 936.88 266.231 941.558 Q263.128 946.213 257.227 946.213 Q251.326 946.213 248.199 941.558 Q245.096 936.88 245.096 928.016 Q245.096 919.13 248.199 914.475 Q251.326 909.796 257.227 909.796 Z" fill="#000000" fill-rule="nonzero" fill-opacity="1" /><path clip-path="url(#clip710)" d="M184.338 523.43 L193.887 523.43 L193.887 490.473 L183.499 492.556 L183.499 487.232 L193.829 485.149 L199.674 485.149 L199.674 523.43 L209.222 523.43 L209.222 528.349 L184.338 528.349 L184.338 523.43 Z" fill="#000000" fill-rule="nonzero" fill-opacity="1" /><path clip-path="url(#clip710)" d="M233.528 488.997 Q229.014 488.997 226.728 493.453 Q224.471 497.88 224.471 506.792 Q224.471 515.675 226.728 520.131 Q229.014 524.558 233.528 524.558 Q238.07 524.558 240.327 520.131 Q242.613 515.675 242.613 506.792 Q242.613 497.88 240.327 493.453 Q238.07 488.997 233.528 488.997 M233.528 484.368 Q240.79 484.368 244.61 490.126 Q248.458 495.855 248.458 506.792 Q248.458 517.701 244.61 523.459 Q240.79 529.188 233.528 529.188 Q226.265 529.188 222.417 523.459 Q218.597 517.701 218.597 506.792 Q218.597 495.855 222.417 490.126 Q226.265 484.368 233.528 484.368 Z" fill="#000000" fill-rule="nonzero" fill-opacity="1" /><path clip-path="url(#clip710)" d="M249.14 490.089 L256.898 490.089 L256.898 463.312 L248.458 465.004 L248.458 460.679 L256.851 458.986 L261.6 458.986 L261.6 490.089 L269.358 490.089 L269.358 494.086 L249.14 494.086 L249.14 490.089 Z" fill="#000000" fill-rule="nonzero" fill-opacity="1" /><path clip-path="url(#clip710)" d="M182.951 71.9846 L192.5 71.9846 L192.5 39.0276 L182.112 41.111 L182.112 35.7869 L192.442 33.7036 L198.287 33.7036 L198.287 71.9846 L207.835 71.9846 L207.835 76.9036 L182.951 76.9036 L182.951 71.9846 Z" fill="#000000" fill-rule="nonzero" fill-opacity="1" /><path clip-path="url(#clip710)" d="M232.141 37.552 Q227.627 37.552 225.341 42.0079 Q223.084 46.435 223.084 55.347 Q223.084 64.2301 225.341 68.686 Q227.627 73.1131 232.141 73.1131 Q236.683 73.1131 238.94 68.686 Q241.226 64.2301 241.226 55.347 Q241.226 46.435 238.94 42.0079 Q236.683 37.552 232.141 37.552 M232.141 32.9223 Q239.403 32.9223 243.223 38.6804 Q247.071 44.4096 247.071 55.347 Q247.071 66.2555 243.223 72.0136 Q239.403 77.7427 232.141 77.7427 Q224.878 77.7427 221.029 72.0136 Q217.21 66.2555 217.21 55.347 Q217.21 44.4096 221.029 38.6804 Q224.878 32.9223 232.141 32.9223 Z" fill="#000000" fill-rule="nonzero" fill-opacity="1" /><path clip-path="url(#clip710)" d="M252.784 38.6439 L269.358 38.6439 L269.358 42.6406 L247.071 42.6406 L247.071 38.6439 Q249.775 35.8463 254.43 31.1443 Q259.108 26.4189 260.307 25.0553 Q262.587 22.4928 263.481 20.7295 Q264.398 18.9428 264.398 17.2266 Q264.398 14.4289 262.423 12.6657 Q260.472 10.9025 257.321 10.9025 Q255.088 10.9025 252.596 11.6783 Q250.127 12.4541 247.306 14.0293 L247.306 9.23329 Q250.174 8.08132 252.666 7.49358 Q255.158 6.90583 257.227 6.90583 Q262.681 6.90583 265.926 9.63296 Q269.17 12.3601 269.17 16.921 Q269.17 19.0839 268.347 21.0352 Q267.548 22.963 265.409 25.5961 Q264.821 26.2778 261.671 29.5457 Q258.52 32.79 252.784 38.6439 Z" fill="#000000" fill-rule="nonzero" fill-opacity="1" /><path clip-path="url(#clip710)" d="M50.4216 921.023 Q49.6925 922.278 49.3684 923.777 Q49.0038 925.236 49.0038 927.018 Q49.0038 933.337 53.1357 936.74 Q57.2271 940.102 64.9239 940.102 L88.8242 940.102 L88.8242 947.597 L43.4541 947.597 L43.4541 940.102 L50.5026 940.102 Q46.3707 937.753 44.3858 933.985 Q42.3603 930.218 42.3603 924.83 Q42.3603 924.061 42.4818 923.129 Q42.5629 922.197 42.7654 921.063 L50.4216 921.023 Z" fill="#000000" fill-rule="nonzero" fill-opacity="1" /><path clip-path="url(#clip710)" d="M70.9192 913.974 L43.4541 913.974 L43.4541 906.52 L70.6356 906.52 Q77.0766 906.52 80.3173 904.009 Q83.5175 901.497 83.5175 896.474 Q83.5175 890.438 79.6691 886.955 Q75.8208 883.43 69.1773 883.43 L43.4541 883.43 L43.4541 875.977 L88.8242 875.977 L88.8242 883.43 L81.8566 883.43 Q85.9886 886.144 88.014 889.75 Q89.999 893.314 89.999 898.054 Q89.999 905.872 85.1379 909.923 Q80.2768 913.974 70.9192 913.974 M42.3603 895.218 L42.3603 895.218 Z" fill="#000000" fill-rule="nonzero" fill-opacity="1" /><path clip-path="url(#clip710)" d="M61.4401 822.91 L88.8242 822.91 L88.8242 830.363 L61.6831 830.363 Q55.2422 830.363 52.042 832.875 Q48.8418 835.386 48.8418 840.41 Q48.8418 846.445 52.6901 849.929 Q56.5385 853.413 63.182 853.413 L88.8242 853.413 L88.8242 860.907 L43.4541 860.907 L43.4541 853.413 L50.5026 853.413 Q46.4112 850.739 44.3858 847.134 Q42.3603 843.488 42.3603 838.749 Q42.3603 830.93 47.2214 826.92 Q52.042 822.91 61.4401 822.91 Z" fill="#000000" fill-rule="nonzero" fill-opacity="1" /><path clip-path="url(#clip710)" d="M30.5722 800.67 L43.4541 800.67 L43.4541 785.317 L49.2469 785.317 L49.2469 800.67 L73.8764 800.67 Q79.4261 800.67 81.0059 799.171 Q82.5858 797.632 82.5858 792.974 L82.5858 785.317 L88.8242 785.317 L88.8242 792.974 Q88.8242 801.602 85.624 804.883 Q82.3833 808.164 73.8764 808.164 L49.2469 808.164 L49.2469 813.633 L43.4541 813.633 L43.4541 808.164 L30.5722 808.164 L30.5722 800.67 Z" fill="#000000" fill-rule="nonzero" fill-opacity="1" /><path clip-path="url(#clip710)" d="M43.4541 775.514 L43.4541 768.06 L88.8242 768.06 L88.8242 775.514 L43.4541 775.514 M25.7921 775.514 L25.7921 768.06 L35.2307 768.06 L35.2307 775.514 L25.7921 775.514 Z" fill="#000000" fill-rule="nonzero" fill-opacity="1" /><path clip-path="url(#clip710)" d="M52.1635 717.141 Q47.1404 714.345 44.7504 710.457 Q42.3603 706.568 42.3603 701.302 Q42.3603 694.212 47.3429 690.364 Q52.285 686.516 61.4401 686.516 L88.8242 686.516 L88.8242 694.01 L61.6831 694.01 Q55.1612 694.01 52.0015 696.319 Q48.8418 698.628 48.8418 703.368 Q48.8418 709.16 52.6901 712.523 Q56.5385 715.885 63.182 715.885 L88.8242 715.885 L88.8242 723.379 L61.6831 723.379 Q55.1207 723.379 52.0015 725.688 Q48.8418 727.997 48.8418 732.818 Q48.8418 738.529 52.7306 741.892 Q56.579 745.254 63.182 745.254 L88.8242 745.254 L88.8242 752.748 L43.4541 752.748 L43.4541 745.254 L50.5026 745.254 Q46.3302 742.702 44.3453 739.137 Q42.3603 735.572 42.3603 730.671 Q42.3603 725.729 44.8719 722.285 Q47.3834 718.801 52.1635 717.141 Z" fill="#000000" fill-rule="nonzero" fill-opacity="1" /><path clip-path="url(#clip710)" d="M64.2757 632.841 L67.9215 632.841 L67.9215 667.112 Q75.6182 666.626 79.6691 662.494 Q83.6795 658.321 83.6795 650.908 Q83.6795 646.614 82.6263 642.604 Q81.5731 638.553 79.4666 634.583 L86.5152 634.583 Q88.2166 638.594 89.1078 642.807 Q89.999 647.019 89.999 651.354 Q89.999 662.21 83.6795 668.57 Q77.3601 674.89 66.5847 674.89 Q55.4447 674.89 48.9228 668.894 Q42.3603 662.858 42.3603 652.65 Q42.3603 643.495 48.2746 638.188 Q54.1484 632.841 64.2757 632.841 M62.0882 640.295 Q55.9714 640.376 52.3255 643.738 Q48.6797 647.06 48.6797 652.569 Q48.6797 658.808 52.204 662.575 Q55.7283 666.302 62.1287 666.869 L62.0882 640.295 Z" fill="#000000" fill-rule="nonzero" fill-opacity="1" /><path clip-path="url(#clip710)" d="M25.8731 576.331 Q35.1902 581.759 44.3048 584.392 Q53.4193 587.026 62.7769 587.026 Q72.1345 587.026 81.33 584.392 Q90.4851 581.719 99.7616 576.331 L99.7616 582.813 Q90.242 588.889 81.0465 591.927 Q71.8509 594.925 62.7769 594.925 Q53.7434 594.925 44.5883 591.927 Q35.4333 588.929 25.8731 582.813 L25.8731 576.331 Z" fill="#000000" fill-rule="nonzero" fill-opacity="1" /><path clip-path="url(#clip710)" d="M44.7909 532.946 L51.8394 532.946 Q50.2191 536.106 49.4089 539.508 Q48.5987 542.911 48.5987 546.557 Q48.5987 552.107 50.3001 554.902 Q52.0015 557.656 55.4042 557.656 Q57.9968 557.656 59.4956 555.672 Q60.954 553.687 62.2908 547.691 L62.8579 545.139 Q64.5593 537.199 67.6785 533.878 Q70.7572 530.515 76.3069 530.515 Q82.6263 530.515 86.3126 535.539 Q89.999 540.521 89.999 549.271 Q89.999 552.917 89.2698 556.887 Q88.5811 560.816 87.1633 565.191 L79.4666 565.191 Q81.6136 561.059 82.7073 557.049 Q83.7606 553.038 83.7606 549.109 Q83.7606 543.843 81.9782 541.007 Q80.1553 538.172 76.874 538.172 Q73.8358 538.172 72.2155 540.238 Q70.5951 542.263 69.0963 549.19 L68.4886 551.783 Q67.0303 558.71 64.0327 561.788 Q60.9945 564.867 55.7283 564.867 Q49.3279 564.867 45.8441 560.33 Q42.3603 555.793 42.3603 547.448 Q42.3603 543.316 42.968 539.67 Q43.5756 536.025 44.7909 532.946 Z" fill="#000000" fill-rule="nonzero" fill-opacity="1" /><path clip-path="url(#clip710)" d="M25.8731 519.821 L25.8731 513.34 Q35.4333 507.263 44.5883 504.266 Q53.7434 501.227 62.7769 501.227 Q71.8509 501.227 81.0465 504.266 Q90.242 507.263 99.7616 513.34 L99.7616 519.821 Q90.4851 514.433 81.33 511.8 Q72.1345 509.127 62.7769 509.127 Q53.4193 509.127 44.3048 511.8 Q35.1902 514.433 25.8731 519.821 Z" fill="#000000" fill-rule="nonzero" fill-opacity="1" /><path clip-path="url(#clip712)" d="M404.606 1141.12 L404.606 1401.58 L442.433 1401.58 L442.433 1141.12 L404.606 1141.12 L404.606 1141.12  Z" fill="#009af9" fill-rule="evenodd" fill-opacity="1"/>
<polyline clip-path="url(#clip712)" style="stroke:#000000; stroke-linecap:round; stroke-linejoin:round; stroke-width:2; stroke-opacity:1; fill:none" points="404.606,1141.12 404.606,1401.58 442.433,1401.58 442.433,1141.12 404.606,1141.12 "/>
<path clip-path="url(#clip712)" d="M782.868 1026.62 L782.868 1401.58 L820.694 1401.58 L820.694 1026.62 L782.868 1026.62 L782.868 1026.62  Z" fill="#009af9" fill-rule="evenodd" fill-opacity="1"/>
<polyline clip-path="url(#clip712)" style="stroke:#000000; stroke-linecap:round; stroke-linejoin:round; stroke-width:2; stroke-opacity:1; fill:none" points="782.868,1026.62 782.868,1401.58 820.694,1401.58 820.694,1026.62 782.868,1026.62 "/>
<path clip-path="url(#clip712)" d="M1161.13 740.205 L1161.13 1401.58 L1198.95 1401.58 L1198.95 740.205 L1161.13 740.205 L1161.13 740.205  Z" fill="#009af9" fill-rule="evenodd" fill-opacity="1"/>
<polyline clip-path="url(#clip712)" style="stroke:#000000; stroke-linecap:round; stroke-linejoin:round; stroke-width:2; stroke-opacity:1; fill:none" points="1161.13,740.205 1161.13,1401.58 1198.95,1401.58 1198.95,740.205 1161.13,740.205 "/>
<path clip-path="url(#clip712)" d="M1539.39 1040.2 L1539.39 1401.58 L1577.22 1401.58 L1577.22 1040.2 L1539.39 1040.2 L1539.39 1040.2  Z" fill="#009af9" fill-rule="evenodd" fill-opacity="1"/>
<polyline clip-path="url(#clip712)" style="stroke:#000000; stroke-linecap:round; stroke-linejoin:round; stroke-width:2; stroke-opacity:1; fill:none" points="1539.39,1040.2 1539.39,1401.58 1577.22,1401.58 1577.22,1040.2 1539.39,1040.2 "/>
<path clip-path="url(#clip712)" d="M1917.65 1066.7 L1917.65 1401.58 L1955.48 1401.58 L1955.48 1066.7 L1917.65 1066.7 L1917.65 1066.7  Z" fill="#009af9" fill-rule="evenodd" fill-opacity="1"/>
<polyline clip-path="url(#clip712)" style="stroke:#000000; stroke-linecap:round; stroke-linejoin:round; stroke-width:2; stroke-opacity:1; fill:none" points="1917.65,1066.7 1917.65,1401.58 1955.48,1401.58 1955.48,1066.7 1917.65,1066.7 "/>
<circle clip-path="url(#clip712)" style="fill:#009af9; stroke:none; fill-opacity:0" cx="423.519" cy="1141.12" r="2"/>
<circle clip-path="url(#clip712)" style="fill:#009af9; stroke:none; fill-opacity:0" cx="801.781" cy="1026.62" r="2"/>
<circle clip-path="url(#clip712)" style="fill:#009af9; stroke:none; fill-opacity:0" cx="1180.04" cy="740.205" r="2"/>
<circle clip-path="url(#clip712)" style="fill:#009af9; stroke:none; fill-opacity:0" cx="1558.3" cy="1040.2" r="2"/>
<circle clip-path="url(#clip712)" style="fill:#009af9; stroke:none; fill-opacity:0" cx="1936.56" cy="1066.7" r="2"/>
<path clip-path="url(#clip712)" d="M442.433 1094.97 L442.433 1401.58 L480.259 1401.58 L480.259 1094.97 L442.433 1094.97 L442.433 1094.97  Z" fill="#e26f46" fill-rule="evenodd" fill-opacity="1"/>
<polyline clip-path="url(#clip712)" style="stroke:#000000; stroke-linecap:round; stroke-linejoin:round; stroke-width:2; stroke-opacity:1; fill:none" points="442.433,1094.97 442.433,1401.58 480.259,1401.58 480.259,1094.97 442.433,1094.97 "/>
<path clip-path="url(#clip712)" d="M820.694 955.755 L820.694 1401.58 L858.52 1401.58 L858.52 955.755 L820.694 955.755 L820.694 955.755  Z" fill="#e26f46" fill-rule="evenodd" fill-opacity="1"/>
<polyline clip-path="url(#clip712)" style="stroke:#000000; stroke-linecap:round; stroke-linejoin:round; stroke-width:2; stroke-opacity:1; fill:none" points="820.694,955.755 820.694,1401.58 858.52,1401.58 858.52,955.755 820.694,955.755 "/>
<path clip-path="url(#clip712)" d="M1198.95 715.975 L1198.95 1401.58 L1236.78 1401.58 L1236.78 715.975 L1198.95 715.975 L1198.95 715.975  Z" fill="#e26f46" fill-rule="evenodd" fill-opacity="1"/>
<polyline clip-path="url(#clip712)" style="stroke:#000000; stroke-linecap:round; stroke-linejoin:round; stroke-width:2; stroke-opacity:1; fill:none" points="1198.95,715.975 1198.95,1401.58 1236.78,1401.58 1236.78,715.975 1198.95,715.975 "/>
<path clip-path="url(#clip712)" d="M1577.22 976.304 L1577.22 1401.58 L1615.04 1401.58 L1615.04 976.304 L1577.22 976.304 L1577.22 976.304  Z" fill="#e26f46" fill-rule="evenodd" fill-opacity="1"/>
<polyline clip-path="url(#clip712)" style="stroke:#000000; stroke-linecap:round; stroke-linejoin:round; stroke-width:2; stroke-opacity:1; fill:none" points="1577.22,976.304 1577.22,1401.58 1615.04,1401.58 1615.04,976.304 1577.22,976.304 "/>
<path clip-path="url(#clip712)" d="M1955.48 1013.07 L1955.48 1401.58 L1993.3 1401.58 L1993.3 1013.07 L1955.48 1013.07 L1955.48 1013.07  Z" fill="#e26f46" fill-rule="evenodd" fill-opacity="1"/>
<polyline clip-path="url(#clip712)" style="stroke:#000000; stroke-linecap:round; stroke-linejoin:round; stroke-width:2; stroke-opacity:1; fill:none" points="1955.48,1013.07 1955.48,1401.58 1993.3,1401.58 1993.3,1013.07 1955.48,1013.07 "/>
<circle clip-path="url(#clip712)" style="fill:#e26f46; stroke:none; fill-opacity:0" cx="461.346" cy="1094.97" r="2"/>
<circle clip-path="url(#clip712)" style="fill:#e26f46; stroke:none; fill-opacity:0" cx="839.607" cy="955.755" r="2"/>
<circle clip-path="url(#clip712)" style="fill:#e26f46; stroke:none; fill-opacity:0" cx="1217.87" cy="715.975" r="2"/>
<circle clip-path="url(#clip712)" style="fill:#e26f46; stroke:none; fill-opacity:0" cx="1596.13" cy="976.304" r="2"/>
<circle clip-path="url(#clip712)" style="fill:#e26f46; stroke:none; fill-opacity:0" cx="1974.39" cy="1013.07" r="2"/>
<path clip-path="url(#clip712)" d="M480.259 1019.36 L480.259 1401.58 L518.085 1401.58 L518.085 1019.36 L480.259 1019.36 L480.259 1019.36  Z" fill="#3da44d" fill-rule="evenodd" fill-opacity="1"/>
<polyline clip-path="url(#clip712)" style="stroke:#000000; stroke-linecap:round; stroke-linejoin:round; stroke-width:2; stroke-opacity:1; fill:none" points="480.259,1019.36 480.259,1401.58 518.085,1401.58 518.085,1019.36 480.259,1019.36 "/>
<path clip-path="url(#clip712)" d="M858.52 878.558 L858.52 1401.58 L896.346 1401.58 L896.346 878.558 L858.52 878.558 L858.52 878.558  Z" fill="#3da44d" fill-rule="evenodd" fill-opacity="1"/>
<polyline clip-path="url(#clip712)" style="stroke:#000000; stroke-linecap:round; stroke-linejoin:round; stroke-width:2; stroke-opacity:1; fill:none" points="858.52,878.558 858.52,1401.58 896.346,1401.58 896.346,878.558 858.52,878.558 "/>
<path clip-path="url(#clip712)" d="M1236.78 627.211 L1236.78 1401.58 L1274.61 1401.58 L1274.61 627.211 L1236.78 627.211 L1236.78 627.211  Z" fill="#3da44d" fill-rule="evenodd" fill-opacity="1"/>
<polyline clip-path="url(#clip712)" style="stroke:#000000; stroke-linecap:round; stroke-linejoin:round; stroke-width:2; stroke-opacity:1; fill:none" points="1236.78,627.211 1236.78,1401.58 1274.61,1401.58 1274.61,627.211 1236.78,627.211 "/>
<path clip-path="url(#clip712)" d="M1615.04 905.333 L1615.04 1401.58 L1652.87 1401.58 L1652.87 905.333 L1615.04 905.333 L1615.04 905.333  Z" fill="#3da44d" fill-rule="evenodd" fill-opacity="1"/>
<polyline clip-path="url(#clip712)" style="stroke:#000000; stroke-linecap:round; stroke-linejoin:round; stroke-width:2; stroke-opacity:1; fill:none" points="1615.04,905.333 1615.04,1401.58 1652.87,1401.58 1652.87,905.333 1615.04,905.333 "/>
<path clip-path="url(#clip712)" d="M1993.3 930.521 L1993.3 1401.58 L2031.13 1401.58 L2031.13 930.521 L1993.3 930.521 L1993.3 930.521  Z" fill="#3da44d" fill-rule="evenodd" fill-opacity="1"/>
<polyline clip-path="url(#clip712)" style="stroke:#000000; stroke-linecap:round; stroke-linejoin:round; stroke-width:2; stroke-opacity:1; fill:none" points="1993.3,930.521 1993.3,1401.58 2031.13,1401.58 2031.13,930.521 1993.3,930.521 "/>
<circle clip-path="url(#clip712)" style="fill:#3da44d; stroke:none; fill-opacity:0" cx="499.172" cy="1019.36" r="2"/>
<circle clip-path="url(#clip712)" style="fill:#3da44d; stroke:none; fill-opacity:0" cx="877.433" cy="878.558" r="2"/>
<circle clip-path="url(#clip712)" style="fill:#3da44d; stroke:none; fill-opacity:0" cx="1255.69" cy="627.211" r="2"/>
<circle clip-path="url(#clip712)" style="fill:#3da44d; stroke:none; fill-opacity:0" cx="1633.96" cy="905.333" r="2"/>
<circle clip-path="url(#clip712)" style="fill:#3da44d; stroke:none; fill-opacity:0" cx="2012.22" cy="930.521" r="2"/>
<path clip-path="url(#clip712)" d="M518.085 1116.67 L518.085 1401.58 L555.911 1401.58 L555.911 1116.67 L518.085 1116.67 L518.085 1116.67  Z" fill="#c271d2" fill-rule="evenodd" fill-opacity="1"/>
<polyline clip-path="url(#clip712)" style="stroke:#000000; stroke-linecap:round; stroke-linejoin:round; stroke-width:2; stroke-opacity:1; fill:none" points="518.085,1116.67 518.085,1401.58 555.911,1401.58 555.911,1116.67 518.085,1116.67 "/>
<path clip-path="url(#clip712)" d="M896.346 972.472 L896.346 1401.58 L934.172 1401.58 L934.172 972.472 L896.346 972.472 L896.346 972.472  Z" fill="#c271d2" fill-rule="evenodd" fill-opacity="1"/>
<polyline clip-path="url(#clip712)" style="stroke:#000000; stroke-linecap:round; stroke-linejoin:round; stroke-width:2; stroke-opacity:1; fill:none" points="896.346,972.472 896.346,1401.58 934.172,1401.58 934.172,972.472 896.346,972.472 "/>
<path clip-path="url(#clip712)" d="M1274.61 849.263 L1274.61 1401.58 L1312.43 1401.58 L1312.43 849.263 L1274.61 849.263 L1274.61 849.263  Z" fill="#c271d2" fill-rule="evenodd" fill-opacity="1"/>
<polyline clip-path="url(#clip712)" style="stroke:#000000; stroke-linecap:round; stroke-linejoin:round; stroke-width:2; stroke-opacity:1; fill:none" points="1274.61,849.263 1274.61,1401.58 1312.43,1401.58 1312.43,849.263 1274.61,849.263 "/>
<path clip-path="url(#clip712)" d="M1652.87 1003.52 L1652.87 1401.58 L1690.69 1401.58 L1690.69 1003.52 L1652.87 1003.52 L1652.87 1003.52  Z" fill="#c271d2" fill-rule="evenodd" fill-opacity="1"/>
<polyline clip-path="url(#clip712)" style="stroke:#000000; stroke-linecap:round; stroke-linejoin:round; stroke-width:2; stroke-opacity:1; fill:none" points="1652.87,1003.52 1652.87,1401.58 1690.69,1401.58 1690.69,1003.52 1652.87,1003.52 "/>
<path clip-path="url(#clip712)" d="M2031.13 1047.89 L2031.13 1401.58 L2068.96 1401.58 L2068.96 1047.89 L2031.13 1047.89 L2031.13 1047.89  Z" fill="#c271d2" fill-rule="evenodd" fill-opacity="1"/>
<polyline clip-path="url(#clip712)" style="stroke:#000000; stroke-linecap:round; stroke-linejoin:round; stroke-width:2; stroke-opacity:1; fill:none" points="2031.13,1047.89 2031.13,1401.58 2068.96,1401.58 2068.96,1047.89 2031.13,1047.89 "/>
<circle clip-path="url(#clip712)" style="fill:#c271d2; stroke:none; fill-opacity:0" cx="536.998" cy="1116.67" r="2"/>
<circle clip-path="url(#clip712)" style="fill:#c271d2; stroke:none; fill-opacity:0" cx="915.259" cy="972.472" r="2"/>
<circle clip-path="url(#clip712)" style="fill:#c271d2; stroke:none; fill-opacity:0" cx="1293.52" cy="849.263" r="2"/>
<circle clip-path="url(#clip712)" style="fill:#c271d2; stroke:none; fill-opacity:0" cx="1671.78" cy="1003.52" r="2"/>
<circle clip-path="url(#clip712)" style="fill:#c271d2; stroke:none; fill-opacity:0" cx="2050.04" cy="1047.89" r="2"/>
<path clip-path="url(#clip710)" d="M367.453 416.389 L843.001 416.389 L843.001 92.3886 L367.453 92.3886  Z" fill="#ffffff" fill-rule="evenodd" fill-opacity="1"/>
<polyline clip-path="url(#clip710)" style="stroke:#000000; stroke-linecap:round; stroke-linejoin:round; stroke-width:4; stroke-opacity:1; fill:none" points="367.453,416.389 843.001,416.389 843.001,92.3886 367.453,92.3886 367.453,416.389 "/>
<path clip-path="url(#clip710)" d="M388.151 183.109 L512.341 183.109 L512.341 131.269 L388.151 131.269 L388.151 183.109  Z" fill="#009af9" fill-rule="evenodd" fill-opacity="1"/>
<polyline clip-path="url(#clip710)" style="stroke:#000000; stroke-linecap:round; stroke-linejoin:round; stroke-width:2.5; stroke-opacity:1; fill:none" points="388.151,183.109 512.341,183.109 512.341,131.269 388.151,131.269 388.151,183.109 "/>
<path clip-path="url(#clip710)" d="M567.877 138.916 L567.877 145.079 Q564.926 142.33 561.569 140.971 Q558.242 139.611 554.48 139.611 Q547.073 139.611 543.138 144.153 Q539.203 148.667 539.203 157.232 Q539.203 165.768 543.138 170.311 Q547.073 174.825 554.48 174.825 Q558.242 174.825 561.569 173.465 Q564.926 172.105 567.877 169.356 L567.877 175.461 Q564.81 177.544 561.367 178.586 Q557.952 179.628 554.133 179.628 Q544.324 179.628 538.682 173.638 Q533.039 167.62 533.039 157.232 Q533.039 146.815 538.682 140.826 Q544.324 134.807 554.133 134.807 Q558.01 134.807 561.425 135.849 Q564.868 136.862 567.877 138.916 Z" fill="#000000" fill-rule="nonzero" fill-opacity="1" /><path clip-path="url(#clip710)" d="M576.905 135.589 L601.731 135.589 L601.731 140.508 L582.75 140.508 L582.75 153.239 L599.879 153.239 L599.879 158.158 L582.75 158.158 L582.75 178.789 L576.905 178.789 L576.905 135.589 Z" fill="#000000" fill-rule="nonzero" fill-opacity="1" /><path clip-path="url(#clip710)" d="M388.151 247.909 L512.341 247.909 L512.341 196.069 L388.151 196.069 L388.151 247.909  Z" fill="#e26f46" fill-rule="evenodd" fill-opacity="1"/>
<polyline clip-path="url(#clip710)" style="stroke:#000000; stroke-linecap:round; stroke-linejoin:round; stroke-width:2.5; stroke-opacity:1; fill:none" points="388.151,247.909 512.341,247.909 512.341,196.069 388.151,196.069 388.151,247.909 "/>
<path clip-path="url(#clip710)" d="M533.039 200.389 L541.749 200.389 L552.773 229.787 L563.855 200.389 L572.565 200.389 L572.565 243.589 L566.864 243.589 L566.864 205.655 L555.724 235.284 L549.851 235.284 L538.711 205.655 L538.711 243.589 L533.039 243.589 L533.039 200.389 Z" fill="#000000" fill-rule="nonzero" fill-opacity="1" /><path clip-path="url(#clip710)" d="M584.168 200.389 L608.994 200.389 L608.994 205.308 L590.012 205.308 L590.012 218.039 L607.142 218.039 L607.142 222.958 L590.012 222.958 L590.012 243.589 L584.168 243.589 L584.168 200.389 Z" fill="#000000" fill-rule="nonzero" fill-opacity="1" /><path clip-path="url(#clip710)" d="M630.811 198.624 Q626.934 205.279 625.053 211.789 Q623.172 218.299 623.172 224.983 Q623.172 231.667 625.053 238.236 Q626.962 244.775 630.811 251.401 L626.181 251.401 Q621.841 244.601 619.671 238.033 Q617.53 231.465 617.53 224.983 Q617.53 218.531 619.671 211.992 Q621.812 205.452 626.181 198.624 L630.811 198.624 Z" fill="#000000" fill-rule="nonzero" fill-opacity="1" /><path clip-path="url(#clip710)" d="M646.407 201.98 L646.407 211.181 L657.373 211.181 L657.373 215.319 L646.407 215.319 L646.407 232.912 Q646.407 236.876 647.477 238.004 Q648.577 239.133 651.904 239.133 L657.373 239.133 L657.373 243.589 L651.904 243.589 Q645.741 243.589 643.398 241.303 Q641.054 238.988 641.054 232.912 L641.054 215.319 L637.148 215.319 L637.148 211.181 L641.054 211.181 L641.054 201.98 L646.407 201.98 Z" fill="#000000" fill-rule="nonzero" fill-opacity="1" /><path clip-path="url(#clip710)" d="M683.154 216.158 Q682.257 215.637 681.187 215.406 Q680.145 215.145 678.872 215.145 Q674.358 215.145 671.927 218.097 Q669.526 221.019 669.526 226.517 L669.526 243.589 L664.173 243.589 L664.173 211.181 L669.526 211.181 L669.526 216.216 Q671.204 213.265 673.895 211.847 Q676.586 210.4 680.434 210.4 Q680.984 210.4 681.65 210.487 Q682.315 210.545 683.125 210.689 L683.154 216.158 Z" fill="#000000" fill-rule="nonzero" fill-opacity="1" /><path clip-path="url(#clip710)" d="M703.467 227.298 Q697.014 227.298 694.526 228.774 Q692.037 230.25 692.037 233.809 Q692.037 236.644 693.889 238.322 Q695.77 239.972 698.982 239.972 Q703.409 239.972 706.071 236.847 Q708.762 233.693 708.762 228.485 L708.762 227.298 L703.467 227.298 M714.086 225.099 L714.086 243.589 L708.762 243.589 L708.762 238.67 Q706.939 241.621 704.219 243.039 Q701.499 244.428 697.564 244.428 Q692.587 244.428 689.636 241.65 Q686.713 238.843 686.713 234.156 Q686.713 228.687 690.359 225.909 Q694.034 223.132 701.297 223.132 L708.762 223.132 L708.762 222.611 Q708.762 218.936 706.331 216.939 Q703.93 214.914 699.56 214.914 Q696.783 214.914 694.15 215.58 Q691.516 216.245 689.086 217.576 L689.086 212.657 Q692.008 211.529 694.757 210.979 Q697.506 210.4 700.11 210.4 Q707.141 210.4 710.614 214.046 Q714.086 217.692 714.086 225.099 Z" fill="#000000" fill-rule="nonzero" fill-opacity="1" /><path clip-path="url(#clip710)" d="M751.991 224.029 L751.991 243.589 L746.667 243.589 L746.667 224.202 Q746.667 219.601 744.873 217.316 Q743.079 215.03 739.491 215.03 Q735.179 215.03 732.691 217.779 Q730.203 220.527 730.203 225.273 L730.203 243.589 L724.85 243.589 L724.85 211.181 L730.203 211.181 L730.203 216.216 Q732.112 213.294 734.688 211.847 Q737.292 210.4 740.677 210.4 Q746.262 210.4 749.126 213.872 Q751.991 217.316 751.991 224.029 Z" fill="#000000" fill-rule="nonzero" fill-opacity="1" /><path clip-path="url(#clip710)" d="M783.269 212.136 L783.269 217.171 Q781.013 216.014 778.582 215.435 Q776.151 214.856 773.547 214.856 Q769.583 214.856 767.587 216.071 Q765.619 217.287 765.619 219.717 Q765.619 221.569 767.037 222.64 Q768.455 223.681 772.737 224.636 L774.56 225.041 Q780.231 226.257 782.604 228.485 Q785.006 230.684 785.006 234.648 Q785.006 239.162 781.418 241.795 Q777.859 244.428 771.609 244.428 Q769.005 244.428 766.169 243.907 Q763.362 243.415 760.237 242.402 L760.237 236.905 Q763.189 238.438 766.053 239.219 Q768.918 239.972 771.724 239.972 Q775.486 239.972 777.511 238.699 Q779.537 237.397 779.537 235.053 Q779.537 232.883 778.061 231.725 Q776.614 230.568 771.667 229.497 L769.815 229.063 Q764.867 228.022 762.668 225.88 Q760.469 223.71 760.469 219.949 Q760.469 215.377 763.709 212.889 Q766.95 210.4 772.911 210.4 Q775.862 210.4 778.466 210.834 Q781.07 211.268 783.269 212.136 Z" fill="#000000" fill-rule="nonzero" fill-opacity="1" /><path clip-path="url(#clip710)" d="M792.644 198.624 L797.274 198.624 Q801.614 205.452 803.755 211.992 Q805.926 218.531 805.926 224.983 Q805.926 231.465 803.755 238.033 Q801.614 244.601 797.274 251.401 L792.644 251.401 Q796.493 244.775 798.374 238.236 Q800.283 231.667 800.283 224.983 Q800.283 218.299 798.374 211.789 Q796.493 205.279 792.644 198.624 Z" fill="#000000" fill-rule="nonzero" fill-opacity="1" /><path clip-path="url(#clip710)" d="M388.151 312.709 L512.341 312.709 L512.341 260.869 L388.151 260.869 L388.151 312.709  Z" fill="#3da44d" fill-rule="evenodd" fill-opacity="1"/>
<polyline clip-path="url(#clip710)" style="stroke:#000000; stroke-linecap:round; stroke-linejoin:round; stroke-width:2.5; stroke-opacity:1; fill:none" points="388.151,312.709 512.341,312.709 512.341,260.869 388.151,260.869 388.151,312.709 "/>
<path clip-path="url(#clip710)" d="M533.039 265.189 L541.749 265.189 L552.773 294.587 L563.855 265.189 L572.565 265.189 L572.565 308.389 L566.864 308.389 L566.864 270.455 L555.724 300.084 L549.851 300.084 L538.711 270.455 L538.711 308.389 L533.039 308.389 L533.039 265.189 Z" fill="#000000" fill-rule="nonzero" fill-opacity="1" /><path clip-path="url(#clip710)" d="M584.168 265.189 L608.994 265.189 L608.994 270.108 L590.012 270.108 L590.012 282.839 L607.142 282.839 L607.142 287.758 L590.012 287.758 L590.012 308.389 L584.168 308.389 L584.168 265.189 Z" fill="#000000" fill-rule="nonzero" fill-opacity="1" /><path clip-path="url(#clip710)" d="M630.811 263.424 Q626.934 270.079 625.053 276.589 Q623.172 283.099 623.172 289.783 Q623.172 296.467 625.053 303.036 Q626.962 309.575 630.811 316.201 L626.181 316.201 Q621.841 309.401 619.671 302.833 Q617.53 296.265 617.53 289.783 Q617.53 283.331 619.671 276.792 Q621.812 270.252 626.181 263.424 L630.811 263.424 Z" fill="#000000" fill-rule="nonzero" fill-opacity="1" /><path clip-path="url(#clip710)" d="M653.698 279.714 Q649.416 279.714 646.928 283.07 Q644.439 286.398 644.439 292.214 Q644.439 298.03 646.899 301.386 Q649.387 304.714 653.698 304.714 Q657.952 304.714 660.44 301.357 Q662.929 298.001 662.929 292.214 Q662.929 286.456 660.44 283.099 Q657.952 279.714 653.698 279.714 M653.698 275.2 Q660.643 275.2 664.607 279.714 Q668.571 284.228 668.571 292.214 Q668.571 300.171 664.607 304.714 Q660.643 309.228 653.698 309.228 Q646.725 309.228 642.761 304.714 Q638.826 300.171 638.826 292.214 Q638.826 284.228 642.761 279.714 Q646.725 275.2 653.698 275.2 Z" fill="#000000" fill-rule="nonzero" fill-opacity="1" /><path clip-path="url(#clip710)" d="M696.175 280.958 Q695.278 280.437 694.207 280.206 Q693.166 279.945 691.893 279.945 Q687.379 279.945 684.948 282.897 Q682.547 285.819 682.547 291.317 L682.547 308.389 L677.194 308.389 L677.194 275.981 L682.547 275.981 L682.547 281.016 Q684.225 278.065 686.916 276.647 Q689.607 275.2 693.455 275.2 Q694.005 275.2 694.67 275.287 Q695.336 275.345 696.146 275.489 L696.175 280.958 Z" fill="#000000" fill-rule="nonzero" fill-opacity="1" /><path clip-path="url(#clip710)" d="M701.76 275.981 L707.084 275.981 L707.084 308.389 L701.76 308.389 L701.76 275.981 M701.76 263.366 L707.084 263.366 L707.084 270.108 L701.76 270.108 L701.76 263.366 Z" fill="#000000" fill-rule="nonzero" fill-opacity="1" /><path clip-path="url(#clip710)" d="M739.549 291.809 Q739.549 286.022 737.147 282.839 Q734.774 279.656 730.463 279.656 Q726.181 279.656 723.779 282.839 Q721.406 286.022 721.406 291.809 Q721.406 297.567 723.779 300.75 Q726.181 303.933 730.463 303.933 Q734.774 303.933 737.147 300.75 Q739.549 297.567 739.549 291.809 M744.873 304.367 Q744.873 312.642 741.198 316.664 Q737.523 320.715 729.942 320.715 Q727.136 320.715 724.647 320.281 Q722.159 319.876 719.815 319.008 L719.815 313.828 Q722.159 315.102 724.445 315.709 Q726.73 316.317 729.103 316.317 Q734.34 316.317 736.944 313.568 Q739.549 310.848 739.549 305.322 L739.549 302.688 Q737.899 305.553 735.324 306.971 Q732.749 308.389 729.161 308.389 Q723.2 308.389 719.555 303.846 Q715.909 299.303 715.909 291.809 Q715.909 284.286 719.555 279.743 Q723.2 275.2 729.161 275.2 Q732.749 275.2 735.324 276.618 Q737.899 278.036 739.549 280.9 L739.549 275.981 L744.873 275.981 L744.873 304.367 Z" fill="#000000" fill-rule="nonzero" fill-opacity="1" /><path clip-path="url(#clip710)" d="M755.839 275.981 L761.163 275.981 L761.163 308.389 L755.839 308.389 L755.839 275.981 M755.839 263.366 L761.163 263.366 L761.163 270.108 L755.839 270.108 L755.839 263.366 Z" fill="#000000" fill-rule="nonzero" fill-opacity="1" /><path clip-path="url(#clip710)" d="M799.242 288.829 L799.242 308.389 L793.918 308.389 L793.918 289.002 Q793.918 284.401 792.124 282.116 Q790.33 279.83 786.742 279.83 Q782.43 279.83 779.942 282.579 Q777.454 285.327 777.454 290.073 L777.454 308.389 L772.101 308.389 L772.101 275.981 L777.454 275.981 L777.454 281.016 Q779.363 278.094 781.938 276.647 Q784.543 275.2 787.928 275.2 Q793.512 275.2 796.377 278.672 Q799.242 282.116 799.242 288.829 Z" fill="#000000" fill-rule="nonzero" fill-opacity="1" /><path clip-path="url(#clip710)" d="M809.022 263.424 L813.651 263.424 Q817.992 270.252 820.133 276.792 Q822.303 283.331 822.303 289.783 Q822.303 296.265 820.133 302.833 Q817.992 309.401 813.651 316.201 L809.022 316.201 Q812.87 309.575 814.751 303.036 Q816.661 296.467 816.661 289.783 Q816.661 283.099 814.751 276.589 Q812.87 270.079 809.022 263.424 Z" fill="#000000" fill-rule="nonzero" fill-opacity="1" /><path clip-path="url(#clip710)" d="M388.151 377.509 L512.341 377.509 L512.341 325.669 L388.151 325.669 L388.151 377.509  Z" fill="#c271d2" fill-rule="evenodd" fill-opacity="1"/>
<polyline clip-path="url(#clip710)" style="stroke:#000000; stroke-linecap:round; stroke-linejoin:round; stroke-width:2.5; stroke-opacity:1; fill:none" points="388.151,377.509 512.341,377.509 512.341,325.669 388.151,325.669 388.151,377.509 "/>
<path clip-path="url(#clip710)" d="M541.922 329.989 L547.767 329.989 L547.767 370.179 Q547.767 377.992 544.787 381.522 Q541.836 385.052 535.267 385.052 L533.039 385.052 L533.039 380.133 L534.862 380.133 Q538.74 380.133 540.331 377.963 Q541.922 375.793 541.922 370.179 L541.922 329.989 Z" fill="#000000" fill-rule="nonzero" fill-opacity="1" /><path clip-path="url(#clip710)" d="M555.551 329.989 L561.454 329.989 L570.539 366.505 L579.596 329.989 L586.164 329.989 L595.25 366.505 L604.306 329.989 L610.238 329.989 L599.387 373.189 L592.038 373.189 L582.923 335.689 L573.722 373.189 L566.372 373.189 L555.551 329.989 Z" fill="#000000" fill-rule="nonzero" fill-opacity="1" /><polyline clip-path="url(#clip710)" style="stroke:#000000; stroke-linecap:round; stroke-linejoin:round; stroke-width:4; stroke-opacity:1; fill:none" points="2168.2,1401.58 2168.2,47.2441 "/>
<polyline clip-path="url(#clip710)" style="stroke:#000000; stroke-linecap:round; stroke-linejoin:round; stroke-width:4; stroke-opacity:1; fill:none" points="305.358,1401.58 305.358,47.2441 "/>
<polyline clip-path="url(#clip710)" style="stroke:#000000; stroke-linecap:round; stroke-linejoin:round; stroke-width:4; stroke-opacity:1; fill:none" points="2168.2,993.884 2149.31,993.884 "/>
<polyline clip-path="url(#clip710)" style="stroke:#000000; stroke-linecap:round; stroke-linejoin:round; stroke-width:4; stroke-opacity:1; fill:none" points="2168.2,586.188 2149.31,586.188 "/>
<polyline clip-path="url(#clip710)" style="stroke:#000000; stroke-linecap:round; stroke-linejoin:round; stroke-width:4; stroke-opacity:1; fill:none" points="2168.2,178.493 2149.31,178.493 "/>
<polyline clip-path="url(#clip710)" style="stroke:#000000; stroke-linecap:round; stroke-linejoin:round; stroke-width:4; stroke-opacity:1; fill:none" points="305.358,993.884 324.256,993.884 "/>
<polyline clip-path="url(#clip710)" style="stroke:#000000; stroke-linecap:round; stroke-linejoin:round; stroke-width:4; stroke-opacity:1; fill:none" points="305.358,586.188 324.256,586.188 "/>
<polyline clip-path="url(#clip710)" style="stroke:#000000; stroke-linecap:round; stroke-linejoin:round; stroke-width:4; stroke-opacity:1; fill:none" points="305.358,178.493 324.256,178.493 "/>
<path clip-path="url(#clip710)" d="M2205.04 1010.57 L2214.59 1010.57 L2214.59 977.608 L2204.2 979.692 L2204.2 974.367 L2214.53 972.284 L2220.38 972.284 L2220.38 1010.57 L2229.93 1010.57 L2229.93 1015.48 L2205.04 1015.48 L2205.04 1010.57 Z" fill="#000000" fill-rule="nonzero" fill-opacity="1" /><path clip-path="url(#clip710)" d="M2254.23 976.133 Q2249.72 976.133 2247.43 980.589 Q2245.18 985.016 2245.18 993.928 Q2245.18 1002.81 2247.43 1007.27 Q2249.72 1011.69 2254.23 1011.69 Q2258.78 1011.69 2261.03 1007.27 Q2263.32 1002.81 2263.32 993.928 Q2263.32 985.016 2261.03 980.589 Q2258.78 976.133 2254.23 976.133 M2254.23 971.503 Q2261.5 971.503 2265.31 977.261 Q2269.16 982.99 2269.16 993.928 Q2269.16 1004.84 2265.31 1010.59 Q2261.5 1016.32 2254.23 1016.32 Q2246.97 1016.32 2243.12 1010.59 Q2239.3 1004.84 2239.3 993.928 Q2239.3 982.99 2243.12 977.261 Q2246.97 971.503 2254.23 971.503 Z" fill="#000000" fill-rule="nonzero" fill-opacity="1" /><path clip-path="url(#clip710)" d="M2211.24 602.87 L2231.63 602.87 L2231.63 607.788 L2204.2 607.788 L2204.2 602.87 Q2207.53 599.426 2213.26 593.639 Q2219.02 587.823 2220.49 586.145 Q2223.3 582.991 2224.4 580.821 Q2225.53 578.622 2225.53 576.51 Q2225.53 573.066 2223.1 570.896 Q2220.7 568.726 2216.82 568.726 Q2214.07 568.726 2211 569.681 Q2207.97 570.636 2204.49 572.575 L2204.49 566.672 Q2208.02 565.254 2211.09 564.531 Q2214.16 563.807 2216.7 563.807 Q2223.42 563.807 2227.41 567.164 Q2231.4 570.52 2231.4 576.134 Q2231.4 578.796 2230.39 581.197 Q2229.41 583.57 2226.77 586.811 Q2226.05 587.65 2222.17 591.672 Q2218.3 595.665 2211.24 602.87 Z" fill="#000000" fill-rule="nonzero" fill-opacity="1" /><path clip-path="url(#clip710)" d="M2256.4 568.437 Q2251.89 568.437 2249.6 572.893 Q2247.35 577.32 2247.35 586.232 Q2247.35 595.115 2249.6 599.571 Q2251.89 603.998 2256.4 603.998 Q2260.95 603.998 2263.2 599.571 Q2265.49 595.115 2265.49 586.232 Q2265.49 577.32 2263.2 572.893 Q2260.95 568.437 2256.4 568.437 M2256.4 563.807 Q2263.67 563.807 2267.48 569.565 Q2271.33 575.294 2271.33 586.232 Q2271.33 597.14 2267.48 602.898 Q2263.67 608.628 2256.4 608.628 Q2249.14 608.628 2245.29 602.898 Q2241.47 597.14 2241.47 586.232 Q2241.47 575.294 2245.29 569.565 Q2249.14 563.807 2256.4 563.807 Z" fill="#000000" fill-rule="nonzero" fill-opacity="1" /><path clip-path="url(#clip710)" d="M2223.71 161.985 L2208.95 185.047 L2223.71 185.047 L2223.71 161.985 M2222.17 156.893 L2229.52 156.893 L2229.52 185.047 L2235.69 185.047 L2235.69 189.908 L2229.52 189.908 L2229.52 200.093 L2223.71 200.093 L2223.71 189.908 L2204.2 189.908 L2204.2 184.265 L2222.17 156.893 Z" fill="#000000" fill-rule="nonzero" fill-opacity="1" /><path clip-path="url(#clip710)" d="M2257.85 160.741 Q2253.34 160.741 2251.05 165.197 Q2248.79 169.624 2248.79 178.536 Q2248.79 187.419 2251.05 191.875 Q2253.34 196.302 2257.85 196.302 Q2262.39 196.302 2264.65 191.875 Q2266.93 187.419 2266.93 178.536 Q2266.93 169.624 2264.65 165.197 Q2262.39 160.741 2257.85 160.741 M2257.85 156.112 Q2265.11 156.112 2268.93 161.87 Q2272.78 167.599 2272.78 178.536 Q2272.78 189.445 2268.93 195.203 Q2265.11 200.932 2257.85 200.932 Q2250.59 200.932 2246.74 195.203 Q2242.92 189.445 2242.92 178.536 Q2242.92 167.599 2246.74 161.87 Q2250.59 156.112 2257.85 156.112 Z" fill="#000000" fill-rule="nonzero" fill-opacity="1" /><path clip-path="url(#clip710)" d="M2337.35 694.669 Q2344.12 694.669 2350.76 697.579 Q2357.36 700.448 2362.36 705.121 Q2367.32 709.753 2370.39 716.024 Q2373.47 722.296 2373.47 728.69 L2373.47 756.481 Q2373.47 757.464 2373.43 757.874 Q2373.38 758.243 2373.18 758.53 Q2372.93 758.817 2372.44 758.817 Q2371.66 758.817 2371.33 758.489 Q2370.97 758.161 2370.92 757.792 Q2370.88 757.423 2370.88 756.481 Q2370.88 754.431 2370.76 753.202 Q2370.64 751.972 2370.47 751.193 Q2370.27 750.373 2369.7 749.963 Q2369.12 749.513 2368.63 749.308 Q2368.1 749.103 2366.91 748.816 L2321.82 737.585 Q2320.47 737.257 2320.26 737.257 Q2319.57 737.257 2319.32 737.667 Q2319.03 738.036 2318.91 739.101 Q2318.75 741.151 2318.75 742.708 Q2318.75 743.733 2318.7 744.143 Q2318.66 744.512 2318.46 744.84 Q2318.21 745.127 2317.72 745.127 Q2316.94 745.127 2316.61 744.799 Q2316.25 744.43 2316.2 744.02 Q2316.12 743.61 2316.12 742.626 L2316.12 714.426 Q2316.12 708.318 2318.99 703.768 Q2321.82 699.219 2326.62 696.964 Q2331.37 694.669 2337.35 694.669 M2334.28 702.006 Q2326.45 702.006 2322.6 706.269 Q2318.75 710.491 2318.75 717.172 L2318.75 726.149 Q2318.75 728.813 2319.24 729.469 Q2319.69 730.125 2321.94 730.698 L2368.01 742.216 Q2369.53 742.626 2369.94 742.626 Q2370.39 742.626 2370.56 742.421 Q2370.68 742.175 2370.76 741.52 Q2370.88 740.782 2370.88 739.675 L2370.88 730.207 Q2370.88 726.559 2369.9 723.238 Q2368.88 719.877 2367.28 717.459 Q2365.64 715.041 2364.24 713.483 Q2362.81 711.925 2361.37 710.819 Q2358.14 708.318 2353.91 706.474 Q2349.69 704.588 2345.84 703.727 Q2341.95 702.826 2339.08 702.416 Q2336.17 702.006 2334.28 702.006 Z" fill="#000000" fill-rule="nonzero" fill-opacity="1" /><polyline clip-path="url(#clip712)" style="stroke:#009af9; stroke-linecap:round; stroke-linejoin:round; stroke-width:6; stroke-opacity:1; fill:none" points="480.259,717.437 510.52,717.437 540.78,717.437 571.041,717.437 601.302,717.437 631.563,717.437 661.824,717.437 692.085,717.437 722.346,717.437 752.607,717.437 782.868,681.779 813.128,681.779 843.389,530.129 873.65,557.491 903.911,503.983 934.172,503.983 964.433,347.702 994.694,328.415 1024.95,431.871 1055.22,347.702 1085.48,328.415 1115.74,240.464 1146,135.955 1176.26,240.464 1206.52,224.348 1236.78,291.642 1267.04,309.741 1297.3,12.9715 1327.56,431.871 1357.82,367.642 1388.09,388.282 1418.35,291.642 1448.61,478.95 1478.87,530.129 1509.13,681.779 1539.39,586.188 1569.65,431.871 1599.91,557.491 1630.17,616.358 1660.43,616.358 1690.69,717.437 1720.96,648.159 1751.22,717.437 1781.48,586.188 1811.74,648.159 1842,648.159 1872.26,717.437 1902.52,616.358 1932.78,717.437 1963.04,717.437 1993.3,681.779 "/>
<polyline clip-path="url(#clip712)" style="stroke:#e26f46; stroke-linecap:round; stroke-linejoin:round; stroke-width:6; stroke-opacity:1; fill:none" points="480.259,717.437 510.52,755.397 540.78,717.437 571.041,717.437 601.302,717.437 631.563,717.437 661.824,717.437 692.085,717.437 722.346,717.437 752.607,717.437 782.868,557.491 813.128,648.159 843.389,586.188 873.65,557.491 903.911,503.983 934.172,478.95 964.433,454.94 994.694,409.673 1024.95,409.673 1055.22,454.94 1085.48,409.673 1115.74,309.741 1146,122.433 1176.26,149.795 1206.52,12.9715 1236.78,409.673 1267.04,291.642 1297.3,503.983 1327.56,257.033 1357.82,409.673 1388.09,274.083 1418.35,478.95 1448.61,328.415 1478.87,193.384 1509.13,681.779 1539.39,409.673 1569.65,454.94 1599.91,717.437 1630.17,717.437 1660.43,681.779 1690.69,530.129 1720.96,717.437 1751.22,193.384 1781.48,586.188 1811.74,717.437 1842,717.437 1872.26,717.437 1902.52,717.437 1932.78,717.437 1963.04,717.437 1993.3,717.437 "/>
<polyline clip-path="url(#clip712)" style="stroke:#3da44d; stroke-linecap:round; stroke-linejoin:round; stroke-width:6; stroke-opacity:1; fill:none" points="480.259,717.437 510.52,717.437 540.78,717.437 571.041,717.437 601.302,717.437 631.563,717.437 661.824,717.437 692.085,717.437 722.346,717.437 752.607,717.437 782.868,616.358 813.128,530.129 843.389,557.491 873.65,557.491 903.911,431.871 934.172,409.673 964.433,478.95 994.694,409.673 1024.95,328.415 1055.22,347.702 1085.48,309.741 1115.74,328.415 1146,328.415 1176.26,257.033 1206.52,240.464 1236.78,163.969 1267.04,367.642 1297.3,309.741 1327.56,431.871 1357.82,557.491 1388.09,309.741 1418.35,163.969 1448.61,503.983 1478.87,503.983 1509.13,503.983 1539.39,347.702 1569.65,503.983 1599.91,557.491 1630.17,616.358 1660.43,717.437 1690.69,681.779 1720.96,717.437 1751.22,717.437 1781.48,717.437 1811.74,367.642 1842,454.94 1872.26,717.437 1902.52,717.437 1932.78,717.437 1963.04,717.437 1993.3,717.437 "/>
<polyline clip-path="url(#clip712)" style="stroke:#c271d2; stroke-linecap:round; stroke-linejoin:round; stroke-width:6; stroke-opacity:1; fill:none" points="480.259,717.437 510.52,717.437 540.78,717.437 571.041,717.437 601.302,717.437 631.563,717.437 661.824,717.437 692.085,717.437 722.346,681.779 752.607,717.437 782.868,717.437 813.128,586.188 843.389,557.491 873.65,503.983 903.911,586.188 934.172,454.94 964.433,431.871 994.694,388.282 1024.95,367.642 1055.22,274.083 1085.48,178.493 1115.74,367.642 1146,208.663 1176.26,208.663 1206.52,163.969 1236.78,328.415 1267.04,367.642 1297.3,291.642 1327.56,309.741 1357.82,454.94 1388.09,503.983 1418.35,530.129 1448.61,503.983 1478.87,681.779 1509.13,557.491 1539.39,454.94 1569.65,717.437 1599.91,530.129 1630.17,648.159 1660.43,717.437 1690.69,586.188 1720.96,586.188 1751.22,586.188 1781.48,717.437 1811.74,557.491 1842,717.437 1872.26,717.437 1902.52,717.437 1932.78,717.437 1963.04,717.437 1993.3,717.437 "/>
<path clip-path="url(#clip710)" d="M1630.56 416.389 L2106.11 416.389 L2106.11 92.3886 L1630.56 92.3886  Z" fill="#ffffff" fill-rule="evenodd" fill-opacity="1"/>
<polyline clip-path="url(#clip710)" style="stroke:#000000; stroke-linecap:round; stroke-linejoin:round; stroke-width:4; stroke-opacity:1; fill:none" points="1630.56,416.389 2106.11,416.389 2106.11,92.3886 1630.56,92.3886 1630.56,416.389 "/>
<polyline clip-path="url(#clip710)" style="stroke:#009af9; stroke-linecap:round; stroke-linejoin:round; stroke-width:7.5; stroke-opacity:1; fill:none" points="1651.26,157.189 1775.45,157.189 "/>
<path clip-path="url(#clip710)" d="M1830.98 138.916 L1830.98 145.079 Q1828.03 142.33 1824.68 140.971 Q1821.35 139.611 1817.59 139.611 Q1810.18 139.611 1806.25 144.153 Q1802.31 148.667 1802.31 157.232 Q1802.31 165.768 1806.25 170.311 Q1810.18 174.825 1817.59 174.825 Q1821.35 174.825 1824.68 173.465 Q1828.03 172.105 1830.98 169.356 L1830.98 175.461 Q1827.92 177.544 1824.47 178.586 Q1821.06 179.628 1817.24 179.628 Q1807.43 179.628 1801.79 173.638 Q1796.15 167.62 1796.15 157.232 Q1796.15 146.815 1801.79 140.826 Q1807.43 134.807 1817.24 134.807 Q1821.12 134.807 1824.53 135.849 Q1827.98 136.862 1830.98 138.916 Z" fill="#000000" fill-rule="nonzero" fill-opacity="1" /><path clip-path="url(#clip710)" d="M1840.01 135.589 L1864.84 135.589 L1864.84 140.508 L1845.86 140.508 L1845.86 153.239 L1862.99 153.239 L1862.99 158.158 L1845.86 158.158 L1845.86 178.789 L1840.01 178.789 L1840.01 135.589 Z" fill="#000000" fill-rule="nonzero" fill-opacity="1" /><polyline clip-path="url(#clip710)" style="stroke:#e26f46; stroke-linecap:round; stroke-linejoin:round; stroke-width:7.5; stroke-opacity:1; fill:none" points="1651.26,221.989 1775.45,221.989 "/>
<path clip-path="url(#clip710)" d="M1796.15 200.389 L1804.86 200.389 L1815.88 229.787 L1826.96 200.389 L1835.67 200.389 L1835.67 243.589 L1829.97 243.589 L1829.97 205.655 L1818.83 235.284 L1812.96 235.284 L1801.82 205.655 L1801.82 243.589 L1796.15 243.589 L1796.15 200.389 Z" fill="#000000" fill-rule="nonzero" fill-opacity="1" /><path clip-path="url(#clip710)" d="M1847.28 200.389 L1872.1 200.389 L1872.1 205.308 L1853.12 205.308 L1853.12 218.039 L1870.25 218.039 L1870.25 222.958 L1853.12 222.958 L1853.12 243.589 L1847.28 243.589 L1847.28 200.389 Z" fill="#000000" fill-rule="nonzero" fill-opacity="1" /><path clip-path="url(#clip710)" d="M1893.92 198.624 Q1890.04 205.279 1888.16 211.789 Q1886.28 218.299 1886.28 224.983 Q1886.28 231.667 1888.16 238.236 Q1890.07 244.775 1893.92 251.401 L1889.29 251.401 Q1884.95 244.601 1882.78 238.033 Q1880.64 231.465 1880.64 224.983 Q1880.64 218.531 1882.78 211.992 Q1884.92 205.452 1889.29 198.624 L1893.92 198.624 Z" fill="#000000" fill-rule="nonzero" fill-opacity="1" /><path clip-path="url(#clip710)" d="M1909.51 201.98 L1909.51 211.181 L1920.48 211.181 L1920.48 215.319 L1909.51 215.319 L1909.51 232.912 Q1909.51 236.876 1910.59 238.004 Q1911.68 239.133 1915.01 239.133 L1920.48 239.133 L1920.48 243.589 L1915.01 243.589 Q1908.85 243.589 1906.51 241.303 Q1904.16 238.988 1904.16 232.912 L1904.16 215.319 L1900.26 215.319 L1900.26 211.181 L1904.16 211.181 L1904.16 201.98 L1909.51 201.98 Z" fill="#000000" fill-rule="nonzero" fill-opacity="1" /><path clip-path="url(#clip710)" d="M1946.26 216.158 Q1945.37 215.637 1944.29 215.406 Q1943.25 215.145 1941.98 215.145 Q1937.47 215.145 1935.04 218.097 Q1932.63 221.019 1932.63 226.517 L1932.63 243.589 L1927.28 243.589 L1927.28 211.181 L1932.63 211.181 L1932.63 216.216 Q1934.31 213.265 1937 211.847 Q1939.69 210.4 1943.54 210.4 Q1944.09 210.4 1944.76 210.487 Q1945.42 210.545 1946.23 210.689 L1946.26 216.158 Z" fill="#000000" fill-rule="nonzero" fill-opacity="1" /><path clip-path="url(#clip710)" d="M1966.57 227.298 Q1960.12 227.298 1957.63 228.774 Q1955.15 230.25 1955.15 233.809 Q1955.15 236.644 1957 238.322 Q1958.88 239.972 1962.09 239.972 Q1966.52 239.972 1969.18 236.847 Q1971.87 233.693 1971.87 228.485 L1971.87 227.298 L1966.57 227.298 M1977.19 225.099 L1977.19 243.589 L1971.87 243.589 L1971.87 238.67 Q1970.05 241.621 1967.33 243.039 Q1964.61 244.428 1960.67 244.428 Q1955.69 244.428 1952.74 241.65 Q1949.82 238.843 1949.82 234.156 Q1949.82 228.687 1953.47 225.909 Q1957.14 223.132 1964.4 223.132 L1971.87 223.132 L1971.87 222.611 Q1971.87 218.936 1969.44 216.939 Q1967.04 214.914 1962.67 214.914 Q1959.89 214.914 1957.26 215.58 Q1954.62 216.245 1952.19 217.576 L1952.19 212.657 Q1955.12 211.529 1957.87 210.979 Q1960.61 210.4 1963.22 210.4 Q1970.25 210.4 1973.72 214.046 Q1977.19 217.692 1977.19 225.099 Z" fill="#000000" fill-rule="nonzero" fill-opacity="1" /><path clip-path="url(#clip710)" d="M2015.1 224.029 L2015.1 243.589 L2009.77 243.589 L2009.77 224.202 Q2009.77 219.601 2007.98 217.316 Q2006.19 215.03 2002.6 215.03 Q1998.29 215.03 1995.8 217.779 Q1993.31 220.527 1993.31 225.273 L1993.31 243.589 L1987.96 243.589 L1987.96 211.181 L1993.31 211.181 L1993.31 216.216 Q1995.22 213.294 1997.8 211.847 Q2000.4 210.4 2003.78 210.4 Q2009.37 210.4 2012.23 213.872 Q2015.1 217.316 2015.1 224.029 Z" fill="#000000" fill-rule="nonzero" fill-opacity="1" /><path clip-path="url(#clip710)" d="M2046.38 212.136 L2046.38 217.171 Q2044.12 216.014 2041.69 215.435 Q2039.26 214.856 2036.66 214.856 Q2032.69 214.856 2030.69 216.071 Q2028.73 217.287 2028.73 219.717 Q2028.73 221.569 2030.14 222.64 Q2031.56 223.681 2035.84 224.636 L2037.67 225.041 Q2043.34 226.257 2045.71 228.485 Q2048.11 230.684 2048.11 234.648 Q2048.11 239.162 2044.53 241.795 Q2040.97 244.428 2034.72 244.428 Q2032.11 244.428 2029.28 243.907 Q2026.47 243.415 2023.35 242.402 L2023.35 236.905 Q2026.3 238.438 2029.16 239.219 Q2032.03 239.972 2034.83 239.972 Q2038.59 239.972 2040.62 238.699 Q2042.64 237.397 2042.64 235.053 Q2042.64 232.883 2041.17 231.725 Q2039.72 230.568 2034.77 229.497 L2032.92 229.063 Q2027.97 228.022 2025.78 225.88 Q2023.58 223.71 2023.58 219.949 Q2023.58 215.377 2026.82 212.889 Q2030.06 210.4 2036.02 210.4 Q2038.97 210.4 2041.57 210.834 Q2044.18 211.268 2046.38 212.136 Z" fill="#000000" fill-rule="nonzero" fill-opacity="1" /><path clip-path="url(#clip710)" d="M2055.75 198.624 L2060.38 198.624 Q2064.72 205.452 2066.86 211.992 Q2069.03 218.531 2069.03 224.983 Q2069.03 231.465 2066.86 238.033 Q2064.72 244.601 2060.38 251.401 L2055.75 251.401 Q2059.6 244.775 2061.48 238.236 Q2063.39 231.667 2063.39 224.983 Q2063.39 218.299 2061.48 211.789 Q2059.6 205.279 2055.75 198.624 Z" fill="#000000" fill-rule="nonzero" fill-opacity="1" /><polyline clip-path="url(#clip710)" style="stroke:#3da44d; stroke-linecap:round; stroke-linejoin:round; stroke-width:7.5; stroke-opacity:1; fill:none" points="1651.26,286.789 1775.45,286.789 "/>
<path clip-path="url(#clip710)" d="M1796.15 265.189 L1804.86 265.189 L1815.88 294.587 L1826.96 265.189 L1835.67 265.189 L1835.67 308.389 L1829.97 308.389 L1829.97 270.455 L1818.83 300.084 L1812.96 300.084 L1801.82 270.455 L1801.82 308.389 L1796.15 308.389 L1796.15 265.189 Z" fill="#000000" fill-rule="nonzero" fill-opacity="1" /><path clip-path="url(#clip710)" d="M1847.28 265.189 L1872.1 265.189 L1872.1 270.108 L1853.12 270.108 L1853.12 282.839 L1870.25 282.839 L1870.25 287.758 L1853.12 287.758 L1853.12 308.389 L1847.28 308.389 L1847.28 265.189 Z" fill="#000000" fill-rule="nonzero" fill-opacity="1" /><path clip-path="url(#clip710)" d="M1893.92 263.424 Q1890.04 270.079 1888.16 276.589 Q1886.28 283.099 1886.28 289.783 Q1886.28 296.467 1888.16 303.036 Q1890.07 309.575 1893.92 316.201 L1889.29 316.201 Q1884.95 309.401 1882.78 302.833 Q1880.64 296.265 1880.64 289.783 Q1880.64 283.331 1882.78 276.792 Q1884.92 270.252 1889.29 263.424 L1893.92 263.424 Z" fill="#000000" fill-rule="nonzero" fill-opacity="1" /><path clip-path="url(#clip710)" d="M1916.81 279.714 Q1912.52 279.714 1910.04 283.07 Q1907.55 286.398 1907.55 292.214 Q1907.55 298.03 1910.01 301.386 Q1912.49 304.714 1916.81 304.714 Q1921.06 304.714 1923.55 301.357 Q1926.04 298.001 1926.04 292.214 Q1926.04 286.456 1923.55 283.099 Q1921.06 279.714 1916.81 279.714 M1916.81 275.2 Q1923.75 275.2 1927.71 279.714 Q1931.68 284.228 1931.68 292.214 Q1931.68 300.171 1927.71 304.714 Q1923.75 309.228 1916.81 309.228 Q1909.83 309.228 1905.87 304.714 Q1901.93 300.171 1901.93 292.214 Q1901.93 284.228 1905.87 279.714 Q1909.83 275.2 1916.81 275.2 Z" fill="#000000" fill-rule="nonzero" fill-opacity="1" /><path clip-path="url(#clip710)" d="M1959.28 280.958 Q1958.39 280.437 1957.32 280.206 Q1956.27 279.945 1955 279.945 Q1950.49 279.945 1948.06 282.897 Q1945.65 285.819 1945.65 291.317 L1945.65 308.389 L1940.3 308.389 L1940.3 275.981 L1945.65 275.981 L1945.65 281.016 Q1947.33 278.065 1950.02 276.647 Q1952.71 275.2 1956.56 275.2 Q1957.11 275.2 1957.78 275.287 Q1958.44 275.345 1959.25 275.489 L1959.28 280.958 Z" fill="#000000" fill-rule="nonzero" fill-opacity="1" /><path clip-path="url(#clip710)" d="M1964.87 275.981 L1970.19 275.981 L1970.19 308.389 L1964.87 308.389 L1964.87 275.981 M1964.87 263.366 L1970.19 263.366 L1970.19 270.108 L1964.87 270.108 L1964.87 263.366 Z" fill="#000000" fill-rule="nonzero" fill-opacity="1" /><path clip-path="url(#clip710)" d="M2002.66 291.809 Q2002.66 286.022 2000.25 282.839 Q1997.88 279.656 1993.57 279.656 Q1989.29 279.656 1986.89 282.839 Q1984.51 286.022 1984.51 291.809 Q1984.51 297.567 1986.89 300.75 Q1989.29 303.933 1993.57 303.933 Q1997.88 303.933 2000.25 300.75 Q2002.66 297.567 2002.66 291.809 M2007.98 304.367 Q2007.98 312.642 2004.31 316.664 Q2000.63 320.715 1993.05 320.715 Q1990.24 320.715 1987.75 320.281 Q1985.27 319.876 1982.92 319.008 L1982.92 313.828 Q1985.27 315.102 1987.55 315.709 Q1989.84 316.317 1992.21 316.317 Q1997.45 316.317 2000.05 313.568 Q2002.66 310.848 2002.66 305.322 L2002.66 302.688 Q2001.01 305.553 1998.43 306.971 Q1995.86 308.389 1992.27 308.389 Q1986.31 308.389 1982.66 303.846 Q1979.02 299.303 1979.02 291.809 Q1979.02 284.286 1982.66 279.743 Q1986.31 275.2 1992.27 275.2 Q1995.86 275.2 1998.43 276.618 Q2001.01 278.036 2002.66 280.9 L2002.66 275.981 L2007.98 275.981 L2007.98 304.367 Z" fill="#000000" fill-rule="nonzero" fill-opacity="1" /><path clip-path="url(#clip710)" d="M2018.95 275.981 L2024.27 275.981 L2024.27 308.389 L2018.95 308.389 L2018.95 275.981 M2018.95 263.366 L2024.27 263.366 L2024.27 270.108 L2018.95 270.108 L2018.95 263.366 Z" fill="#000000" fill-rule="nonzero" fill-opacity="1" /><path clip-path="url(#clip710)" d="M2062.35 288.829 L2062.35 308.389 L2057.03 308.389 L2057.03 289.002 Q2057.03 284.401 2055.23 282.116 Q2053.44 279.83 2049.85 279.83 Q2045.54 279.83 2043.05 282.579 Q2040.56 285.327 2040.56 290.073 L2040.56 308.389 L2035.21 308.389 L2035.21 275.981 L2040.56 275.981 L2040.56 281.016 Q2042.47 278.094 2045.05 276.647 Q2047.65 275.2 2051.04 275.2 Q2056.62 275.2 2059.48 278.672 Q2062.35 282.116 2062.35 288.829 Z" fill="#000000" fill-rule="nonzero" fill-opacity="1" /><path clip-path="url(#clip710)" d="M2072.13 263.424 L2076.76 263.424 Q2081.1 270.252 2083.24 276.792 Q2085.41 283.331 2085.41 289.783 Q2085.41 296.265 2083.24 302.833 Q2081.1 309.401 2076.76 316.201 L2072.13 316.201 Q2075.98 309.575 2077.86 303.036 Q2079.77 296.467 2079.77 289.783 Q2079.77 283.099 2077.86 276.589 Q2075.98 270.079 2072.13 263.424 Z" fill="#000000" fill-rule="nonzero" fill-opacity="1" /><polyline clip-path="url(#clip710)" style="stroke:#c271d2; stroke-linecap:round; stroke-linejoin:round; stroke-width:7.5; stroke-opacity:1; fill:none" points="1651.26,351.589 1775.45,351.589 "/>
<path clip-path="url(#clip710)" d="M1805.03 329.989 L1810.88 329.989 L1810.88 370.179 Q1810.88 377.992 1807.89 381.522 Q1804.94 385.052 1798.38 385.052 L1796.15 385.052 L1796.15 380.133 L1797.97 380.133 Q1801.85 380.133 1803.44 377.963 Q1805.03 375.793 1805.03 370.179 L1805.03 329.989 Z" fill="#000000" fill-rule="nonzero" fill-opacity="1" /><path clip-path="url(#clip710)" d="M1818.66 329.989 L1824.56 329.989 L1833.65 366.505 L1842.7 329.989 L1849.27 329.989 L1858.36 366.505 L1867.41 329.989 L1873.35 329.989 L1862.5 373.189 L1855.15 373.189 L1846.03 335.689 L1836.83 373.189 L1829.48 373.189 L1818.66 329.989 Z" fill="#000000" fill-rule="nonzero" fill-opacity="1" /></svg>
